<?xml version="1.0" encoding="UTF-8" standalone="no"?>
<!-- Created with Inkscape (http://www.inkscape.org/) -->
<svg
   xmlns:dc="http://purl.org/dc/elements/1.1/"
   xmlns:cc="http://creativecommons.org/ns#"
   xmlns:rdf="http://www.w3.org/1999/02/22-rdf-syntax-ns#"
   xmlns:svg="http://www.w3.org/2000/svg"
   xmlns="http://www.w3.org/2000/svg"
   xmlns:xlink="http://www.w3.org/1999/xlink"
   xmlns:sodipodi="http://sodipodi.sourceforge.net/DTD/sodipodi-0.dtd"
   xmlns:inkscape="http://www.inkscape.org/namespaces/inkscape"
   id="svg2"
   sodipodi:version="0.32"
   inkscape:version="0.46"
   width="3395.9395"
   height="827.63873"
   version="1.0"
   sodipodi:docname="dumux_logo.svg"
   inkscape:output_extension="org.inkscape.output.svg.inkscape"
   sodipodi:docbase="/temp/bernd/dune-mux-1.0/doc/logo">
  <metadata
     id="metadata7">
    <rdf:RDF>
      <cc:Work
         rdf:about="">
        <dc:format>image/svg+xml</dc:format>
        <dc:type
           rdf:resource="http://purl.org/dc/dcmitype/StillImage" />
      </cc:Work>
      <cc:Work
         rdf:about="">
        <dc:format>image/svg+xml</dc:format>
        <dc:type
           rdf:resource="http://purl.org/dc/dcmitype/StillImage" />
      </cc:Work>
    </rdf:RDF>
  </metadata>
  <defs
     id="defs5">
    <linearGradient
       id="linearGradient2411">
      <stop
         style="stop-color:#0c73cf;stop-opacity:1;"
         offset="0"
         id="stop2413" />
      <stop
         id="stop2415"
         offset="0.42408466"
         style="stop-color:#0c73cf;stop-opacity:1;" />
      <stop
         style="stop-color:#e19417;stop-opacity:1;"
         offset="0.47644299"
         id="stop2417" />
      <stop
         style="stop-color:#e19417;stop-opacity:1;"
         offset="1"
         id="stop2419" />
    </linearGradient>
    <linearGradient
       id="linearGradient3296">
      <stop
         id="stop3298"
         offset="0"
         style="stop-color:#0c73cf;stop-opacity:1;" />
      <stop
         style="stop-color:#0c73cf;stop-opacity:1;"
         offset="0.35694847"
         id="stop3300" />
      <stop
         id="stop3302"
         offset="0.56327248"
         style="stop-color:#e19417;stop-opacity:1;" />
      <stop
         id="stop3304"
         offset="1"
         style="stop-color:#e19417;stop-opacity:1;" />
    </linearGradient>
    <linearGradient
       id="linearGradient3162">
      <stop
         style="stop-color:#0c73cf;stop-opacity:1;"
         offset="0"
         id="stop3164" />
      <stop
         id="stop3178"
         offset="0.45442525"
         style="stop-color:#0c73cf;stop-opacity:1;" />
      <stop
         style="stop-color:#e19417;stop-opacity:1;"
         offset="0.59238893"
         id="stop3180" />
      <stop
         style="stop-color:#e19417;stop-opacity:1;"
         offset="1"
         id="stop3166" />
    </linearGradient>
    <inkscape:perspective
       sodipodi:type="inkscape:persp3d"
       inkscape:vp_x="0 : 526.18109 : 1"
       inkscape:vp_y="0 : 1000 : 0"
       inkscape:vp_z="744.09448 : 526.18109 : 1"
       inkscape:persp3d-origin="372.04724 : 350.78739 : 1"
       id="perspective9" />
    <linearGradient
       inkscape:collect="always"
       xlink:href="#linearGradient3296"
       id="linearGradient3294"
       gradientUnits="userSpaceOnUse"
       x1="5268.959"
       y1="-716.64313"
       x2="1864.9796"
       y2="-716.64313"
       gradientTransform="translate(4.3092067,-34.473654)" />
    <filter
       inkscape:collect="always"
       id="filter3748">
      <feGaussianBlur
         inkscape:collect="always"
         stdDeviation="20.697156"
         id="feGaussianBlur3750" />
    </filter>
    <filter
       inkscape:collect="always"
       id="filter3828">
      <feGaussianBlur
         inkscape:collect="always"
         stdDeviation="3.9824842"
         id="feGaussianBlur3830" />
    </filter>
    <linearGradient
       inkscape:collect="always"
       xlink:href="#linearGradient2411"
       id="linearGradient3850"
       gradientUnits="userSpaceOnUse"
       gradientTransform="translate(4.3092067,-34.473654)"
       x1="5268.959"
       y1="-716.64313"
       x2="1864.9796"
       y2="-716.64313" />
  </defs>
  <sodipodi:namedview
     inkscape:window-height="963"
     inkscape:window-width="1890"
     inkscape:pageshadow="2"
     inkscape:pageopacity="1"
     guidetolerance="10.0"
     gridtolerance="10.0"
     objecttolerance="10.0"
     borderopacity="1.0"
     bordercolor="#666666"
     pagecolor="#ffffff"
     id="base"
     showgrid="false"
     inkscape:zoom="0.3281842"
     inkscape:cx="1191.6877"
     inkscape:cy="771.63487"
     inkscape:window-x="0"
     inkscape:window-y="207"
     inkscape:current-layer="svg2"
     showborder="true"
     showguides="true"
     inkscape:guide-bbox="true"
     inkscape:snap-center="false"
     inkscape:snap-intersection-line-segments="false"
     inkscape:object-nodes="false"
     borderlayer="true">
    <inkscape:grid
       type="xygrid"
       id="grid3752"
       visible="true"
       enabled="true" />
  </sodipodi:namedview>
  <g
     id="g3846"
     transform="translate(-1871.4688,1155.7832)"
     inkscape:export-filename="/temp/lauser/DUMUX/dune-mux/doc/logo/dumux-logo-hires-whitebg.png"
     inkscape:export-xdpi="39.75"
     inkscape:export-ydpi="39.75">
    <path
       id="path3532"
       d="M 2989.4375,-1125.5904 C 2877.7878,-1110.4315 2775.4656,-1057.498 2682.0312,-996.93421 C 2577.7202,-920.67126 2509.9773,-808.13313 2440.5063,-701.79881 C 2366.3113,-594.40422 2289.1355,-484.65869 2181.6953,-407.78235 C 2121.8129,-367.77818 2046.4624,-355.81141 1976.0349,-367.08295 C 1941.5855,-369.96679 1902.3177,-375.22478 1871.4688,-358.90296 C 1879.1391,-343.1184 1899.0153,-354.05539 1912.2398,-351.33194 C 2011.6769,-341.39958 2117.6523,-343.79038 2207.8072,-391.93676 C 2315.6985,-451.5979 2395.7201,-549.24488 2465.3806,-648.74041 C 2535.2621,-750.8565 2585.9919,-868.79147 2680.5547,-951.89596 C 2753.1285,-1016.0899 2841.0374,-1061.2728 2933.0938,-1090.3404 C 2956.1324,-1072.7721 2960.6266,-1041.526 2979.5834,-1020.5883 C 3102.6921,-820.03892 3238.5505,-623.92747 3412.8496,-464.09035 C 3502.324,-387.60474 3614.3913,-329.83352 3734.1863,-328.15296 C 3829.0461,-327.44752 3919.6515,-370.74166 3989.5625,-432.84046 C 4023.2888,-454.04877 4068.1699,-445.83902 4098.2429,-421.9251 C 4142.7874,-393.79258 4183.333,-351.89316 4238.6693,-347.55069 C 4303.8329,-341.57089 4360.1305,-381.66754 4421.755,-394.69377 C 4497.6643,-406.30132 4561.9779,-350.96521 4635.9971,-346.91891 C 4695.6775,-341.53042 4753.5306,-360.90259 4812.5848,-365.50912 C 4855.7157,-370.45801 4899.5565,-368.63582 4941.9002,-358.98635 C 5044.4573,-344.16637 5151.3768,-329.15448 5252.8883,-358.11164 C 5259.1106,-359.69579 5268.9619,-371.13029 5258.5338,-373.705 C 5234.809,-372.54757 5211.4059,-367.38744 5187.5364,-368.51492 C 5076.8647,-365.97609 4968.3681,-398.75506 4857.6612,-393.2722 C 4786.9079,-385.95119 4714.5618,-361.77185 4643.8266,-382.36273 C 4583.2596,-400.23701 4523.0279,-432.80951 4457.9375,-422.46546 C 4396.6836,-416.0677 4344.597,-368.95269 4281.135,-376.22824 C 4221.1268,-385.11705 4183.1196,-439.32566 4128.9064,-461.45623 C 4083.1416,-483.00785 4029.8095,-471.57685 3985.9325,-450.97927 C 3944.0134,-431.96042 3908.9615,-401.58592 3870.4216,-377.09724 C 3838.5051,-358.16291 3800.3204,-350.42177 3763.6618,-356.6481 C 3631.77,-366.66483 3513.6511,-441.09703 3422.75,-533.49671 C 3302.3381,-653.65606 3203.5487,-793.13783 3109.4539,-934.23596 C 3068.7711,-997.02061 3031.8294,-1062.8348 2991.7564,-1125.5461 C 2990.9848,-1125.5815 2990.2104,-1125.661 2989.4375,-1125.5904 z"
       style="opacity:0.52610438;fill:#000000;fill-opacity:1;filter:url(#filter3748)" />
    <path
       id="path2388"
       d="M 2993.7467,-1155.7549 C 2882.097,-1140.596 2779.7748,-1087.6625 2686.3404,-1027.0987 C 2582.0294,-950.8357 2514.2865,-838.29757 2444.8155,-731.96325 C 2370.6205,-624.56866 2293.4447,-514.82313 2186.0045,-437.94679 C 2126.1221,-397.94262 2050.7716,-385.97585 1980.3441,-397.24739 C 1945.8947,-400.13123 1906.6269,-405.38922 1875.778,-389.0674 C 1883.4483,-373.28284 1903.3245,-384.21983 1916.549,-381.49638 C 2015.9861,-371.56402 2121.9615,-373.95482 2212.1164,-422.1012 C 2320.0077,-481.76234 2400.0293,-579.40932 2469.6898,-678.90485 C 2539.5713,-781.02094 2590.3011,-898.95591 2684.8639,-982.0604 C 2757.4377,-1046.2544 2845.3466,-1091.4373 2937.403,-1120.5049 C 2960.4416,-1102.9366 2964.9358,-1071.6905 2983.8926,-1050.7528 C 3107.0013,-850.20336 3242.8597,-654.09191 3417.1588,-494.25479 C 3506.6332,-417.76918 3618.7005,-359.99796 3738.4955,-358.3174 C 3833.3553,-357.61196 3923.9607,-400.9061 3993.8717,-463.0049 C 4027.598,-484.21321 4072.4791,-476.00346 4102.5521,-452.08954 C 4147.0966,-423.95702 4187.6422,-382.0576 4242.9785,-377.71513 C 4308.1421,-371.73533 4364.4397,-411.83198 4426.0642,-424.85821 C 4501.9735,-436.46576 4566.2871,-381.12965 4640.3063,-377.08335 C 4699.9867,-371.69486 4757.8398,-391.06703 4816.894,-395.67356 C 4860.0249,-400.62245 4903.8657,-398.80026 4946.2094,-389.15079 C 5048.7665,-374.33081 5155.686,-359.31892 5257.1975,-388.27608 C 5263.4198,-389.86023 5273.2711,-401.29473 5262.843,-403.86944 C 5239.1182,-402.71201 5215.7151,-397.55188 5191.8456,-398.67936 C 5081.1739,-396.14053 4972.6773,-428.9195 4861.9704,-423.43664 C 4791.2171,-416.11563 4718.871,-391.93629 4648.1358,-412.52717 C 4587.5688,-430.40145 4527.3371,-462.97395 4462.2467,-452.6299 C 4400.9928,-446.23214 4348.9062,-399.11713 4285.4442,-406.39268 C 4225.436,-415.28149 4187.4288,-469.4901 4133.2156,-491.62067 C 4087.4508,-513.17229 4034.1187,-501.74129 3990.2417,-481.14371 C 3948.3226,-462.12486 3913.2707,-431.75036 3874.7308,-407.26168 C 3842.8143,-388.32735 3804.6296,-380.58621 3767.971,-386.81254 C 3636.0792,-396.82927 3517.9603,-471.26147 3427.0592,-563.66115 C 3306.6473,-683.8205 3207.8579,-823.30227 3113.7631,-964.4004 C 3073.0803,-1027.1851 3036.1386,-1092.9993 2996.0656,-1155.7106 C 2995.294,-1155.746 2994.5196,-1155.8255 2993.7467,-1155.7549 z"
       style="opacity:1;fill:url(#linearGradient3850);fill-opacity:1" />
  </g>
  <g
     id="g3832"
     transform="translate(-1510.1297,991.05662)"
     inkscape:export-filename="/temp/lauser/DUMUX/dune-mux/doc/logo/dumux-logo-hires-whitebg.png"
     inkscape:export-xdpi="39.75"
     inkscape:export-ydpi="39.75">
    <g
       id="g3801">
      <path
         style="fill:#000000"
         d="M 3643.6875,-946.125 C 3643.6875,-850.45833 3643.6875,-754.79167 3643.6875,-659.125 C 3683.6301,-659.55644 3723.6996,-657.70319 3763.5124,-661.55144 C 3800.5117,-666.0325 3839.6868,-679.98869 3861.2841,-712.24123 C 3883.0785,-744.90442 3886.6112,-786.11952 3883.665,-824.32002 C 3880.7395,-859.44185 3867.6801,-896.34389 3837.9584,-917.53475 C 3802.2833,-943.0499 3756.4689,-945.96606 3714.0561,-946.04443 C 3690.6004,-946.18782 3667.1436,-946.10107 3643.6875,-946.125 z M 3682.6875,-914.3125 C 3708.8632,-913.60299 3735.1639,-914.6429 3761.2188,-911.78125 C 3789.2616,-907.46913 3818.3435,-893.55301 3830.9549,-866.70926 C 3844.3061,-838.28705 3845.3568,-805.57636 3841.7222,-774.84247 C 3838.2392,-746.45459 3823.6921,-717.68606 3797.106,-704.71966 C 3770.7743,-690.77571 3740.3735,-691.55658 3711.442,-691.29952 C 3701.8572,-691.17885 3692.2723,-691.05817 3682.6875,-690.9375 C 3682.6875,-765.39583 3682.6875,-839.85417 3682.6875,-914.3125 z "
         id="path3761" />
      <path
         style="fill:#000000"
         d="M 4000.0366,-654.52631 C 3979.3399,-657.51263 3960.5768,-671.11584 3952.0216,-690.30563 C 3939.4342,-715.96435 3942.5208,-745.36876 3941.7619,-773.03496 C 3941.6308,-806.72901 3941.7161,-840.42337 3941.6763,-874.11755 C 3952.6395,-872.65249 3969.4665,-877.07737 3976.6864,-871.85236 C 3976.9734,-823.74129 3975.9276,-775.58639 3977.8969,-727.50896 C 3979.8474,-709.12008 3991.2547,-689.54649 4010.7171,-685.98939 C 4035.4089,-679.74084 4064.7635,-689.4066 4077.2141,-712.53534 C 4086.5129,-727.51852 4086.4424,-745.62521 4086.1518,-762.62551 C 4086.5158,-799.78852 4086.5442,-836.95364 4086.7661,-874.11755 C 4097.8443,-872.99915 4113.3972,-876.35543 4121.6763,-872.43786 C 4121.6763,-801.33109 4121.6763,-730.22432 4121.6763,-659.11755 C 4110.6168,-660.38648 4094.5498,-656.56942 4086.6463,-661.04384 C 4085.976,-669.52365 4088.1225,-684.49997 4085.1709,-688.9173 C 4073.6311,-674.34271 4059.292,-660.70006 4040.5916,-656.42998 C 4027.4312,-653.03273 4013.4569,-652.41788 4000.0366,-654.52631 z "
         id="path3765" />
      <path
         style="fill:#000000"
         d="M 4589.0366,-654.52631 C 4568.3399,-657.51268 4549.5767,-671.11577 4541.0215,-690.30564 C 4528.4342,-715.9644 4531.521,-745.36877 4530.7618,-773.03496 C 4530.6306,-806.72901 4530.7161,-840.42337 4530.6763,-874.11755 C 4541.6395,-872.65249 4558.4665,-877.07737 4565.6863,-871.85236 C 4565.9731,-823.74129 4564.9275,-775.58639 4566.8969,-727.50896 C 4568.8474,-709.12008 4580.2546,-689.54653 4599.7171,-685.98939 C 4624.4088,-679.74087 4653.7635,-689.4066 4666.2141,-712.53533 C 4675.5127,-727.51856 4675.4422,-745.62522 4675.1518,-762.62551 C 4675.5159,-799.78852 4675.5442,-836.95364 4675.7661,-874.11755 C 4686.8443,-872.99915 4702.3972,-876.35543 4710.6763,-872.43786 C 4710.6763,-801.33109 4710.6763,-730.22432 4710.6763,-659.11755 C 4699.6168,-660.38649 4683.5498,-656.56942 4675.6464,-661.04384 C 4674.9763,-669.52366 4677.1228,-684.49993 4674.1709,-688.9173 C 4662.631,-674.34276 4648.292,-660.70006 4629.5915,-656.42997 C 4616.4311,-653.03273 4602.4568,-652.41789 4589.0366,-654.52631 z "
         id="path3763" />
      <path
         style="fill:#000000"
         d="M 4194.6763,-802.63263 C 4194.6763,-850.47099 4194.6763,-898.30935 4194.6763,-946.14771 C 4214.0667,-945.971 4233.4572,-945.79426 4252.8477,-945.61749 C 4277.1718,-880.94386 4301.2758,-816.18643 4325.8594,-751.61111 C 4350.9377,-816.07551 4374.9856,-880.93901 4399.5088,-945.61749 C 4418.8979,-945.79426 4438.2871,-945.971 4457.6763,-946.14771 C 4457.6763,-850.47099 4457.6763,-754.79427 4457.6763,-659.11755 C 4445.0122,-659.11755 4432.3481,-659.11755 4419.6841,-659.11755 C 4419.5148,-742.66624 4419.3455,-826.21493 4419.1763,-909.76361 C 4394.6009,-844.53338 4370.2911,-779.20196 4345.4409,-714.07605 C 4332.4674,-714.25655 4319.494,-714.43706 4306.5205,-714.61755 C 4282.0726,-779.67385 4257.6246,-844.73006 4233.1763,-909.78619 C 4233.007,-826.22998 4232.8377,-742.67377 4232.6685,-659.11755 C 4220.0044,-659.11755 4207.3403,-659.11755 4194.6763,-659.11755 C 4194.6763,-706.95591 4194.6763,-754.79427 4194.6763,-802.63263 z "
         id="path3757" />
      <path
         style="fill:#000000"
         d="M 4813.3311,-910.57452 C 4795.7752,-937.08885 4778.2194,-963.60317 4760.6636,-990.11749 C 4768.5869,-990.10608 4776.5103,-990.09467 4784.4336,-990.08325 C 4799.056,-968.78394 4813.6784,-947.48462 4828.3008,-926.1853 C 4842.5926,-947.47587 4856.8844,-968.76644 4871.1763,-990.05701 C 4879.154,-990.00104 4887.1317,-989.94507 4895.1094,-989.8891 C 4877.1143,-962.42344 4859.1191,-934.95778 4841.124,-907.49213 C 4860.7057,-877.78678 4880.2874,-848.08144 4899.8691,-818.3761 C 4892.9028,-818.3761 4885.9365,-818.3761 4878.9702,-818.3761 C 4861.5783,-842.62238 4844.1864,-866.86865 4826.7944,-891.11493 C 4810.4045,-866.86865 4794.0145,-842.62238 4777.6245,-818.3761 C 4769.9725,-818.3761 4762.3205,-818.3761 4754.6685,-818.3761 C 4773.9937,-849.25482 4793.6661,-879.91189 4813.3311,-910.57452 z "
         id="path2386"
         sodipodi:nodetypes="ccccccccccccc" />
    </g>
    <g
       transform="translate(4.5706039,5.94392)"
       style="opacity:0.38955826;filter:url(#filter3828)"
       id="g3808">
      <path
         style="fill:#000000"
         d="M 3643.6875,-946.125 C 3643.6875,-850.45833 3643.6875,-754.79167 3643.6875,-659.125 C 3683.6301,-659.55644 3723.6996,-657.70319 3763.5124,-661.55144 C 3800.5117,-666.0325 3839.6868,-679.98869 3861.2841,-712.24123 C 3883.0785,-744.90442 3886.6112,-786.11952 3883.665,-824.32002 C 3880.7395,-859.44185 3867.6801,-896.34389 3837.9584,-917.53475 C 3802.2833,-943.0499 3756.4689,-945.96606 3714.0561,-946.04443 C 3690.6004,-946.18782 3667.1436,-946.10107 3643.6875,-946.125 z M 3682.6875,-914.3125 C 3708.8632,-913.60299 3735.1639,-914.6429 3761.2188,-911.78125 C 3789.2616,-907.46913 3818.3435,-893.55301 3830.9549,-866.70926 C 3844.3061,-838.28705 3845.3568,-805.57636 3841.7222,-774.84247 C 3838.2392,-746.45459 3823.6921,-717.68606 3797.106,-704.71966 C 3770.7743,-690.77571 3740.3735,-691.55658 3711.442,-691.29952 C 3701.8572,-691.17885 3692.2723,-691.05817 3682.6875,-690.9375 C 3682.6875,-765.39583 3682.6875,-839.85417 3682.6875,-914.3125 z "
         id="path3810" />
      <path
         style="fill:#000000"
         d="M 4000.0366,-654.52631 C 3979.3399,-657.51263 3960.5768,-671.11584 3952.0216,-690.30563 C 3939.4342,-715.96435 3942.5208,-745.36876 3941.7619,-773.03496 C 3941.6308,-806.72901 3941.7161,-840.42337 3941.6763,-874.11755 C 3952.6395,-872.65249 3969.4665,-877.07737 3976.6864,-871.85236 C 3976.9734,-823.74129 3975.9276,-775.58639 3977.8969,-727.50896 C 3979.8474,-709.12008 3991.2547,-689.54649 4010.7171,-685.98939 C 4035.4089,-679.74084 4064.7635,-689.4066 4077.2141,-712.53534 C 4086.5129,-727.51852 4086.4424,-745.62521 4086.1518,-762.62551 C 4086.5158,-799.78852 4086.5442,-836.95364 4086.7661,-874.11755 C 4097.8443,-872.99915 4113.3972,-876.35543 4121.6763,-872.43786 C 4121.6763,-801.33109 4121.6763,-730.22432 4121.6763,-659.11755 C 4110.6168,-660.38648 4094.5498,-656.56942 4086.6463,-661.04384 C 4085.976,-669.52365 4088.1225,-684.49997 4085.1709,-688.9173 C 4073.6311,-674.34271 4059.292,-660.70006 4040.5916,-656.42998 C 4027.4312,-653.03273 4013.4569,-652.41788 4000.0366,-654.52631 z "
         id="path3812" />
      <path
         style="fill:#000000"
         d="M 4589.0366,-654.52631 C 4568.3399,-657.51268 4549.5767,-671.11577 4541.0215,-690.30564 C 4528.4342,-715.9644 4531.521,-745.36877 4530.7618,-773.03496 C 4530.6306,-806.72901 4530.7161,-840.42337 4530.6763,-874.11755 C 4541.6395,-872.65249 4558.4665,-877.07737 4565.6863,-871.85236 C 4565.9731,-823.74129 4564.9275,-775.58639 4566.8969,-727.50896 C 4568.8474,-709.12008 4580.2546,-689.54653 4599.7171,-685.98939 C 4624.4088,-679.74087 4653.7635,-689.4066 4666.2141,-712.53533 C 4675.5127,-727.51856 4675.4422,-745.62522 4675.1518,-762.62551 C 4675.5159,-799.78852 4675.5442,-836.95364 4675.7661,-874.11755 C 4686.8443,-872.99915 4702.3972,-876.35543 4710.6763,-872.43786 C 4710.6763,-801.33109 4710.6763,-730.22432 4710.6763,-659.11755 C 4699.6168,-660.38649 4683.5498,-656.56942 4675.6464,-661.04384 C 4674.9763,-669.52366 4677.1228,-684.49993 4674.1709,-688.9173 C 4662.631,-674.34276 4648.292,-660.70006 4629.5915,-656.42997 C 4616.4311,-653.03273 4602.4568,-652.41789 4589.0366,-654.52631 z "
         id="path3814" />
      <path
         style="fill:#000000"
         d="M 4194.6763,-802.63263 C 4194.6763,-850.47099 4194.6763,-898.30935 4194.6763,-946.14771 C 4214.0667,-945.971 4233.4572,-945.79426 4252.8477,-945.61749 C 4277.1718,-880.94386 4301.2758,-816.18643 4325.8594,-751.61111 C 4350.9377,-816.07551 4374.9856,-880.93901 4399.5088,-945.61749 C 4418.8979,-945.79426 4438.2871,-945.971 4457.6763,-946.14771 C 4457.6763,-850.47099 4457.6763,-754.79427 4457.6763,-659.11755 C 4445.0122,-659.11755 4432.3481,-659.11755 4419.6841,-659.11755 C 4419.5148,-742.66624 4419.3455,-826.21493 4419.1763,-909.76361 C 4394.6009,-844.53338 4370.2911,-779.20196 4345.4409,-714.07605 C 4332.4674,-714.25655 4319.494,-714.43706 4306.5205,-714.61755 C 4282.0726,-779.67385 4257.6246,-844.73006 4233.1763,-909.78619 C 4233.007,-826.22998 4232.8377,-742.67377 4232.6685,-659.11755 C 4220.0044,-659.11755 4207.3403,-659.11755 4194.6763,-659.11755 C 4194.6763,-706.95591 4194.6763,-754.79427 4194.6763,-802.63263 z "
         id="path3816" />
      <path
         style="fill:#000000"
         d="M 4813.3311,-910.57452 C 4795.7752,-937.08885 4778.2194,-963.60317 4760.6636,-990.11749 C 4768.5869,-990.10608 4776.5103,-990.09467 4784.4336,-990.08325 C 4799.056,-968.78394 4813.6784,-947.48462 4828.3008,-926.1853 C 4842.5926,-947.47587 4856.8844,-968.76644 4871.1763,-990.05701 C 4879.154,-990.00104 4887.1317,-989.94507 4895.1094,-989.8891 C 4877.1143,-962.42344 4859.1191,-934.95778 4841.124,-907.49213 C 4860.7057,-877.78678 4880.2874,-848.08144 4899.8691,-818.3761 C 4892.9028,-818.3761 4885.9365,-818.3761 4878.9702,-818.3761 C 4861.5783,-842.62238 4844.1864,-866.86865 4826.7944,-891.11493 C 4810.4045,-866.86865 4794.0145,-842.62238 4777.6245,-818.3761 C 4769.9725,-818.3761 4762.3205,-818.3761 4754.6685,-818.3761 C 4773.9937,-849.25482 4793.6661,-879.91189 4813.3311,-910.57452 z "
         id="path3818"
         sodipodi:nodetypes="ccccccccccccc" />
    </g>
  </g>
</svg>
