Mesh.ScalingFactor = 1e-3;

cl__1 = 0.3;

Point(1) = {-18.41805320736, -7.067145485502, -3.75, cl__1};
Point(2) = {-18.41805320736, -7.067145485502, -3, cl__1};
Point(3) = {-18.08231847259, -6.14367530233, -3, cl__1};
Point(4) = {-18.08231847259, -6.14367530233, -3.75, cl__1};

Point(5) = {-16.89572800665, -7.470692818209, -3, cl__1};
Point(6) = {-16.89572800665, -6.470692818209, -3, cl__1};
Point(7) = {-16.89572800665, -6.470692818209, -3.75, cl__1};
Point(8) = {-16.89572800665, -7.470692818209, -3.75, cl__1};

Point(9) = {-9.309941569025, -6.470692818209, -3, cl__1};
Point(10) = {-9.309941569025, -6.470692818209, -3.75, cl__1};

Point(11) = {-8.895728006652, -7.470692818209, -3, cl__1};
Point(12) = {-8.895728006652, -7.470692818209, -3.75, cl__1};

Point(13) = {-8.809941569025, -5.970692818209, -3, cl__1};
Point(14) = {-8.809941569025, -5.970692818209, -3.75, cl__1};

Point(15) = {-8.395728006652, -6.970692818209, -3, cl__1};
Point(16) = {-8.395728006652, -6.970692818209, -3.75, cl__1};
Point(17) = {-6.224155131398, -6.970692818209, -3.75, cl__1};
Point(18) = {-5.724155131398, -7.470692818209, -3.75, cl__1};
Point(19) = {2.275844868602, -7.470692818209, -3.75, cl__1};
Point(20) = {3.798170069313, -7.067145485502, -3.75, cl__1};
Point(21) = {3.798170069313, -7.067145485502, -3, cl__1};
Point(22) = {2.275844868602, -7.470692818209, -3, cl__1};
Point(23) = {-5.724155131398, -7.470692818209, -3, cl__1};
Point(24) = {-6.224155131398, -6.970692818209, -3, cl__1};

Point(25) = {-5.809941569025, -5.970692818209, -3, cl__1};
Point(26) = {-5.309941569025, -6.470692818209, -3, cl__1};
Point(27) = {2.275844868602, -6.470692818209, -3, cl__1};
Point(28) = {3.462435334542, -6.14367530233, -3, cl__1};

Point(29) = {3.462435334542, -6.14367530233, -3.75, cl__1};
Point(30) = {2.275844868602, -6.470692818209, -3.75, cl__1};
Point(31) = {-5.309941569025, -6.470692818209, -3.75, cl__1};
Point(32) = {-5.809941569025, -5.970692818209, -3.75, cl__1};//+
Line(1) = {3, 6};
//+
Line(2) = {6, 9};
//+
Line(3) = {9, 13};
//+
Line(4) = {13, 25};

//+
Line(5) = {25, 26};
//+
Line(6) = {26, 27};
//+
Line(7) = {27, 28};
//+
Line(8) = {28, 21};
//+
Line(9) = {21, 22};
//+
Line(10) = {22, 23};
//+
Line(11) = {23, 24};
//+
Line(12) = {24, 15};
//+
Line(13) = {15, 11};
//+
Line(14) = {11, 5};
//+
Line(15) = {5, 2};
//+
Line(16) = {2, 3};
//+
Line(17) = {4, 1};
//+
Line(18) = {1, 8};
//+
Line(19) = {8, 12};
//+
Line(20) = {12, 16};
//+
Line(21) = {16, 17};
//+
Line(22) = {17, 18};
//+
Line(23) = {18, 19};
//+
Line(24) = {19, 20};
//+
Line(25) = {20, 29};
//+
Line(26) = {29, 30};
//+
Line(27) = {30, 31};
//+
Line(28) = {31, 32};
//+
Line(29) = {32, 14};
//+
Line(30) = {14, 10};
//+
Line(31) = {10, 7};
//+
Line(32) = {7, 4};
//+
Line(33) = {2, 1};
//+
Line(34) = {4, 3};
//+
Line(35) = {5, 8};
//+
Line(36) = {7, 6};
//+
Line(37) = {6, 5};
//+
Line(38) = {9, 11};
//+
Line(39) = {11, 12};
//+
Line(40) = {12, 10};
//+
Line(41) = {10, 9};
//+
Line(42) = {13, 15};
//+
Line(43) = {15, 16};
//+
Line(44) = {16, 14};
//+
Line(45) = {14, 13};
//+
Line(46) = {25, 32};
//+
Line(47) = {32, 17};
//+
Line(48) = {17, 24};
//+
Line(49) = {24, 25};
//+
Line(50) = {26, 31};
//+
Line(51) = {31, 18};
//+
Line(52) = {18, 23};
//+
Line(53) = {23, 26};
//+
Line(54) = {27, 30};
//+
Line(55) = {30, 19};
//+
Line(56) = {19, 22};
//+
Line(57) = {22, 27};
//+
Line(58) = {29, 28};
//+
Line(59) = {21, 20};
//+
Curve Loop(1) = {16, 1, 37, 15};
//+
Plane Surface(1) = {1};
//+
Curve Loop(2) = {2, 38, 14, -37};
//+
Plane Surface(2) = {2};
//+
Curve Loop(3) = {3, 42, 13, -38};
//+
Plane Surface(3) = {3};
//+
Curve Loop(4) = {4, -49, 12, -42};
//+
Plane Surface(4) = {4};
//+
Curve Loop(5) = {49, 5, -53, 11};
//+
Plane Surface(5) = {5};
//+
Curve Loop(6) = {6, -57, 10, 53};
//+
Plane Surface(6) = {6};
//+
Curve Loop(7) = {7, 8, 9, 57};
//+
Plane Surface(7) = {7};
//+
Curve Loop(8) = {8, 59, 25, 58};
//+
Plane Surface(8) = {8};
//+
Curve Loop(9) = {24, 25, 26, 55};
//+
Plane Surface(9) = {9};
//+
Curve Loop(10) = {27, 51, 23, -55};
//+
Plane Surface(10) = {10};
//+
Curve Loop(11) = {28, 47, 22, -51};
//+
Plane Surface(11) = {11};
//+
Curve Loop(12) = {47, -21, 44, -29};
//+
Plane Surface(12) = {12};
//+
Curve Loop(13) = {44, 30, -40, 20};
//+
Plane Surface(13) = {13};
//+
Line(60) = {8, 7};
//+
Curve Loop(14) = {40, 31, -60, 19};
//+
Plane Surface(14) = {14};
//+
Curve Loop(15) = {32, 17, 18, 60};
//+
Plane Surface(15) = {15};
//+
Curve Loop(16) = {34, -16, 33, -17};
//+
Plane Surface(16) = {16};
//+
Curve Loop(17) = {59, -24, 56, -9};
//+
Plane Surface(17) = {17};
//+
Curve Loop(18) = {10, -52, 23, 56};
//+
Plane Surface(18) = {18};
//+
Curve Loop(19) = {22, 52, 11, -48};
//+
Plane Surface(19) = {19};
//+
Curve Loop(20) = {21, 48, 12, 43};
//+
Plane Surface(20) = {20};
//+
Curve Loop(21) = {20, -43, 13, 39};
//+
Plane Surface(21) = {21};
//+
Curve Loop(22) = {19, -39, 14, 35};
//+
Plane Surface(22) = {22};
//+
Curve Loop(23) = {18, -35, 15, 33};
//+
Plane Surface(23) = {23};
//+
Curve Loop(24) = {32, 34, 1, -36};
//+
Plane Surface(24) = {24};
//+
Curve Loop(25) = {31, 36, 2, -41};
//+
Plane Surface(25) = {25};
//+
Curve Loop(26) = {30, 41, 3, -45};
//+
Plane Surface(26) = {26};
//+
Curve Loop(27) = {29, 45, 4, 46};
//+
Plane Surface(27) = {27};
//+
Curve Loop(28) = {28, -46, 5, 50};
//+
Plane Surface(28) = {28};
//+
Curve Loop(29) = {27, -50, 6, 54};
//+
Plane Surface(29) = {29};
//+
Curve Loop(30) = {26, -54, 7, -58};
//+
Plane Surface(30) = {30};
//+
Physical Surface(1) = {8};
//+
Physical Surface(2) = {16};
//+
Physical Surface(0) = {1, 24, 15, 23, 2, 14, 25, 22, 13, 21, 3, 26, 27, 4, 20, 12, 11, 19, 5, 28, 10, 29, 6, 18, 9, 30, 7, 17};

//+
Curve Loop(31) = {37, 35, 60, 36};
//+
Plane Surface(31) = {31};
//+
Curve Loop(32) = {38, 39, 40, 41};
//+
Plane Surface(32) = {32};
//+
Curve Loop(33) = {42, 43, 44, 45};
//+
Plane Surface(33) = {33};
//+
Curve Loop(34) = {49, 46, 47, 48};
//+
Plane Surface(34) = {34};
//+
Curve Loop(35) = {53, 50, 51, 52};
//+
Plane Surface(35) = {35};
//+
Curve Loop(36) = {57, 54, 55, 56};
//+
Plane Surface(36) = {36};
//+
Surface Loop(1) = {16, 24, 15, 23, 1, 31};
//+
Volume(1) = {1};
//+
Surface Loop(2) = {31, 25, 14, 22, 2, 32};
//+
Volume(2) = {2};
//+
Surface Loop(3) = {32, 3, 26, 13, 21, 33};
//+
Volume(3) = {3};
//+
Surface Loop(4) = {33, 27, 12, 20, 4, 34};
//+
Volume(4) = {4};
//+
Surface Loop(5) = {5, 28, 11, 19, 34, 35};
//+
Volume(5) = {5};
//+
Surface Loop(6) = {29, 10, 18, 6, 35, 36};
//+
Volume(6) = {6};
//+
Surface Loop(7) = {36, 30, 9, 17, 8, 7};
//+
Volume(7) = {7};
//+
Physical Volume(0) = {1, 2, 3, 4, 5, 6, 7};


