<?xml version="1.0" encoding="UTF-8" standalone="no"?>
<!-- Created with Inkscape (http://www.inkscape.org/) -->

<svg
   width="65.243996mm"
   height="44.991989mm"
   viewBox="0 0 65.243996 44.99199"
   version="1.1"
   id="svg8"
   inkscape:version="1.4.2 (1:1.4.2+202505120737+ebf0e940d0)"
   sodipodi:docname="coupling_facet.svg"
   xmlns:inkscape="http://www.inkscape.org/namespaces/inkscape"
   xmlns:sodipodi="http://sodipodi.sourceforge.net/DTD/sodipodi-0.dtd"
   xmlns="http://www.w3.org/2000/svg"
   xmlns:svg="http://www.w3.org/2000/svg"
   xmlns:rdf="http://www.w3.org/1999/02/22-rdf-syntax-ns#"
   xmlns:cc="http://creativecommons.org/ns#"
   xmlns:dc="http://purl.org/dc/elements/1.1/">
  <defs
     id="defs2">
    <inkscape:path-effect
       effect="bspline"
       id="path-effect1-95"
       is_visible="true"
       lpeversion="1.3"
       weight="33.333333"
       steps="2"
       helper_size="0"
       apply_no_weight="true"
       apply_with_weight="true"
       only_selected="false"
       uniform="false" />
    <inkscape:path-effect
       effect="bspline"
       id="path-effect1-95-5"
       is_visible="true"
       lpeversion="1.3"
       weight="33.333333"
       steps="2"
       helper_size="0"
       apply_no_weight="true"
       apply_with_weight="true"
       only_selected="false"
       uniform="false" />
    <inkscape:path-effect
       effect="bspline"
       id="path-effect1-95-3"
       is_visible="true"
       lpeversion="1.3"
       weight="33.333333"
       steps="2"
       helper_size="0"
       apply_no_weight="true"
       apply_with_weight="true"
       only_selected="false"
       uniform="false" />
    <inkscape:path-effect
       effect="bspline"
       id="path-effect1-95-4"
       is_visible="true"
       lpeversion="1.3"
       weight="33.333333"
       steps="2"
       helper_size="0"
       apply_no_weight="true"
       apply_with_weight="true"
       only_selected="false"
       uniform="false" />
    <inkscape:path-effect
       effect="bspline"
       id="path-effect1-95-4-9"
       is_visible="true"
       lpeversion="1.3"
       weight="33.333333"
       steps="2"
       helper_size="0"
       apply_no_weight="true"
       apply_with_weight="true"
       only_selected="false"
       uniform="false" />
  </defs>
  <sodipodi:namedview
     id="base"
     pagecolor="#ffffff"
     bordercolor="#666666"
     borderopacity="1.0"
     inkscape:pageopacity="0.0"
     inkscape:pageshadow="2"
     inkscape:zoom="2.4398415"
     inkscape:cx="108.40868"
     inkscape:cy="112.71224"
     inkscape:document-units="mm"
     inkscape:current-layer="layer1"
     showgrid="false"
     inkscape:measure-start="0,0"
     inkscape:measure-end="0,0"
     showguides="false"
     fit-margin-top="0"
     fit-margin-left="0"
     fit-margin-right="0"
     fit-margin-bottom="0"
     inkscape:window-width="1920"
     inkscape:window-height="1010"
     inkscape:window-x="0"
     inkscape:window-y="0"
     inkscape:window-maximized="1"
     inkscape:showpageshadow="2"
     inkscape:pagecheckerboard="0"
     inkscape:deskcolor="#d1d1d1" />
  <metadata
     id="metadata5">
    <rdf:RDF>
      <cc:Work
         rdf:about="">
        <dc:format>image/svg+xml</dc:format>
        <dc:type
           rdf:resource="http://purl.org/dc/dcmitype/StillImage" />
      </cc:Work>
    </rdf:RDF>
  </metadata>
  <g
     inkscape:label="Layer 1"
     inkscape:groupmode="layer"
     id="layer1"
     transform="translate(-7.2860675,-10.564781)">
    <g
       id="g5"
       transform="matrix(1.0068031,0,0,1.0008292,53.599283,-79.309366)"
       style="stroke-width:0.996203">
      <rect
         style="fill:#e19417;fill-opacity:1;stroke:none;stroke-width:0.313493;stroke-linecap:round;stroke-miterlimit:4;stroke-dasharray:none;stroke-dashoffset:0;stroke-opacity:1;paint-order:stroke fill markers"
         id="rect1083"
         width="46.35791"
         height="32.083843"
         x="-36.790062"
         y="96.205627"
         ry="0" />
      <g
         id="g4"
         style="stroke-width:0.199241;stroke-dasharray:none"
         transform="translate(-5.9353348,36.852114)">
        <path
           style="opacity:0.467;fill:none;fill-rule:evenodd;stroke:#ffffff;stroke-width:0.199241;stroke-linecap:butt;stroke-linejoin:miter;stroke-miterlimit:4;stroke-dasharray:none;stroke-opacity:0.980392"
           d="m -30.771489,91.364691 5.377622,-6.095911 -5.435241,-1.285978 4.916071,-4.0835 -4.983417,-4.44381 9.832144,-0.300258 -9.697456,-7.506437 8.61996,-2.46211 -8.629683,-5.905839 11.525453,0.08085 -2.828425,5.764943 10.303547,-1.20103 -3.569203,4.083503 -6.801689,-2.822421 -0.336715,4.44381 7.138404,-1.741493 -0.202038,6.785818 -6.936374,-5.044325 -8.148557,-1.921647"
           id="path1085"
           inkscape:connector-curvature="0"
           sodipodi:nodetypes="cc" />
        <path
           style="opacity:0.47;fill:none;fill-rule:evenodd;stroke:#ffffff;stroke-width:0.199241;stroke-linecap:butt;stroke-linejoin:miter;stroke-miterlimit:4;stroke-dasharray:none;stroke-opacity:0.97549"
           d="m -15.542158,74.674831 -5.522154,0.480399 -1.414209,-5.524726"
           id="path1087"
           inkscape:connector-curvature="0" />
        <path
           style="opacity:0.43;fill:none;fill-rule:evenodd;stroke:#ffffff;stroke-width:0.199241;stroke-linecap:butt;stroke-linejoin:miter;stroke-miterlimit:4;stroke-dasharray:none;stroke-opacity:1"
           d="m -21.064312,75.15523 -4.848727,4.744074 6.801689,-0.480417 z"
           id="path1089"
           inkscape:connector-curvature="0" />
        <path
           style="opacity:0.384;fill:none;fill-rule:evenodd;stroke:#ffffff;stroke-width:0.199241;stroke-linecap:butt;stroke-linejoin:miter;stroke-miterlimit:4;stroke-dasharray:none;stroke-opacity:1"
           d="m -25.913039,79.899304 0.519169,5.369474 2.309253,6.100358 5.185448,-5.644839 3.636543,5.524733 5.5221647,-6.845866 3.2998279,6.965972 5.85888283,-3.302833 3.77123337,3.302833 1.9529541,-6.365461 4.0406141,6.305406 5.320132,-4.503863 -9.4280861,-1.861593 -5.58950493,3.182726 -9.22605327,-3.783242 -9.2260477,1.381188 -7.427361,-0.455519 6.28252,-5.849891 0.942808,6.185304 5.185442,-6.185304 h -6.12825 l 3.569192,-4.744056 2.559058,4.744056 4.1079536,4.864171 8.01387224,-3.783245 1.41420611,7.626538 4.10795635,-7.626538 1.5488988,4.503862 9.2933959,-5.104371 -10.9096424,0.420355 10.9096424,-4.924222 -5.38748,-2.822416 -5.4548147,7.926792 -5.7915377,-0.06007 -5.6568527,-2.762368 -2.0876443,6.725767 v -0.180161"
           id="path1091"
           inkscape:connector-curvature="0" />
        <path
           style="opacity:0.401;fill:none;fill-rule:evenodd;stroke:#ffffff;stroke-width:0.199241;stroke-linecap:butt;stroke-linejoin:miter;stroke-miterlimit:4;stroke-dasharray:none;stroke-opacity:1"
           d="M -6.7875021,77.677374 -12.9831,79.418887 c 0,0 3.8385809,-5.76494 3.501858,-5.824995 -0.3367127,-0.06007 -6.060916,1.080939 -6.060916,1.080939 l 4.57936,-4.744079 -4.377322,-2.041736 9.8994866,-1.441248 -6.3302826,-2.522154 -7.47512,-4.563913 9.226049,-9e-6 -1.750929,4.563922 9.7648008,-2.281964 -3.3671705,4.744067 -5.5895123,3.422936 1.7509313,3.843294 z"
           id="path1095"
           inkscape:connector-curvature="0" />
        <path
           style="opacity:0.421;fill:none;fill-rule:evenodd;stroke:#ffffff;stroke-width:0.199241;stroke-linecap:butt;stroke-linejoin:miter;stroke-miterlimit:4;stroke-dasharray:none;stroke-opacity:1"
           d="m -6.7875021,77.677374 6.80168862,-3.30281 -1.14484112,6.065182 3.9732636,-4.383742 1.8182793,4.443809 -0.067363,-0.180161"
           id="path1097"
           inkscape:connector-curvature="0" />
        <path
           style="opacity:0.401;fill:none;fill-rule:evenodd;stroke:#ffffff;stroke-width:0.199241;stroke-linecap:butt;stroke-linejoin:miter;stroke-miterlimit:4;stroke-dasharray:none;stroke-opacity:1"
           d="m 10.115703,72.573021 5.38748,-3.843296 -6.5323159,-2.041753 6.5996559,-4.443809 -6.7343461,-2.942522 -6.3976231,4.263655 -4.444669,-1.921646 -8.0138718,-2.281958 v 0"
           id="path1099"
           inkscape:connector-curvature="0" />
        <path
           style="opacity:0.401;fill:none;fill-rule:evenodd;stroke:#ffffff;stroke-width:0.199241;stroke-linecap:butt;stroke-linejoin:miter;stroke-miterlimit:4;stroke-dasharray:none;stroke-opacity:1"
           d="M -5.3732857,66.387717 2.4385538,63.565296 15.570523,62.244163 8.9708671,66.687972 2.4385538,63.565296 3.7180774,71.131782 8.9708671,66.687972 10.115703,72.573021 2.842609,76.056004 0.01418652,74.374564 -9.2118667,73.653947 -5.4406334,66.447768 0.01418652,74.374564 2.4385538,63.565296 3.7854199,71.191837 0.01418652,74.374564 10.115703,72.573021"
           id="path1101"
           inkscape:connector-curvature="0" />
      </g>
      <g
         id="g2"
         transform="translate(-5.9353271,36.852118)"
         style="stroke-width:0.597722;stroke-dasharray:none">
        <path
           style="fill:none;fill-rule:evenodd;stroke:#0c73cf;stroke-width:0.597722;stroke-linecap:butt;stroke-linejoin:miter;stroke-miterlimit:4;stroke-dasharray:none;stroke-opacity:1"
           d="m -25.913039,79.899304 6.801689,-0.480417 h 6.12825 l 6.1955979,-1.741513 6.80168862,-3.30281 2.82842248,1.68144 1.7509162,4.263648 10.9096578,-0.420348"
           id="path1103"
           inkscape:connector-curvature="0" />
        <path
           style="fill:none;fill-rule:evenodd;stroke:#0c73cf;stroke-width:0.597722;stroke-linecap:butt;stroke-linejoin:miter;stroke-miterlimit:4;stroke-dasharray:none;stroke-opacity:1"
           d="m -6.7875021,77.677374 -2.4243646,-4.023427 -1.7509313,-3.843294 5.5221646,-3.362885 3.4345182,-4.804118"
           id="path1105"
           inkscape:connector-curvature="0" />
        <path
           style="fill:none;fill-rule:evenodd;stroke:#0c73cf;stroke-width:0.597722;stroke-linecap:butt;stroke-linejoin:miter;stroke-miterlimit:4;stroke-dasharray:none;stroke-opacity:1"
           d="m -19.11135,79.418887 0.942808,6.185304 3.905916,5.644839"
           id="path1107"
           inkscape:connector-curvature="0" />
      </g>
      <g
         id="g3"
         transform="translate(-5.9222047,36.900492)"
         style="stroke-width:0.996203">
        <path
           style="fill:#3aff13;fill-opacity:1;fill-rule:evenodd;stroke:none;stroke-width:0.263993;stroke-linecap:butt;stroke-linejoin:miter;stroke-miterlimit:4;stroke-dasharray:none;stroke-opacity:1"
           d="m -8.0701895,77.193057 0.4506966,1.518291 1.2519557,-0.401901 1.1684805,-0.625178 -1.21856,-1.146161 z"
           id="path1269"
           inkscape:connector-curvature="0" />
        <path
           style="fill:#3aff13;fill-opacity:1;fill-rule:evenodd;stroke:none;stroke-width:0.263992;stroke-linecap:butt;stroke-linejoin:miter;stroke-miterlimit:4;stroke-dasharray:none;stroke-opacity:1"
           d="m -20.060121,78.777799 0.205577,1.537122 1.660512,-0.211536 0.189771,-1.480715 z"
           id="path1271"
           inkscape:connector-curvature="0" />
      </g>
    </g>
    <g
       id="g34"
       transform="translate(158.8575,0.55786767)">
      <path
         style="fill:#e19516;fill-opacity:0.403922;stroke:#ffffff;stroke-width:0.265;stroke-linecap:butt;stroke-linejoin:bevel;stroke-dasharray:none;stroke-opacity:1"
         d="m -151.42143,22.696923 h 46.71597 l 18.245736,-12.55751 h -46.715966 z"
         id="path69-3" />
      <rect
         style="fill:#e19516;fill-opacity:0.403922;stroke:#ffffff;stroke-width:0.3;stroke-linecap:square;stroke-linejoin:bevel;stroke-dasharray:0.264583, 0.264583;stroke-opacity:1"
         id="rect5-4-2-9"
         width="46.715969"
         height="32.151981"
         x="-151.42143"
         y="22.696922" />
      <path
         style="fill:#e19417;fill-opacity:0.404192;stroke:#ffffff;stroke-width:0.264583px;stroke-linecap:butt;stroke-linejoin:bevel;stroke-opacity:1"
         d="M -104.70546,54.848898 -86.459725,42.29138 V 10.139413 l -18.245735,12.55751 v 32.151975"
         id="path70-1" />
    </g>
    <path
       style="fill:none;stroke:#ffffff;stroke-width:0.264583px;stroke-linecap:butt;stroke-linejoin:miter;stroke-opacity:0.31437126"
       d="M 7.4438464,55.416127 16.476154,49.186101"
       id="path5" />
  </g>
</svg>
