<?xml version="1.0" encoding="utf-8" standalone="no"?>
<!DOCTYPE svg PUBLIC "-//W3C//DTD SVG 1.1//EN"
  "http://www.w3.org/Graphics/SVG/1.1/DTD/svg11.dtd">
<svg xmlns:xlink="http://www.w3.org/1999/xlink" width="792pt" height="345.6pt" viewBox="0 0 792 345.6" xmlns="http://www.w3.org/2000/svg" version="1.1">
 <metadata>
  <rdf:RDF xmlns:dc="http://purl.org/dc/elements/1.1/" xmlns:cc="http://creativecommons.org/ns#" xmlns:rdf="http://www.w3.org/1999/02/22-rdf-syntax-ns#">
   <cc:Work>
    <dc:type rdf:resource="http://purl.org/dc/dcmitype/StillImage"/>
    <dc:date>2026-09-30T15:08:03.571047</dc:date>
    <dc:format>image/svg+xml</dc:format>
    <dc:creator>
     <cc:Agent>
      <dc:title>Matplotlib v3.9.2, https://matplotlib.org/</dc:title>
     </cc:Agent>
    </dc:creator>
   </cc:Work>
  </rdf:RDF>
 </metadata>
 <defs>
  <style type="text/css">*{stroke-linejoin: round; stroke-linecap: butt}</style>
 </defs>
 <g id="figure_1">
  <g id="patch_1">
   <path d="M 0 345.6 
L 792 345.6 
L 792 0 
L 0 0 
z
" style="fill: #ffffff"/>
  </g>
  <g id="axes_1">
   <g id="patch_2">
    <path d="M 45.965865 312.24351 
L 385.677538 312.24351 
L 385.677538 3.00024 
L 45.965865 3.00024 
z
" style="fill: #ffffff"/>
   </g>
   <g id="matplotlib.axis_1">
    <g id="xtick_1">
     <g id="line2d_1">
      <path d="M 63.383585 312.24351 
L 63.383585 3.00024 
" clip-path="url(#p2116303006)" style="fill: none; stroke: #b0b0b0; stroke-opacity: 0.3; stroke-width: 0.8; stroke-linecap: square"/>
     </g>
     <g id="line2d_2">
      <defs>
       <path id="m95512bad08" d="M 0 0 
L 0 3.5 
" style="stroke: #000000; stroke-width: 0.8"/>
      </defs>
      <g>
       <use xlink:href="#m95512bad08" x="63.383585" y="312.24351" style="stroke: #000000; stroke-width: 0.8"/>
      </g>
     </g>
     <g id="text_1">
      <!-- 1.6 -->
      <g transform="translate(55.432022 326.841947) scale(0.1 -0.1)">
       <defs>
        <path id="DejaVuSans-31" d="M 794 531 
L 1825 531 
L 1825 4091 
L 703 3866 
L 703 4441 
L 1819 4666 
L 2450 4666 
L 2450 531 
L 3481 531 
L 3481 0 
L 794 0 
L 794 531 
z
" transform="scale(0.015625)"/>
        <path id="DejaVuSans-2e" d="M 684 794 
L 1344 794 
L 1344 0 
L 684 0 
L 684 794 
z
" transform="scale(0.015625)"/>
        <path id="DejaVuSans-36" d="M 2113 2584 
Q 1688 2584 1439 2293 
Q 1191 2003 1191 1497 
Q 1191 994 1439 701 
Q 1688 409 2113 409 
Q 2538 409 2786 701 
Q 3034 994 3034 1497 
Q 3034 2003 2786 2293 
Q 2538 2584 2113 2584 
z
M 3366 4563 
L 3366 3988 
Q 3128 4100 2886 4159 
Q 2644 4219 2406 4219 
Q 1781 4219 1451 3797 
Q 1122 3375 1075 2522 
Q 1259 2794 1537 2939 
Q 1816 3084 2150 3084 
Q 2853 3084 3261 2657 
Q 3669 2231 3669 1497 
Q 3669 778 3244 343 
Q 2819 -91 2113 -91 
Q 1303 -91 875 529 
Q 447 1150 447 2328 
Q 447 3434 972 4092 
Q 1497 4750 2381 4750 
Q 2619 4750 2861 4703 
Q 3103 4656 3366 4563 
z
" transform="scale(0.015625)"/>
       </defs>
       <use xlink:href="#DejaVuSans-31"/>
       <use xlink:href="#DejaVuSans-2e" x="63.623047"/>
       <use xlink:href="#DejaVuSans-36" x="95.410156"/>
      </g>
     </g>
    </g>
    <g id="xtick_2">
     <g id="line2d_3">
      <path d="M 103.670324 312.24351 
L 103.670324 3.00024 
" clip-path="url(#p2116303006)" style="fill: none; stroke: #b0b0b0; stroke-opacity: 0.3; stroke-width: 0.8; stroke-linecap: square"/>
     </g>
     <g id="line2d_4">
      <g>
       <use xlink:href="#m95512bad08" x="103.670324" y="312.24351" style="stroke: #000000; stroke-width: 0.8"/>
      </g>
     </g>
     <g id="text_2">
      <!-- 1.7 -->
      <g transform="translate(95.718762 326.841947) scale(0.1 -0.1)">
       <defs>
        <path id="DejaVuSans-37" d="M 525 4666 
L 3525 4666 
L 3525 4397 
L 1831 0 
L 1172 0 
L 2766 4134 
L 525 4134 
L 525 4666 
z
" transform="scale(0.015625)"/>
       </defs>
       <use xlink:href="#DejaVuSans-31"/>
       <use xlink:href="#DejaVuSans-2e" x="63.623047"/>
       <use xlink:href="#DejaVuSans-37" x="95.410156"/>
      </g>
     </g>
    </g>
    <g id="xtick_3">
     <g id="line2d_5">
      <path d="M 143.957064 312.24351 
L 143.957064 3.00024 
" clip-path="url(#p2116303006)" style="fill: none; stroke: #b0b0b0; stroke-opacity: 0.3; stroke-width: 0.8; stroke-linecap: square"/>
     </g>
     <g id="line2d_6">
      <g>
       <use xlink:href="#m95512bad08" x="143.957064" y="312.24351" style="stroke: #000000; stroke-width: 0.8"/>
      </g>
     </g>
     <g id="text_3">
      <!-- 1.8 -->
      <g transform="translate(136.005501 326.841947) scale(0.1 -0.1)">
       <defs>
        <path id="DejaVuSans-38" d="M 2034 2216 
Q 1584 2216 1326 1975 
Q 1069 1734 1069 1313 
Q 1069 891 1326 650 
Q 1584 409 2034 409 
Q 2484 409 2743 651 
Q 3003 894 3003 1313 
Q 3003 1734 2745 1975 
Q 2488 2216 2034 2216 
z
M 1403 2484 
Q 997 2584 770 2862 
Q 544 3141 544 3541 
Q 544 4100 942 4425 
Q 1341 4750 2034 4750 
Q 2731 4750 3128 4425 
Q 3525 4100 3525 3541 
Q 3525 3141 3298 2862 
Q 3072 2584 2669 2484 
Q 3125 2378 3379 2068 
Q 3634 1759 3634 1313 
Q 3634 634 3220 271 
Q 2806 -91 2034 -91 
Q 1263 -91 848 271 
Q 434 634 434 1313 
Q 434 1759 690 2068 
Q 947 2378 1403 2484 
z
M 1172 3481 
Q 1172 3119 1398 2916 
Q 1625 2713 2034 2713 
Q 2441 2713 2670 2916 
Q 2900 3119 2900 3481 
Q 2900 3844 2670 4047 
Q 2441 4250 2034 4250 
Q 1625 4250 1398 4047 
Q 1172 3844 1172 3481 
z
" transform="scale(0.015625)"/>
       </defs>
       <use xlink:href="#DejaVuSans-31"/>
       <use xlink:href="#DejaVuSans-2e" x="63.623047"/>
       <use xlink:href="#DejaVuSans-38" x="95.410156"/>
      </g>
     </g>
    </g>
    <g id="xtick_4">
     <g id="line2d_7">
      <path d="M 184.243803 312.24351 
L 184.243803 3.00024 
" clip-path="url(#p2116303006)" style="fill: none; stroke: #b0b0b0; stroke-opacity: 0.3; stroke-width: 0.8; stroke-linecap: square"/>
     </g>
     <g id="line2d_8">
      <g>
       <use xlink:href="#m95512bad08" x="184.243803" y="312.24351" style="stroke: #000000; stroke-width: 0.8"/>
      </g>
     </g>
     <g id="text_4">
      <!-- 1.9 -->
      <g transform="translate(176.292241 326.841947) scale(0.1 -0.1)">
       <defs>
        <path id="DejaVuSans-39" d="M 703 97 
L 703 672 
Q 941 559 1184 500 
Q 1428 441 1663 441 
Q 2288 441 2617 861 
Q 2947 1281 2994 2138 
Q 2813 1869 2534 1725 
Q 2256 1581 1919 1581 
Q 1219 1581 811 2004 
Q 403 2428 403 3163 
Q 403 3881 828 4315 
Q 1253 4750 1959 4750 
Q 2769 4750 3195 4129 
Q 3622 3509 3622 2328 
Q 3622 1225 3098 567 
Q 2575 -91 1691 -91 
Q 1453 -91 1209 -44 
Q 966 3 703 97 
z
M 1959 2075 
Q 2384 2075 2632 2365 
Q 2881 2656 2881 3163 
Q 2881 3666 2632 3958 
Q 2384 4250 1959 4250 
Q 1534 4250 1286 3958 
Q 1038 3666 1038 3163 
Q 1038 2656 1286 2365 
Q 1534 2075 1959 2075 
z
" transform="scale(0.015625)"/>
       </defs>
       <use xlink:href="#DejaVuSans-31"/>
       <use xlink:href="#DejaVuSans-2e" x="63.623047"/>
       <use xlink:href="#DejaVuSans-39" x="95.410156"/>
      </g>
     </g>
    </g>
    <g id="xtick_5">
     <g id="line2d_9">
      <path d="M 224.530542 312.24351 
L 224.530542 3.00024 
" clip-path="url(#p2116303006)" style="fill: none; stroke: #b0b0b0; stroke-opacity: 0.3; stroke-width: 0.8; stroke-linecap: square"/>
     </g>
     <g id="line2d_10">
      <g>
       <use xlink:href="#m95512bad08" x="224.530542" y="312.24351" style="stroke: #000000; stroke-width: 0.8"/>
      </g>
     </g>
     <g id="text_5">
      <!-- 2.0 -->
      <g transform="translate(216.57898 326.841947) scale(0.1 -0.1)">
       <defs>
        <path id="DejaVuSans-32" d="M 1228 531 
L 3431 531 
L 3431 0 
L 469 0 
L 469 531 
Q 828 903 1448 1529 
Q 2069 2156 2228 2338 
Q 2531 2678 2651 2914 
Q 2772 3150 2772 3378 
Q 2772 3750 2511 3984 
Q 2250 4219 1831 4219 
Q 1534 4219 1204 4116 
Q 875 4013 500 3803 
L 500 4441 
Q 881 4594 1212 4672 
Q 1544 4750 1819 4750 
Q 2544 4750 2975 4387 
Q 3406 4025 3406 3419 
Q 3406 3131 3298 2873 
Q 3191 2616 2906 2266 
Q 2828 2175 2409 1742 
Q 1991 1309 1228 531 
z
" transform="scale(0.015625)"/>
        <path id="DejaVuSans-30" d="M 2034 4250 
Q 1547 4250 1301 3770 
Q 1056 3291 1056 2328 
Q 1056 1369 1301 889 
Q 1547 409 2034 409 
Q 2525 409 2770 889 
Q 3016 1369 3016 2328 
Q 3016 3291 2770 3770 
Q 2525 4250 2034 4250 
z
M 2034 4750 
Q 2819 4750 3233 4129 
Q 3647 3509 3647 2328 
Q 3647 1150 3233 529 
Q 2819 -91 2034 -91 
Q 1250 -91 836 529 
Q 422 1150 422 2328 
Q 422 3509 836 4129 
Q 1250 4750 2034 4750 
z
" transform="scale(0.015625)"/>
       </defs>
       <use xlink:href="#DejaVuSans-32"/>
       <use xlink:href="#DejaVuSans-2e" x="63.623047"/>
       <use xlink:href="#DejaVuSans-30" x="95.410156"/>
      </g>
     </g>
    </g>
    <g id="xtick_6">
     <g id="line2d_11">
      <path d="M 264.817282 312.24351 
L 264.817282 3.00024 
" clip-path="url(#p2116303006)" style="fill: none; stroke: #b0b0b0; stroke-opacity: 0.3; stroke-width: 0.8; stroke-linecap: square"/>
     </g>
     <g id="line2d_12">
      <g>
       <use xlink:href="#m95512bad08" x="264.817282" y="312.24351" style="stroke: #000000; stroke-width: 0.8"/>
      </g>
     </g>
     <g id="text_6">
      <!-- 2.1 -->
      <g transform="translate(256.865719 326.841947) scale(0.1 -0.1)">
       <use xlink:href="#DejaVuSans-32"/>
       <use xlink:href="#DejaVuSans-2e" x="63.623047"/>
       <use xlink:href="#DejaVuSans-31" x="95.410156"/>
      </g>
     </g>
    </g>
    <g id="xtick_7">
     <g id="line2d_13">
      <path d="M 305.104021 312.24351 
L 305.104021 3.00024 
" clip-path="url(#p2116303006)" style="fill: none; stroke: #b0b0b0; stroke-opacity: 0.3; stroke-width: 0.8; stroke-linecap: square"/>
     </g>
     <g id="line2d_14">
      <g>
       <use xlink:href="#m95512bad08" x="305.104021" y="312.24351" style="stroke: #000000; stroke-width: 0.8"/>
      </g>
     </g>
     <g id="text_7">
      <!-- 2.2 -->
      <g transform="translate(297.152459 326.841947) scale(0.1 -0.1)">
       <use xlink:href="#DejaVuSans-32"/>
       <use xlink:href="#DejaVuSans-2e" x="63.623047"/>
       <use xlink:href="#DejaVuSans-32" x="95.410156"/>
      </g>
     </g>
    </g>
    <g id="xtick_8">
     <g id="line2d_15">
      <path d="M 345.390761 312.24351 
L 345.390761 3.00024 
" clip-path="url(#p2116303006)" style="fill: none; stroke: #b0b0b0; stroke-opacity: 0.3; stroke-width: 0.8; stroke-linecap: square"/>
     </g>
     <g id="line2d_16">
      <g>
       <use xlink:href="#m95512bad08" x="345.390761" y="312.24351" style="stroke: #000000; stroke-width: 0.8"/>
      </g>
     </g>
     <g id="text_8">
      <!-- 2.3 -->
      <g transform="translate(337.439198 326.841947) scale(0.1 -0.1)">
       <defs>
        <path id="DejaVuSans-33" d="M 2597 2516 
Q 3050 2419 3304 2112 
Q 3559 1806 3559 1356 
Q 3559 666 3084 287 
Q 2609 -91 1734 -91 
Q 1441 -91 1130 -33 
Q 819 25 488 141 
L 488 750 
Q 750 597 1062 519 
Q 1375 441 1716 441 
Q 2309 441 2620 675 
Q 2931 909 2931 1356 
Q 2931 1769 2642 2001 
Q 2353 2234 1838 2234 
L 1294 2234 
L 1294 2753 
L 1863 2753 
Q 2328 2753 2575 2939 
Q 2822 3125 2822 3475 
Q 2822 3834 2567 4026 
Q 2313 4219 1838 4219 
Q 1578 4219 1281 4162 
Q 984 4106 628 3988 
L 628 4550 
Q 988 4650 1302 4700 
Q 1616 4750 1894 4750 
Q 2613 4750 3031 4423 
Q 3450 4097 3450 3541 
Q 3450 3153 3228 2886 
Q 3006 2619 2597 2516 
z
" transform="scale(0.015625)"/>
       </defs>
       <use xlink:href="#DejaVuSans-32"/>
       <use xlink:href="#DejaVuSans-2e" x="63.623047"/>
       <use xlink:href="#DejaVuSans-33" x="95.410156"/>
      </g>
     </g>
    </g>
    <g id="xtick_9">
     <g id="line2d_17">
      <path d="M 385.6775 312.24351 
L 385.6775 3.00024 
" clip-path="url(#p2116303006)" style="fill: none; stroke: #b0b0b0; stroke-opacity: 0.3; stroke-width: 0.8; stroke-linecap: square"/>
     </g>
     <g id="line2d_18">
      <g>
       <use xlink:href="#m95512bad08" x="385.6775" y="312.24351" style="stroke: #000000; stroke-width: 0.8"/>
      </g>
     </g>
     <g id="text_9">
      <!-- 2.4 -->
      <g transform="translate(377.725937 326.841947) scale(0.1 -0.1)">
       <defs>
        <path id="DejaVuSans-34" d="M 2419 4116 
L 825 1625 
L 2419 1625 
L 2419 4116 
z
M 2253 4666 
L 3047 4666 
L 3047 1625 
L 3713 1625 
L 3713 1100 
L 3047 1100 
L 3047 0 
L 2419 0 
L 2419 1100 
L 313 1100 
L 313 1709 
L 2253 4666 
z
" transform="scale(0.015625)"/>
       </defs>
       <use xlink:href="#DejaVuSans-32"/>
       <use xlink:href="#DejaVuSans-2e" x="63.623047"/>
       <use xlink:href="#DejaVuSans-34" x="95.410156"/>
      </g>
     </g>
    </g>
    <g id="text_10">
     <!-- x [m] -->
     <g transform="translate(202.501389 340.520072) scale(0.1 -0.1)">
      <defs>
       <path id="DejaVuSans-78" d="M 3513 3500 
L 2247 1797 
L 3578 0 
L 2900 0 
L 1881 1375 
L 863 0 
L 184 0 
L 1544 1831 
L 300 3500 
L 978 3500 
L 1906 2253 
L 2834 3500 
L 3513 3500 
z
" transform="scale(0.015625)"/>
       <path id="DejaVuSans-20" transform="scale(0.015625)"/>
       <path id="DejaVuSans-5b" d="M 550 4863 
L 1875 4863 
L 1875 4416 
L 1125 4416 
L 1125 -397 
L 1875 -397 
L 1875 -844 
L 550 -844 
L 550 4863 
z
" transform="scale(0.015625)"/>
       <path id="DejaVuSans-6d" d="M 3328 2828 
Q 3544 3216 3844 3400 
Q 4144 3584 4550 3584 
Q 5097 3584 5394 3201 
Q 5691 2819 5691 2113 
L 5691 0 
L 5113 0 
L 5113 2094 
Q 5113 2597 4934 2840 
Q 4756 3084 4391 3084 
Q 3944 3084 3684 2787 
Q 3425 2491 3425 1978 
L 3425 0 
L 2847 0 
L 2847 2094 
Q 2847 2600 2669 2842 
Q 2491 3084 2119 3084 
Q 1678 3084 1418 2786 
Q 1159 2488 1159 1978 
L 1159 0 
L 581 0 
L 581 3500 
L 1159 3500 
L 1159 2956 
Q 1356 3278 1631 3431 
Q 1906 3584 2284 3584 
Q 2666 3584 2933 3390 
Q 3200 3197 3328 2828 
z
" transform="scale(0.015625)"/>
       <path id="DejaVuSans-5d" d="M 1947 4863 
L 1947 -844 
L 622 -844 
L 622 -397 
L 1369 -397 
L 1369 4416 
L 622 4416 
L 622 4863 
L 1947 4863 
z
" transform="scale(0.015625)"/>
      </defs>
      <use xlink:href="#DejaVuSans-78"/>
      <use xlink:href="#DejaVuSans-20" x="59.179688"/>
      <use xlink:href="#DejaVuSans-5b" x="90.966797"/>
      <use xlink:href="#DejaVuSans-6d" x="129.980469"/>
      <use xlink:href="#DejaVuSans-5d" x="227.392578"/>
     </g>
    </g>
   </g>
   <g id="matplotlib.axis_2">
    <g id="ytick_1">
     <g id="line2d_19">
      <path d="M 45.965865 298.186998 
L 385.677538 298.186998 
" clip-path="url(#p2116303006)" style="fill: none; stroke: #b0b0b0; stroke-opacity: 0.3; stroke-width: 0.8; stroke-linecap: square"/>
     </g>
     <g id="line2d_20">
      <defs>
       <path id="m77dcdb43ff" d="M 0 0 
L -3.5 0 
" style="stroke: #000000; stroke-width: 0.8"/>
      </defs>
      <g>
       <use xlink:href="#m77dcdb43ff" x="45.965865" y="298.186998" style="stroke: #000000; stroke-width: 0.8"/>
      </g>
     </g>
     <g id="text_11">
      <!-- 0.00 -->
      <g transform="translate(16.70024 301.986216) scale(0.1 -0.1)">
       <use xlink:href="#DejaVuSans-30"/>
       <use xlink:href="#DejaVuSans-2e" x="63.623047"/>
       <use xlink:href="#DejaVuSans-30" x="95.410156"/>
       <use xlink:href="#DejaVuSans-30" x="159.033203"/>
      </g>
     </g>
    </g>
    <g id="ytick_2">
     <g id="line2d_21">
      <path d="M 45.965865 258.402801 
L 385.677538 258.402801 
" clip-path="url(#p2116303006)" style="fill: none; stroke: #b0b0b0; stroke-opacity: 0.3; stroke-width: 0.8; stroke-linecap: square"/>
     </g>
     <g id="line2d_22">
      <g>
       <use xlink:href="#m77dcdb43ff" x="45.965865" y="258.402801" style="stroke: #000000; stroke-width: 0.8"/>
      </g>
     </g>
     <g id="text_12">
      <!-- 0.05 -->
      <g transform="translate(16.70024 262.202019) scale(0.1 -0.1)">
       <defs>
        <path id="DejaVuSans-35" d="M 691 4666 
L 3169 4666 
L 3169 4134 
L 1269 4134 
L 1269 2991 
Q 1406 3038 1543 3061 
Q 1681 3084 1819 3084 
Q 2600 3084 3056 2656 
Q 3513 2228 3513 1497 
Q 3513 744 3044 326 
Q 2575 -91 1722 -91 
Q 1428 -91 1123 -41 
Q 819 9 494 109 
L 494 744 
Q 775 591 1075 516 
Q 1375 441 1709 441 
Q 2250 441 2565 725 
Q 2881 1009 2881 1497 
Q 2881 1984 2565 2268 
Q 2250 2553 1709 2553 
Q 1456 2553 1204 2497 
Q 953 2441 691 2322 
L 691 4666 
z
" transform="scale(0.015625)"/>
       </defs>
       <use xlink:href="#DejaVuSans-30"/>
       <use xlink:href="#DejaVuSans-2e" x="63.623047"/>
       <use xlink:href="#DejaVuSans-30" x="95.410156"/>
       <use xlink:href="#DejaVuSans-35" x="159.033203"/>
      </g>
     </g>
    </g>
    <g id="ytick_3">
     <g id="line2d_23">
      <path d="M 45.965865 218.618604 
L 385.677538 218.618604 
" clip-path="url(#p2116303006)" style="fill: none; stroke: #b0b0b0; stroke-opacity: 0.3; stroke-width: 0.8; stroke-linecap: square"/>
     </g>
     <g id="line2d_24">
      <g>
       <use xlink:href="#m77dcdb43ff" x="45.965865" y="218.618604" style="stroke: #000000; stroke-width: 0.8"/>
      </g>
     </g>
     <g id="text_13">
      <!-- 0.10 -->
      <g transform="translate(16.70024 222.417822) scale(0.1 -0.1)">
       <use xlink:href="#DejaVuSans-30"/>
       <use xlink:href="#DejaVuSans-2e" x="63.623047"/>
       <use xlink:href="#DejaVuSans-31" x="95.410156"/>
       <use xlink:href="#DejaVuSans-30" x="159.033203"/>
      </g>
     </g>
    </g>
    <g id="ytick_4">
     <g id="line2d_25">
      <path d="M 45.965865 178.834407 
L 385.677538 178.834407 
" clip-path="url(#p2116303006)" style="fill: none; stroke: #b0b0b0; stroke-opacity: 0.3; stroke-width: 0.8; stroke-linecap: square"/>
     </g>
     <g id="line2d_26">
      <g>
       <use xlink:href="#m77dcdb43ff" x="45.965865" y="178.834407" style="stroke: #000000; stroke-width: 0.8"/>
      </g>
     </g>
     <g id="text_14">
      <!-- 0.15 -->
      <g transform="translate(16.70024 182.633625) scale(0.1 -0.1)">
       <use xlink:href="#DejaVuSans-30"/>
       <use xlink:href="#DejaVuSans-2e" x="63.623047"/>
       <use xlink:href="#DejaVuSans-31" x="95.410156"/>
       <use xlink:href="#DejaVuSans-35" x="159.033203"/>
      </g>
     </g>
    </g>
    <g id="ytick_5">
     <g id="line2d_27">
      <path d="M 45.965865 139.05021 
L 385.677538 139.05021 
" clip-path="url(#p2116303006)" style="fill: none; stroke: #b0b0b0; stroke-opacity: 0.3; stroke-width: 0.8; stroke-linecap: square"/>
     </g>
     <g id="line2d_28">
      <g>
       <use xlink:href="#m77dcdb43ff" x="45.965865" y="139.05021" style="stroke: #000000; stroke-width: 0.8"/>
      </g>
     </g>
     <g id="text_15">
      <!-- 0.20 -->
      <g transform="translate(16.70024 142.849428) scale(0.1 -0.1)">
       <use xlink:href="#DejaVuSans-30"/>
       <use xlink:href="#DejaVuSans-2e" x="63.623047"/>
       <use xlink:href="#DejaVuSans-32" x="95.410156"/>
       <use xlink:href="#DejaVuSans-30" x="159.033203"/>
      </g>
     </g>
    </g>
    <g id="ytick_6">
     <g id="line2d_29">
      <path d="M 45.965865 99.266013 
L 385.677538 99.266013 
" clip-path="url(#p2116303006)" style="fill: none; stroke: #b0b0b0; stroke-opacity: 0.3; stroke-width: 0.8; stroke-linecap: square"/>
     </g>
     <g id="line2d_30">
      <g>
       <use xlink:href="#m77dcdb43ff" x="45.965865" y="99.266013" style="stroke: #000000; stroke-width: 0.8"/>
      </g>
     </g>
     <g id="text_16">
      <!-- 0.25 -->
      <g transform="translate(16.70024 103.065231) scale(0.1 -0.1)">
       <use xlink:href="#DejaVuSans-30"/>
       <use xlink:href="#DejaVuSans-2e" x="63.623047"/>
       <use xlink:href="#DejaVuSans-32" x="95.410156"/>
       <use xlink:href="#DejaVuSans-35" x="159.033203"/>
      </g>
     </g>
    </g>
    <g id="ytick_7">
     <g id="line2d_31">
      <path d="M 45.965865 59.481816 
L 385.677538 59.481816 
" clip-path="url(#p2116303006)" style="fill: none; stroke: #b0b0b0; stroke-opacity: 0.3; stroke-width: 0.8; stroke-linecap: square"/>
     </g>
     <g id="line2d_32">
      <g>
       <use xlink:href="#m77dcdb43ff" x="45.965865" y="59.481816" style="stroke: #000000; stroke-width: 0.8"/>
      </g>
     </g>
     <g id="text_17">
      <!-- 0.30 -->
      <g transform="translate(16.70024 63.281034) scale(0.1 -0.1)">
       <use xlink:href="#DejaVuSans-30"/>
       <use xlink:href="#DejaVuSans-2e" x="63.623047"/>
       <use xlink:href="#DejaVuSans-33" x="95.410156"/>
       <use xlink:href="#DejaVuSans-30" x="159.033203"/>
      </g>
     </g>
    </g>
    <g id="ytick_8">
     <g id="line2d_33">
      <path d="M 45.965865 19.697619 
L 385.677538 19.697619 
" clip-path="url(#p2116303006)" style="fill: none; stroke: #b0b0b0; stroke-opacity: 0.3; stroke-width: 0.8; stroke-linecap: square"/>
     </g>
     <g id="line2d_34">
      <g>
       <use xlink:href="#m77dcdb43ff" x="45.965865" y="19.697619" style="stroke: #000000; stroke-width: 0.8"/>
      </g>
     </g>
     <g id="text_18">
      <!-- 0.35 -->
      <g transform="translate(16.70024 23.496837) scale(0.1 -0.1)">
       <use xlink:href="#DejaVuSans-30"/>
       <use xlink:href="#DejaVuSans-2e" x="63.623047"/>
       <use xlink:href="#DejaVuSans-33" x="95.410156"/>
       <use xlink:href="#DejaVuSans-35" x="159.033203"/>
      </g>
     </g>
    </g>
    <g id="text_19">
     <!-- Wetting-phase saturation $S_w$ [-] -->
     <g transform="translate(10.60024 236.371875) rotate(-90) scale(0.1 -0.1)">
      <defs>
       <path id="DejaVuSans-57" d="M 213 4666 
L 850 4666 
L 1831 722 
L 2809 4666 
L 3519 4666 
L 4500 722 
L 5478 4666 
L 6119 4666 
L 4947 0 
L 4153 0 
L 3169 4050 
L 2175 0 
L 1381 0 
L 213 4666 
z
" transform="scale(0.015625)"/>
       <path id="DejaVuSans-65" d="M 3597 1894 
L 3597 1613 
L 953 1613 
Q 991 1019 1311 708 
Q 1631 397 2203 397 
Q 2534 397 2845 478 
Q 3156 559 3463 722 
L 3463 178 
Q 3153 47 2828 -22 
Q 2503 -91 2169 -91 
Q 1331 -91 842 396 
Q 353 884 353 1716 
Q 353 2575 817 3079 
Q 1281 3584 2069 3584 
Q 2775 3584 3186 3129 
Q 3597 2675 3597 1894 
z
M 3022 2063 
Q 3016 2534 2758 2815 
Q 2500 3097 2075 3097 
Q 1594 3097 1305 2825 
Q 1016 2553 972 2059 
L 3022 2063 
z
" transform="scale(0.015625)"/>
       <path id="DejaVuSans-74" d="M 1172 4494 
L 1172 3500 
L 2356 3500 
L 2356 3053 
L 1172 3053 
L 1172 1153 
Q 1172 725 1289 603 
Q 1406 481 1766 481 
L 2356 481 
L 2356 0 
L 1766 0 
Q 1100 0 847 248 
Q 594 497 594 1153 
L 594 3053 
L 172 3053 
L 172 3500 
L 594 3500 
L 594 4494 
L 1172 4494 
z
" transform="scale(0.015625)"/>
       <path id="DejaVuSans-69" d="M 603 3500 
L 1178 3500 
L 1178 0 
L 603 0 
L 603 3500 
z
M 603 4863 
L 1178 4863 
L 1178 4134 
L 603 4134 
L 603 4863 
z
" transform="scale(0.015625)"/>
       <path id="DejaVuSans-6e" d="M 3513 2113 
L 3513 0 
L 2938 0 
L 2938 2094 
Q 2938 2591 2744 2837 
Q 2550 3084 2163 3084 
Q 1697 3084 1428 2787 
Q 1159 2491 1159 1978 
L 1159 0 
L 581 0 
L 581 3500 
L 1159 3500 
L 1159 2956 
Q 1366 3272 1645 3428 
Q 1925 3584 2291 3584 
Q 2894 3584 3203 3211 
Q 3513 2838 3513 2113 
z
" transform="scale(0.015625)"/>
       <path id="DejaVuSans-67" d="M 2906 1791 
Q 2906 2416 2648 2759 
Q 2391 3103 1925 3103 
Q 1463 3103 1205 2759 
Q 947 2416 947 1791 
Q 947 1169 1205 825 
Q 1463 481 1925 481 
Q 2391 481 2648 825 
Q 2906 1169 2906 1791 
z
M 3481 434 
Q 3481 -459 3084 -895 
Q 2688 -1331 1869 -1331 
Q 1566 -1331 1297 -1286 
Q 1028 -1241 775 -1147 
L 775 -588 
Q 1028 -725 1275 -790 
Q 1522 -856 1778 -856 
Q 2344 -856 2625 -561 
Q 2906 -266 2906 331 
L 2906 616 
Q 2728 306 2450 153 
Q 2172 0 1784 0 
Q 1141 0 747 490 
Q 353 981 353 1791 
Q 353 2603 747 3093 
Q 1141 3584 1784 3584 
Q 2172 3584 2450 3431 
Q 2728 3278 2906 2969 
L 2906 3500 
L 3481 3500 
L 3481 434 
z
" transform="scale(0.015625)"/>
       <path id="DejaVuSans-2d" d="M 313 2009 
L 1997 2009 
L 1997 1497 
L 313 1497 
L 313 2009 
z
" transform="scale(0.015625)"/>
       <path id="DejaVuSans-70" d="M 1159 525 
L 1159 -1331 
L 581 -1331 
L 581 3500 
L 1159 3500 
L 1159 2969 
Q 1341 3281 1617 3432 
Q 1894 3584 2278 3584 
Q 2916 3584 3314 3078 
Q 3713 2572 3713 1747 
Q 3713 922 3314 415 
Q 2916 -91 2278 -91 
Q 1894 -91 1617 61 
Q 1341 213 1159 525 
z
M 3116 1747 
Q 3116 2381 2855 2742 
Q 2594 3103 2138 3103 
Q 1681 3103 1420 2742 
Q 1159 2381 1159 1747 
Q 1159 1113 1420 752 
Q 1681 391 2138 391 
Q 2594 391 2855 752 
Q 3116 1113 3116 1747 
z
" transform="scale(0.015625)"/>
       <path id="DejaVuSans-68" d="M 3513 2113 
L 3513 0 
L 2938 0 
L 2938 2094 
Q 2938 2591 2744 2837 
Q 2550 3084 2163 3084 
Q 1697 3084 1428 2787 
Q 1159 2491 1159 1978 
L 1159 0 
L 581 0 
L 581 4863 
L 1159 4863 
L 1159 2956 
Q 1366 3272 1645 3428 
Q 1925 3584 2291 3584 
Q 2894 3584 3203 3211 
Q 3513 2838 3513 2113 
z
" transform="scale(0.015625)"/>
       <path id="DejaVuSans-61" d="M 2194 1759 
Q 1497 1759 1228 1600 
Q 959 1441 959 1056 
Q 959 750 1161 570 
Q 1363 391 1709 391 
Q 2188 391 2477 730 
Q 2766 1069 2766 1631 
L 2766 1759 
L 2194 1759 
z
M 3341 1997 
L 3341 0 
L 2766 0 
L 2766 531 
Q 2569 213 2275 61 
Q 1981 -91 1556 -91 
Q 1019 -91 701 211 
Q 384 513 384 1019 
Q 384 1609 779 1909 
Q 1175 2209 1959 2209 
L 2766 2209 
L 2766 2266 
Q 2766 2663 2505 2880 
Q 2244 3097 1772 3097 
Q 1472 3097 1187 3025 
Q 903 2953 641 2809 
L 641 3341 
Q 956 3463 1253 3523 
Q 1550 3584 1831 3584 
Q 2591 3584 2966 3190 
Q 3341 2797 3341 1997 
z
" transform="scale(0.015625)"/>
       <path id="DejaVuSans-73" d="M 2834 3397 
L 2834 2853 
Q 2591 2978 2328 3040 
Q 2066 3103 1784 3103 
Q 1356 3103 1142 2972 
Q 928 2841 928 2578 
Q 928 2378 1081 2264 
Q 1234 2150 1697 2047 
L 1894 2003 
Q 2506 1872 2764 1633 
Q 3022 1394 3022 966 
Q 3022 478 2636 193 
Q 2250 -91 1575 -91 
Q 1294 -91 989 -36 
Q 684 19 347 128 
L 347 722 
Q 666 556 975 473 
Q 1284 391 1588 391 
Q 1994 391 2212 530 
Q 2431 669 2431 922 
Q 2431 1156 2273 1281 
Q 2116 1406 1581 1522 
L 1381 1569 
Q 847 1681 609 1914 
Q 372 2147 372 2553 
Q 372 3047 722 3315 
Q 1072 3584 1716 3584 
Q 2034 3584 2315 3537 
Q 2597 3491 2834 3397 
z
" transform="scale(0.015625)"/>
       <path id="DejaVuSans-75" d="M 544 1381 
L 544 3500 
L 1119 3500 
L 1119 1403 
Q 1119 906 1312 657 
Q 1506 409 1894 409 
Q 2359 409 2629 706 
Q 2900 1003 2900 1516 
L 2900 3500 
L 3475 3500 
L 3475 0 
L 2900 0 
L 2900 538 
Q 2691 219 2414 64 
Q 2138 -91 1772 -91 
Q 1169 -91 856 284 
Q 544 659 544 1381 
z
M 1991 3584 
L 1991 3584 
z
" transform="scale(0.015625)"/>
       <path id="DejaVuSans-72" d="M 2631 2963 
Q 2534 3019 2420 3045 
Q 2306 3072 2169 3072 
Q 1681 3072 1420 2755 
Q 1159 2438 1159 1844 
L 1159 0 
L 581 0 
L 581 3500 
L 1159 3500 
L 1159 2956 
Q 1341 3275 1631 3429 
Q 1922 3584 2338 3584 
Q 2397 3584 2469 3576 
Q 2541 3569 2628 3553 
L 2631 2963 
z
" transform="scale(0.015625)"/>
       <path id="DejaVuSans-6f" d="M 1959 3097 
Q 1497 3097 1228 2736 
Q 959 2375 959 1747 
Q 959 1119 1226 758 
Q 1494 397 1959 397 
Q 2419 397 2687 759 
Q 2956 1122 2956 1747 
Q 2956 2369 2687 2733 
Q 2419 3097 1959 3097 
z
M 1959 3584 
Q 2709 3584 3137 3096 
Q 3566 2609 3566 1747 
Q 3566 888 3137 398 
Q 2709 -91 1959 -91 
Q 1206 -91 779 398 
Q 353 888 353 1747 
Q 353 2609 779 3096 
Q 1206 3584 1959 3584 
z
" transform="scale(0.015625)"/>
       <path id="DejaVuSans-Oblique-53" d="M 3859 4513 
L 3738 3897 
Q 3422 4066 3111 4152 
Q 2800 4238 2509 4238 
Q 1944 4238 1609 3991 
Q 1275 3744 1275 3334 
Q 1275 3109 1398 2989 
Q 1522 2869 2034 2731 
L 2413 2638 
Q 3053 2472 3303 2217 
Q 3553 1963 3553 1503 
Q 3553 797 2998 353 
Q 2444 -91 1538 -91 
Q 1166 -91 791 -17 
Q 416 56 38 206 
L 166 856 
Q 513 641 861 531 
Q 1209 422 1556 422 
Q 2147 422 2503 684 
Q 2859 947 2859 1369 
Q 2859 1650 2717 1795 
Q 2575 1941 2106 2059 
L 1728 2156 
Q 1081 2325 845 2545 
Q 609 2766 609 3163 
Q 609 3859 1145 4304 
Q 1681 4750 2541 4750 
Q 2875 4750 3203 4690 
Q 3531 4631 3859 4513 
z
" transform="scale(0.015625)"/>
       <path id="DejaVuSans-Oblique-77" d="M 544 3500 
L 1113 3500 
L 1259 684 
L 2566 3500 
L 3231 3500 
L 3425 684 
L 4666 3500 
L 5241 3500 
L 3641 0 
L 2969 0 
L 2797 2900 
L 1459 0 
L 781 0 
L 544 3500 
z
" transform="scale(0.015625)"/>
      </defs>
      <use xlink:href="#DejaVuSans-57" transform="translate(0 0.015625)"/>
      <use xlink:href="#DejaVuSans-65" transform="translate(98.876953 0.015625)"/>
      <use xlink:href="#DejaVuSans-74" transform="translate(160.400391 0.015625)"/>
      <use xlink:href="#DejaVuSans-74" transform="translate(199.609375 0.015625)"/>
      <use xlink:href="#DejaVuSans-69" transform="translate(238.818359 0.015625)"/>
      <use xlink:href="#DejaVuSans-6e" transform="translate(266.601562 0.015625)"/>
      <use xlink:href="#DejaVuSans-67" transform="translate(329.980469 0.015625)"/>
      <use xlink:href="#DejaVuSans-2d" transform="translate(393.457031 0.015625)"/>
      <use xlink:href="#DejaVuSans-70" transform="translate(429.541016 0.015625)"/>
      <use xlink:href="#DejaVuSans-68" transform="translate(493.017578 0.015625)"/>
      <use xlink:href="#DejaVuSans-61" transform="translate(556.396484 0.015625)"/>
      <use xlink:href="#DejaVuSans-73" transform="translate(617.675781 0.015625)"/>
      <use xlink:href="#DejaVuSans-65" transform="translate(669.775391 0.015625)"/>
      <use xlink:href="#DejaVuSans-20" transform="translate(731.298828 0.015625)"/>
      <use xlink:href="#DejaVuSans-73" transform="translate(763.085938 0.015625)"/>
      <use xlink:href="#DejaVuSans-61" transform="translate(815.185547 0.015625)"/>
      <use xlink:href="#DejaVuSans-74" transform="translate(876.464844 0.015625)"/>
      <use xlink:href="#DejaVuSans-75" transform="translate(915.673828 0.015625)"/>
      <use xlink:href="#DejaVuSans-72" transform="translate(979.052734 0.015625)"/>
      <use xlink:href="#DejaVuSans-61" transform="translate(1020.166016 0.015625)"/>
      <use xlink:href="#DejaVuSans-74" transform="translate(1081.445312 0.015625)"/>
      <use xlink:href="#DejaVuSans-69" transform="translate(1120.654297 0.015625)"/>
      <use xlink:href="#DejaVuSans-6f" transform="translate(1148.4375 0.015625)"/>
      <use xlink:href="#DejaVuSans-6e" transform="translate(1209.619141 0.015625)"/>
      <use xlink:href="#DejaVuSans-20" transform="translate(1272.998047 0.015625)"/>
      <use xlink:href="#DejaVuSans-Oblique-53" transform="translate(1304.785156 0.015625)"/>
      <use xlink:href="#DejaVuSans-Oblique-77" transform="translate(1368.261719 -16.390625) scale(0.7)"/>
      <use xlink:href="#DejaVuSans-20" transform="translate(1428.24707 0.015625)"/>
      <use xlink:href="#DejaVuSans-5b" transform="translate(1460.03418 0.015625)"/>
      <use xlink:href="#DejaVuSans-2d" transform="translate(1499.047852 0.015625)"/>
      <use xlink:href="#DejaVuSans-5d" transform="translate(1535.131836 0.015625)"/>
     </g>
    </g>
   </g>
   <g id="line2d_35">
    <path d="M 47.268866 17.056752 
L 47.268866 17.056752 
L 55.326254 19.680123 
L 55.326254 19.680123 
L 63.383595 22.280397 
L 63.383595 22.280397 
L 71.440935 24.860017 
L 71.440935 24.860017 
L 79.498275 27.422919 
L 79.498275 27.422919 
L 87.555615 29.973087 
L 87.555615 29.973087 
L 95.612955 32.513699 
L 95.612955 32.513699 
L 103.670344 35.047956 
L 103.670344 35.047956 
L 111.727684 37.580623 
L 111.727684 37.580623 
L 119.785024 40.114074 
L 119.785024 40.114074 
L 127.842364 42.653097 
L 127.842364 42.653097 
L 135.899704 45.201676 
L 135.899704 45.201676 
L 143.957045 47.765361 
L 143.957045 47.765361 
L 152.014433 50.347375 
L 152.014433 50.347375 
L 160.071773 52.954811 
L 160.071773 52.954811 
L 168.129113 55.592505 
L 168.129113 55.592505 
L 176.186453 58.267594 
L 176.186453 58.267594 
L 184.243794 60.987241 
L 184.243794 60.987241 
L 192.301134 63.761001 
L 192.301134 63.761001 
L 200.358522 66.596818 
L 200.358522 66.596818 
L 208.415862 69.508234 
L 208.415862 69.508234 
L 216.473202 72.508764 
L 216.473202 72.508764 
L 224.530542 75.613513 
L 224.530542 75.613513 
L 232.587883 78.845579 
L 232.587883 78.845579 
L 240.645223 82.22884 
L 240.645223 82.22884 
L 248.702563 85.796685 
L 248.702563 85.796685 
L 256.759903 89.593671 
L 256.759903 89.593671 
L 264.817243 93.678725 
L 264.817243 93.678725 
L 272.874584 98.136931 
L 272.874584 98.136931 
L 280.93202 103.094051 
L 280.93202 103.094051 
L 288.98936 108.751364 
L 288.98936 108.751364 
L 297.0467 115.459777 
L 297.0467 115.459777 
L 305.10404 123.923467 
L 305.10404 123.923467 
L 313.161381 135.90249 
L 313.161381 135.90249 
L 321.218721 158.182432 
L 321.218721 158.182432 
L 329.276061 298.186998 
L 329.276061 298.186998 
L 337.333401 298.186998 
L 337.333401 298.186998 
L 345.390741 298.186998 
L 345.390741 298.186998 
L 353.448082 298.186998 
L 353.448082 298.186998 
L 361.505422 298.186998 
L 361.505422 298.186998 
L 369.562762 298.186998 
L 369.562762 298.186998 
L 377.620198 298.186998 
L 377.620198 298.186998 
L 385.677538 298.186998 
L 385.677538 298.186998 
" clip-path="url(#p2116303006)" style="fill: none; stroke: #463480; stroke-width: 1.6; stroke-linecap: square"/>
   </g>
   <g id="line2d_36">
    <path d="M 47.268866 20.130461 
L 75.469605 29.201269 
L 75.469605 29.201269 
L 147.985715 52.359656 
L 147.985715 52.359656 
L 168.129113 59.076808 
L 168.129113 59.076808 
L 184.243794 64.672063 
L 184.243794 64.672063 
L 196.329804 69.050711 
L 196.329804 69.050711 
L 208.415862 73.637822 
L 208.415862 73.637822 
L 220.501872 78.497065 
L 220.501872 78.497065 
L 228.559213 81.931239 
L 228.559213 81.931239 
L 236.616553 85.563537 
L 236.616553 85.563537 
L 244.673893 89.441693 
L 244.673893 89.441693 
L 252.731233 93.63654 
L 252.731233 93.63654 
L 260.788573 98.24753 
L 260.788573 98.24753 
L 264.817243 100.754741 
L 264.817243 100.754741 
L 268.845914 103.432214 
L 268.845914 103.432214 
L 272.874584 106.315778 
L 272.874584 106.315778 
L 276.90335 109.456334 
L 276.90335 109.456334 
L 280.93202 112.926315 
L 280.93202 112.926315 
L 284.96069 116.834717 
L 284.96069 116.834717 
L 288.98936 121.354198 
L 288.98936 121.354198 
L 293.01803 126.792697 
L 293.01803 126.792697 
L 297.0467 133.774026 
L 297.0467 133.774026 
L 301.07537 143.895128 
L 301.07537 143.895128 
L 305.10404 163.661504 
L 305.10404 163.661504 
L 309.132711 298.186998 
L 309.132711 298.186998 
L 385.677538 298.186998 
L 385.677538 298.186998 
" clip-path="url(#p2116303006)" style="fill: none; stroke: #21918c; stroke-width: 1.6; stroke-linecap: square"/>
   </g>
   <g id="line2d_37">
    <path d="M 47.268866 21.722638 
L 77.48394 31.434747 
L 77.48394 31.434747 
L 139.928374 51.450183 
L 139.928374 51.450183 
L 160.071773 58.171318 
L 160.071773 58.171318 
L 176.186453 63.76259 
L 176.186453 63.76259 
L 190.286799 68.880426 
L 190.286799 68.880426 
L 202.372857 73.496206 
L 202.372857 73.496206 
L 212.444532 77.551809 
L 212.444532 77.551809 
L 222.516207 81.855641 
L 222.516207 81.855641 
L 230.573596 85.525358 
L 230.573596 85.525358 
L 238.630936 89.453644 
L 238.630936 89.453644 
L 244.673893 92.61329 
L 244.673893 92.61329 
L 250.716946 96.003713 
L 250.716946 96.003713 
L 256.759903 99.686934 
L 256.759903 99.686934 
L 260.788573 102.347701 
L 260.788573 102.347701 
L 264.817243 105.214547 
L 264.817243 105.214547 
L 268.845914 108.340793 
L 268.845914 108.340793 
L 272.874584 111.802011 
L 272.874584 111.802011 
L 276.90335 115.712797 
L 276.90335 115.712797 
L 278.917637 117.892173 
L 278.917637 117.892173 
L 280.93202 120.264907 
L 280.93202 120.264907 
L 282.946307 122.881911 
L 282.946307 122.881911 
L 284.96069 125.814799 
L 284.96069 125.814799 
L 286.974977 129.177358 
L 286.974977 129.177358 
L 288.98936 133.157375 
L 288.98936 133.157375 
L 291.003647 138.108911 
L 291.003647 138.108911 
L 293.01803 144.826074 
L 293.01803 144.826074 
L 295.032317 155.743657 
L 295.032317 155.743657 
L 297.0467 186.915373 
L 297.0467 186.915373 
L 299.060987 298.186998 
L 299.060987 298.186998 
L 385.677538 298.186998 
L 385.677538 298.186998 
" clip-path="url(#p2116303006)" style="fill: none; stroke: #9bd93c; stroke-width: 1.6; stroke-linecap: square"/>
   </g>
   <g id="line2d_38">
    <path d="M 45.965865 22.611731 
L 76.55521 32.509108 
L 136.544315 51.872617 
L 156.937212 58.72375 
L 173.25153 64.430566 
L 187.016735 69.472954 
L 198.912591 74.058921 
L 209.448921 78.354187 
L 218.795666 82.402667 
L 226.952825 86.170803 
L 234.260279 89.78357 
L 240.887971 93.306852 
L 246.665958 96.62179 
L 251.934123 99.896062 
L 256.692466 103.117596 
L 260.940986 106.266939 
L 264.679684 109.314589 
L 268.0785 112.378685 
L 270.967494 115.272341 
L 273.516606 118.118391 
L 275.895777 121.107253 
L 277.935067 124.0187 
L 279.804416 127.085269 
L 281.333883 129.998859 
L 282.693409 133.039423 
L 283.882995 136.228482 
L 284.90264 139.593638 
L 285.752344 143.164219 
L 286.432107 146.971055 
L 286.941929 151.000444 
L 287.281811 155.037685 
L 287.451752 158.18795 
L 287.621693 165.261099 
L 287.791634 298.186998 
L 385.677538 298.186998 
L 385.677538 298.186998 
" clip-path="url(#p2116303006)" style="fill: none; stroke-dasharray: 7.4,3.2; stroke-dashoffset: 0; stroke: #000000; stroke-width: 2"/>
   </g>
   <g id="patch_3">
    <path d="M 45.965865 312.24351 
L 45.965865 3.00024 
" style="fill: none; stroke: #000000; stroke-width: 0.8; stroke-linejoin: miter; stroke-linecap: square"/>
   </g>
   <g id="patch_4">
    <path d="M 385.677538 312.24351 
L 385.677538 3.00024 
" style="fill: none; stroke: #000000; stroke-width: 0.8; stroke-linejoin: miter; stroke-linecap: square"/>
   </g>
   <g id="patch_5">
    <path d="M 45.965865 312.24351 
L 385.677538 312.24351 
" style="fill: none; stroke: #000000; stroke-width: 0.8; stroke-linejoin: miter; stroke-linecap: square"/>
   </g>
   <g id="patch_6">
    <path d="M 45.965865 3.00024 
L 385.677538 3.00024 
" style="fill: none; stroke: #000000; stroke-width: 0.8; stroke-linejoin: miter; stroke-linecap: square"/>
   </g>
   <g id="legend_1">
    <g id="patch_7">
     <path d="M 282.283007 63.04149 
L 379.377538 63.04149 
Q 381.177538 63.04149 381.177538 61.24149 
L 381.177538 9.30024 
Q 381.177538 7.50024 379.377538 7.50024 
L 282.283007 7.50024 
Q 280.483007 7.50024 280.483007 9.30024 
L 280.483007 61.24149 
Q 280.483007 63.04149 282.283007 63.04149 
z
" style="fill: #ffffff; opacity: 0.8; stroke: #cccccc; stroke-linejoin: miter"/>
    </g>
    <g id="line2d_39">
     <path d="M 284.083007 14.788834 
L 293.083007 14.788834 
L 302.083007 14.788834 
" style="fill: none; stroke: #463480; stroke-width: 1.6; stroke-linecap: square"/>
    </g>
    <g id="text_20">
     <!-- 120 cells -->
     <g transform="translate(309.283007 17.938834) scale(0.09 -0.09)">
      <defs>
       <path id="DejaVuSans-63" d="M 3122 3366 
L 3122 2828 
Q 2878 2963 2633 3030 
Q 2388 3097 2138 3097 
Q 1578 3097 1268 2742 
Q 959 2388 959 1747 
Q 959 1106 1268 751 
Q 1578 397 2138 397 
Q 2388 397 2633 464 
Q 2878 531 3122 666 
L 3122 134 
Q 2881 22 2623 -34 
Q 2366 -91 2075 -91 
Q 1284 -91 818 406 
Q 353 903 353 1747 
Q 353 2603 823 3093 
Q 1294 3584 2113 3584 
Q 2378 3584 2631 3529 
Q 2884 3475 3122 3366 
z
" transform="scale(0.015625)"/>
       <path id="DejaVuSans-6c" d="M 603 4863 
L 1178 4863 
L 1178 0 
L 603 0 
L 603 4863 
z
" transform="scale(0.015625)"/>
      </defs>
      <use xlink:href="#DejaVuSans-31"/>
      <use xlink:href="#DejaVuSans-32" x="63.623047"/>
      <use xlink:href="#DejaVuSans-30" x="127.246094"/>
      <use xlink:href="#DejaVuSans-20" x="190.869141"/>
      <use xlink:href="#DejaVuSans-63" x="222.65625"/>
      <use xlink:href="#DejaVuSans-65" x="277.636719"/>
      <use xlink:href="#DejaVuSans-6c" x="339.160156"/>
      <use xlink:href="#DejaVuSans-6c" x="366.943359"/>
      <use xlink:href="#DejaVuSans-73" x="394.726562"/>
     </g>
    </g>
    <g id="line2d_40">
     <path d="M 284.083007 27.999146 
L 293.083007 27.999146 
L 302.083007 27.999146 
" style="fill: none; stroke: #21918c; stroke-width: 1.6; stroke-linecap: square"/>
    </g>
    <g id="text_21">
     <!-- 240 cells -->
     <g transform="translate(309.283007 31.149146) scale(0.09 -0.09)">
      <use xlink:href="#DejaVuSans-32"/>
      <use xlink:href="#DejaVuSans-34" x="63.623047"/>
      <use xlink:href="#DejaVuSans-30" x="127.246094"/>
      <use xlink:href="#DejaVuSans-20" x="190.869141"/>
      <use xlink:href="#DejaVuSans-63" x="222.65625"/>
      <use xlink:href="#DejaVuSans-65" x="277.636719"/>
      <use xlink:href="#DejaVuSans-6c" x="339.160156"/>
      <use xlink:href="#DejaVuSans-6c" x="366.943359"/>
      <use xlink:href="#DejaVuSans-73" x="394.726562"/>
     </g>
    </g>
    <g id="line2d_41">
     <path d="M 284.083007 41.209459 
L 293.083007 41.209459 
L 302.083007 41.209459 
" style="fill: none; stroke: #9bd93c; stroke-width: 1.6; stroke-linecap: square"/>
    </g>
    <g id="text_22">
     <!-- 480 cells -->
     <g transform="translate(309.283007 44.359459) scale(0.09 -0.09)">
      <use xlink:href="#DejaVuSans-34"/>
      <use xlink:href="#DejaVuSans-38" x="63.623047"/>
      <use xlink:href="#DejaVuSans-30" x="127.246094"/>
      <use xlink:href="#DejaVuSans-20" x="190.869141"/>
      <use xlink:href="#DejaVuSans-63" x="222.65625"/>
      <use xlink:href="#DejaVuSans-65" x="277.636719"/>
      <use xlink:href="#DejaVuSans-6c" x="339.160156"/>
      <use xlink:href="#DejaVuSans-6c" x="366.943359"/>
      <use xlink:href="#DejaVuSans-73" x="394.726562"/>
     </g>
    </g>
    <g id="line2d_42">
     <path d="M 284.083007 54.419771 
L 293.083007 54.419771 
L 302.083007 54.419771 
" style="fill: none; stroke-dasharray: 7.4,3.2; stroke-dashoffset: 0; stroke: #000000; stroke-width: 2"/>
    </g>
    <g id="text_23">
     <!-- semi-analytical -->
     <g transform="translate(309.283007 57.569771) scale(0.09 -0.09)">
      <defs>
       <path id="DejaVuSans-79" d="M 2059 -325 
Q 1816 -950 1584 -1140 
Q 1353 -1331 966 -1331 
L 506 -1331 
L 506 -850 
L 844 -850 
Q 1081 -850 1212 -737 
Q 1344 -625 1503 -206 
L 1606 56 
L 191 3500 
L 800 3500 
L 1894 763 
L 2988 3500 
L 3597 3500 
L 2059 -325 
z
" transform="scale(0.015625)"/>
      </defs>
      <use xlink:href="#DejaVuSans-73"/>
      <use xlink:href="#DejaVuSans-65" x="52.099609"/>
      <use xlink:href="#DejaVuSans-6d" x="113.623047"/>
      <use xlink:href="#DejaVuSans-69" x="211.035156"/>
      <use xlink:href="#DejaVuSans-2d" x="238.818359"/>
      <use xlink:href="#DejaVuSans-61" x="274.902344"/>
      <use xlink:href="#DejaVuSans-6e" x="336.181641"/>
      <use xlink:href="#DejaVuSans-61" x="399.560547"/>
      <use xlink:href="#DejaVuSans-6c" x="460.839844"/>
      <use xlink:href="#DejaVuSans-79" x="488.623047"/>
      <use xlink:href="#DejaVuSans-74" x="547.802734"/>
      <use xlink:href="#DejaVuSans-69" x="587.011719"/>
      <use xlink:href="#DejaVuSans-63" x="614.794922"/>
      <use xlink:href="#DejaVuSans-61" x="669.775391"/>
      <use xlink:href="#DejaVuSans-6c" x="731.054688"/>
     </g>
    </g>
   </g>
  </g>
  <g id="axes_2">
   <g id="patch_8">
    <path d="M 441.336562 312.24351 
L 781.048236 312.24351 
L 781.048236 3.00024 
L 441.336562 3.00024 
z
" style="fill: #ffffff"/>
   </g>
   <g id="matplotlib.axis_3">
    <g id="xtick_10">
     <g id="line2d_43">
      <path d="M 458.754282 312.24351 
L 458.754282 3.00024 
" clip-path="url(#pcea300e4d9)" style="fill: none; stroke: #b0b0b0; stroke-opacity: 0.3; stroke-width: 0.8; stroke-linecap: square"/>
     </g>
     <g id="line2d_44">
      <g>
       <use xlink:href="#m95512bad08" x="458.754282" y="312.24351" style="stroke: #000000; stroke-width: 0.8"/>
      </g>
     </g>
     <g id="text_24">
      <!-- 1.6 -->
      <g transform="translate(450.80272 326.841947) scale(0.1 -0.1)">
       <use xlink:href="#DejaVuSans-31"/>
       <use xlink:href="#DejaVuSans-2e" x="63.623047"/>
       <use xlink:href="#DejaVuSans-36" x="95.410156"/>
      </g>
     </g>
    </g>
    <g id="xtick_11">
     <g id="line2d_45">
      <path d="M 499.041022 312.24351 
L 499.041022 3.00024 
" clip-path="url(#pcea300e4d9)" style="fill: none; stroke: #b0b0b0; stroke-opacity: 0.3; stroke-width: 0.8; stroke-linecap: square"/>
     </g>
     <g id="line2d_46">
      <g>
       <use xlink:href="#m95512bad08" x="499.041022" y="312.24351" style="stroke: #000000; stroke-width: 0.8"/>
      </g>
     </g>
     <g id="text_25">
      <!-- 1.7 -->
      <g transform="translate(491.089459 326.841947) scale(0.1 -0.1)">
       <use xlink:href="#DejaVuSans-31"/>
       <use xlink:href="#DejaVuSans-2e" x="63.623047"/>
       <use xlink:href="#DejaVuSans-37" x="95.410156"/>
      </g>
     </g>
    </g>
    <g id="xtick_12">
     <g id="line2d_47">
      <path d="M 539.327761 312.24351 
L 539.327761 3.00024 
" clip-path="url(#pcea300e4d9)" style="fill: none; stroke: #b0b0b0; stroke-opacity: 0.3; stroke-width: 0.8; stroke-linecap: square"/>
     </g>
     <g id="line2d_48">
      <g>
       <use xlink:href="#m95512bad08" x="539.327761" y="312.24351" style="stroke: #000000; stroke-width: 0.8"/>
      </g>
     </g>
     <g id="text_26">
      <!-- 1.8 -->
      <g transform="translate(531.376199 326.841947) scale(0.1 -0.1)">
       <use xlink:href="#DejaVuSans-31"/>
       <use xlink:href="#DejaVuSans-2e" x="63.623047"/>
       <use xlink:href="#DejaVuSans-38" x="95.410156"/>
      </g>
     </g>
    </g>
    <g id="xtick_13">
     <g id="line2d_49">
      <path d="M 579.614501 312.24351 
L 579.614501 3.00024 
" clip-path="url(#pcea300e4d9)" style="fill: none; stroke: #b0b0b0; stroke-opacity: 0.3; stroke-width: 0.8; stroke-linecap: square"/>
     </g>
     <g id="line2d_50">
      <g>
       <use xlink:href="#m95512bad08" x="579.614501" y="312.24351" style="stroke: #000000; stroke-width: 0.8"/>
      </g>
     </g>
     <g id="text_27">
      <!-- 1.9 -->
      <g transform="translate(571.662938 326.841947) scale(0.1 -0.1)">
       <use xlink:href="#DejaVuSans-31"/>
       <use xlink:href="#DejaVuSans-2e" x="63.623047"/>
       <use xlink:href="#DejaVuSans-39" x="95.410156"/>
      </g>
     </g>
    </g>
    <g id="xtick_14">
     <g id="line2d_51">
      <path d="M 619.90124 312.24351 
L 619.90124 3.00024 
" clip-path="url(#pcea300e4d9)" style="fill: none; stroke: #b0b0b0; stroke-opacity: 0.3; stroke-width: 0.8; stroke-linecap: square"/>
     </g>
     <g id="line2d_52">
      <g>
       <use xlink:href="#m95512bad08" x="619.90124" y="312.24351" style="stroke: #000000; stroke-width: 0.8"/>
      </g>
     </g>
     <g id="text_28">
      <!-- 2.0 -->
      <g transform="translate(611.949677 326.841947) scale(0.1 -0.1)">
       <use xlink:href="#DejaVuSans-32"/>
       <use xlink:href="#DejaVuSans-2e" x="63.623047"/>
       <use xlink:href="#DejaVuSans-30" x="95.410156"/>
      </g>
     </g>
    </g>
    <g id="xtick_15">
     <g id="line2d_53">
      <path d="M 660.187979 312.24351 
L 660.187979 3.00024 
" clip-path="url(#pcea300e4d9)" style="fill: none; stroke: #b0b0b0; stroke-opacity: 0.3; stroke-width: 0.8; stroke-linecap: square"/>
     </g>
     <g id="line2d_54">
      <g>
       <use xlink:href="#m95512bad08" x="660.187979" y="312.24351" style="stroke: #000000; stroke-width: 0.8"/>
      </g>
     </g>
     <g id="text_29">
      <!-- 2.1 -->
      <g transform="translate(652.236417 326.841947) scale(0.1 -0.1)">
       <use xlink:href="#DejaVuSans-32"/>
       <use xlink:href="#DejaVuSans-2e" x="63.623047"/>
       <use xlink:href="#DejaVuSans-31" x="95.410156"/>
      </g>
     </g>
    </g>
    <g id="xtick_16">
     <g id="line2d_55">
      <path d="M 700.474719 312.24351 
L 700.474719 3.00024 
" clip-path="url(#pcea300e4d9)" style="fill: none; stroke: #b0b0b0; stroke-opacity: 0.3; stroke-width: 0.8; stroke-linecap: square"/>
     </g>
     <g id="line2d_56">
      <g>
       <use xlink:href="#m95512bad08" x="700.474719" y="312.24351" style="stroke: #000000; stroke-width: 0.8"/>
      </g>
     </g>
     <g id="text_30">
      <!-- 2.2 -->
      <g transform="translate(692.523156 326.841947) scale(0.1 -0.1)">
       <use xlink:href="#DejaVuSans-32"/>
       <use xlink:href="#DejaVuSans-2e" x="63.623047"/>
       <use xlink:href="#DejaVuSans-32" x="95.410156"/>
      </g>
     </g>
    </g>
    <g id="xtick_17">
     <g id="line2d_57">
      <path d="M 740.761458 312.24351 
L 740.761458 3.00024 
" clip-path="url(#pcea300e4d9)" style="fill: none; stroke: #b0b0b0; stroke-opacity: 0.3; stroke-width: 0.8; stroke-linecap: square"/>
     </g>
     <g id="line2d_58">
      <g>
       <use xlink:href="#m95512bad08" x="740.761458" y="312.24351" style="stroke: #000000; stroke-width: 0.8"/>
      </g>
     </g>
     <g id="text_31">
      <!-- 2.3 -->
      <g transform="translate(732.809896 326.841947) scale(0.1 -0.1)">
       <use xlink:href="#DejaVuSans-32"/>
       <use xlink:href="#DejaVuSans-2e" x="63.623047"/>
       <use xlink:href="#DejaVuSans-33" x="95.410156"/>
      </g>
     </g>
    </g>
    <g id="xtick_18">
     <g id="line2d_59">
      <path d="M 781.048197 312.24351 
L 781.048197 3.00024 
" clip-path="url(#pcea300e4d9)" style="fill: none; stroke: #b0b0b0; stroke-opacity: 0.3; stroke-width: 0.8; stroke-linecap: square"/>
     </g>
     <g id="line2d_60">
      <g>
       <use xlink:href="#m95512bad08" x="781.048197" y="312.24351" style="stroke: #000000; stroke-width: 0.8"/>
      </g>
     </g>
     <g id="text_32">
      <!-- 2.4 -->
      <g transform="translate(773.096635 326.841947) scale(0.1 -0.1)">
       <use xlink:href="#DejaVuSans-32"/>
       <use xlink:href="#DejaVuSans-2e" x="63.623047"/>
       <use xlink:href="#DejaVuSans-34" x="95.410156"/>
      </g>
     </g>
    </g>
    <g id="text_33">
     <!-- x [m] -->
     <g transform="translate(597.872087 340.520072) scale(0.1 -0.1)">
      <use xlink:href="#DejaVuSans-78"/>
      <use xlink:href="#DejaVuSans-20" x="59.179688"/>
      <use xlink:href="#DejaVuSans-5b" x="90.966797"/>
      <use xlink:href="#DejaVuSans-6d" x="129.980469"/>
      <use xlink:href="#DejaVuSans-5d" x="227.392578"/>
     </g>
    </g>
   </g>
   <g id="matplotlib.axis_4">
    <g id="ytick_9">
     <g id="line2d_61">
      <path d="M 441.336562 282.717788 
L 781.048236 282.717788 
" clip-path="url(#pcea300e4d9)" style="fill: none; stroke: #b0b0b0; stroke-opacity: 0.3; stroke-width: 0.8; stroke-linecap: square"/>
     </g>
     <g id="line2d_62">
      <g>
       <use xlink:href="#m77dcdb43ff" x="441.336562" y="282.717788" style="stroke: #000000; stroke-width: 0.8"/>
      </g>
     </g>
     <g id="text_34">
      <!-- 380 -->
      <g transform="translate(415.249062 286.517006) scale(0.1 -0.1)">
       <use xlink:href="#DejaVuSans-33"/>
       <use xlink:href="#DejaVuSans-38" x="63.623047"/>
       <use xlink:href="#DejaVuSans-30" x="127.246094"/>
      </g>
     </g>
    </g>
    <g id="ytick_10">
     <g id="line2d_63">
      <path d="M 441.336562 234.376691 
L 781.048236 234.376691 
" clip-path="url(#pcea300e4d9)" style="fill: none; stroke: #b0b0b0; stroke-opacity: 0.3; stroke-width: 0.8; stroke-linecap: square"/>
     </g>
     <g id="line2d_64">
      <g>
       <use xlink:href="#m77dcdb43ff" x="441.336562" y="234.376691" style="stroke: #000000; stroke-width: 0.8"/>
      </g>
     </g>
     <g id="text_35">
      <!-- 390 -->
      <g transform="translate(415.249062 238.175909) scale(0.1 -0.1)">
       <use xlink:href="#DejaVuSans-33"/>
       <use xlink:href="#DejaVuSans-39" x="63.623047"/>
       <use xlink:href="#DejaVuSans-30" x="127.246094"/>
      </g>
     </g>
    </g>
    <g id="ytick_11">
     <g id="line2d_65">
      <path d="M 441.336562 186.035594 
L 781.048236 186.035594 
" clip-path="url(#pcea300e4d9)" style="fill: none; stroke: #b0b0b0; stroke-opacity: 0.3; stroke-width: 0.8; stroke-linecap: square"/>
     </g>
     <g id="line2d_66">
      <g>
       <use xlink:href="#m77dcdb43ff" x="441.336562" y="186.035594" style="stroke: #000000; stroke-width: 0.8"/>
      </g>
     </g>
     <g id="text_36">
      <!-- 400 -->
      <g transform="translate(415.249062 189.834812) scale(0.1 -0.1)">
       <use xlink:href="#DejaVuSans-34"/>
       <use xlink:href="#DejaVuSans-30" x="63.623047"/>
       <use xlink:href="#DejaVuSans-30" x="127.246094"/>
      </g>
     </g>
    </g>
    <g id="ytick_12">
     <g id="line2d_67">
      <path d="M 441.336562 137.694496 
L 781.048236 137.694496 
" clip-path="url(#pcea300e4d9)" style="fill: none; stroke: #b0b0b0; stroke-opacity: 0.3; stroke-width: 0.8; stroke-linecap: square"/>
     </g>
     <g id="line2d_68">
      <g>
       <use xlink:href="#m77dcdb43ff" x="441.336562" y="137.694496" style="stroke: #000000; stroke-width: 0.8"/>
      </g>
     </g>
     <g id="text_37">
      <!-- 410 -->
      <g transform="translate(415.249062 141.493715) scale(0.1 -0.1)">
       <use xlink:href="#DejaVuSans-34"/>
       <use xlink:href="#DejaVuSans-31" x="63.623047"/>
       <use xlink:href="#DejaVuSans-30" x="127.246094"/>
      </g>
     </g>
    </g>
    <g id="ytick_13">
     <g id="line2d_69">
      <path d="M 441.336562 89.353399 
L 781.048236 89.353399 
" clip-path="url(#pcea300e4d9)" style="fill: none; stroke: #b0b0b0; stroke-opacity: 0.3; stroke-width: 0.8; stroke-linecap: square"/>
     </g>
     <g id="line2d_70">
      <g>
       <use xlink:href="#m77dcdb43ff" x="441.336562" y="89.353399" style="stroke: #000000; stroke-width: 0.8"/>
      </g>
     </g>
     <g id="text_38">
      <!-- 420 -->
      <g transform="translate(415.249062 93.152618) scale(0.1 -0.1)">
       <use xlink:href="#DejaVuSans-34"/>
       <use xlink:href="#DejaVuSans-32" x="63.623047"/>
       <use xlink:href="#DejaVuSans-30" x="127.246094"/>
      </g>
     </g>
    </g>
    <g id="ytick_14">
     <g id="line2d_71">
      <path d="M 441.336562 41.012302 
L 781.048236 41.012302 
" clip-path="url(#pcea300e4d9)" style="fill: none; stroke: #b0b0b0; stroke-opacity: 0.3; stroke-width: 0.8; stroke-linecap: square"/>
     </g>
     <g id="line2d_72">
      <g>
       <use xlink:href="#m77dcdb43ff" x="441.336562" y="41.012302" style="stroke: #000000; stroke-width: 0.8"/>
      </g>
     </g>
     <g id="text_39">
      <!-- 430 -->
      <g transform="translate(415.249062 44.811521) scale(0.1 -0.1)">
       <use xlink:href="#DejaVuSans-34"/>
       <use xlink:href="#DejaVuSans-33" x="63.623047"/>
       <use xlink:href="#DejaVuSans-30" x="127.246094"/>
      </g>
     </g>
    </g>
    <g id="text_40">
     <!-- Temperature $T$ [K] -->
     <g transform="translate(409.149062 203.671875) rotate(-90) scale(0.1 -0.1)">
      <defs>
       <path id="DejaVuSans-54" d="M -19 4666 
L 3928 4666 
L 3928 4134 
L 2272 4134 
L 2272 0 
L 1638 0 
L 1638 4134 
L -19 4134 
L -19 4666 
z
" transform="scale(0.015625)"/>
       <path id="DejaVuSans-Oblique-54" d="M 378 4666 
L 4325 4666 
L 4225 4134 
L 2559 4134 
L 1759 0 
L 1125 0 
L 1925 4134 
L 275 4134 
L 378 4666 
z
" transform="scale(0.015625)"/>
       <path id="DejaVuSans-4b" d="M 628 4666 
L 1259 4666 
L 1259 2694 
L 3353 4666 
L 4166 4666 
L 1850 2491 
L 4331 0 
L 3500 0 
L 1259 2247 
L 1259 0 
L 628 0 
L 628 4666 
z
" transform="scale(0.015625)"/>
      </defs>
      <use xlink:href="#DejaVuSans-54" transform="translate(0 0.015625)"/>
      <use xlink:href="#DejaVuSans-65" transform="translate(61.083984 0.015625)"/>
      <use xlink:href="#DejaVuSans-6d" transform="translate(122.607422 0.015625)"/>
      <use xlink:href="#DejaVuSans-70" transform="translate(220.019531 0.015625)"/>
      <use xlink:href="#DejaVuSans-65" transform="translate(283.496094 0.015625)"/>
      <use xlink:href="#DejaVuSans-72" transform="translate(345.019531 0.015625)"/>
      <use xlink:href="#DejaVuSans-61" transform="translate(386.132812 0.015625)"/>
      <use xlink:href="#DejaVuSans-74" transform="translate(447.412109 0.015625)"/>
      <use xlink:href="#DejaVuSans-75" transform="translate(486.621094 0.015625)"/>
      <use xlink:href="#DejaVuSans-72" transform="translate(550 0.015625)"/>
      <use xlink:href="#DejaVuSans-65" transform="translate(591.113281 0.015625)"/>
      <use xlink:href="#DejaVuSans-20" transform="translate(652.636719 0.015625)"/>
      <use xlink:href="#DejaVuSans-Oblique-54" transform="translate(684.423828 0.015625)"/>
      <use xlink:href="#DejaVuSans-20" transform="translate(745.507812 0.015625)"/>
      <use xlink:href="#DejaVuSans-5b" transform="translate(777.294922 0.015625)"/>
      <use xlink:href="#DejaVuSans-4b" transform="translate(816.308594 0.015625)"/>
      <use xlink:href="#DejaVuSans-5d" transform="translate(881.884766 0.015625)"/>
     </g>
    </g>
   </g>
   <g id="line2d_73">
    <path d="M 442.639564 298.186998 
L 442.639564 298.186998 
L 450.696952 298.143478 
L 450.696952 298.143478 
L 458.754292 298.099958 
L 458.754292 298.099958 
L 466.811632 298.056438 
L 466.811632 298.056438 
L 474.868972 298.012918 
L 474.868972 298.012918 
L 482.926313 297.969398 
L 482.926313 297.969398 
L 490.983653 297.930746 
L 490.983653 297.930746 
L 499.041041 297.892095 
L 499.041041 297.892095 
L 507.098381 297.848575 
L 507.098381 297.848575 
L 515.155721 297.809923 
L 515.155721 297.809923 
L 523.213062 297.771271 
L 523.213062 297.771271 
L 531.270402 297.732472 
L 531.270402 297.732472 
L 539.327742 297.698689 
L 539.327742 297.698689 
L 547.38513 297.660037 
L 547.38513 297.660037 
L 555.44247 297.621386 
L 555.44247 297.621386 
L 563.499811 297.587455 
L 563.499811 297.587455 
L 571.557151 297.548803 
L 571.557151 297.548803 
L 579.614491 297.51502 
L 579.614491 297.51502 
L 587.671831 297.481089 
L 587.671831 297.481089 
L 595.729219 297.447306 
L 595.729219 297.447306 
L 603.78656 297.413522 
L 603.78656 297.413522 
L 611.8439 297.379592 
L 611.8439 297.379592 
L 619.90124 297.350677 
L 619.90124 297.350677 
L 627.95858 297.316746 
L 627.95858 297.316746 
L 636.01592 297.287831 
L 636.01592 297.287831 
L 644.073261 297.2539 
L 644.073261 297.2539 
L 652.130601 297.224985 
L 652.130601 297.224985 
L 660.187941 297.195923 
L 660.187941 297.195923 
L 668.245281 297.167008 
L 668.245281 297.167008 
L 676.302717 297.137945 
L 676.302717 297.137945 
L 684.360058 297.113751 
L 684.360058 297.113751 
L 692.417398 297.084689 
L 692.417398 297.084689 
L 700.474738 297.060642 
L 700.474738 297.060642 
L 708.532078 297.036448 
L 708.532078 297.036448 
L 716.589418 297.012254 
L 716.589418 297.012254 
L 724.646759 294.232582 
L 724.646759 294.232582 
L 732.704099 271.633178 
L 732.704099 271.633178 
L 740.761439 249.038495 
L 740.761439 249.038495 
L 748.818779 226.439091 
L 748.818779 226.439091 
L 756.876119 203.839687 
L 756.876119 203.839687 
L 764.933459 181.240135 
L 764.933459 181.240135 
L 772.990896 158.6456 
L 772.990896 158.6456 
L 781.048236 136.046049 
L 781.048236 136.046049 
" clip-path="url(#pcea300e4d9)" style="fill: none; stroke: #463480; stroke-width: 1.6; stroke-linecap: square"/>
   </g>
   <g id="line2d_74">
    <path d="M 442.639564 298.138609 
L 547.38513 297.616517 
L 547.38513 297.616517 
L 676.302717 297.108883 
L 676.302717 297.108883 
L 700.474738 297.036448 
L 700.474738 297.036448 
L 704.503408 294.015129 
L 704.503408 294.015129 
L 781.048236 79.332299 
L 781.048236 79.332299 
" clip-path="url(#pcea300e4d9)" style="fill: none; stroke: #21918c; stroke-width: 1.6; stroke-linecap: square"/>
   </g>
   <g id="line2d_75">
    <path d="M 442.639564 298.109547 
L 684.360058 297.065363 
L 684.360058 297.065363 
L 692.417398 297.046037 
L 692.417398 297.046037 
L 694.431685 292.816191 
L 694.431685 292.816191 
L 781.048236 49.887721 
L 781.048236 49.887721 
" clip-path="url(#pcea300e4d9)" style="fill: none; stroke: #9bd93c; stroke-width: 1.6; stroke-linecap: square"/>
   </g>
   <g id="line2d_76">
    <path d="M 441.336562 292.982092 
L 592.583881 292.232811 
L 682.99239 291.888711 
L 683.332272 291.116187 
L 781.048236 17.056752 
L 781.048236 17.056752 
" clip-path="url(#pcea300e4d9)" style="fill: none; stroke-dasharray: 7.4,3.2; stroke-dashoffset: 0; stroke: #000000; stroke-width: 2"/>
   </g>
   <g id="patch_9">
    <path d="M 441.336562 312.24351 
L 441.336562 3.00024 
" style="fill: none; stroke: #000000; stroke-width: 0.8; stroke-linejoin: miter; stroke-linecap: square"/>
   </g>
   <g id="patch_10">
    <path d="M 781.048236 312.24351 
L 781.048236 3.00024 
" style="fill: none; stroke: #000000; stroke-width: 0.8; stroke-linejoin: miter; stroke-linecap: square"/>
   </g>
   <g id="patch_11">
    <path d="M 441.336562 312.24351 
L 781.048236 312.24351 
" style="fill: none; stroke: #000000; stroke-width: 0.8; stroke-linejoin: miter; stroke-linecap: square"/>
   </g>
   <g id="patch_12">
    <path d="M 441.336562 3.00024 
L 781.048236 3.00024 
" style="fill: none; stroke: #000000; stroke-width: 0.8; stroke-linejoin: miter; stroke-linecap: square"/>
   </g>
   <g id="legend_2">
    <g id="patch_13">
     <path d="M 447.636562 63.04149 
L 544.731094 63.04149 
Q 546.531094 63.04149 546.531094 61.24149 
L 546.531094 9.30024 
Q 546.531094 7.50024 544.731094 7.50024 
L 447.636562 7.50024 
Q 445.836562 7.50024 445.836562 9.30024 
L 445.836562 61.24149 
Q 445.836562 63.04149 447.636562 63.04149 
z
" style="fill: #ffffff; opacity: 0.8; stroke: #cccccc; stroke-linejoin: miter"/>
    </g>
    <g id="line2d_77">
     <path d="M 449.436562 14.788834 
L 458.436562 14.788834 
L 467.436562 14.788834 
" style="fill: none; stroke: #463480; stroke-width: 1.6; stroke-linecap: square"/>
    </g>
    <g id="text_41">
     <!-- 120 cells -->
     <g transform="translate(474.636562 17.938834) scale(0.09 -0.09)">
      <use xlink:href="#DejaVuSans-31"/>
      <use xlink:href="#DejaVuSans-32" x="63.623047"/>
      <use xlink:href="#DejaVuSans-30" x="127.246094"/>
      <use xlink:href="#DejaVuSans-20" x="190.869141"/>
      <use xlink:href="#DejaVuSans-63" x="222.65625"/>
      <use xlink:href="#DejaVuSans-65" x="277.636719"/>
      <use xlink:href="#DejaVuSans-6c" x="339.160156"/>
      <use xlink:href="#DejaVuSans-6c" x="366.943359"/>
      <use xlink:href="#DejaVuSans-73" x="394.726562"/>
     </g>
    </g>
    <g id="line2d_78">
     <path d="M 449.436562 27.999146 
L 458.436562 27.999146 
L 467.436562 27.999146 
" style="fill: none; stroke: #21918c; stroke-width: 1.6; stroke-linecap: square"/>
    </g>
    <g id="text_42">
     <!-- 240 cells -->
     <g transform="translate(474.636562 31.149146) scale(0.09 -0.09)">
      <use xlink:href="#DejaVuSans-32"/>
      <use xlink:href="#DejaVuSans-34" x="63.623047"/>
      <use xlink:href="#DejaVuSans-30" x="127.246094"/>
      <use xlink:href="#DejaVuSans-20" x="190.869141"/>
      <use xlink:href="#DejaVuSans-63" x="222.65625"/>
      <use xlink:href="#DejaVuSans-65" x="277.636719"/>
      <use xlink:href="#DejaVuSans-6c" x="339.160156"/>
      <use xlink:href="#DejaVuSans-6c" x="366.943359"/>
      <use xlink:href="#DejaVuSans-73" x="394.726562"/>
     </g>
    </g>
    <g id="line2d_79">
     <path d="M 449.436562 41.209459 
L 458.436562 41.209459 
L 467.436562 41.209459 
" style="fill: none; stroke: #9bd93c; stroke-width: 1.6; stroke-linecap: square"/>
    </g>
    <g id="text_43">
     <!-- 480 cells -->
     <g transform="translate(474.636562 44.359459) scale(0.09 -0.09)">
      <use xlink:href="#DejaVuSans-34"/>
      <use xlink:href="#DejaVuSans-38" x="63.623047"/>
      <use xlink:href="#DejaVuSans-30" x="127.246094"/>
      <use xlink:href="#DejaVuSans-20" x="190.869141"/>
      <use xlink:href="#DejaVuSans-63" x="222.65625"/>
      <use xlink:href="#DejaVuSans-65" x="277.636719"/>
      <use xlink:href="#DejaVuSans-6c" x="339.160156"/>
      <use xlink:href="#DejaVuSans-6c" x="366.943359"/>
      <use xlink:href="#DejaVuSans-73" x="394.726562"/>
     </g>
    </g>
    <g id="line2d_80">
     <path d="M 449.436562 54.419771 
L 458.436562 54.419771 
L 467.436562 54.419771 
" style="fill: none; stroke-dasharray: 7.4,3.2; stroke-dashoffset: 0; stroke: #000000; stroke-width: 2"/>
    </g>
    <g id="text_44">
     <!-- semi-analytical -->
     <g transform="translate(474.636562 57.569771) scale(0.09 -0.09)">
      <use xlink:href="#DejaVuSans-73"/>
      <use xlink:href="#DejaVuSans-65" x="52.099609"/>
      <use xlink:href="#DejaVuSans-6d" x="113.623047"/>
      <use xlink:href="#DejaVuSans-69" x="211.035156"/>
      <use xlink:href="#DejaVuSans-2d" x="238.818359"/>
      <use xlink:href="#DejaVuSans-61" x="274.902344"/>
      <use xlink:href="#DejaVuSans-6e" x="336.181641"/>
      <use xlink:href="#DejaVuSans-61" x="399.560547"/>
      <use xlink:href="#DejaVuSans-6c" x="460.839844"/>
      <use xlink:href="#DejaVuSans-79" x="488.623047"/>
      <use xlink:href="#DejaVuSans-74" x="547.802734"/>
      <use xlink:href="#DejaVuSans-69" x="587.011719"/>
      <use xlink:href="#DejaVuSans-63" x="614.794922"/>
      <use xlink:href="#DejaVuSans-61" x="669.775391"/>
      <use xlink:href="#DejaVuSans-6c" x="731.054688"/>
     </g>
    </g>
   </g>
  </g>
 </g>
 <defs>
  <clipPath id="p2116303006">
   <rect x="45.965865" y="3.00024" width="339.711673" height="309.24327"/>
  </clipPath>
  <clipPath id="pcea300e4d9">
   <rect x="441.336562" y="3.00024" width="339.711673" height="309.24327"/>
  </clipPath>
 </defs>
</svg>
