<?xml version="1.0" encoding="UTF-8" standalone="no"?>
<!-- Created with Inkscape (http://www.inkscape.org/) -->

<svg
   width="53.263317mm"
   height="31.246403mm"
   viewBox="0 0 53.263318 31.246403"
   version="1.1"
   id="svg1"
   xml:space="preserve"
   inkscape:version="1.4 (e7c3feb1, 2024-10-09)"
   sodipodi:docname="mdstructure.svg"
   xmlns:inkscape="http://www.inkscape.org/namespaces/inkscape"
   xmlns:sodipodi="http://sodipodi.sourceforge.net/DTD/sodipodi-0.dtd"
   xmlns:xlink="http://www.w3.org/1999/xlink"
   xmlns="http://www.w3.org/2000/svg"
   xmlns:svg="http://www.w3.org/2000/svg"><sodipodi:namedview
     id="namedview1"
     pagecolor="#ffffff"
     bordercolor="#666666"
     borderopacity="1.0"
     inkscape:showpageshadow="2"
     inkscape:pageopacity="0.0"
     inkscape:pagecheckerboard="0"
     inkscape:deskcolor="#d1d1d1"
     inkscape:document-units="mm"
     inkscape:zoom="2.0248149"
     inkscape:cx="93.835736"
     inkscape:cy="59.017739"
     inkscape:window-width="1336"
     inkscape:window-height="696"
     inkscape:window-x="457"
     inkscape:window-y="69"
     inkscape:window-maximized="0"
     inkscape:current-layer="layer1"
     showgrid="false"><inkscape:grid
       id="grid11"
       units="mm"
       originx="-55.106049"
       originy="-16.300158"
       spacingx="0.26458333"
       spacingy="0.26458334"
       empcolor="#0099e5"
       empopacity="0.30196078"
       color="#0099e5"
       opacity="0.14901961"
       empspacing="5"
       enabled="true"
       visible="false" /></sodipodi:namedview><defs
     id="defs1"><pattern
       inkscape:collect="always"
       xlink:href="#pattern36"
       preserveAspectRatio="xMidYMid"
       id="pattern37"
       patternTransform="scale(0.11)"
       x="0"
       y="0" /><pattern
       patternUnits="userSpaceOnUse"
       width="10"
       height="10"
       preserveAspectRatio="xMidYMid"
       style="fill:#0c73cf"
       id="pattern36"
       x="0"
       y="0"
       inkscape:label="Halftones"
       inkscape:collect="always"
       inkscape:isstock="true"><g
         id="g36"
         style="display:inline"
         transform="scale(0.1)"><circle
           style="fill-opacity:1;stroke:none;paint-order:markers fill stroke;stop-color:#000000"
           id="circle33"
           cx="50"
           cy="50"
           r="25" /><path
           id="path33"
           style="paint-order:markers fill stroke"
           d="M 25,0 A 25,25 0 0 1 0,25 25,25 0 0 1 -25,0 25,25 0 0 1 0,-25 25,25 0 0 1 25,0 Z" /><path
           id="path34"
           style="paint-order:markers fill stroke"
           d="M 125,0 A 25,25 0 0 1 100,25 25,25 0 0 1 75,0 25,25 0 0 1 100,-25 25,25 0 0 1 125,0 Z" /><path
           id="path35"
           style="paint-order:markers fill stroke"
           d="M 25,100 A 25,25 0 0 1 0,125 25,25 0 0 1 -25,100 25,25 0 0 1 0,75 25,25 0 0 1 25,100 Z" /><path
           id="path36"
           style="paint-order:markers fill stroke"
           d="m 125,100 a 25,25 0 0 1 -25,25 25,25 0 0 1 -25,-25 25,25 0 0 1 25,-25 25,25 0 0 1 25,25 z" /></g></pattern><pattern
       inkscape:collect="always"
       xlink:href="#pattern31"
       preserveAspectRatio="xMidYMid"
       id="pattern32"
       patternTransform="matrix(0.11,0,0,0.11,4.0438724e-8,-0.14812671)"
       x="0"
       y="0" /><pattern
       patternUnits="userSpaceOnUse"
       width="10"
       height="10"
       preserveAspectRatio="xMidYMid"
       style="fill:#571923"
       id="pattern31"
       x="0"
       y="0"
       inkscape:label="Halftones"
       inkscape:collect="always"
       inkscape:isstock="true"><g
         id="g31"
         style="display:inline"
         transform="scale(0.1)"><circle
           style="fill-opacity:1;stroke:none;paint-order:markers fill stroke;stop-color:#000000"
           id="circle28"
           cx="50"
           cy="50"
           r="25" /><path
           id="path28"
           style="paint-order:markers fill stroke"
           d="M 25,0 A 25,25 0 0 1 0,25 25,25 0 0 1 -25,0 25,25 0 0 1 0,-25 25,25 0 0 1 25,0 Z" /><path
           id="path29"
           style="paint-order:markers fill stroke"
           d="M 125,0 A 25,25 0 0 1 100,25 25,25 0 0 1 75,0 25,25 0 0 1 100,-25 25,25 0 0 1 125,0 Z" /><path
           id="path30"
           style="paint-order:markers fill stroke"
           d="M 25,100 A 25,25 0 0 1 0,125 25,25 0 0 1 -25,100 25,25 0 0 1 0,75 25,25 0 0 1 25,100 Z" /><path
           id="path31"
           style="paint-order:markers fill stroke"
           d="m 125,100 a 25,25 0 0 1 -25,25 25,25 0 0 1 -25,-25 25,25 0 0 1 25,-25 25,25 0 0 1 25,25 z" /></g></pattern><pattern
       inkscape:collect="always"
       xlink:href="#pattern22"
       preserveAspectRatio="xMidYMid"
       id="pattern23"
       patternTransform="matrix(0.10703367,0,0,0.11183399,-1.219028,-14.296449)"
       x="0"
       y="0" /><pattern
       inkscape:collect="always"
       xlink:href="#pattern18"
       preserveAspectRatio="xMidYMid"
       id="pattern22"
       patternTransform="matrix(0.10703367,0,0,0.11183399,2.5536473,-2.9294269)" /><pattern
       inkscape:collect="always"
       xlink:href="#halftones"
       preserveAspectRatio="xMidYMid"
       id="pattern18"
       patternTransform="matrix(0.10703367,0,0,0.11183399,2.6026431,-2.9294269)"
       x="0"
       y="0" /><pattern
       patternUnits="userSpaceOnUse"
       width="10"
       height="10"
       preserveAspectRatio="xMidYMid"
       style="fill:#e19417"
       id="halftones"
       x="0"
       y="0"
       inkscape:label="Halftones"
       inkscape:collect="always"
       inkscape:isstock="true"><g
         id="fullPattern"
         style="display:inline"
         transform="scale(0.1)"><circle
           style="fill-opacity:1;stroke:none;paint-order:markers fill stroke;stop-color:#000000"
           id="circle10"
           cx="50"
           cy="50"
           r="25" /><path
           id="circle37"
           style="paint-order:markers fill stroke"
           d="M 25,0 A 25,25 0 0 1 0,25 25,25 0 0 1 -25,0 25,25 0 0 1 0,-25 25,25 0 0 1 25,0 Z" /><path
           id="circle39"
           style="paint-order:markers fill stroke"
           d="M 125,0 A 25,25 0 0 1 100,25 25,25 0 0 1 75,0 25,25 0 0 1 100,-25 25,25 0 0 1 125,0 Z" /><path
           id="circle43"
           style="paint-order:markers fill stroke"
           d="M 25,100 A 25,25 0 0 1 0,125 25,25 0 0 1 -25,100 25,25 0 0 1 0,75 25,25 0 0 1 25,100 Z" /><path
           id="circle45"
           style="paint-order:markers fill stroke"
           d="m 125,100 a 25,25 0 0 1 -25,25 25,25 0 0 1 -25,-25 25,25 0 0 1 25,-25 25,25 0 0 1 25,25 z" /></g></pattern><linearGradient
       id="linearGradient14"
       inkscape:swatch="gradient"><stop
         style="stop-color:#04cfbd;stop-opacity:1;"
         offset="0"
         id="stop15" /><stop
         style="stop-color:#04cfbd;stop-opacity:0;"
         offset="1"
         id="stop16" /></linearGradient><clipPath
       clipPathUnits="userSpaceOnUse"
       id="clipPath3-0"><rect
         style="fill:#fffd8b;fill-opacity:0.596078;stroke:none;stroke-width:0.3;stroke-linecap:square;stroke-dasharray:0.264583, 0.264583"
         id="rect4-4"
         width="65.014633"
         height="26.032055"
         x="24.341667"
         y="114.51492" /></clipPath></defs><g
     inkscape:label="Layer 1"
     inkscape:groupmode="layer"
     id="layer1"
     transform="translate(-55.106051,-16.300157)"><g
       id="g10"
       transform="translate(-23.697361,-159.97653)"
       style="fill:#979898;fill-opacity:1;stroke:#000000;stroke-width:0.2;stroke-dasharray:none;stroke-opacity:1"><rect
         style="fill:none;fill-opacity:1;stroke:#000000;stroke-width:0.2;stroke-linejoin:bevel;stroke-dasharray:none;stroke-opacity:1"
         id="rect6"
         width="19.446875"
         height="10.583333"
         x="106.44107"
         y="176.37308"
         ry="0.86857289" /><text
         xml:space="preserve"
         style="font-style:normal;font-variant:normal;font-weight:normal;font-stretch:normal;font-size:2.82222px;line-height:1.25;font-family:'Helvetica Neue';-inkscape-font-specification:'Helvetica Neue';fill:#000000;fill-opacity:1;stroke:none;stroke-width:0.2;stroke-dasharray:none;stroke-opacity:1"
         x="110.46645"
         y="180.68651"
         id="text8"><tspan
           sodipodi:role="line"
           id="tspan8"
           style="font-style:normal;font-variant:normal;font-weight:normal;font-stretch:normal;font-size:2.82222px;font-family:'Helvetica Neue';-inkscape-font-specification:'Helvetica Neue';fill:#000000;fill-opacity:1;stroke:none;stroke-width:0.2;stroke-dasharray:none;stroke-opacity:1"
           x="110.46645"
           y="180.68651">Coupling</tspan></text><text
         xml:space="preserve"
         style="font-style:normal;font-variant:normal;font-weight:normal;font-stretch:normal;font-size:2.82222px;line-height:1.25;font-family:'Helvetica Neue';-inkscape-font-specification:'Helvetica Neue';fill:#000000;fill-opacity:1;stroke:none;stroke-width:0.2;stroke-dasharray:none;stroke-opacity:1"
         x="110.38319"
         y="184.48073"
         id="text9"><tspan
           sodipodi:role="line"
           id="tspan9"
           style="font-style:normal;font-variant:normal;font-weight:normal;font-stretch:normal;font-size:2.82222px;font-family:'Helvetica Neue';-inkscape-font-specification:'Helvetica Neue';fill:#000000;fill-opacity:1;stroke:none;stroke-width:0.2;stroke-dasharray:none;stroke-opacity:1"
           x="110.38319"
           y="184.48073">Manager</tspan></text></g><g
       id="g11"
       transform="translate(-23.076845,-139.48263)"><rect
         style="fill:#e19417;fill-opacity:1;stroke:none;stroke-width:0.369548;stroke-linecap:square"
         id="rect2-3"
         width="3.4610498"
         height="19.414331"
         x="179.15399"
         y="-97.649094"
         transform="rotate(90)" /><rect
         style="fill:#0c73cf;fill-opacity:1;stroke:none;stroke-width:0.108822;stroke-linecap:square;stroke-dasharray:none;stroke-opacity:1"
         id="rect2-3-2"
         width="11.420534"
         height="19.412561"
         x="167.71904"
         y="-97.629868"
         transform="rotate(90)" /><rect
         style="fill:#571923;fill-opacity:1;stroke:none;stroke-width:0.207947;stroke-linecap:square;stroke-dasharray:none;stroke-opacity:1"
         id="rect2"
         width="19.305956"
         height="4.3450475"
         x="78.299614"
         y="182.63716" /><rect
         style="mix-blend-mode:normal;fill:url(#pattern37);fill-opacity:1;stroke:none;stroke-width:0.0795691;stroke-linecap:square;stroke-dasharray:none;stroke-opacity:1"
         id="rect32"
         width="10.209041"
         height="19.132984"
         x="78.294586"
         y="167.68979" /><rect
         style="mix-blend-mode:normal;fill:url(#pattern22);fill-opacity:1;stroke:none;stroke-width:0.0795691;stroke-linecap:square;stroke-dasharray:none;stroke-opacity:1"
         id="rect2-9-62-3-87"
         width="4.9586983"
         height="3.3567686"
         x="92.497345"
         y="179.21153" /><rect
         style="fill:none;fill-opacity:1;stroke:#000000;stroke-width:0.2;stroke-linecap:round;stroke-linejoin:round;stroke-dasharray:none;stroke-opacity:1"
         id="rect18"
         width="19.380688"
         height="19.284924"
         x="78.282227"
         y="167.7459" /><rect
         style="mix-blend-mode:normal;fill:url(#pattern32);fill-opacity:1;stroke:none;stroke-width:0.0795691;stroke-linecap:square;stroke-dasharray:none;stroke-opacity:1"
         id="rect19"
         width="5.1041346"
         height="18.981358"
         x="92.497345"
         y="167.79437" /><path
         style="fill:none;fill-opacity:1;stroke:#000000;stroke-width:0.2;stroke-linecap:round;stroke-linejoin:round;stroke-dasharray:none;stroke-opacity:1"
         d="m 92.342677,167.68877 v 19.15735"
         id="path19" /><path
         style="fill:none;fill-opacity:1;stroke:#000000;stroke-width:0.2;stroke-linecap:round;stroke-linejoin:round;stroke-dasharray:none;stroke-opacity:1"
         d="m 88.618997,167.83576 v 19.15735"
         id="path20" /><rect
         style="mix-blend-mode:normal;fill:url(#pattern23);fill-opacity:1;stroke:none;stroke-width:0.0795691;stroke-linecap:square;stroke-dasharray:none;stroke-opacity:1"
         id="rect22"
         width="3.488821"
         height="19.035416"
         x="88.72467"
         y="167.84451" /><path
         style="fill:none;fill-opacity:1;stroke:#000000;stroke-width:0.2;stroke-linecap:round;stroke-linejoin:round;stroke-dasharray:none;stroke-opacity:1"
         d="M 97.462735,179.08029 H 78.305385"
         id="path21" /><path
         style="fill:none;fill-opacity:1;stroke:#000000;stroke-width:0.2;stroke-linecap:round;stroke-linejoin:round;stroke-dasharray:none;stroke-opacity:1"
         d="M 97.511731,182.70598 H 78.354381"
         id="path22" /></g><g
       id="g9"
       transform="translate(-51.373641,-147.57108)"><rect
         style="fill:none;fill-opacity:1;stroke:#000000;stroke-width:0.2;stroke-linejoin:bevel;stroke-dasharray:none;stroke-opacity:1"
         id="rect5"
         width="19.349628"
         height="10.517187"
         x="106.48969"
         y="163.90431"
         ry="1.1073247" /><text
         xml:space="preserve"
         style="font-style:normal;font-variant:normal;font-weight:normal;font-stretch:normal;font-size:2.82222222px;line-height:1.25;font-family:'Helvetica Neue';-inkscape-font-specification:'Helvetica Neue';stroke-width:0.264583;fill:#000000"
         x="107.97866"
         y="168.14272"
         id="text6"><tspan
           sodipodi:role="line"
           id="tspan6"
           style="font-style:normal;font-variant:normal;font-weight:normal;font-stretch:normal;font-family:'Helvetica Neue';-inkscape-font-specification:'Helvetica Neue';stroke-width:0.264583;font-size:2.82222222px;fill:#000000"
           x="107.97866"
           y="168.14272">Multidomain</tspan></text><text
         xml:space="preserve"
         style="font-style:normal;font-variant:normal;font-weight:normal;font-stretch:normal;font-size:2.82222222px;line-height:1.25;font-family:'Helvetica Neue';-inkscape-font-specification:'Helvetica Neue';stroke-width:0.264583;fill:#000000"
         x="109.56192"
         y="172.11147"
         id="text7"><tspan
           sodipodi:role="line"
           id="tspan7"
           style="font-style:normal;font-variant:normal;font-weight:normal;font-stretch:normal;font-family:'Helvetica Neue';-inkscape-font-specification:'Helvetica Neue';stroke-width:0.264583;font-size:2.82222222px;fill:#000000"
           x="109.56192"
           y="172.11147">Assembler</tspan></text></g><path
       style="fill:none;stroke:#000000;stroke-width:0.172729;stroke-linecap:butt;stroke-linejoin:miter;stroke-dasharray:none;stroke-opacity:1"
       d="m 77.339124,20.461633 -1.647704,0.979312 1.647704,0.979304 v -0.587581 h 2.471551 v 0.587581 l 1.647713,-0.979304 -1.647713,-0.979312 v 0.587589 h -2.471551 z"
       id="path12" /><g
       id="g3"
       transform="translate(-25.129931,-133.34045)"
       style="stroke:#000000;stroke-width:0.2;stroke-dasharray:none;stroke-opacity:1"><rect
         style="fill:#0c73cf;fill-opacity:1;stroke:#000000;stroke-width:0.2;stroke-linejoin:bevel;stroke-dasharray:none;stroke-opacity:1"
         id="rect1"
         width="7.96"
         height="7.9600005"
         x="103.58437"
         y="169.39948"
         ry="1.0241351" /><text
         xml:space="preserve"
         style="font-style:normal;font-variant:normal;font-weight:normal;font-stretch:normal;font-size:2.82222px;line-height:1.25;font-family:'Helvetica Neue';-inkscape-font-specification:'Helvetica Neue';fill:#000000;stroke:none;stroke-width:0.2;stroke-dasharray:none;stroke-opacity:1"
         x="104.97499"
         y="174.3602"
         id="text1"><tspan
           sodipodi:role="line"
           id="tspan1"
           style="font-style:normal;font-variant:normal;font-weight:normal;font-stretch:normal;font-size:2.82222px;font-family:'Helvetica Neue';-inkscape-font-specification:'Helvetica Neue';fill:#000000;stroke:none;stroke-width:0.2;stroke-dasharray:none;stroke-opacity:1"
           x="104.97499"
           y="174.3602">SP1</tspan></text></g><g
       id="g2"
       transform="translate(-26.848549,-134.59722)"
       style="stroke:#000000;stroke-width:0.2;stroke-dasharray:none;stroke-opacity:1"><rect
         style="fill:#e19417;fill-opacity:1;stroke:#000000;stroke-width:0.2;stroke-linejoin:bevel;stroke-dasharray:none;stroke-opacity:1"
         id="rect1-3"
         width="7.96"
         height="7.9600005"
         x="114.56458"
         y="170.65625"
         ry="0.89611387" /><text
         xml:space="preserve"
         style="font-style:normal;font-variant:normal;font-weight:normal;font-stretch:normal;font-size:2.82222px;line-height:1.25;font-family:'Helvetica Neue';-inkscape-font-specification:'Helvetica Neue';fill:#000000;stroke:none;stroke-width:0.2;stroke-dasharray:none;stroke-opacity:1"
         x="115.92557"
         y="175.61697"
         id="text1-2"><tspan
           sodipodi:role="line"
           id="tspan1-5"
           style="font-style:normal;font-variant:normal;font-weight:normal;font-stretch:normal;font-size:2.82222px;font-family:'Helvetica Neue';-inkscape-font-specification:'Helvetica Neue';fill:#000000;stroke:none;stroke-width:0.2;stroke-dasharray:none;stroke-opacity:1"
           x="115.92557"
           y="175.61697">SP2</tspan></text></g><g
       id="g1"
       transform="translate(-27.84191,-134.53108)"
       style="stroke:#000000;stroke-width:0.2;stroke-dasharray:none;stroke-opacity:1"><rect
         style="fill:#571923;fill-opacity:1;stroke:#000000;stroke-width:0.2;stroke-linejoin:bevel;stroke-dasharray:none;stroke-opacity:1"
         id="rect1-3-1"
         width="7.96"
         height="7.9600005"
         x="124.68489"
         y="170.5901"
         ry="0.96012199" /><text
         xml:space="preserve"
         style="font-style:normal;font-variant:normal;font-weight:normal;font-stretch:normal;font-size:2.82222px;line-height:1.25;font-family:'Helvetica Neue';-inkscape-font-specification:'Helvetica Neue';stroke:none;stroke-width:0.2;stroke-dasharray:none;stroke-opacity:1;fill:#000000"
         x="126.03176"
         y="175.54941"
         id="text1-3"><tspan
           sodipodi:role="line"
           id="tspan1-0"
           style="font-style:normal;font-variant:normal;font-weight:normal;font-stretch:normal;font-size:2.82222px;font-family:'Helvetica Neue';-inkscape-font-specification:'Helvetica Neue';fill:#000000;stroke:none;stroke-width:0.2;stroke-dasharray:none;stroke-opacity:1"
           x="126.03176"
           y="175.54941">SP3</tspan></text></g><path
       style="fill:none;stroke:#000000;stroke-width:0.2;stroke-linecap:butt;stroke-linejoin:miter;stroke-dasharray:none;stroke-opacity:1"
       d="m 90.785087,32.9174 1.13393,1.58787 1.13392,-1.58787 h -0.68035 v -2.3818 h 0.68035 l -1.13392,-1.58787 -1.13393,1.58787 h 0.68036 v 2.3818 z"
       id="path12-4" /><path
       style="fill:none;stroke:#000000;stroke-width:0.2;stroke-linecap:butt;stroke-linejoin:miter;stroke-dasharray:none;stroke-opacity:1"
       d="m 81.439965,31.881364 0.21031,2.24697 1.96166,-0.93864 -0.65158,-0.39249 1.31352,-2.38918 0.65158,0.39248 -0.2103,-2.24695 -1.96166,0.93863 0.65159,0.3925 -1.31352,2.38918 z"
       id="path12-4-7" /><path
       style="fill:none;stroke:#000000;stroke-width:0.2;stroke-linecap:butt;stroke-linejoin:miter;stroke-dasharray:none;stroke-opacity:1"
       d="m 102.67618,32.171956 -0.46384,2.208609 -1.84253,-1.155105 0.6919,-0.316044 -1.03402,-2.52276 -0.691894,0.316034 0.463829,-2.208591 1.842525,1.155096 -0.69191,0.316052 1.03402,2.52276 z"
       id="path12-4-7-1" /></g></svg>
