<?xml version="1.0" encoding="UTF-8" standalone="no"?>
<!-- Created with Inkscape (http://www.inkscape.org/) -->

<svg
   width="86.975662mm"
   height="53.994801mm"
   viewBox="0 0 86.975662 53.994801"
   version="1.1"
   id="svg1"
   inkscape:version="1.4.2 (1:1.4.2+202505120737+ebf0e940d0)"
   sodipodi:docname="multidim_assembler.svg"
   xmlns:inkscape="http://www.inkscape.org/namespaces/inkscape"
   xmlns:sodipodi="http://sodipodi.sourceforge.net/DTD/sodipodi-0.dtd"
   xmlns="http://www.w3.org/2000/svg"
   xmlns:svg="http://www.w3.org/2000/svg">
  <sodipodi:namedview
     id="namedview1"
     pagecolor="#ffffff"
     bordercolor="#666666"
     borderopacity="1.0"
     inkscape:showpageshadow="2"
     inkscape:pageopacity="0.0"
     inkscape:pagecheckerboard="0"
     inkscape:deskcolor="#d1d1d1"
     inkscape:document-units="mm"
     inkscape:zoom="0.5341791"
     inkscape:cx="179.71501"
     inkscape:cy="578.45767"
     inkscape:window-width="1920"
     inkscape:window-height="1054"
     inkscape:window-x="0"
     inkscape:window-y="0"
     inkscape:window-maximized="1"
     inkscape:current-layer="layer1"
     inkscape:export-bgcolor="#ffffff00">
    <inkscape:page
       x="0"
       y="0"
       width="86.975662"
       height="53.994801"
       id="page2"
       margin="0"
       bleed="0" />
  </sodipodi:namedview>
  <defs
     id="defs1" />
  <g
     inkscape:label="Layer 1"
     inkscape:groupmode="layer"
     id="layer1"
     transform="translate(-123.5277,-308.7089)">
    <g
       id="g51"
       transform="translate(13.659198,-70.433437)">
      <path
         d="m 131.52169,407.38805 c 3.4998,-0.4054 7.29597,-0.70008 11.23652,-0.82579 0.52714,-1.77764 1.18861,-3.46739 2.10737,-4.91959 1.49439,-2.36207 3.66953,-4.09575 6.38979,-5.34283 0.0103,-0.0795 0.0209,-0.15861 0.0315,-0.23771 0.57576,-4.27215 1.6227,-8.0084 2.58951,-10.7704 0.0194,-0.0553 0.0386,-0.11029 0.0579,-0.16485 -5.22958,0.24262 -10.67404,1.4234 -14.58515,5.13354 -4.19061,3.97528 -6.62027,10.8538 -7.82743,17.12763 z"
         style="fill:#ff8b8b;fill-opacity:0.596078;stroke:#000000;stroke-width:0.264583px"
         id="path50" />
      <path
         d="m 139.26178,419.57956 c -0.0749,-0.0117 -0.14975,-0.0231 -0.22479,-0.0346 -2.80357,-0.43069 -5.67427,-0.77247 -8.43876,-1.04851 0.0358,0.58769 0.0905,1.12662 0.16226,1.61954 0.53905,3.70536 2.03848,4.81391 3.65611,4.52582 1.43165,-0.25497 2.95584,-1.60381 4.22662,-3.85144 0.21395,-0.37844 0.42065,-0.78221 0.61856,-1.21078 z"
         style="fill:#ff8b8b;fill-opacity:0.596078;stroke:#000000;stroke-width:0.264583px"
         id="path47" />
      <path
         d="m 164.70933,385.50774 c 0.0849,0.0999 0.17017,0.20047 0.25631,0.30179 0.19671,0.23136 0.39707,0.46603 0.60048,0.70383 1.62851,1.90373 3.47371,3.99866 5.00435,6.63887 0.36208,-0.0249 0.7162,-0.0508 1.06143,-0.078 1.97488,-0.15572 3.6525,-0.35895 4.78421,-0.71262 3.26886,-1.02155 1.98451,-3.29824 -0.52555,-4.67 -2.08537,-1.13967 -5.01704,-1.65478 -9.93273,-2.08101 -0.40269,-0.0349 -0.81861,-0.0688 -1.2485,-0.10283 z"
         style="fill:#ff8b8b;fill-opacity:0.596078;stroke:#000000;stroke-width:0.264583px"
         id="path28" />
      <path
         d="m 172.05668,424.52292 c -3.05685,-0.0822 -6.20888,-0.32087 -9.30382,-0.71106 -2.57597,-0.32476 -5.11226,-0.75415 -7.64088,-1.22939 0.65707,1.46681 1.36774,2.80506 2.11615,3.96824 3.42592,5.32457 7.63626,6.97582 10.27792,6.31537 2.42161,-0.60543 3.52509,-3.15338 4.55063,-8.34316 z"
         style="fill:#8be2ff;fill-opacity:0.596078;stroke:#000000;stroke-width:0.264583px"
         id="path45" />
      <path
         d="m 170.57047,393.15223 c -2.19538,0.15078 -4.67627,0.26825 -7.14685,0.47542 -1.52369,0.12777 -3.0436,0.2896 -4.49017,0.51418 -1.5177,0.23562 -2.95502,0.54036 -4.30051,0.92553 -0.81937,0.23456 -1.6049,0.49904 -2.35386,0.79582 -0.34918,0.13836 -0.69062,0.28396 -1.02371,0.43666 -0.31747,2.44128 -0.47898,5.05317 -0.38344,7.7556 0.0293,0.82839 0.0827,1.66507 0.15864,2.50579 0.0906,0.003 0.18118,0.006 0.27182,0.009 7.78166,0.27396 15.69507,1.31742 22.57434,2.59674 0.0535,-1.90055 0.0221,-3.77475 -0.12816,-5.54126 -0.0861,-1.01182 -0.21101,-1.98789 -0.38137,-2.91352 -0.53973,-2.93246 -1.53452,-5.35539 -2.72749,-7.43934 -0.0231,-0.0404 -0.046,-0.0808 -0.0692,-0.12092 z"
         style="fill:#8be2ff;fill-opacity:0.596078;stroke:#000000;stroke-width:0.264583px"
         id="path30" />
      <path
         d="m 164.70933,385.50774 c -0.54601,-0.0432 -1.11455,-0.0864 -1.70688,-0.1292 -0.10069,-0.007 -0.20178,-0.0144 -0.30385,-0.0217 -2.19069,-0.15648 -4.7011,-0.31588 -7.30705,-0.27492 -0.17386,0.003 -0.34833,0.006 -0.52297,0.0108 -0.3104,0.008 -0.62199,0.0196 -0.93431,0.0341 -0.0193,0.0546 -0.0385,0.1095 -0.0579,0.16485 -0.96681,2.762 -2.01375,6.49825 -2.58951,10.7704 -0.0107,0.0791 -0.0212,0.15825 -0.0315,0.23771 0.33309,-0.1527 0.67453,-0.2983 1.02371,-0.43666 0.74896,-0.29678 1.53449,-0.56126 2.35386,-0.79582 1.34549,-0.38517 2.78281,-0.68991 4.30051,-0.92553 1.44657,-0.22458 2.96648,-0.38641 4.49017,-0.51418 2.47058,-0.20717 4.95147,-0.32464 7.14685,-0.47542 -1.53064,-2.64021 -3.37584,-4.73514 -5.00435,-6.63887 -0.20341,-0.2378 -0.40377,-0.47247 -0.60048,-0.70383 -0.0861,-0.10132 -0.17145,-0.20185 -0.25631,-0.30179 z"
         style="fill:#c4b7c4;fill-opacity:0.596078;stroke:#000000;stroke-width:0.264583px"
         id="path29" />
      <path
         d="m 157.81259,379.27556 c -1.23981,0.009 -2.24844,1.47986 -3.55637,4.96765 -0.1056,0.28161 -0.21324,0.5764 -0.32195,0.88367 0.31232,-0.0145 0.62391,-0.026 0.93431,-0.0341 0.17464,-0.005 0.34911,-0.008 0.52297,-0.0108 2.60595,-0.041 5.11636,0.11844 7.30705,0.27492 0.10207,0.007 0.20316,0.0147 0.30385,0.0217 0.59233,0.0428 1.16087,0.086 1.70688,0.1292 -2.51347,-2.96013 -4.47157,-5.30505 -5.99499,-6.01101 -0.31731,-0.14704 -0.61564,-0.22314 -0.90175,-0.22117 z"
         style="fill:#8be2ff;fill-opacity:0.596078;stroke:#000000;stroke-width:0.264583px"
         id="path27" />
      <text
         xml:space="preserve"
         style="font-style:normal;font-variant:normal;font-weight:normal;font-stretch:normal;font-size:6.35px;line-height:1.25;font-family:sans-serif;-inkscape-font-specification:sans-serif;stroke-width:0.264583"
         x="157.36781"
         y="403.05988"
         id="text5-2-7-6-5"><tspan
           sodipodi:role="line"
           id="tspan5-6-6-2-5"
           style="font-style:normal;font-variant:normal;font-weight:normal;font-stretch:normal;font-size:6.35px;font-family:sans-serif;-inkscape-font-specification:sans-serif;stroke-width:0.264583"
           x="157.36781"
           y="403.05988">SP3</tspan></text>
      <text
         xml:space="preserve"
         style="font-style:normal;font-variant:normal;font-weight:normal;font-stretch:normal;font-size:6.35px;line-height:1.25;font-family:sans-serif;-inkscape-font-specification:sans-serif;stroke-width:0.264583"
         x="137.78865"
         y="396.97449"
         id="text5-2-7-7-6-6"><tspan
           sodipodi:role="line"
           id="tspan5-6-6-1-1-9"
           style="font-style:normal;font-variant:normal;font-weight:normal;font-stretch:normal;font-size:6.35px;font-family:sans-serif;-inkscape-font-specification:sans-serif;stroke-width:0.264583"
           x="137.78865"
           y="396.97449">SP2</tspan></text>
      <path
         d="m 130.59823,418.49642 c -0.0106,-0.17349 -0.0197,-0.35126 -0.0269,-0.5333 -0.0261,-0.67141 -0.0297,-1.40148 -0.007,-2.19418 0.0354,-1.24824 0.1346,-2.65141 0.30696,-4.1491 0.0737,-0.6402 0.16088,-1.29779 0.262,-1.96784 0.11189,-0.74142 0.24126,-1.49813 0.38861,-2.26395 -6.12173,0.70913 -11.33615,1.7573 -14.827,2.83187 -6.90149,2.12445 -7.06637,4.35306 -6.4885,5.55005 0.57788,1.19699 1.89878,1.36231 6.92258,1.69344 3.29732,0.21733 8.18969,0.50581 13.46946,1.03301 z"
         style="fill:#fffd8b;fill-opacity:0.596078;stroke:#000000;stroke-width:0.264583px"
         id="path49" />
      <path
         d="m 139.26178,419.57956 c 0.11777,-0.25503 0.23244,-0.519 0.34365,-0.79117 0.24384,-0.59676 0.4712,-1.23409 0.678,-1.91048 0.49759,-1.62755 0.87708,-3.47956 1.28157,-5.38365 0.1421,-0.66891 0.28745,-1.34422 0.44184,-2.01848 0.22465,-0.98115 0.4686,-1.95994 0.75137,-2.91352 -3.94055,0.12571 -7.73672,0.42039 -11.23652,0.82579 -0.14735,0.76582 -0.27672,1.52253 -0.38861,2.26395 -0.10112,0.67005 -0.18832,1.32764 -0.262,1.96784 -0.17236,1.49769 -0.27159,2.90086 -0.30696,4.1491 -0.0225,0.7927 -0.0189,1.52277 0.007,2.19418 0.007,0.18204 0.0163,0.35981 0.0269,0.5333 2.76449,0.27604 5.63519,0.61782 8.43876,1.04851 0.075,0.0115 0.14985,0.023 0.22479,0.0346 z"
         style="fill:#ffc48b;fill-opacity:0.596078;stroke:#000000;stroke-width:0.264583px"
         id="path48" />
      <path
         d="m 155.11198,422.58247 c -0.47838,-1.06789 -0.92844,-2.204 -1.34359,-3.38997 -1.05813,-3.0228 -1.89026,-6.37029 -2.39158,-9.74256 -0.14317,-0.96308 -0.25944,-1.92849 -0.34624,-2.88871 -2.79249,-0.0919 -5.56643,-0.0853 -8.27236,10e-4 -0.28277,0.95358 -0.52672,1.93237 -0.75137,2.91352 -0.15439,0.67426 -0.29974,1.34957 -0.44184,2.01848 -0.40449,1.90409 -0.78398,3.7561 -1.28157,5.38365 -0.2068,0.67639 -0.43416,1.31372 -0.678,1.91048 -0.11121,0.27217 -0.22588,0.53614 -0.34365,0.79117 5.43894,0.8458 10.62828,2.02149 15.8502,3.00291 z"
         style="fill:#fffd8b;fill-opacity:0.596078;stroke:#000000;stroke-width:0.264583px"
         id="path46" />
      <path
         d="m 173.87673,409.16727 c -6.87927,-1.27932 -14.79268,-2.32278 -22.57434,-2.59674 -0.0906,-0.003 -0.18121,-0.006 -0.27182,-0.009 0.0868,0.96022 0.20307,1.92563 0.34624,2.88871 0.50132,3.37227 1.33345,6.71976 2.39158,9.74256 0.41515,1.18597 0.86521,2.32208 1.34359,3.38997 2.52862,0.47524 5.06491,0.90463 7.64088,1.22939 3.09494,0.39019 6.24697,0.62885 9.30382,0.71106 0.0932,-0.47158 0.1857,-0.96478 0.27854,-1.48052 0.36124,-2.00692 0.72692,-4.35233 1.01389,-6.83473 0.2639,-2.2828 0.46119,-4.68183 0.52762,-7.0404 z"
         style="fill:#c4f0c4;fill-opacity:0.596078;stroke:#000000;stroke-width:0.264583px"
         id="path44" />
      <path
         d="m 173.87673,409.16727 c -0.0664,2.35857 -0.26372,4.7576 -0.52762,7.0404 -0.28697,2.4824 -0.65265,4.82781 -1.01389,6.83473 -0.0928,0.51574 -0.18535,1.00894 -0.27854,1.48052 4.81403,0.12949 9.39188,-0.12872 13.13718,-0.79426 6.12353,-1.08816 10.02168,-3.26438 11.1802,-5.21932 1.15852,-1.95494 -0.42273,-3.68853 -8.46305,-6.06061 -3.59307,-1.06005 -8.4763,-2.24785 -14.03428,-3.28146 z"
         style="fill:#fffd8b;fill-opacity:0.596078;stroke:#000000;stroke-width:0.264583px"
         id="path31" />
      <text
         xml:space="preserve"
         style="font-style:normal;font-variant:normal;font-weight:normal;font-stretch:normal;font-size:6.35px;line-height:1.25;font-family:sans-serif;-inkscape-font-specification:sans-serif;stroke-width:0.264583"
         x="179.9465"
         y="419.64438"
         id="text5-2-7-76-8-6"><tspan
           sodipodi:role="line"
           id="tspan5-6-6-7-7-3"
           style="font-style:normal;font-variant:normal;font-weight:normal;font-stretch:normal;font-size:6.35px;font-family:sans-serif;-inkscape-font-specification:sans-serif;stroke-width:0.264583"
           x="179.9465"
           y="419.64438">SP1</tspan></text>
    </g>
  </g>
</svg>
