<?xml version="1.0" encoding="UTF-8" standalone="no"?>
<!-- Created with Inkscape (http://www.inkscape.org/) -->

<svg
   xmlns:ns0="http://www.iki.fi/pav/software/textext/"
   xmlns:dc="http://purl.org/dc/elements/1.1/"
   xmlns:cc="http://creativecommons.org/ns#"
   xmlns:rdf="http://www.w3.org/1999/02/22-rdf-syntax-ns#"
   xmlns:svg="http://www.w3.org/2000/svg"
   xmlns="http://www.w3.org/2000/svg"
   xmlns:xlink="http://www.w3.org/1999/xlink"
   xmlns:sodipodi="http://sodipodi.sourceforge.net/DTD/sodipodi-0.dtd"
   xmlns:inkscape="http://www.inkscape.org/namespaces/inkscape"
   width="297mm"
   height="210mm"
   viewBox="0 0 1052.3622 744.09448"
   id="svg5319"
   version="1.1"
   inkscape:version="0.91 r13725"
   sodipodi:docname="staggered_halfelementwise.svg">
  <sodipodi:namedview
     id="base"
     pagecolor="#ffffff"
     bordercolor="#666666"
     borderopacity="1.0"
     inkscape:pageopacity="0.0"
     inkscape:pageshadow="2"
     inkscape:zoom="0.98994949"
     inkscape:cx="267.37574"
     inkscape:cy="379.03456"
     inkscape:document-units="px"
     inkscape:current-layer="g6094"
     showgrid="true"
     inkscape:window-width="1920"
     inkscape:window-height="1021"
     inkscape:window-x="0"
     inkscape:window-y="0"
     inkscape:window-maximized="1">
    <inkscape:grid
       type="xygrid"
       id="grid5365" />
  </sodipodi:namedview>
  <defs
     id="defs5321">
    <marker
       inkscape:isstock="true"
       style="overflow:visible;"
       id="Arrow1Send"
       refX="0.0"
       refY="0.0"
       orient="auto"
       inkscape:stockid="Arrow1Send">
      <path
         transform="scale(0.2) rotate(180) translate(6,0)"
         style="fill-rule:evenodd;stroke:#007900;stroke-width:1pt;stroke-opacity:1;fill:#008000;fill-opacity:1"
         d="M 0.0,0.0 L 5.0,-5.0 L -12.5,0.0 L 5.0,5.0 L 0.0,0.0 z "
         id="path5581" />
    </marker>
    <marker
       inkscape:isstock="true"
       style="overflow:visible;"
       id="Arrow1Lend"
       refX="0.0"
       refY="0.0"
       orient="auto"
       inkscape:stockid="Arrow1Lend">
      <path
         transform="scale(0.8) rotate(180) translate(12.5,0)"
         style="fill-rule:evenodd;stroke:#000000;stroke-width:1pt;stroke-opacity:1;fill:#000000;fill-opacity:1"
         d="M 0.0,0.0 L 5.0,-5.0 L -12.5,0.0 L 5.0,5.0 L 0.0,0.0 z "
         id="path5569" />
    </marker>
    <defs
       id="defs6015">
      <g
         id="g6017">
        <symbol
           style="overflow:visible"
           overflow="visible"
           id="textext-9c1b2fe8-0">
          <path
             inkscape:connector-curvature="0"
             style="stroke:none"
             d=""
             id="path6020" />
        </symbol>
        <symbol
           style="overflow:visible"
           overflow="visible"
           id="textext-9c1b2fe8-1">
          <path
             inkscape:connector-curvature="0"
             style="stroke:none"
             d="m 2.71875,8.765625 c -0.140625,1.640625 -0.5,2.09375 -1.0625,2.09375 -0.125,0 -0.4375,-0.03125 -0.640625,-0.21875 0.296875,-0.03125 0.375,-0.265625 0.375,-0.40625 0,-0.28125 -0.21875,-0.421875 -0.40625,-0.421875 -0.203125,0 -0.421875,0.140625 -0.421875,0.4375 0,0.46875 0.5,0.828125 1.09375,0.828125 0.953125,0 1.421875,-0.875 1.640625,-1.765625 C 3.421875,8.796875 3.78125,5.890625 3.875,4.78125 L 4.0625,2.296875 C 4.203125,0.46875 4.53125,0.21875 4.984375,0.21875 c 0.09375,0 0.40625,0.015625 0.625,0.203125 C 5.328125,0.46875 5.25,0.703125 5.25,0.84375 5.25,1.125 5.46875,1.25 5.65625,1.25 5.859375,1.25 6.078125,1.125 6.078125,0.828125 6.078125,0.34375 5.578125,0 4.96875,0 c -0.9375,0 -1.328125,0.96875 -1.5,1.71875 -0.125,0.546875 -0.484375,3.359375 -0.5625,4.578125 z m 0,0"
             id="path6023" />
        </symbol>
        <symbol
           style="overflow:visible"
           overflow="visible"
           id="textext-9c1b2fe8-2">
          <path
             inkscape:connector-curvature="0"
             style="stroke:none"
             d=""
             id="path6026" />
        </symbol>
        <symbol
           style="overflow:visible"
           overflow="visible"
           id="textext-9c1b2fe8-3">
          <path
             inkscape:connector-curvature="0"
             style="stroke:none"
             d="m 5.28125,-1.171875 -0.25,0 c 0,0.015625 -0.0625,0.34375 -0.125,0.515625 C 4.875,-0.546875 4.84375,-0.5 4.421875,-0.5 l -0.59375,0 C 3.9375,-0.890625 4.140625,-1.15625 4.53125,-1.671875 4.875,-2.140625 5.1875,-2.59375 5.1875,-3.15625 c 0,-0.953125 -1.015625,-1.75 -2.34375,-1.75 -1.34375,0 -2.359375,0.796875 -2.359375,1.75 0,0.609375 0.34375,1.0625 0.828125,1.71875 0.203125,0.265625 0.421875,0.578125 0.53125,0.9375 L 1.25,-0.5 C 0.84375,-0.5 0.8125,-0.546875 0.78125,-0.625 0.71875,-0.765625 0.640625,-1.15625 0.640625,-1.171875 l -0.25,0 L 0.640625,0 1.90625,0 c 0.140625,0 0.1875,0 0.1875,-0.15625 0,-0.5 -0.25,-1.09375 -0.40625,-1.4375 -0.265625,-0.609375 -0.453125,-1.0625 -0.453125,-1.578125 0,-0.984375 0.78125,-1.53125 1.609375,-1.53125 0.8125,0 1.59375,0.546875 1.59375,1.53125 0,0.53125 -0.203125,1 -0.4375,1.546875 C 3.84375,-1.28125 3.578125,-0.65625 3.578125,-0.15625 3.578125,0 3.609375,0 3.78125,0 l 1.25,0 z m 0,0"
             id="path6029" />
        </symbol>
        <symbol
           style="overflow:visible"
           overflow="visible"
           id="textext-9c1b2fe8-4">
          <path
             inkscape:connector-curvature="0"
             style="stroke:none"
             d="m 2.328125,-4.4375 c 0,-0.1875 0,-0.1875 -0.203125,-0.1875 -0.453125,0.4375 -1.078125,0.4375 -1.359375,0.4375 l 0,0.25 c 0.15625,0 0.625,0 1,-0.1875 l 0,3.546875 c 0,0.234375 0,0.328125 -0.6875,0.328125 l -0.265625,0 0,0.25 c 0.125,0 0.984375,-0.03125 1.234375,-0.03125 0.21875,0 1.09375,0.03125 1.25,0.03125 l 0,-0.25 -0.265625,0 c -0.703125,0 -0.703125,-0.09375 -0.703125,-0.328125 z m 0,0"
             id="path6032" />
        </symbol>
        <symbol
           style="overflow:visible"
           overflow="visible"
           id="textext-9c1b2fe8-5">
          <path
             inkscape:connector-curvature="0"
             style="stroke:none"
             d="m 3.515625,-1.265625 -0.234375,0 c -0.015625,0.15625 -0.09375,0.5625 -0.1875,0.625 -0.046875,0.046875 -0.578125,0.046875 -0.6875,0.046875 l -1.28125,0 c 0.734375,-0.640625 0.984375,-0.84375 1.390625,-1.171875 0.515625,-0.40625 1,-0.84375 1,-1.5 0,-0.84375 -0.734375,-1.359375 -1.625,-1.359375 -0.859375,0 -1.453125,0.609375 -1.453125,1.25 0,0.34375 0.296875,0.390625 0.375,0.390625 0.15625,0 0.359375,-0.125 0.359375,-0.375 0,-0.125 -0.046875,-0.375 -0.40625,-0.375 C 0.984375,-4.21875 1.453125,-4.375 1.78125,-4.375 c 0.703125,0 1.0625,0.546875 1.0625,1.109375 0,0.609375 -0.4375,1.078125 -0.65625,1.328125 L 0.515625,-0.265625 C 0.4375,-0.203125 0.4375,-0.1875 0.4375,0 l 2.875,0 z m 0,0"
             id="path6035" />
        </symbol>
        <symbol
           style="overflow:visible"
           overflow="visible"
           id="textext-9c1b2fe8-6">
          <path
             inkscape:connector-curvature="0"
             style="stroke:none"
             d="m 1.4375,-4.84375 -1.046875,0.078125 0,0.25 c 0.46875,0 0.515625,0.0625 0.515625,0.390625 l 0,3.578125 C 0.90625,-0.25 0.84375,-0.25 0.390625,-0.25 l 0,0.25 c 0.015625,0 0.5,-0.03125 0.78125,-0.03125 0.265625,0 0.515625,0.015625 0.78125,0.03125 l 0,-0.25 C 1.5,-0.25 1.4375,-0.25 1.4375,-0.546875 Z m 0,0"
             id="path6038" />
        </symbol>
        <symbol
           style="overflow:visible"
           overflow="visible"
           id="textext-9c1b2fe8-7">
          <path
             inkscape:connector-curvature="0"
             style="stroke:none"
             d="m 3.0625,-1.59375 c 0.15625,0 0.203125,0 0.203125,-0.140625 0,-0.625 -0.34375,-1.375 -1.390625,-1.375 -0.90625,0 -1.609375,0.71875 -1.609375,1.578125 0,0.890625 0.78125,1.59375 1.703125,1.59375 0.9375,0 1.296875,-0.75 1.296875,-0.90625 0,-0.015625 -0.015625,-0.09375 -0.125,-0.09375 -0.09375,0 -0.109375,0.046875 -0.125,0.109375 -0.21875,0.5625 -0.75,0.671875 -1,0.671875 C 1.6875,-0.15625 1.375,-0.296875 1.171875,-0.5625 0.90625,-0.890625 0.90625,-1.3125 0.90625,-1.59375 Z M 0.90625,-1.765625 C 0.984375,-2.75 1.609375,-2.90625 1.875,-2.90625 c 0.859375,0 0.890625,0.96875 0.90625,1.140625 z m 0,0"
             id="path6041" />
        </symbol>
        <symbol
           style="overflow:visible"
           overflow="visible"
           id="textext-9c1b2fe8-8">
          <path
             inkscape:connector-curvature="0"
             style="stroke:none"
             d="m 1.4375,-2.75 0.875,0 0,-0.25 -0.90625,0 0,-0.78125 c 0,-0.640625 0.375,-0.921875 0.671875,-0.921875 0.0625,0 0.140625,0 0.203125,0.03125 C 2.1875,-4.625 2.125,-4.515625 2.125,-4.390625 c 0,0.1875 0.140625,0.3125 0.328125,0.3125 0.1875,0 0.328125,-0.125 0.328125,-0.3125 0,-0.3125 -0.3125,-0.515625 -0.6875,-0.515625 -0.546875,0 -1.1875,0.390625 -1.1875,1.125 l 0,0.78125 -0.59375,0 0,0.25 0.59375,0 0,2.203125 C 0.90625,-0.25 0.84375,-0.25 0.390625,-0.25 l 0,0.25 c 0.03125,0 0.515625,-0.03125 0.796875,-0.03125 0.296875,0 0.609375,0.015625 0.90625,0.03125 l 0,-0.25 -0.140625,0 C 1.4375,-0.25 1.4375,-0.328125 1.4375,-0.5625 Z m 0,0"
             id="path6044" />
        </symbol>
        <symbol
           style="overflow:visible"
           overflow="visible"
           id="textext-9c1b2fe8-9">
          <path
             inkscape:connector-curvature="0"
             style="stroke:none"
             d="m 1.40625,-2.75 1.078125,0 0,-0.25 -1.078125,0 0,-1.28125 -0.25,0 c 0,0.625 -0.28125,1.3125 -0.953125,1.328125 l 0,0.203125 0.640625,0 0,1.875 c 0,0.78125 0.59375,0.9375 0.984375,0.9375 0.46875,0 0.78125,-0.390625 0.78125,-0.9375 l 0,-0.390625 -0.234375,0 0,0.375 c 0,0.484375 -0.21875,0.734375 -0.5,0.734375 -0.46875,0 -0.46875,-0.578125 -0.46875,-0.703125 z m 0,0"
             id="path6047" />
        </symbol>
        <symbol
           style="overflow:visible"
           overflow="visible"
           id="textext-9c1b2fe8-10">
          <path
             inkscape:connector-curvature="0"
             style="stroke:none"
             d="m 1.390625,-1.59375 c 0,-0.578125 0.265625,-1.28125 0.9375,-1.28125 -0.0625,0.046875 -0.125,0.140625 -0.125,0.25 0,0.234375 0.1875,0.3125 0.3125,0.3125 0.171875,0 0.328125,-0.109375 0.328125,-0.3125 0,-0.234375 -0.234375,-0.453125 -0.5625,-0.453125 -0.34375,0 -0.734375,0.21875 -0.9375,0.75 l 0,-0.75 -1,0.078125 0,0.25 c 0.46875,0 0.515625,0.046875 0.515625,0.390625 l 0,1.8125 C 0.859375,-0.25 0.796875,-0.25 0.34375,-0.25 l 0,0.25 c 0.03125,0 0.5,-0.03125 0.796875,-0.03125 0.296875,0 0.59375,0.015625 0.90625,0.03125 l 0,-0.25 -0.140625,0 c -0.515625,0 -0.515625,-0.078125 -0.515625,-0.3125 z m 0,0"
             id="path6050" />
        </symbol>
        <symbol
           style="overflow:visible"
           overflow="visible"
           id="textext-9c1b2fe8-11">
          <path
             inkscape:connector-curvature="0"
             style="stroke:none"
             d="m 1.46875,-4.296875 c 0,-0.203125 -0.171875,-0.40625 -0.40625,-0.40625 -0.203125,0 -0.390625,0.171875 -0.390625,0.40625 0,0.25 0.203125,0.40625 0.390625,0.40625 0.234375,0 0.40625,-0.171875 0.40625,-0.40625 z M 0.40625,-3 l 0,0.25 c 0.4375,0 0.5,0.046875 0.5,0.390625 l 0,1.8125 C 0.90625,-0.25 0.84375,-0.25 0.390625,-0.25 l 0,0.25 c 0.015625,0 0.5,-0.03125 0.78125,-0.03125 0.25,0 0.5,0.015625 0.734375,0.03125 l 0,-0.25 C 1.5,-0.25 1.4375,-0.25 1.4375,-0.546875 l 0,-2.53125 z m 0,0"
             id="path6053" />
        </symbol>
        <symbol
           style="overflow:visible"
           overflow="visible"
           id="textext-9c1b2fe8-12">
          <path
             inkscape:connector-curvature="0"
             style="stroke:none"
             d="m 1,-1.234375 c 0.109375,0.0625 0.359375,0.203125 0.765625,0.203125 C 2.484375,-1.03125 3,-1.5 3,-2.046875 3,-2.328125 2.875,-2.53125 2.703125,-2.71875 c 0.328125,-0.21875 0.59375,-0.234375 0.71875,-0.234375 -0.03125,0.03125 -0.0625,0.0625 -0.0625,0.171875 0,0.140625 0.09375,0.21875 0.21875,0.21875 0.09375,0 0.21875,-0.0625 0.21875,-0.21875 0,-0.171875 -0.125,-0.359375 -0.40625,-0.359375 -0.109375,0 -0.484375,0.015625 -0.8125,0.3125 -0.203125,-0.140625 -0.5,-0.25 -0.8125,-0.25 -0.71875,0 -1.234375,0.484375 -1.234375,1.03125 0,0.265625 0.140625,0.515625 0.328125,0.703125 -0.046875,0.0625 -0.203125,0.296875 -0.203125,0.5625 0,0.09375 0.015625,0.421875 0.296875,0.625 -0.3125,0.09375 -0.6875,0.328125 -0.6875,0.6875 0,0.515625 0.765625,0.890625 1.71875,0.890625 0.875,0 1.703125,-0.34375 1.703125,-0.90625 0,-0.203125 -0.078125,-0.578125 -0.46875,-0.78125 -0.40625,-0.21875 -0.828125,-0.21875 -1.5,-0.21875 -0.15625,0 -0.40625,0 -0.453125,-0.015625 C 1.03125,-0.546875 0.90625,-0.75 0.90625,-0.953125 0.90625,-1.125 0.96875,-1.1875 1,-1.234375 Z m 0.765625,0 c -0.671875,0 -0.671875,-0.671875 -0.671875,-0.8125 0,-0.109375 0,-0.390625 0.125,-0.578125 0.109375,-0.109375 0.296875,-0.234375 0.546875,-0.234375 0.6875,0 0.6875,0.671875 0.6875,0.8125 0,0.109375 0,0.390625 -0.140625,0.5625 -0.109375,0.125 -0.296875,0.25 -0.546875,0.25 z m 0,1.21875 c 0.625,0 1.5,0 1.5,0.546875 0,0.375 -0.5625,0.6875 -1.28125,0.6875 -0.734375,0 -1.28125,-0.328125 -1.28125,-0.6875 0,-0.25 0.21875,-0.546875 0.65625,-0.546875 z m 0,0"
             id="path6056" />
        </symbol>
        <symbol
           style="overflow:visible"
           overflow="visible"
           id="textext-9c1b2fe8-13">
          <path
             inkscape:connector-curvature="0"
             style="stroke:none"
             d="m 3.59375,-2.109375 c 0,-0.609375 -0.296875,-0.96875 -1.046875,-0.96875 -0.625,0 -0.96875,0.375 -1.125,0.640625 l 0,-2.40625 -1.046875,0.078125 0,0.25 c 0.46875,0 0.53125,0.0625 0.53125,0.390625 l 0,3.578125 C 0.90625,-0.25 0.828125,-0.25 0.375,-0.25 l 0,0.25 C 0.390625,0 0.875,-0.03125 1.171875,-0.03125 1.421875,-0.03125 1.90625,0 1.96875,0 l 0,-0.25 c -0.453125,0 -0.515625,0 -0.515625,-0.296875 l 0,-1.265625 c 0,-0.71875 0.578125,-1.0625 1.03125,-1.0625 0.484375,0 0.546875,0.375 0.546875,0.734375 l 0,1.59375 C 3.03125,-0.25 2.96875,-0.25 2.515625,-0.25 l 0,0.25 C 2.53125,0 3.015625,-0.03125 3.3125,-0.03125 3.5625,-0.03125 4.046875,0 4.109375,0 l 0,-0.25 c -0.453125,0 -0.515625,0 -0.515625,-0.296875 z m 0,0"
             id="path6059" />
        </symbol>
        <symbol
           style="overflow:visible"
           overflow="visible"
           id="textext-9c1b2fe8-14">
          <path
             inkscape:connector-curvature="0"
             style="stroke:none"
             d=""
             id="path6062" />
        </symbol>
        <symbol
           style="overflow:visible"
           overflow="visible"
           id="textext-9c1b2fe8-15">
          <path
             inkscape:connector-curvature="0"
             style="stroke:none"
             d="M 1.265625,-0.953125 C 1.4375,-0.3125 1.90625,0.109375 2.546875,0.109375 3.734375,0.109375 5,-1.3125 5,-2.78125 c 0,-1.0625 -0.65625,-1.625 -1.375,-1.625 -0.796875,0 -1.796875,0.703125 -2.25,1.96875 -0.046875,0.109375 -0.640625,2.3125 -0.640625,3.203125 0,0.515625 0.1875,0.984375 1.40625,0.984375 0.359375,0 0.5625,-0.046875 0.953125,-0.046875 0.1875,0 0.203125,0 0.265625,0.015625 0.15625,0 0.1875,0.015625 0.203125,0.09375 0,0.0625 0,0.125 0.109375,0.125 0.09375,0 0.15625,-0.046875 0.15625,-0.28125 0,-0.484375 -0.4375,-0.484375 -1.4375,-0.484375 -0.890625,0 -1.359375,0 -1.359375,-0.671875 0,-0.078125 0,-0.453125 0.234375,-1.453125 z m 1.28125,0.84375 c -0.328125,0 -0.734375,-0.234375 -0.734375,-1.046875 0,-0.625 0.296875,-1.625 0.546875,-2.078125 C 2.765625,-3.9375 3.265625,-4.1875 3.59375,-4.1875 c 0.375,0 0.6875,0.296875 0.6875,0.984375 0,0.546875 -0.28125,1.65625 -0.546875,2.140625 -0.328125,0.640625 -0.8125,0.953125 -1.1875,0.953125 z m 0,0"
             id="path6065" />
        </symbol>
        <symbol
           style="overflow:visible"
           overflow="visible"
           id="textext-9c1b2fe8-16">
          <path
             inkscape:connector-curvature="0"
             style="stroke:none"
             d="M 3.484375,-0.5625 C 3.59375,-0.15625 3.953125,0.109375 4.375,0.109375 4.71875,0.109375 4.953125,-0.125 5.109375,-0.4375 5.28125,-0.796875 5.40625,-1.40625 5.40625,-1.421875 c 0,-0.109375 -0.078125,-0.109375 -0.109375,-0.109375 -0.109375,0 -0.109375,0.046875 -0.140625,0.1875 -0.140625,0.5625 -0.328125,1.234375 -0.75,1.234375 -0.203125,0 -0.3125,-0.125 -0.3125,-0.453125 0,-0.21875 0.125,-0.6875 0.203125,-1.046875 L 4.578125,-2.6875 C 4.609375,-2.828125 4.703125,-3.203125 4.75,-3.359375 4.796875,-3.59375 4.890625,-3.96875 4.890625,-4.03125 c 0,-0.171875 -0.140625,-0.265625 -0.28125,-0.265625 -0.046875,0 -0.3125,0.015625 -0.390625,0.34375 -0.1875,0.734375 -0.625,2.484375 -0.75,3 -0.015625,0.046875 -0.40625,0.84375 -1.140625,0.84375 -0.515625,0 -0.609375,-0.453125 -0.609375,-0.8125 0,-0.5625 0.28125,-1.34375 0.53125,-2.03125 0.125,-0.3125 0.171875,-0.453125 0.171875,-0.640625 0,-0.4375 -0.3125,-0.8125 -0.8125,-0.8125 -0.953125,0 -1.3125,1.453125 -1.3125,1.53125 0,0.109375 0.09375,0.109375 0.109375,0.109375 0.109375,0 0.109375,-0.03125 0.15625,-0.1875 0.25,-0.859375 0.640625,-1.234375 1.015625,-1.234375 0.09375,0 0.25,0.015625 0.25,0.328125 0,0.234375 -0.109375,0.53125 -0.171875,0.671875 -0.375,1 -0.578125,1.609375 -0.578125,2.09375 0,0.953125 0.6875,1.203125 1.21875,1.203125 0.65625,0 1.015625,-0.453125 1.1875,-0.671875 z m 0,0"
             id="path6068" />
        </symbol>
        <symbol
           style="overflow:visible"
           overflow="visible"
           id="textext-9c1b2fe8-17">
          <path
             inkscape:connector-curvature="0"
             style="stroke:none"
             d=""
             id="path6071" />
        </symbol>
        <symbol
           style="overflow:visible"
           overflow="visible"
           id="textext-9c1b2fe8-18">
          <path
             inkscape:connector-curvature="0"
             style="stroke:none"
             d="m 3.78125,-0.546875 0,0.65625 L 5.25,0 l 0,-0.3125 c -0.6875,0 -0.78125,-0.0625 -0.78125,-0.5625 l 0,-6.046875 -1.421875,0.109375 0,0.3125 c 0.6875,0 0.765625,0.0625 0.765625,0.5625 l 0,2.15625 c -0.28125,-0.359375 -0.71875,-0.625 -1.25,-0.625 -1.171875,0 -2.21875,0.984375 -2.21875,2.265625 0,1.265625 0.96875,2.25 2.109375,2.25 0.640625,0 1.078125,-0.34375 1.328125,-0.65625 z m 0,-2.671875 0,2.046875 c 0,0.171875 0,0.1875 -0.109375,0.359375 C 3.375,-0.328125 2.9375,-0.109375 2.5,-0.109375 2.046875,-0.109375 1.6875,-0.375 1.453125,-0.75 1.203125,-1.15625 1.171875,-1.71875 1.171875,-2.140625 1.171875,-2.5 1.1875,-3.09375 1.46875,-3.546875 1.6875,-3.859375 2.0625,-4.1875 2.609375,-4.1875 c 0.34375,0 0.765625,0.15625 1.0625,0.59375 0.109375,0.171875 0.109375,0.1875 0.109375,0.375 z m 0,0"
             id="path6074" />
        </symbol>
        <symbol
           style="overflow:visible"
           overflow="visible"
           id="textext-9c1b2fe8-19">
          <path
             inkscape:connector-curvature="0"
             style="stroke:none"
             d="m 6.75,-1.609375 -0.25,0 c -0.046875,0.25 -0.09375,0.484375 -0.1875,0.71875 -0.046875,0.15625 -0.078125,0.25 -0.65625,0.25 l -0.796875,0 C 5,-1.203125 5.296875,-1.6875 5.75,-2.34375 c 0.46875,-0.703125 0.875,-1.390625 0.875,-2.1875 0,-1.375 -1.34375,-2.5 -3.03125,-2.5 -1.703125,0 -3.03125,1.140625 -3.03125,2.5 0,0.796875 0.40625,1.484375 0.875,2.1875 0.4375,0.65625 0.75,1.140625 0.890625,1.703125 l -0.796875,0 C 0.953125,-0.640625 0.921875,-0.734375 0.875,-0.875 0.78125,-1.109375 0.734375,-1.359375 0.6875,-1.609375 l -0.25,0 L 0.765625,0 2.359375,0 c 0.21875,0 0.25,0 0.25,-0.203125 0,-0.703125 -0.3125,-1.578125 -0.53125,-2.21875 -0.21875,-0.578125 -0.5,-1.359375 -0.5,-2.109375 0,-1.59375 1.109375,-2.28125 2.015625,-2.28125 0.953125,0 2.015625,0.71875 2.015625,2.28125 0,0.75 -0.28125,1.5 -0.5625,2.3125 -0.15625,0.421875 -0.46875,1.328125 -0.46875,2.015625 C 4.578125,0 4.609375,0 4.828125,0 l 1.59375,0 z m 0,0"
             id="path6077" />
        </symbol>
        <symbol
           style="overflow:visible"
           overflow="visible"
           id="textext-9c1b2fe8-20">
          <path
             inkscape:connector-curvature="0"
             style="stroke:none"
             d="m 6.84375,-3.265625 c 0.15625,0 0.34375,0 0.34375,-0.1875 C 7.1875,-3.65625 7,-3.65625 6.859375,-3.65625 l -5.96875,0 c -0.140625,0 -0.328125,0 -0.328125,0.203125 0,0.1875 0.1875,0.1875 0.328125,0.1875 z m 0.015625,1.9375 c 0.140625,0 0.328125,0 0.328125,-0.203125 0,-0.1875 -0.1875,-0.1875 -0.34375,-0.1875 l -5.953125,0 c -0.140625,0 -0.328125,0 -0.328125,0.1875 0,0.203125 0.1875,0.203125 0.328125,0.203125 z m 0,0"
             id="path6080" />
        </symbol>
        <symbol
           style="overflow:visible"
           overflow="visible"
           id="textext-9c1b2fe8-21">
          <path
             inkscape:connector-curvature="0"
             style="stroke:none"
             d="m 4.078125,-2.296875 2.78125,0 C 7,-2.296875 7.1875,-2.296875 7.1875,-2.5 7.1875,-2.6875 7,-2.6875 6.859375,-2.6875 l -2.78125,0 0,-2.796875 c 0,-0.140625 0,-0.328125 -0.203125,-0.328125 -0.203125,0 -0.203125,0.1875 -0.203125,0.328125 l 0,2.796875 -2.78125,0 c -0.140625,0 -0.328125,0 -0.328125,0.1875 0,0.203125 0.1875,0.203125 0.328125,0.203125 l 2.78125,0 0,2.796875 c 0,0.140625 0,0.328125 0.203125,0.328125 0.203125,0 0.203125,-0.1875 0.203125,-0.328125 z m 0,0"
             id="path6083" />
        </symbol>
      </g>
    </defs>
  </defs>
  <metadata
     id="metadata5324">
    <rdf:RDF>
      <cc:Work
         rdf:about="">
        <dc:format>image/svg+xml</dc:format>
        <dc:type
           rdf:resource="http://purl.org/dc/dcmitype/StillImage" />
        <dc:title />
      </cc:Work>
    </rdf:RDF>
  </metadata>
  <g
     inkscape:label="Layer 1"
     inkscape:groupmode="layer"
     id="layer1"
     transform="translate(0,-308.26772)">
    <rect
       style="fill:none;fill-opacity:1;stroke:#ff5d00;stroke-width:11.00858021;stroke-miterlimit:4;stroke-dasharray:none;stroke-dashoffset:0;stroke-opacity:1"
       id="rect6491"
       width="29.510454"
       height="410.66409"
       x="416.91864"
       y="462.44208" />
    <g
       id="g5383"
       style="stroke-width:4;stroke-miterlimit:4;stroke-dasharray:none"
       transform="matrix(3.0391116,0,0,2.3963035,-480.87218,-609.6443)">
      <path
         inkscape:connector-curvature="0"
         id="path5371"
         d="m 400,452.3622 -160,0 0,160"
         style="fill:none;fill-rule:evenodd;stroke:#000000;stroke-width:4;stroke-linecap:butt;stroke-linejoin:miter;stroke-miterlimit:4;stroke-dasharray:none;stroke-opacity:1" />
      <path
         inkscape:connector-curvature="0"
         id="path5373"
         d="m 400,452.3622 0,160"
         style="fill:none;fill-rule:evenodd;stroke:#000000;stroke-width:4;stroke-linecap:butt;stroke-linejoin:miter;stroke-miterlimit:4;stroke-dasharray:none;stroke-opacity:1" />
      <path
         inkscape:connector-curvature="0"
         id="path5375"
         d="m 240,612.3622 160,0"
         style="fill:none;fill-rule:evenodd;stroke:#000000;stroke-width:4;stroke-linecap:butt;stroke-linejoin:miter;stroke-miterlimit:4;stroke-dasharray:none;stroke-opacity:1" />
    </g>
    <g
       id="g5388"
       transform="matrix(3.6461612,0,0,2.3896128,-440.62276,-606.08235)"
       style="stroke:#0000ff;stroke-width:4;stroke-miterlimit:4;stroke-dasharray:none;stroke-opacity:1">
      <path
         style="fill:none;fill-rule:evenodd;stroke:#0000ff;stroke-width:3.18069553;stroke-linecap:butt;stroke-linejoin:miter;stroke-miterlimit:4;stroke-dasharray:none;stroke-opacity:1"
         d="m 400,452.3622 -160,0 0,160"
         id="path5390"
         inkscape:connector-curvature="0" />
      <path
         style="fill:none;fill-rule:evenodd;stroke:#0000ff;stroke-width:3.18069553;stroke-linecap:butt;stroke-linejoin:miter;stroke-miterlimit:4;stroke-dasharray:none;stroke-opacity:1"
         d="m 400,452.3622 0,160"
         id="path5392"
         inkscape:connector-curvature="0" />
      <path
         style="fill:none;fill-rule:evenodd;stroke:#0000ff;stroke-width:3.18069553;stroke-linecap:butt;stroke-linejoin:miter;stroke-miterlimit:4;stroke-dasharray:none;stroke-opacity:1"
         d="m 240,612.3622 160,0"
         id="path5394"
         inkscape:connector-curvature="0" />
    </g>
    <g
       transform="matrix(2.4036714,0,0,2.4036714,-534.94549,-613.56666)"
       id="g5396"
       style="stroke:#ff0000;stroke-width:4;stroke-miterlimit:4;stroke-dasharray:none;stroke-opacity:1">
      <path
         inkscape:connector-curvature="0"
         id="path5398"
         d="m 400,452.3622 -160,0 0,160"
         style="fill:none;fill-rule:evenodd;stroke:#ff0000;stroke-width:4;stroke-linecap:butt;stroke-linejoin:miter;stroke-miterlimit:4;stroke-dasharray:none;stroke-opacity:1" />
      <path
         inkscape:connector-curvature="0"
         id="path5400"
         d="m 400,452.3622 0,160"
         style="fill:none;fill-rule:evenodd;stroke:#ff0000;stroke-width:4;stroke-linecap:butt;stroke-linejoin:miter;stroke-miterlimit:4;stroke-dasharray:none;stroke-opacity:1" />
      <path
         inkscape:connector-curvature="0"
         id="path5402"
         d="m 240,612.3622 160,0"
         style="fill:none;fill-rule:evenodd;stroke:#ff0000;stroke-width:4;stroke-linecap:butt;stroke-linejoin:miter;stroke-miterlimit:4;stroke-dasharray:none;stroke-opacity:1" />
    </g>
    <text
       xml:space="preserve"
       style="font-style:normal;font-weight:normal;font-size:54.08260727px;line-height:125%;font-family:sans-serif;letter-spacing:0px;word-spacing:0px;fill:#000000;fill-opacity:1;stroke:none;stroke-width:1px;stroke-linecap:butt;stroke-linejoin:miter;stroke-opacity:1"
       x="437.83032"
       y="1017.6154"
       id="text4154"
       sodipodi:linespacing="125%"><tspan
         sodipodi:role="line"
         id="tspan4156"
         x="437.83032"
         y="1017.6154"><tspan
           style="fill:#000000"
           id="tspan4158">F</tspan><tspan
           style="fill:#000000"
           id="tspan4170">V</tspan><tspan
           style="fill:#000000"
           id="tspan4160">C</tspan><tspan
           style="fill:#000000"
           id="tspan4168">e</tspan><tspan
           style="fill:#000000"
           id="tspan4162">l</tspan><tspan
           style="fill:#000000"
           id="tspan4166">l</tspan><tspan
           style="fill:#000000"
           id="tspan4164">s</tspan></tspan></text>
    <g
       style="fill:#550000"
       transform="matrix(4.8073429,0,0,4.8073429,-814.53146,-55.109477)"
       ns0:text="$\\varrho_\\text{left}$"
       ns0:preamble="/temp/melaniel/software/daily_work/presentations/Inkscape/praeable.tex"
       id="g4207">
      <defs
         id="defs4209">
        <g
           id="g4211">
          <symbol
             style="overflow:visible"
             overflow="visible"
             id="textext-0240922f-0">
            <path
               inkscape:connector-curvature="0"
               style="stroke:none"
               d=""
               id="path4214" />
          </symbol>
          <symbol
             style="overflow:visible"
             overflow="visible"
             id="textext-0240922f-1">
            <path
               inkscape:connector-curvature="0"
               style="stroke:none"
               d="M 1.265625,-0.953125 C 1.4375,-0.3125 1.90625,0.109375 2.546875,0.109375 3.734375,0.109375 5,-1.3125 5,-2.78125 c 0,-1.0625 -0.65625,-1.625 -1.375,-1.625 -0.796875,0 -1.796875,0.703125 -2.25,1.96875 -0.046875,0.109375 -0.640625,2.3125 -0.640625,3.203125 0,0.515625 0.1875,0.984375 1.40625,0.984375 0.359375,0 0.5625,-0.046875 0.953125,-0.046875 0.1875,0 0.203125,0 0.265625,0.015625 0.15625,0 0.1875,0.015625 0.203125,0.09375 0,0.0625 0,0.125 0.109375,0.125 0.09375,0 0.15625,-0.046875 0.15625,-0.28125 0,-0.484375 -0.4375,-0.484375 -1.4375,-0.484375 -0.890625,0 -1.359375,0 -1.359375,-0.671875 0,-0.078125 0,-0.453125 0.234375,-1.453125 z m 1.28125,0.84375 c -0.328125,0 -0.734375,-0.234375 -0.734375,-1.046875 0,-0.625 0.296875,-1.625 0.546875,-2.078125 C 2.765625,-3.9375 3.265625,-4.1875 3.59375,-4.1875 c 0.375,0 0.6875,0.296875 0.6875,0.984375 0,0.546875 -0.28125,1.65625 -0.546875,2.140625 -0.328125,0.640625 -0.8125,0.953125 -1.1875,0.953125 z m 0,0"
               id="path4217" />
          </symbol>
          <symbol
             style="overflow:visible"
             overflow="visible"
             id="textext-0240922f-2">
            <path
               inkscape:connector-curvature="0"
               style="stroke:none"
               d=""
               id="path4220" />
          </symbol>
          <symbol
             style="overflow:visible"
             overflow="visible"
             id="textext-0240922f-3">
            <path
               inkscape:connector-curvature="0"
               style="stroke:none"
               d="m 1.4375,-4.84375 -1.046875,0.078125 0,0.25 c 0.46875,0 0.515625,0.0625 0.515625,0.390625 l 0,3.578125 C 0.90625,-0.25 0.84375,-0.25 0.390625,-0.25 l 0,0.25 c 0.015625,0 0.5,-0.03125 0.78125,-0.03125 0.265625,0 0.515625,0.015625 0.78125,0.03125 l 0,-0.25 C 1.5,-0.25 1.4375,-0.25 1.4375,-0.546875 Z m 0,0"
               id="path4223" />
          </symbol>
          <symbol
             style="overflow:visible"
             overflow="visible"
             id="textext-0240922f-4">
            <path
               inkscape:connector-curvature="0"
               style="stroke:none"
               d="m 3.0625,-1.59375 c 0.15625,0 0.203125,0 0.203125,-0.140625 0,-0.625 -0.34375,-1.375 -1.390625,-1.375 -0.90625,0 -1.609375,0.71875 -1.609375,1.578125 0,0.890625 0.78125,1.59375 1.703125,1.59375 0.9375,0 1.296875,-0.75 1.296875,-0.90625 0,-0.015625 -0.015625,-0.09375 -0.125,-0.09375 -0.09375,0 -0.109375,0.046875 -0.125,0.109375 -0.21875,0.5625 -0.75,0.671875 -1,0.671875 C 1.6875,-0.15625 1.375,-0.296875 1.171875,-0.5625 0.90625,-0.890625 0.90625,-1.3125 0.90625,-1.59375 Z M 0.90625,-1.765625 C 0.984375,-2.75 1.609375,-2.90625 1.875,-2.90625 c 0.859375,0 0.890625,0.96875 0.90625,1.140625 z m 0,0"
               id="path4226" />
          </symbol>
          <symbol
             style="overflow:visible"
             overflow="visible"
             id="textext-0240922f-5">
            <path
               inkscape:connector-curvature="0"
               style="stroke:none"
               d="m 1.4375,-2.75 0.875,0 0,-0.25 -0.90625,0 0,-0.78125 c 0,-0.640625 0.375,-0.921875 0.671875,-0.921875 0.0625,0 0.140625,0 0.203125,0.03125 C 2.1875,-4.625 2.125,-4.515625 2.125,-4.390625 c 0,0.1875 0.140625,0.3125 0.328125,0.3125 0.1875,0 0.328125,-0.125 0.328125,-0.3125 0,-0.3125 -0.3125,-0.515625 -0.6875,-0.515625 -0.546875,0 -1.1875,0.390625 -1.1875,1.125 l 0,0.78125 -0.59375,0 0,0.25 0.59375,0 0,2.203125 C 0.90625,-0.25 0.84375,-0.25 0.390625,-0.25 l 0,0.25 c 0.03125,0 0.515625,-0.03125 0.796875,-0.03125 0.296875,0 0.609375,0.015625 0.90625,0.03125 l 0,-0.25 -0.140625,0 C 1.4375,-0.25 1.4375,-0.328125 1.4375,-0.5625 Z m 0,0"
               id="path4229" />
          </symbol>
          <symbol
             style="overflow:visible"
             overflow="visible"
             id="textext-0240922f-6">
            <path
               inkscape:connector-curvature="0"
               style="stroke:none"
               d="m 1.40625,-2.75 1.078125,0 0,-0.25 -1.078125,0 0,-1.28125 -0.25,0 c 0,0.625 -0.28125,1.3125 -0.953125,1.328125 l 0,0.203125 0.640625,0 0,1.875 c 0,0.78125 0.59375,0.9375 0.984375,0.9375 0.46875,0 0.78125,-0.390625 0.78125,-0.9375 l 0,-0.390625 -0.234375,0 0,0.375 c 0,0.484375 -0.21875,0.734375 -0.5,0.734375 -0.46875,0 -0.46875,-0.578125 -0.46875,-0.703125 z m 0,0"
               id="path4232" />
          </symbol>
        </g>
      </defs>
      <g
         style="fill:#550000"
         id="textext-0240922f-7">
        <g
           style="fill:#550000;fill-opacity:1"
           id="g4235">
          <use
             style="fill:#550000"
             height="100%"
             width="100%"
             xlink:href="#textext-0240922f-1"
             x="223.43201"
             y="134.765"
             id="use4237" />
        </g>
        <g
           style="fill:#550000;fill-opacity:1"
           id="g4239">
          <use
             style="fill:#550000"
             height="100%"
             width="100%"
             xlink:href="#textext-0240922f-3"
             x="228.58299"
             y="136.259"
             id="use4241" />
          <use
             style="fill:#550000"
             height="100%"
             width="100%"
             xlink:href="#textext-0240922f-4"
             x="230.83833"
             y="136.259"
             id="use4243" />
          <use
             style="fill:#550000"
             height="100%"
             width="100%"
             xlink:href="#textext-0240922f-5"
             x="234.38033"
             y="136.259"
             id="use4245" />
          <use
             style="fill:#550000"
             height="100%"
             width="100%"
             xlink:href="#textext-0240922f-6"
             x="236.85043"
             y="136.259"
             id="use4247" />
        </g>
      </g>
    </g>
    <g
       style="fill:#000080"
       id="g4454"
       transform="matrix(4.8073429,0,0,4.8073429,-313.16469,-49.277185)"
       ns0:preamble="/temp/melaniel/software/daily_work/presentations/Inkscape/praeable.tex"
       ns0:text="$\\varrho_\\text{right}$">
      <defs
         id="defs4456">
        <g
           id="g4458">
          <symbol
             style="overflow:visible"
             id="textext-3b5baf1f-0"
             overflow="visible">
            <path
               inkscape:connector-curvature="0"
               id="path4461"
               d=""
               style="stroke:none" />
          </symbol>
          <symbol
             style="overflow:visible"
             id="textext-3b5baf1f-1"
             overflow="visible">
            <path
               inkscape:connector-curvature="0"
               id="path4464"
               d="M 1.265625,-0.953125 C 1.4375,-0.3125 1.90625,0.109375 2.546875,0.109375 3.734375,0.109375 5,-1.3125 5,-2.78125 c 0,-1.0625 -0.65625,-1.625 -1.375,-1.625 -0.796875,0 -1.796875,0.703125 -2.25,1.96875 -0.046875,0.109375 -0.640625,2.3125 -0.640625,3.203125 0,0.515625 0.1875,0.984375 1.40625,0.984375 0.359375,0 0.5625,-0.046875 0.953125,-0.046875 0.1875,0 0.203125,0 0.265625,0.015625 0.15625,0 0.1875,0.015625 0.203125,0.09375 0,0.0625 0,0.125 0.109375,0.125 0.09375,0 0.15625,-0.046875 0.15625,-0.28125 0,-0.484375 -0.4375,-0.484375 -1.4375,-0.484375 -0.890625,0 -1.359375,0 -1.359375,-0.671875 0,-0.078125 0,-0.453125 0.234375,-1.453125 z m 1.28125,0.84375 c -0.328125,0 -0.734375,-0.234375 -0.734375,-1.046875 0,-0.625 0.296875,-1.625 0.546875,-2.078125 C 2.765625,-3.9375 3.265625,-4.1875 3.59375,-4.1875 c 0.375,0 0.6875,0.296875 0.6875,0.984375 0,0.546875 -0.28125,1.65625 -0.546875,2.140625 -0.328125,0.640625 -0.8125,0.953125 -1.1875,0.953125 z m 0,0"
               style="stroke:none" />
          </symbol>
          <symbol
             style="overflow:visible"
             id="textext-3b5baf1f-2"
             overflow="visible">
            <path
               inkscape:connector-curvature="0"
               id="path4467"
               d=""
               style="stroke:none" />
          </symbol>
          <symbol
             style="overflow:visible"
             id="textext-3b5baf1f-3"
             overflow="visible">
            <path
               inkscape:connector-curvature="0"
               id="path4470"
               d="m 1.390625,-1.59375 c 0,-0.578125 0.265625,-1.28125 0.9375,-1.28125 -0.0625,0.046875 -0.125,0.140625 -0.125,0.25 0,0.234375 0.1875,0.3125 0.3125,0.3125 0.171875,0 0.328125,-0.109375 0.328125,-0.3125 0,-0.234375 -0.234375,-0.453125 -0.5625,-0.453125 -0.34375,0 -0.734375,0.21875 -0.9375,0.75 l 0,-0.75 -1,0.078125 0,0.25 c 0.46875,0 0.515625,0.046875 0.515625,0.390625 l 0,1.8125 C 0.859375,-0.25 0.796875,-0.25 0.34375,-0.25 l 0,0.25 c 0.03125,0 0.5,-0.03125 0.796875,-0.03125 0.296875,0 0.59375,0.015625 0.90625,0.03125 l 0,-0.25 -0.140625,0 c -0.515625,0 -0.515625,-0.078125 -0.515625,-0.3125 z m 0,0"
               style="stroke:none" />
          </symbol>
          <symbol
             style="overflow:visible"
             id="textext-3b5baf1f-4"
             overflow="visible">
            <path
               inkscape:connector-curvature="0"
               id="path4473"
               d="m 1.46875,-4.296875 c 0,-0.203125 -0.171875,-0.40625 -0.40625,-0.40625 -0.203125,0 -0.390625,0.171875 -0.390625,0.40625 0,0.25 0.203125,0.40625 0.390625,0.40625 0.234375,0 0.40625,-0.171875 0.40625,-0.40625 z M 0.40625,-3 l 0,0.25 c 0.4375,0 0.5,0.046875 0.5,0.390625 l 0,1.8125 C 0.90625,-0.25 0.84375,-0.25 0.390625,-0.25 l 0,0.25 c 0.015625,0 0.5,-0.03125 0.78125,-0.03125 0.25,0 0.5,0.015625 0.734375,0.03125 l 0,-0.25 C 1.5,-0.25 1.4375,-0.25 1.4375,-0.546875 l 0,-2.53125 z m 0,0"
               style="stroke:none" />
          </symbol>
          <symbol
             style="overflow:visible"
             id="textext-3b5baf1f-5"
             overflow="visible">
            <path
               inkscape:connector-curvature="0"
               id="path4476"
               d="m 1,-1.234375 c 0.109375,0.0625 0.359375,0.203125 0.765625,0.203125 C 2.484375,-1.03125 3,-1.5 3,-2.046875 3,-2.328125 2.875,-2.53125 2.703125,-2.71875 c 0.328125,-0.21875 0.59375,-0.234375 0.71875,-0.234375 -0.03125,0.03125 -0.0625,0.0625 -0.0625,0.171875 0,0.140625 0.09375,0.21875 0.21875,0.21875 0.09375,0 0.21875,-0.0625 0.21875,-0.21875 0,-0.171875 -0.125,-0.359375 -0.40625,-0.359375 -0.109375,0 -0.484375,0.015625 -0.8125,0.3125 -0.203125,-0.140625 -0.5,-0.25 -0.8125,-0.25 -0.71875,0 -1.234375,0.484375 -1.234375,1.03125 0,0.265625 0.140625,0.515625 0.328125,0.703125 -0.046875,0.0625 -0.203125,0.296875 -0.203125,0.5625 0,0.09375 0.015625,0.421875 0.296875,0.625 -0.3125,0.09375 -0.6875,0.328125 -0.6875,0.6875 0,0.515625 0.765625,0.890625 1.71875,0.890625 0.875,0 1.703125,-0.34375 1.703125,-0.90625 0,-0.203125 -0.078125,-0.578125 -0.46875,-0.78125 -0.40625,-0.21875 -0.828125,-0.21875 -1.5,-0.21875 -0.15625,0 -0.40625,0 -0.453125,-0.015625 C 1.03125,-0.546875 0.90625,-0.75 0.90625,-0.953125 0.90625,-1.125 0.96875,-1.1875 1,-1.234375 Z m 0.765625,0 c -0.671875,0 -0.671875,-0.671875 -0.671875,-0.8125 0,-0.109375 0,-0.390625 0.125,-0.578125 0.109375,-0.109375 0.296875,-0.234375 0.546875,-0.234375 0.6875,0 0.6875,0.671875 0.6875,0.8125 0,0.109375 0,0.390625 -0.140625,0.5625 -0.109375,0.125 -0.296875,0.25 -0.546875,0.25 z m 0,1.21875 c 0.625,0 1.5,0 1.5,0.546875 0,0.375 -0.5625,0.6875 -1.28125,0.6875 -0.734375,0 -1.28125,-0.328125 -1.28125,-0.6875 0,-0.25 0.21875,-0.546875 0.65625,-0.546875 z m 0,0"
               style="stroke:none" />
          </symbol>
          <symbol
             style="overflow:visible"
             id="textext-3b5baf1f-6"
             overflow="visible">
            <path
               inkscape:connector-curvature="0"
               id="path4479"
               d="m 3.59375,-2.109375 c 0,-0.609375 -0.296875,-0.96875 -1.046875,-0.96875 -0.625,0 -0.96875,0.375 -1.125,0.640625 l 0,-2.40625 -1.046875,0.078125 0,0.25 c 0.46875,0 0.53125,0.0625 0.53125,0.390625 l 0,3.578125 C 0.90625,-0.25 0.828125,-0.25 0.375,-0.25 l 0,0.25 C 0.390625,0 0.875,-0.03125 1.171875,-0.03125 1.421875,-0.03125 1.90625,0 1.96875,0 l 0,-0.25 c -0.453125,0 -0.515625,0 -0.515625,-0.296875 l 0,-1.265625 c 0,-0.71875 0.578125,-1.0625 1.03125,-1.0625 0.484375,0 0.546875,0.375 0.546875,0.734375 l 0,1.59375 C 3.03125,-0.25 2.96875,-0.25 2.515625,-0.25 l 0,0.25 C 2.53125,0 3.015625,-0.03125 3.3125,-0.03125 3.5625,-0.03125 4.046875,0 4.109375,0 l 0,-0.25 c -0.453125,0 -0.515625,0 -0.515625,-0.296875 z m 0,0"
               style="stroke:none" />
          </symbol>
          <symbol
             style="overflow:visible"
             id="textext-3b5baf1f-7"
             overflow="visible">
            <path
               inkscape:connector-curvature="0"
               id="path4482"
               d="m 1.40625,-2.75 1.078125,0 0,-0.25 -1.078125,0 0,-1.28125 -0.25,0 c 0,0.625 -0.28125,1.3125 -0.953125,1.328125 l 0,0.203125 0.640625,0 0,1.875 c 0,0.78125 0.59375,0.9375 0.984375,0.9375 0.46875,0 0.78125,-0.390625 0.78125,-0.9375 l 0,-0.390625 -0.234375,0 0,0.375 c 0,0.484375 -0.21875,0.734375 -0.5,0.734375 -0.46875,0 -0.46875,-0.578125 -0.46875,-0.703125 z m 0,0"
               style="stroke:none" />
          </symbol>
        </g>
      </defs>
      <g
         style="fill:#000080"
         id="textext-3b5baf1f-8">
        <g
           id="g4485"
           style="fill:#000080;fill-opacity:1">
          <use
             style="fill:#000080"
             height="100%"
             width="100%"
             id="use4487"
             y="134.765"
             x="223.43201"
             xlink:href="#textext-3b5baf1f-1" />
        </g>
        <g
           id="g4489"
           style="fill:#000080;fill-opacity:1">
          <use
             style="fill:#000080"
             height="100%"
             width="100%"
             id="use4491"
             y="136.259"
             x="228.58299"
             xlink:href="#textext-3b5baf1f-3" />
          <use
             style="fill:#000080"
             height="100%"
             width="100%"
             id="use4493"
             y="136.259"
             x="231.69611"
             xlink:href="#textext-3b5baf1f-4" />
          <use
             style="fill:#000080"
             height="100%"
             width="100%"
             id="use4495"
             y="136.259"
             x="233.95143"
             xlink:href="#textext-3b5baf1f-5" />
          <use
             style="fill:#000080"
             height="100%"
             width="100%"
             id="use4497"
             y="136.259"
             x="237.923"
             xlink:href="#textext-3b5baf1f-6" />
        </g>
        <g
           id="g4499"
           style="fill:#000080;fill-opacity:1">
          <use
             style="fill:#000080"
             height="100%"
             width="100%"
             id="use4501"
             y="136.259"
             x="242.10728"
             xlink:href="#textext-3b5baf1f-7" />
        </g>
      </g>
    </g>
    <g
       style="fill:#ff0000"
       transform="matrix(4.8073429,0,0,4.8073429,-986.92479,158.56114)"
       ns0:text="$\\Omega_\\text{left}$"
       ns0:preamble="/temp/melaniel/software/daily_work/presentations/Inkscape/praeable.tex"
       id="g4679">
      <defs
         id="defs4681">
        <g
           id="g4683">
          <symbol
             style="overflow:visible"
             overflow="visible"
             id="textext-191a0cd9-0">
            <path
               inkscape:connector-curvature="0"
               style="stroke:none"
               d=""
               id="path4686" />
          </symbol>
          <symbol
             style="overflow:visible"
             overflow="visible"
             id="textext-191a0cd9-1">
            <path
               inkscape:connector-curvature="0"
               style="stroke:none"
               d="m 6.75,-1.609375 -0.25,0 c -0.046875,0.25 -0.09375,0.484375 -0.1875,0.71875 -0.046875,0.15625 -0.078125,0.25 -0.65625,0.25 l -0.796875,0 C 5,-1.203125 5.296875,-1.6875 5.75,-2.34375 c 0.46875,-0.703125 0.875,-1.390625 0.875,-2.1875 0,-1.375 -1.34375,-2.5 -3.03125,-2.5 -1.703125,0 -3.03125,1.140625 -3.03125,2.5 0,0.796875 0.40625,1.484375 0.875,2.1875 0.4375,0.65625 0.75,1.140625 0.890625,1.703125 l -0.796875,0 C 0.953125,-0.640625 0.921875,-0.734375 0.875,-0.875 0.78125,-1.109375 0.734375,-1.359375 0.6875,-1.609375 l -0.25,0 L 0.765625,0 2.359375,0 c 0.21875,0 0.25,0 0.25,-0.203125 0,-0.703125 -0.3125,-1.578125 -0.53125,-2.21875 -0.21875,-0.578125 -0.5,-1.359375 -0.5,-2.109375 0,-1.59375 1.109375,-2.28125 2.015625,-2.28125 0.953125,0 2.015625,0.71875 2.015625,2.28125 0,0.75 -0.28125,1.5 -0.5625,2.3125 -0.15625,0.421875 -0.46875,1.328125 -0.46875,2.015625 C 4.578125,0 4.609375,0 4.828125,0 l 1.59375,0 z m 0,0"
               id="path4689" />
          </symbol>
          <symbol
             style="overflow:visible"
             overflow="visible"
             id="textext-191a0cd9-2">
            <path
               inkscape:connector-curvature="0"
               style="stroke:none"
               d=""
               id="path4692" />
          </symbol>
          <symbol
             style="overflow:visible"
             overflow="visible"
             id="textext-191a0cd9-3">
            <path
               inkscape:connector-curvature="0"
               style="stroke:none"
               d="m 1.4375,-4.84375 -1.046875,0.078125 0,0.25 c 0.46875,0 0.515625,0.0625 0.515625,0.390625 l 0,3.578125 C 0.90625,-0.25 0.84375,-0.25 0.390625,-0.25 l 0,0.25 c 0.015625,0 0.5,-0.03125 0.78125,-0.03125 0.265625,0 0.515625,0.015625 0.78125,0.03125 l 0,-0.25 C 1.5,-0.25 1.4375,-0.25 1.4375,-0.546875 Z m 0,0"
               id="path4695" />
          </symbol>
          <symbol
             style="overflow:visible"
             overflow="visible"
             id="textext-191a0cd9-4">
            <path
               inkscape:connector-curvature="0"
               style="stroke:none"
               d="m 3.0625,-1.59375 c 0.15625,0 0.203125,0 0.203125,-0.140625 0,-0.625 -0.34375,-1.375 -1.390625,-1.375 -0.90625,0 -1.609375,0.71875 -1.609375,1.578125 0,0.890625 0.78125,1.59375 1.703125,1.59375 0.9375,0 1.296875,-0.75 1.296875,-0.90625 0,-0.015625 -0.015625,-0.09375 -0.125,-0.09375 -0.09375,0 -0.109375,0.046875 -0.125,0.109375 -0.21875,0.5625 -0.75,0.671875 -1,0.671875 C 1.6875,-0.15625 1.375,-0.296875 1.171875,-0.5625 0.90625,-0.890625 0.90625,-1.3125 0.90625,-1.59375 Z M 0.90625,-1.765625 C 0.984375,-2.75 1.609375,-2.90625 1.875,-2.90625 c 0.859375,0 0.890625,0.96875 0.90625,1.140625 z m 0,0"
               id="path4698" />
          </symbol>
          <symbol
             style="overflow:visible"
             overflow="visible"
             id="textext-191a0cd9-5">
            <path
               inkscape:connector-curvature="0"
               style="stroke:none"
               d="m 1.4375,-2.75 0.875,0 0,-0.25 -0.90625,0 0,-0.78125 c 0,-0.640625 0.375,-0.921875 0.671875,-0.921875 0.0625,0 0.140625,0 0.203125,0.03125 C 2.1875,-4.625 2.125,-4.515625 2.125,-4.390625 c 0,0.1875 0.140625,0.3125 0.328125,0.3125 0.1875,0 0.328125,-0.125 0.328125,-0.3125 0,-0.3125 -0.3125,-0.515625 -0.6875,-0.515625 -0.546875,0 -1.1875,0.390625 -1.1875,1.125 l 0,0.78125 -0.59375,0 0,0.25 0.59375,0 0,2.203125 C 0.90625,-0.25 0.84375,-0.25 0.390625,-0.25 l 0,0.25 c 0.03125,0 0.515625,-0.03125 0.796875,-0.03125 0.296875,0 0.609375,0.015625 0.90625,0.03125 l 0,-0.25 -0.140625,0 C 1.4375,-0.25 1.4375,-0.328125 1.4375,-0.5625 Z m 0,0"
               id="path4701" />
          </symbol>
          <symbol
             style="overflow:visible"
             overflow="visible"
             id="textext-191a0cd9-6">
            <path
               inkscape:connector-curvature="0"
               style="stroke:none"
               d="m 1.40625,-2.75 1.078125,0 0,-0.25 -1.078125,0 0,-1.28125 -0.25,0 c 0,0.625 -0.28125,1.3125 -0.953125,1.328125 l 0,0.203125 0.640625,0 0,1.875 c 0,0.78125 0.59375,0.9375 0.984375,0.9375 0.46875,0 0.78125,-0.390625 0.78125,-0.9375 l 0,-0.390625 -0.234375,0 0,0.375 c 0,0.484375 -0.21875,0.734375 -0.5,0.734375 -0.46875,0 -0.46875,-0.578125 -0.46875,-0.703125 z m 0,0"
               id="path4704" />
          </symbol>
        </g>
      </defs>
      <g
         style="fill:#ff0000"
         id="textext-191a0cd9-7">
        <g
           style="fill:#ff0000;fill-opacity:1"
           id="g4707">
          <use
             style="fill:#ff0000"
             height="100%"
             width="100%"
             xlink:href="#textext-191a0cd9-1"
             x="223.43201"
             y="134.765"
             id="use4709" />
        </g>
        <g
           style="fill:#ff0000;fill-opacity:1"
           id="g4711">
          <use
             style="fill:#ff0000"
             height="100%"
             width="100%"
             xlink:href="#textext-191a0cd9-3"
             x="230.627"
             y="136.259"
             id="use4713" />
          <use
             style="fill:#ff0000"
             height="100%"
             width="100%"
             xlink:href="#textext-191a0cd9-4"
             x="232.88232"
             y="136.259"
             id="use4715" />
          <use
             style="fill:#ff0000"
             height="100%"
             width="100%"
             xlink:href="#textext-191a0cd9-5"
             x="236.42432"
             y="136.259"
             id="use4717" />
          <use
             style="fill:#ff0000"
             height="100%"
             width="100%"
             xlink:href="#textext-191a0cd9-6"
             x="238.89444"
             y="136.259"
             id="use4719" />
        </g>
      </g>
    </g>
    <g
       style="fill:#0000ff"
       id="g5034"
       transform="matrix(4.8073429,0,0,4.8073429,-215.55363,179.68168)"
       ns0:preamble="/temp/melaniel/software/daily_work/presentations/Inkscape/praeable.tex"
       ns0:text="$\\Omega_\\text{right}$">
      <defs
         id="defs5036">
        <g
           id="g5038">
          <symbol
             style="overflow:visible"
             id="textext-af346ca9-0"
             overflow="visible">
            <path
               inkscape:connector-curvature="0"
               id="path5041"
               d=""
               style="stroke:none" />
          </symbol>
          <symbol
             style="overflow:visible"
             id="textext-af346ca9-1"
             overflow="visible">
            <path
               inkscape:connector-curvature="0"
               id="path5044"
               d="m 6.75,-1.609375 -0.25,0 c -0.046875,0.25 -0.09375,0.484375 -0.1875,0.71875 -0.046875,0.15625 -0.078125,0.25 -0.65625,0.25 l -0.796875,0 C 5,-1.203125 5.296875,-1.6875 5.75,-2.34375 c 0.46875,-0.703125 0.875,-1.390625 0.875,-2.1875 0,-1.375 -1.34375,-2.5 -3.03125,-2.5 -1.703125,0 -3.03125,1.140625 -3.03125,2.5 0,0.796875 0.40625,1.484375 0.875,2.1875 0.4375,0.65625 0.75,1.140625 0.890625,1.703125 l -0.796875,0 C 0.953125,-0.640625 0.921875,-0.734375 0.875,-0.875 0.78125,-1.109375 0.734375,-1.359375 0.6875,-1.609375 l -0.25,0 L 0.765625,0 2.359375,0 c 0.21875,0 0.25,0 0.25,-0.203125 0,-0.703125 -0.3125,-1.578125 -0.53125,-2.21875 -0.21875,-0.578125 -0.5,-1.359375 -0.5,-2.109375 0,-1.59375 1.109375,-2.28125 2.015625,-2.28125 0.953125,0 2.015625,0.71875 2.015625,2.28125 0,0.75 -0.28125,1.5 -0.5625,2.3125 -0.15625,0.421875 -0.46875,1.328125 -0.46875,2.015625 C 4.578125,0 4.609375,0 4.828125,0 l 1.59375,0 z m 0,0"
               style="stroke:none" />
          </symbol>
          <symbol
             style="overflow:visible"
             id="textext-af346ca9-2"
             overflow="visible">
            <path
               inkscape:connector-curvature="0"
               id="path5047"
               d=""
               style="stroke:none" />
          </symbol>
          <symbol
             style="overflow:visible"
             id="textext-af346ca9-3"
             overflow="visible">
            <path
               inkscape:connector-curvature="0"
               id="path5050"
               d="m 1.390625,-1.59375 c 0,-0.578125 0.265625,-1.28125 0.9375,-1.28125 -0.0625,0.046875 -0.125,0.140625 -0.125,0.25 0,0.234375 0.1875,0.3125 0.3125,0.3125 0.171875,0 0.328125,-0.109375 0.328125,-0.3125 0,-0.234375 -0.234375,-0.453125 -0.5625,-0.453125 -0.34375,0 -0.734375,0.21875 -0.9375,0.75 l 0,-0.75 -1,0.078125 0,0.25 c 0.46875,0 0.515625,0.046875 0.515625,0.390625 l 0,1.8125 C 0.859375,-0.25 0.796875,-0.25 0.34375,-0.25 l 0,0.25 c 0.03125,0 0.5,-0.03125 0.796875,-0.03125 0.296875,0 0.59375,0.015625 0.90625,0.03125 l 0,-0.25 -0.140625,0 c -0.515625,0 -0.515625,-0.078125 -0.515625,-0.3125 z m 0,0"
               style="stroke:none" />
          </symbol>
          <symbol
             style="overflow:visible"
             id="textext-af346ca9-4"
             overflow="visible">
            <path
               inkscape:connector-curvature="0"
               id="path5053"
               d="m 1.46875,-4.296875 c 0,-0.203125 -0.171875,-0.40625 -0.40625,-0.40625 -0.203125,0 -0.390625,0.171875 -0.390625,0.40625 0,0.25 0.203125,0.40625 0.390625,0.40625 0.234375,0 0.40625,-0.171875 0.40625,-0.40625 z M 0.40625,-3 l 0,0.25 c 0.4375,0 0.5,0.046875 0.5,0.390625 l 0,1.8125 C 0.90625,-0.25 0.84375,-0.25 0.390625,-0.25 l 0,0.25 c 0.015625,0 0.5,-0.03125 0.78125,-0.03125 0.25,0 0.5,0.015625 0.734375,0.03125 l 0,-0.25 C 1.5,-0.25 1.4375,-0.25 1.4375,-0.546875 l 0,-2.53125 z m 0,0"
               style="stroke:none" />
          </symbol>
          <symbol
             style="overflow:visible"
             id="textext-af346ca9-5"
             overflow="visible">
            <path
               inkscape:connector-curvature="0"
               id="path5056"
               d="m 1,-1.234375 c 0.109375,0.0625 0.359375,0.203125 0.765625,0.203125 C 2.484375,-1.03125 3,-1.5 3,-2.046875 3,-2.328125 2.875,-2.53125 2.703125,-2.71875 c 0.328125,-0.21875 0.59375,-0.234375 0.71875,-0.234375 -0.03125,0.03125 -0.0625,0.0625 -0.0625,0.171875 0,0.140625 0.09375,0.21875 0.21875,0.21875 0.09375,0 0.21875,-0.0625 0.21875,-0.21875 0,-0.171875 -0.125,-0.359375 -0.40625,-0.359375 -0.109375,0 -0.484375,0.015625 -0.8125,0.3125 -0.203125,-0.140625 -0.5,-0.25 -0.8125,-0.25 -0.71875,0 -1.234375,0.484375 -1.234375,1.03125 0,0.265625 0.140625,0.515625 0.328125,0.703125 -0.046875,0.0625 -0.203125,0.296875 -0.203125,0.5625 0,0.09375 0.015625,0.421875 0.296875,0.625 -0.3125,0.09375 -0.6875,0.328125 -0.6875,0.6875 0,0.515625 0.765625,0.890625 1.71875,0.890625 0.875,0 1.703125,-0.34375 1.703125,-0.90625 0,-0.203125 -0.078125,-0.578125 -0.46875,-0.78125 -0.40625,-0.21875 -0.828125,-0.21875 -1.5,-0.21875 -0.15625,0 -0.40625,0 -0.453125,-0.015625 C 1.03125,-0.546875 0.90625,-0.75 0.90625,-0.953125 0.90625,-1.125 0.96875,-1.1875 1,-1.234375 Z m 0.765625,0 c -0.671875,0 -0.671875,-0.671875 -0.671875,-0.8125 0,-0.109375 0,-0.390625 0.125,-0.578125 0.109375,-0.109375 0.296875,-0.234375 0.546875,-0.234375 0.6875,0 0.6875,0.671875 0.6875,0.8125 0,0.109375 0,0.390625 -0.140625,0.5625 -0.109375,0.125 -0.296875,0.25 -0.546875,0.25 z m 0,1.21875 c 0.625,0 1.5,0 1.5,0.546875 0,0.375 -0.5625,0.6875 -1.28125,0.6875 -0.734375,0 -1.28125,-0.328125 -1.28125,-0.6875 0,-0.25 0.21875,-0.546875 0.65625,-0.546875 z m 0,0"
               style="stroke:none" />
          </symbol>
          <symbol
             style="overflow:visible"
             id="textext-af346ca9-6"
             overflow="visible">
            <path
               inkscape:connector-curvature="0"
               id="path5059"
               d="m 3.59375,-2.109375 c 0,-0.609375 -0.296875,-0.96875 -1.046875,-0.96875 -0.625,0 -0.96875,0.375 -1.125,0.640625 l 0,-2.40625 -1.046875,0.078125 0,0.25 c 0.46875,0 0.53125,0.0625 0.53125,0.390625 l 0,3.578125 C 0.90625,-0.25 0.828125,-0.25 0.375,-0.25 l 0,0.25 C 0.390625,0 0.875,-0.03125 1.171875,-0.03125 1.421875,-0.03125 1.90625,0 1.96875,0 l 0,-0.25 c -0.453125,0 -0.515625,0 -0.515625,-0.296875 l 0,-1.265625 c 0,-0.71875 0.578125,-1.0625 1.03125,-1.0625 0.484375,0 0.546875,0.375 0.546875,0.734375 l 0,1.59375 C 3.03125,-0.25 2.96875,-0.25 2.515625,-0.25 l 0,0.25 C 2.53125,0 3.015625,-0.03125 3.3125,-0.03125 3.5625,-0.03125 4.046875,0 4.109375,0 l 0,-0.25 c -0.453125,0 -0.515625,0 -0.515625,-0.296875 z m 0,0"
               style="stroke:none" />
          </symbol>
          <symbol
             style="overflow:visible"
             id="textext-af346ca9-7"
             overflow="visible">
            <path
               inkscape:connector-curvature="0"
               id="path5062"
               d="m 1.40625,-2.75 1.078125,0 0,-0.25 -1.078125,0 0,-1.28125 -0.25,0 c 0,0.625 -0.28125,1.3125 -0.953125,1.328125 l 0,0.203125 0.640625,0 0,1.875 c 0,0.78125 0.59375,0.9375 0.984375,0.9375 0.46875,0 0.78125,-0.390625 0.78125,-0.9375 l 0,-0.390625 -0.234375,0 0,0.375 c 0,0.484375 -0.21875,0.734375 -0.5,0.734375 -0.46875,0 -0.46875,-0.578125 -0.46875,-0.703125 z m 0,0"
               style="stroke:none" />
          </symbol>
        </g>
      </defs>
      <g
         style="fill:#0000ff"
         id="textext-af346ca9-8">
        <g
           id="g5065"
           style="fill:#0000ff;fill-opacity:1">
          <use
             height="100%"
             width="100%"
             style="fill:#0000ff"
             id="use5067"
             y="134.765"
             x="223.43201"
             xlink:href="#textext-af346ca9-1" />
        </g>
        <g
           id="g5069"
           style="fill:#0000ff;fill-opacity:1">
          <use
             height="100%"
             width="100%"
             style="fill:#0000ff"
             id="use5071"
             y="136.259"
             x="230.627"
             xlink:href="#textext-af346ca9-3" />
          <use
             height="100%"
             width="100%"
             style="fill:#0000ff"
             id="use5073"
             y="136.259"
             x="233.7401"
             xlink:href="#textext-af346ca9-4" />
          <use
             height="100%"
             width="100%"
             style="fill:#0000ff"
             id="use5075"
             y="136.259"
             x="235.99544"
             xlink:href="#textext-af346ca9-5" />
          <use
             height="100%"
             width="100%"
             style="fill:#0000ff"
             id="use5077"
             y="136.259"
             x="239.96701"
             xlink:href="#textext-af346ca9-6" />
        </g>
        <g
           id="g5079"
           style="fill:#0000ff;fill-opacity:1">
          <use
             height="100%"
             width="100%"
             style="fill:#0000ff"
             id="use5081"
             y="136.259"
             x="244.15129"
             xlink:href="#textext-af346ca9-7" />
        </g>
      </g>
    </g>
    <g
       transform="matrix(4.8073429,0,0,4.8073429,-615.42932,-6.5479504)"
       ns0:text="$u$"
       ns0:preamble="/temp/melaniel/software/daily_work/presentations/Inkscape/praeable.tex"
       id="g5367"
       style="fill:#008000">
      <defs
         id="defs5369">
        <g
           id="g5371">
          <symbol
             style="overflow:visible"
             overflow="visible"
             id="textext-f701b947-0">
            <path
               inkscape:connector-curvature="0"
               style="stroke:none"
               d=""
               id="path5374" />
          </symbol>
          <symbol
             style="overflow:visible"
             overflow="visible"
             id="textext-f701b947-1">
            <path
               inkscape:connector-curvature="0"
               style="stroke:none"
               d="M 3.484375,-0.5625 C 3.59375,-0.15625 3.953125,0.109375 4.375,0.109375 4.71875,0.109375 4.953125,-0.125 5.109375,-0.4375 5.28125,-0.796875 5.40625,-1.40625 5.40625,-1.421875 c 0,-0.109375 -0.078125,-0.109375 -0.109375,-0.109375 -0.109375,0 -0.109375,0.046875 -0.140625,0.1875 -0.140625,0.5625 -0.328125,1.234375 -0.75,1.234375 -0.203125,0 -0.3125,-0.125 -0.3125,-0.453125 0,-0.21875 0.125,-0.6875 0.203125,-1.046875 L 4.578125,-2.6875 C 4.609375,-2.828125 4.703125,-3.203125 4.75,-3.359375 4.796875,-3.59375 4.890625,-3.96875 4.890625,-4.03125 c 0,-0.171875 -0.140625,-0.265625 -0.28125,-0.265625 -0.046875,0 -0.3125,0.015625 -0.390625,0.34375 -0.1875,0.734375 -0.625,2.484375 -0.75,3 -0.015625,0.046875 -0.40625,0.84375 -1.140625,0.84375 -0.515625,0 -0.609375,-0.453125 -0.609375,-0.8125 0,-0.5625 0.28125,-1.34375 0.53125,-2.03125 0.125,-0.3125 0.171875,-0.453125 0.171875,-0.640625 0,-0.4375 -0.3125,-0.8125 -0.8125,-0.8125 -0.953125,0 -1.3125,1.453125 -1.3125,1.53125 0,0.109375 0.09375,0.109375 0.109375,0.109375 0.109375,0 0.109375,-0.03125 0.15625,-0.1875 0.25,-0.859375 0.640625,-1.234375 1.015625,-1.234375 0.09375,0 0.25,0.015625 0.25,0.328125 0,0.234375 -0.109375,0.53125 -0.171875,0.671875 -0.375,1 -0.578125,1.609375 -0.578125,2.09375 0,0.953125 0.6875,1.203125 1.21875,1.203125 0.65625,0 1.015625,-0.453125 1.1875,-0.671875 z m 0,0"
               id="path5377" />
          </symbol>
        </g>
      </defs>
      <g
         id="textext-f701b947-2"
         style="fill:#008000">
        <g
           style="fill:#008000;fill-opacity:1"
           id="g5380">
          <use
             height="100%"
             width="100%"
             xlink:href="#textext-f701b947-1"
             x="223.43201"
             y="134.765"
             id="use5382"
             style="fill:#008000" />
        </g>
      </g>
    </g>
    <rect
       y="640.7757"
       x="710.75079"
       height="48.073429"
       width="48.073429"
       id="rect5537"
       style="fill:#000080;fill-opacity:1;stroke:none;stroke-width:4;stroke-miterlimit:4;stroke-dasharray:none;stroke-dashoffset:0;stroke-opacity:1" />
    <rect
       y="639.31158"
       x="222.9763"
       height="48.073429"
       width="48.073429"
       id="rect5537-3"
       style="fill:#550000;fill-opacity:1;stroke:none;stroke-width:4;stroke-miterlimit:4;stroke-dasharray:none;stroke-dashoffset:0;stroke-opacity:1" />
    <path
       inkscape:connector-curvature="0"
       id="path5554"
       d="m 752.17387,522.2115 62.78937,-95.67597"
       style="fill:none;fill-rule:evenodd;stroke:#000000;stroke-width:4.80734301;stroke-linecap:butt;stroke-linejoin:miter;stroke-miterlimit:4;stroke-dasharray:none;stroke-opacity:1" />
    <text
       sodipodi:linespacing="125%"
       id="text5556"
       y="392.91718"
       x="355.25125"
       style="font-style:normal;font-weight:normal;font-size:54.08260727px;line-height:125%;font-family:sans-serif;letter-spacing:0px;word-spacing:0px;fill:#000000;fill-opacity:1;stroke:none;stroke-width:1px;stroke-linecap:butt;stroke-linejoin:miter;stroke-opacity:1"
       xml:space="preserve"><tspan
         y="392.91718"
         x="355.25125"
         id="tspan5558"
         sodipodi:role="line">staggered control volume</tspan></text>
    <path
       inkscape:connector-curvature="0"
       id="path5560"
       d="m 368.14823,666.05716 120.18358,0"
       style="fill:#008000;fill-rule:evenodd;stroke:#007900;stroke-width:9.61468601;stroke-linecap:butt;stroke-linejoin:miter;stroke-miterlimit:4;stroke-dasharray:none;stroke-opacity:1;marker-end:url(#Arrow1Send)" />
    <path
       inkscape:connector-curvature="0"
       id="path5852"
       d="M 162.82002,859.32248 429.97598,987.76322"
       style="fill:none;fill-rule:evenodd;stroke:#000000;stroke-width:4.782866px;stroke-linecap:butt;stroke-linejoin:miter;stroke-opacity:1" />
    <path
       inkscape:connector-curvature="0"
       id="path5854"
       d="M 824.84581,858.35088 632.5521,978.53442"
       style="fill:none;fill-rule:evenodd;stroke:#000000;stroke-width:4.80734301;stroke-linecap:butt;stroke-linejoin:miter;stroke-miterlimit:4;stroke-dasharray:none;stroke-opacity:1" />
    <g
       id="g6094"
       style="fill:#000000;fill-opacity:1"
       transform="matrix(2,0,0,2,-324.08565,567.51499)" />
    <use
       style="fill:#000000;fill-opacity:1"
       height="100%"
       width="100%"
       xlink:href="#textext-9c1b2fe8-19"
       x="255.69221"
       y="134.765"
       id="use6104-0"
       transform="matrix(6.4392557,0,0,6.4392557,-666.99301,-469.13004)" />
    <path
       style="fill:#ff6600;fill-rule:evenodd;stroke:#ff5d00;stroke-width:4.80734301;stroke-linecap:butt;stroke-linejoin:miter;stroke-miterlimit:4;stroke-dasharray:none;stroke-opacity:1"
       d="m 433.39076,877.23686 24.0367,48.07342"
       id="path6493"
       inkscape:connector-curvature="0" />
    <text
       xml:space="preserve"
       style="font-style:normal;font-weight:normal;font-size:54.08260727px;line-height:125%;font-family:sans-serif;letter-spacing:0px;word-spacing:0px;fill:#ff5d00;fill-opacity:1;stroke:none;stroke-width:1px;stroke-linecap:butt;stroke-linejoin:miter;stroke-opacity:1"
       x="455.71057"
       y="940.76239"
       id="text6495"
       sodipodi:linespacing="125%"><tspan
         sodipodi:role="line"
         id="tspan6497"
         x="455.71057"
         y="940.76239">scvf</tspan></text>
  </g>
</svg>
