<?xml version="1.0" encoding="UTF-8" standalone="no"?>
<!-- Created with Inkscape (http://www.inkscape.org/) -->

<svg
   width="120.265mm"
   height="120.265mm"
   viewBox="0 0 120.265 120.265"
   version="1.1"
   id="svg16464"
   sodipodi:docname="staggered_mass.svg"
   inkscape:version="1.2.2 (1:1.2.2+202212051552+b0a8486541)"
   xmlns:inkscape="http://www.inkscape.org/namespaces/inkscape"
   xmlns:sodipodi="http://sodipodi.sourceforge.net/DTD/sodipodi-0.dtd"
   xmlns="http://www.w3.org/2000/svg"
   xmlns:svg="http://www.w3.org/2000/svg">
  <sodipodi:namedview
     id="namedview16466"
     pagecolor="#ffffff"
     bordercolor="#666666"
     borderopacity="1.0"
     inkscape:showpageshadow="2"
     inkscape:pageopacity="0.0"
     inkscape:pagecheckerboard="0"
     inkscape:deskcolor="#d1d1d1"
     inkscape:document-units="mm"
     showgrid="true"
     inkscape:zoom="1.1893044"
     inkscape:cx="45.404692"
     inkscape:cy="231.2276"
     inkscape:window-width="1920"
     inkscape:window-height="1043"
     inkscape:window-x="0"
     inkscape:window-y="0"
     inkscape:window-maximized="1"
     inkscape:current-layer="layer1">
    <inkscape:grid
       type="xygrid"
       id="grid16964"
       units="mm"
       spacingx="0.25"
       spacingy="0.25"
       originx="-39.8675"
       originy="-9.8675003" />
  </sodipodi:namedview>
  <defs
     id="defs16461">
    <marker
       style="overflow:visible"
       id="Arrow4"
       refX="0"
       refY="0"
       orient="auto-start-reverse"
       inkscape:stockid="Arrow4"
       markerWidth="5"
       markerHeight="6"
       viewBox="0 0 5 6"
       inkscape:isstock="true"
       inkscape:collect="always"
       preserveAspectRatio="xMidYMid">
      <path
         style="fill:context-stroke;fill-rule:evenodd;stroke:none"
         d="m 1,0 -3,3 h -2 l 3,-3 -3,-3 h 2 z"
         id="path1741" />
    </marker>
    <clipPath
       id="clipPath8163">
      <path
         d="m 5,1 h 8 V 5.785156 H 5 Z m 0,0"
         id="path1941" />
    </clipPath>
    <clipPath
       id="clipPath8965">
      <path
         d="m 5,1 h 6 V 5.785156 H 5 Z m 0,0"
         id="path6060" />
    </clipPath>
    <clipPath
       id="clipPath6213">
      <path
         d="m 6,1 h 7 V 5.785156 H 6 Z m 0,0"
         id="path5552" />
    </clipPath>
    <clipPath
       id="clipPath4898">
      <path
         d="m 6,0 h 5 V 5.785156 H 6 Z m 0,0"
         id="path7450" />
    </clipPath>
    <clipPath
       id="clipPath9704">
      <path
         d="M 0,2 H 8 V 8.746094 H 0 Z m 0,0"
         id="path576" />
    </clipPath>
    <clipPath
       id="clipPath6334">
      <path
         d="m 15,3 h 3 v 5.746094 h -3 z m 0,0"
         id="path490" />
    </clipPath>
    <clipPath
       id="clipPath9325">
      <path
         d="m 19,5 h 2 v 3.746094 h -2 z m 0,0"
         id="path9512" />
    </clipPath>
  </defs>
  <g
     inkscape:label="Layer 1"
     inkscape:groupmode="layer"
     id="layer1"
     transform="translate(-39.8675,-9.8675005)">
    <rect
       style="fill:#d08915;fill-opacity:1;stroke:#000000;stroke-width:0.264999;stroke-linejoin:round"
       id="rect16971"
       width="40"
       height="40"
       x="80"
       y="50" />
    <g
       id="g17402"
       style="stroke:#000000;stroke-dasharray:4, 8;stroke-dashoffset:0;stroke-opacity:1">
      <rect
         style="fill:#e19417;fill-opacity:1;stroke:#000000;stroke-width:0.264999;stroke-linejoin:round;stroke-dasharray:4, 8;stroke-dashoffset:0;stroke-opacity:1"
         id="rect17390"
         width="40"
         height="40"
         x="80"
         y="10" />
      <rect
         style="fill:#e19417;fill-opacity:1;stroke:#000000;stroke-width:0.264999;stroke-linejoin:round;stroke-dasharray:4, 8;stroke-dashoffset:0;stroke-opacity:1"
         id="rect17392"
         width="40"
         height="40"
         x="120"
         y="50" />
      <rect
         style="fill:#e19417;fill-opacity:1;stroke:#000000;stroke-width:0.264999;stroke-linejoin:round;stroke-dasharray:4, 8;stroke-dashoffset:0;stroke-opacity:1"
         id="rect17394"
         width="40"
         height="40"
         x="80"
         y="90" />
      <rect
         style="fill:#e19417;fill-opacity:1;stroke:#000000;stroke-width:0.264999;stroke-linejoin:round;stroke-dasharray:4, 8;stroke-dashoffset:0;stroke-opacity:1"
         id="rect17396"
         width="40"
         height="40"
         x="40"
         y="50" />
    </g>
    <g
       id="g17428">
      <path
         style="fill:none;stroke:#d21e1e;stroke-width:0.365;stroke-linecap:butt;stroke-linejoin:miter;stroke-dasharray:none;stroke-opacity:1;marker-end:url(#Arrow4)"
         d="m 115,69.999999 h 10"
         id="path17416" />
      <path
         style="fill:none;stroke:#d21e1e;stroke-width:0.365;stroke-linecap:butt;stroke-linejoin:miter;stroke-dasharray:none;stroke-opacity:1;marker-end:url(#Arrow4)"
         d="M 100,94.999999 V 84.999998"
         id="path17418" />
      <path
         style="fill:none;stroke:#d21e1e;stroke-width:0.365;stroke-linecap:butt;stroke-linejoin:miter;stroke-dasharray:none;stroke-opacity:1;marker-start:url(#Arrow4)"
         d="M 100,44.999999 V 55"
         id="path17420" />
      <path
         style="fill:none;stroke:#d21e1e;stroke-width:0.365;stroke-linecap:butt;stroke-linejoin:miter;stroke-dasharray:none;stroke-opacity:1;marker-end:url(#Arrow4)"
         d="m 75,69.999999 h 9.999998"
         id="path17422" />
    </g>
    <g
       id="g17767"
       style="stroke:#000000;stroke-opacity:1">
      <path
         style="fill:none;stroke:#000000;stroke-width:0.264583px;stroke-linecap:butt;stroke-linejoin:miter;stroke-opacity:1"
         d="m 98.75,68.749999 2.5,2.5"
         id="path17757" />
      <path
         style="fill:none;stroke:#000000;stroke-width:0.264583px;stroke-linecap:butt;stroke-linejoin:miter;stroke-opacity:1"
         d="m 101.25,68.749999 -2.5,2.5"
         id="path17759" />
    </g>
    <g
       inkscape:label=""
       transform="translate(75,70.418114)"
       id="g33525">
      <g
         id="surface2"
         transform="matrix(0.352778,0,0,0.352778,-0.104731,0.0410104)">
        <g
           style="fill:#000000;fill-opacity:1"
           id="g23">
          <g
             id="use21"
             transform="translate(0,4.29)">
            <path
               style="stroke:none"
               d="m 4.671875,-3.703125 c 0,-0.546875 -0.265625,-0.703125 -0.4375,-0.703125 -0.25,0 -0.5,0.265625 -0.5,0.484375 0,0.125 0.046875,0.1875 0.15625,0.296875 0.21875,0.203125 0.34375,0.453125 0.34375,0.8125 0,0.421875 -0.609375,2.703125 -1.765625,2.703125 -0.515625,0 -0.75,-0.34375 -0.75,-0.875 0,-0.546875 0.28125,-1.28125 0.578125,-2.109375 0.078125,-0.171875 0.125,-0.3125 0.125,-0.5 0,-0.4375 -0.3125,-0.8125 -0.8125,-0.8125 -0.9375,0 -1.3125,1.453125 -1.3125,1.53125 0,0.109375 0.09375,0.109375 0.109375,0.109375 0.109375,0 0.109375,-0.03125 0.15625,-0.1875 0.296875,-1 0.71875,-1.234375 1.015625,-1.234375 0.078125,0 0.25,0 0.25,0.3125 0,0.25 -0.109375,0.53125 -0.171875,0.703125 -0.4375,1.15625 -0.5625,1.609375 -0.5625,2.046875 0,1.078125 0.875,1.234375 1.328125,1.234375 1.671875,0 2.25,-3.296875 2.25,-3.8125 z m 0,0"
               id="path36" />
          </g>
        </g>
        <g
           clip-path="url(#clipPath8163)"
           clip-rule="nonzero"
           id="g29">
          <g
             style="fill:#000000;fill-opacity:1"
             id="g27">
            <g
               id="use25"
               transform="translate(4.829,5.7839999)">
              <path
                 style="stroke:none"
                 d="m 7.21875,-3.9375 0.125,-0.1875 C 7.484375,-4.3125 7.65625,-4.484375 8,-4.515625 c 0.078125,0 0.15625,0 0.15625,-0.140625 0,-0.046875 -0.03125,-0.109375 -0.09375,-0.109375 -0.15625,0 -0.359375,0.03125 -0.53125,0.03125 -0.234375,0 -0.546875,-0.03125 -0.765625,-0.03125 -0.046875,0 -0.15625,0 -0.15625,0.15625 0,0.09375 0.09375,0.09375 0.125,0.09375 0.15625,0.015625 0.390625,0.0625 0.390625,0.25 0,0.078125 -0.078125,0.203125 -0.109375,0.25 l -1.96875,3.234375 -0.375,-3.53125 c 0,-0.1875 0.40625,-0.203125 0.484375,-0.203125 0.09375,0 0.1875,0 0.1875,-0.140625 0,-0.015625 0,-0.109375 -0.125,-0.109375 -0.125,0 -0.296875,0.015625 -0.421875,0.03125 -0.140625,0 -0.328125,0 -0.46875,0 -0.15625,0 -0.5625,-0.03125 -0.71875,-0.03125 -0.046875,0 -0.140625,0 -0.140625,0.15625 0,0.09375 0.078125,0.09375 0.171875,0.09375 0.296875,0 0.34375,0.0625 0.359375,0.125 0,0.046875 0.015625,0.234375 0.046875,0.453125 L 2.125,-0.78125 1.765625,-4.203125 C 1.765625,-4.234375 1.75,-4.296875 1.75,-4.3125 c 0,-0.203125 0.4375,-0.203125 0.484375,-0.203125 0.09375,0 0.1875,0 0.1875,-0.140625 0,-0.03125 -0.015625,-0.109375 -0.109375,-0.109375 -0.203125,0 -0.703125,0.03125 -0.890625,0.03125 -0.234375,0 -0.53125,-0.03125 -0.734375,-0.03125 -0.078125,0 -0.140625,0.03125 -0.140625,0.15625 0,0.09375 0.078125,0.09375 0.1875,0.09375 0.328125,0 0.328125,0.046875 0.359375,0.21875 l 0.453125,4.25 c 0.015625,0.140625 0.03125,0.1875 0.15625,0.1875 C 1.8125,0.140625 1.875,0.078125 1.90625,0 l 2.171875,-3.578125 0.390625,3.53125 c 0.015625,0.15625 0.046875,0.1875 0.15625,0.1875 0.109375,0 0.15625,-0.0625 0.203125,-0.140625 z m 0,0"
                 id="path40" />
            </g>
          </g>
        </g>
      </g>
    </g>
    <g
       inkscape:label=""
       transform="translate(121.22417,70.418114)"
       id="g34381">
      <g
         id="g34379"
         transform="matrix(0.352778,0,0,0.352778,-0.104731,0.0410104)">
        <g
           style="fill:#000000;fill-opacity:1"
           id="g34369">
          <g
             id="g34367"
             transform="translate(0,4.29)">
            <path
               style="stroke:none"
               d="m 4.671875,-3.703125 c 0,-0.546875 -0.265625,-0.703125 -0.4375,-0.703125 -0.25,0 -0.5,0.265625 -0.5,0.484375 0,0.125 0.046875,0.1875 0.15625,0.296875 0.21875,0.203125 0.34375,0.453125 0.34375,0.8125 0,0.421875 -0.609375,2.703125 -1.765625,2.703125 -0.515625,0 -0.75,-0.34375 -0.75,-0.875 0,-0.546875 0.28125,-1.28125 0.578125,-2.109375 0.078125,-0.171875 0.125,-0.3125 0.125,-0.5 0,-0.4375 -0.3125,-0.8125 -0.8125,-0.8125 -0.9375,0 -1.3125,1.453125 -1.3125,1.53125 0,0.109375 0.09375,0.109375 0.109375,0.109375 0.109375,0 0.109375,-0.03125 0.15625,-0.1875 0.296875,-1 0.71875,-1.234375 1.015625,-1.234375 0.078125,0 0.25,0 0.25,0.3125 0,0.25 -0.109375,0.53125 -0.171875,0.703125 -0.4375,1.15625 -0.5625,1.609375 -0.5625,2.046875 0,1.078125 0.875,1.234375 1.328125,1.234375 1.671875,0 2.25,-3.296875 2.25,-3.8125 z m 0,0"
               id="path34365" />
          </g>
        </g>
        <g
           clip-path="url(#clipPath8965)"
           clip-rule="nonzero"
           id="g34377">
          <g
             style="fill:#000000;fill-opacity:1"
             id="g34375">
            <g
               id="g34373"
               transform="translate(4.829,5.7839999)">
              <path
                 style="stroke:none"
                 d="m 5.515625,-1.609375 c 0.046875,-0.09375 0.046875,-0.125 0.046875,-0.125 0,-0.046875 -0.03125,-0.09375 -0.125,-0.09375 -0.015625,0 -0.046875,0 -0.078125,0.015625 0,0.015625 -0.015625,0.03125 -0.09375,0.203125 C 4.8125,-0.59375 4.453125,-0.25 3.3125,-0.25 H 2.125 c -0.203125,0 -0.21875,-0.015625 -0.21875,-0.078125 0,0 0,-0.03125 0.03125,-0.140625 L 2.40625,-2.328125 H 3.1875 c 0.546875,0 0.625,0.078125 0.625,0.3125 0,0.078125 -0.015625,0.203125 -0.046875,0.3125 C 3.75,-1.640625 3.75,-1.625 3.75,-1.609375 c 0,0 0,0.09375 0.125,0.09375 0.09375,0 0.09375,-0.03125 0.125,-0.15625 l 0.390625,-1.53125 c 0.015625,-0.078125 0.015625,-0.09375 0.015625,-0.09375 0,-0.078125 -0.0625,-0.109375 -0.125,-0.109375 -0.09375,0 -0.09375,0.046875 -0.140625,0.1875 C 4,-2.671875 3.796875,-2.578125 3.203125,-2.578125 H 2.46875 L 2.890625,-4.25 c 0.046875,-0.203125 0.0625,-0.234375 0.34375,-0.234375 H 4.375 c 0.921875,0 1.140625,0.1875 1.140625,0.8125 0,0.1875 -0.03125,0.390625 -0.03125,0.421875 0,0.0625 0.03125,0.125 0.125,0.125 0.109375,0 0.109375,-0.0625 0.125,-0.1875 l 0.125,-1.203125 C 5.875,-4.734375 5.828125,-4.734375 5.65625,-4.734375 H 1.828125 c -0.140625,0 -0.21875,0 -0.21875,0.15625 0,0.09375 0.0625,0.09375 0.21875,0.09375 0.109375,0 0.140625,0 0.265625,0.015625 C 2.234375,-4.453125 2.25,-4.4375 2.25,-4.375 c 0,0.046875 -0.015625,0.125 -0.03125,0.15625 L 1.3125,-0.578125 C 1.234375,-0.296875 1.234375,-0.25 0.6875,-0.25 c -0.125,0 -0.203125,0 -0.203125,0.15625 C 0.484375,0 0.5625,0 0.6875,0 H 4.625 c 0.171875,0 0.1875,0 0.234375,-0.125 z m 0,0"
                 id="path34371" />
            </g>
          </g>
        </g>
      </g>
    </g>
    <g
       inkscape:label=""
       transform="translate(101.75334,47.106212)"
       id="g35255">
      <g
         id="g35253"
         transform="matrix(0.352778,0,0,0.352778,-0.104731,0.0410104)">
        <g
           style="fill:#000000;fill-opacity:1"
           id="g35243">
          <g
             id="g35241"
             transform="translate(0,4.29)">
            <path
               style="stroke:none"
               d="M 3.484375,-0.5625 C 3.59375,-0.15625 3.953125,0.109375 4.375,0.109375 4.71875,0.109375 4.953125,-0.125 5.109375,-0.4375 5.28125,-0.796875 5.40625,-1.40625 5.40625,-1.421875 c 0,-0.109375 -0.078125,-0.109375 -0.109375,-0.109375 -0.109375,0 -0.109375,0.046875 -0.140625,0.1875 -0.140625,0.5625 -0.328125,1.234375 -0.75,1.234375 -0.203125,0 -0.3125,-0.125 -0.3125,-0.453125 0,-0.21875 0.125,-0.6875 0.203125,-1.046875 L 4.578125,-2.6875 C 4.609375,-2.828125 4.703125,-3.203125 4.75,-3.359375 4.796875,-3.59375 4.890625,-3.96875 4.890625,-4.03125 c 0,-0.171875 -0.140625,-0.265625 -0.28125,-0.265625 -0.046875,0 -0.3125,0.015625 -0.390625,0.34375 -0.1875,0.734375 -0.625,2.484375 -0.75,3 -0.015625,0.046875 -0.40625,0.84375 -1.140625,0.84375 -0.515625,0 -0.609375,-0.453125 -0.609375,-0.8125 0,-0.5625 0.28125,-1.34375 0.53125,-2.03125 0.125,-0.3125 0.171875,-0.453125 0.171875,-0.640625 0,-0.4375 -0.3125,-0.8125 -0.8125,-0.8125 -0.953125,0 -1.3125,1.453125 -1.3125,1.53125 0,0.109375 0.09375,0.109375 0.109375,0.109375 0.109375,0 0.109375,-0.03125 0.15625,-0.1875 0.25,-0.859375 0.640625,-1.234375 1.015625,-1.234375 0.09375,0 0.25,0.015625 0.25,0.328125 0,0.234375 -0.109375,0.53125 -0.171875,0.671875 -0.375,1 -0.578125,1.609375 -0.578125,2.09375 0,0.953125 0.6875,1.203125 1.21875,1.203125 0.65625,0 1.015625,-0.453125 1.1875,-0.671875 z m 0,0"
               id="path35239" />
          </g>
        </g>
        <g
           clip-path="url(#clipPath6213)"
           clip-rule="nonzero"
           id="g35251">
          <g
             style="fill:#000000;fill-opacity:1"
             id="g35249">
            <g
               id="g35247"
               transform="translate(5.7030001,5.7839999)">
              <path
                 style="stroke:none"
                 d="M 5.8125,-4 C 5.875,-4.265625 6,-4.5 6.546875,-4.515625 c 0.03125,0 0.140625,0 0.140625,-0.140625 0,-0.046875 -0.03125,-0.109375 -0.109375,-0.109375 -0.21875,0 -0.484375,0.03125 -0.71875,0.03125 -0.171875,0 -0.5625,-0.03125 -0.734375,-0.03125 -0.03125,0 -0.140625,0 -0.140625,0.15625 0,0.09375 0.09375,0.09375 0.15625,0.09375 0.328125,0.015625 0.4375,0.125 0.4375,0.296875 0,0.046875 0,0.09375 -0.03125,0.15625 l -0.75,3.046875 -1.765625,-3.625 c -0.0625,-0.125 -0.078125,-0.125 -0.25,-0.125 H 1.828125 c -0.125,0 -0.21875,0 -0.21875,0.15625 0,0.09375 0.078125,0.09375 0.234375,0.09375 0.140625,0 0.296875,0.015625 0.4375,0.046875 L 1.359375,-0.75 c -0.0625,0.265625 -0.1875,0.484375 -0.734375,0.5 -0.046875,0 -0.140625,0 -0.140625,0.140625 C 0.484375,-0.03125 0.53125,0 0.578125,0 0.8125,0 1.078125,-0.03125 1.3125,-0.03125 1.484375,-0.03125 1.875,0 2.046875,0 2.125,0 2.1875,-0.03125 2.1875,-0.140625 2.1875,-0.25 2.109375,-0.25 2.03125,-0.25 c -0.4375,-0.015625 -0.4375,-0.203125 -0.4375,-0.296875 0,-0.03125 0,-0.0625 0.015625,-0.171875 l 0.90625,-3.5625 2.03125,4.15625 C 4.59375,0 4.625,0 4.703125,0 4.8125,0 4.8125,-0.015625 4.84375,-0.140625 Z m 0,0"
                 id="path35245" />
            </g>
          </g>
        </g>
      </g>
    </g>
    <g
       inkscape:label=""
       transform="translate(95,92.918114)"
       id="g36147">
      <g
         id="g36145"
         transform="matrix(0.352778,0,0,0.352778,-0.104731,0.0410104)">
        <g
           style="fill:#000000;fill-opacity:1"
           id="g36135">
          <g
             id="g36133"
             transform="translate(0,4.29)">
            <path
               style="stroke:none"
               d="M 3.484375,-0.5625 C 3.59375,-0.15625 3.953125,0.109375 4.375,0.109375 4.71875,0.109375 4.953125,-0.125 5.109375,-0.4375 5.28125,-0.796875 5.40625,-1.40625 5.40625,-1.421875 c 0,-0.109375 -0.078125,-0.109375 -0.109375,-0.109375 -0.109375,0 -0.109375,0.046875 -0.140625,0.1875 -0.140625,0.5625 -0.328125,1.234375 -0.75,1.234375 -0.203125,0 -0.3125,-0.125 -0.3125,-0.453125 0,-0.21875 0.125,-0.6875 0.203125,-1.046875 L 4.578125,-2.6875 C 4.609375,-2.828125 4.703125,-3.203125 4.75,-3.359375 4.796875,-3.59375 4.890625,-3.96875 4.890625,-4.03125 c 0,-0.171875 -0.140625,-0.265625 -0.28125,-0.265625 -0.046875,0 -0.3125,0.015625 -0.390625,0.34375 -0.1875,0.734375 -0.625,2.484375 -0.75,3 -0.015625,0.046875 -0.40625,0.84375 -1.140625,0.84375 -0.515625,0 -0.609375,-0.453125 -0.609375,-0.8125 0,-0.5625 0.28125,-1.34375 0.53125,-2.03125 0.125,-0.3125 0.171875,-0.453125 0.171875,-0.640625 0,-0.4375 -0.3125,-0.8125 -0.8125,-0.8125 -0.953125,0 -1.3125,1.453125 -1.3125,1.53125 0,0.109375 0.09375,0.109375 0.109375,0.109375 0.109375,0 0.109375,-0.03125 0.15625,-0.1875 0.25,-0.859375 0.640625,-1.234375 1.015625,-1.234375 0.09375,0 0.25,0.015625 0.25,0.328125 0,0.234375 -0.109375,0.53125 -0.171875,0.671875 -0.375,1 -0.578125,1.609375 -0.578125,2.09375 0,0.953125 0.6875,1.203125 1.21875,1.203125 0.65625,0 1.015625,-0.453125 1.1875,-0.671875 z m 0,0"
               id="path36131" />
          </g>
        </g>
        <g
           clip-path="url(#clipPath4898)"
           clip-rule="nonzero"
           id="g36143">
          <g
             style="fill:#000000;fill-opacity:1"
             id="g36141">
            <g
               id="g36139"
               transform="translate(5.7030001,5.7839999)">
              <path
                 style="stroke:none"
                 d="m 4.953125,-4.8125 c 0,-0.03125 -0.03125,-0.09375 -0.09375,-0.09375 -0.046875,0 -0.046875,0.015625 -0.140625,0.109375 L 4.375,-4.40625 c -0.265625,-0.375 -0.703125,-0.5 -1.125,-0.5 -0.984375,0 -1.859375,0.796875 -1.859375,1.609375 0,0.09375 0.03125,0.375 0.234375,0.640625 0.234375,0.265625 0.5,0.328125 0.96875,0.453125 0.140625,0.03125 0.484375,0.109375 0.59375,0.140625 0.21875,0.046875 0.640625,0.203125 0.640625,0.71875 0,0.5625 -0.59375,1.234375 -1.375,1.234375 -0.625,0 -1.359375,-0.21875 -1.359375,-0.984375 0,-0.078125 0.015625,-0.234375 0.046875,-0.359375 0,-0.03125 0,-0.03125 0,-0.03125 0,-0.09375 -0.078125,-0.09375 -0.109375,-0.09375 -0.09375,0 -0.109375,0.015625 -0.125,0.140625 l -0.359375,1.390625 c -0.015625,0.03125 -0.03125,0.0625 -0.03125,0.109375 0,0.03125 0.03125,0.078125 0.109375,0.078125 0.03125,0 0.046875,-0.015625 0.140625,-0.09375 0.078125,-0.09375 0.25,-0.3125 0.328125,-0.390625 C 1.46875,0.0625 2,0.140625 2.421875,0.140625 c 1.0625,0 1.90625,-0.90625 1.90625,-1.734375 0,-0.296875 -0.125,-0.578125 -0.28125,-0.734375 -0.234375,-0.25 -0.34375,-0.28125 -1.25,-0.5 C 2.65625,-2.859375 2.421875,-2.90625 2.359375,-2.9375 2.1875,-3 1.890625,-3.171875 1.890625,-3.5625 c 0,-0.5625 0.625,-1.109375 1.34375,-1.109375 0.765625,0 1.125,0.421875 1.125,1.078125 0,0.09375 -0.03125,0.25 -0.03125,0.3125 0,0.109375 0.078125,0.109375 0.125,0.109375 0.09375,0 0.109375,-0.046875 0.125,-0.15625 z m 0,0"
                 id="path36137" />
            </g>
          </g>
        </g>
      </g>
    </g>
    <g
       inkscape:label=""
       transform="translate(94.085852,72.618748)"
       id="g37067">
      <g
         id="g37065"
         transform="matrix(0.352778,0,0,0.352778,0.110243,-0.0204611)">
        <g
           clip-path="url(#clipPath9704)"
           clip-rule="nonzero"
           id="g42">
          <g
             style="fill:#000000;fill-opacity:1"
             id="g40">
            <g
               id="use36"
               transform="translate(0,6.8080001)">
              <path
                 style="stroke:none"
                 d="M 0.453125,1.21875 C 0.375,1.5625 0.34375,1.625 -0.09375,1.625 c -0.109375,0 -0.21875,0 -0.21875,0.1875 0,0.078125 0.046875,0.125 0.125,0.125 0.265625,0 0.5625,-0.03125 0.828125,-0.03125 0.34375,0 0.671875,0.03125 1,0.03125 0.046875,0 0.171875,0 0.171875,-0.203125 C 1.8125,1.625 1.71875,1.625 1.578125,1.625 c -0.5,0 -0.5,-0.0625 -0.5,-0.15625 0,-0.125 0.421875,-1.75 0.484375,-2 0.125,0.296875 0.40625,0.640625 0.921875,0.640625 1.15625,0 2.40625,-1.453125 2.40625,-2.921875 0,-0.9375 -0.578125,-1.59375 -1.328125,-1.59375 -0.5,0 -0.984375,0.359375 -1.3125,0.75 -0.09375,-0.546875 -0.53125,-0.75 -0.890625,-0.75 -0.46875,0 -0.65625,0.390625 -0.734375,0.5625 C 0.4375,-3.5 0.3125,-2.90625 0.3125,-2.875 c 0,0.109375 0.09375,0.109375 0.109375,0.109375 0.109375,0 0.109375,-0.015625 0.171875,-0.234375 0.171875,-0.703125 0.375,-1.1875 0.734375,-1.1875 0.171875,0 0.3125,0.078125 0.3125,0.453125 0,0.234375 -0.03125,0.34375 -0.078125,0.515625 z m 1.75,-4.328125 C 2.265625,-3.375 2.546875,-3.65625 2.71875,-3.8125 c 0.359375,-0.296875 0.640625,-0.375 0.8125,-0.375 0.390625,0 0.640625,0.34375 0.640625,0.9375 0,0.59375 -0.328125,1.734375 -0.515625,2.109375 -0.34375,0.703125 -0.8125,1.03125 -1.1875,1.03125 C 1.8125,-0.109375 1.6875,-0.9375 1.6875,-1 c 0,-0.015625 0,-0.03125 0.03125,-0.15625 z m 0,0"
                 id="path69" />
            </g>
            <g
               id="use38"
               transform="translate(5.0121841,6.8080001)">
              <path
                 style="stroke:none"
                 d="m 2.03125,-0.015625 c 0,-0.65625 -0.25,-1.046875 -0.640625,-1.046875 -0.328125,0 -0.53125,0.25 -0.53125,0.53125 C 0.859375,-0.265625 1.0625,0 1.390625,0 1.5,0 1.640625,-0.046875 1.734375,-0.125 1.765625,-0.15625 1.78125,-0.15625 1.78125,-0.15625 c 0.015625,0 0.015625,0 0.015625,0.140625 0,0.75 -0.34375,1.34375 -0.671875,1.671875 -0.109375,0.109375 -0.109375,0.125 -0.109375,0.15625 0,0.078125 0.046875,0.109375 0.09375,0.109375 0.109375,0 0.921875,-0.765625 0.921875,-1.9375 z m 0,0"
                 id="path73" />
            </g>
          </g>
        </g>
        <g
           style="fill:#000000;fill-opacity:1"
           id="g46">
          <g
             id="use44"
             transform="translate(9.4435492,6.8080001)">
            <path
               style="stroke:none"
               d="M 3.328125,-3.015625 C 3.390625,-3.265625 3.625,-4.1875 4.3125,-4.1875 c 0.046875,0 0.296875,0 0.5,0.125 C 4.53125,-4 4.34375,-3.765625 4.34375,-3.515625 c 0,0.15625 0.109375,0.34375 0.375,0.34375 0.21875,0 0.53125,-0.171875 0.53125,-0.578125 0,-0.515625 -0.578125,-0.65625 -0.921875,-0.65625 -0.578125,0 -0.921875,0.53125 -1.046875,0.75 -0.25,-0.65625 -0.78125,-0.75 -1.078125,-0.75 -1.03125,0 -1.609375,1.28125 -1.609375,1.53125 0,0.109375 0.109375,0.109375 0.125,0.109375 0.078125,0 0.109375,-0.03125 0.125,-0.109375 0.34375,-1.0625 1,-1.3125 1.34375,-1.3125 0.1875,0 0.53125,0.09375 0.53125,0.671875 0,0.3125 -0.171875,0.96875 -0.53125,2.375 -0.15625,0.609375 -0.515625,1.03125 -0.953125,1.03125 -0.0625,0 -0.28125,0 -0.5,-0.125 0.25,-0.0625 0.46875,-0.265625 0.46875,-0.546875 0,-0.265625 -0.21875,-0.34375 -0.359375,-0.34375 -0.3125,0 -0.546875,0.25 -0.546875,0.578125 0,0.453125 0.484375,0.65625 0.921875,0.65625 0.671875,0 1.03125,-0.703125 1.046875,-0.75 0.125,0.359375 0.484375,0.75 1.078125,0.75 1.03125,0 1.59375,-1.28125 1.59375,-1.53125 0,-0.109375 -0.078125,-0.109375 -0.109375,-0.109375 -0.09375,0 -0.109375,0.046875 -0.140625,0.109375 -0.328125,1.078125 -1,1.3125 -1.3125,1.3125 -0.390625,0 -0.546875,-0.3125 -0.546875,-0.65625 0,-0.21875 0.046875,-0.4375 0.15625,-0.875 z m 0,0"
               id="path77" />
          </g>
        </g>
        <g
           clip-path="url(#clipPath6334)"
           clip-rule="nonzero"
           id="g52">
          <g
             style="fill:#000000;fill-opacity:1"
             id="g50">
            <g
               id="use48"
               transform="translate(15.134,8.302)">
              <path
                 style="stroke:none"
                 d="m 2.265625,-4.359375 c 0,-0.109375 -0.09375,-0.265625 -0.28125,-0.265625 -0.1875,0 -0.390625,0.1875 -0.390625,0.390625 0,0.109375 0.078125,0.265625 0.28125,0.265625 0.1875,0 0.390625,-0.203125 0.390625,-0.390625 z M 0.84375,-0.8125 c -0.03125,0.09375 -0.0625,0.171875 -0.0625,0.296875 0,0.328125 0.265625,0.578125 0.65625,0.578125 0.6875,0 1,-0.953125 1,-1.0625 0,-0.09375 -0.09375,-0.09375 -0.109375,-0.09375 -0.09375,0 -0.109375,0.046875 -0.140625,0.125 -0.15625,0.5625 -0.453125,0.84375 -0.734375,0.84375 -0.140625,0 -0.171875,-0.09375 -0.171875,-0.25 0,-0.15625 0.046875,-0.28125 0.109375,-0.4375 C 1.46875,-1 1.546875,-1.1875 1.609375,-1.375 1.671875,-1.546875 1.9375,-2.171875 1.953125,-2.265625 1.984375,-2.328125 2,-2.40625 2,-2.484375 2,-2.8125 1.71875,-3.078125 1.34375,-3.078125 0.640625,-3.078125 0.328125,-2.125 0.328125,-2 c 0,0.078125 0.09375,0.078125 0.125,0.078125 0.09375,0 0.09375,-0.03125 0.125,-0.109375 C 0.75,-2.625 1.0625,-2.875 1.3125,-2.875 c 0.109375,0 0.171875,0.046875 0.171875,0.234375 0,0.171875 -0.03125,0.265625 -0.203125,0.703125 z m 0,0"
                 id="path81" />
            </g>
          </g>
        </g>
        <g
           clip-path="url(#clipPath9325)"
           clip-rule="nonzero"
           id="g58">
          <g
             style="fill:#000000;fill-opacity:1"
             id="g56">
            <g
               id="use54"
               transform="translate(18.451,6.8080001)">
              <path
                 style="stroke:none"
                 d="m 2.03125,-0.015625 c 0,-0.65625 -0.25,-1.046875 -0.640625,-1.046875 -0.328125,0 -0.53125,0.25 -0.53125,0.53125 C 0.859375,-0.265625 1.0625,0 1.390625,0 1.5,0 1.640625,-0.046875 1.734375,-0.125 1.765625,-0.15625 1.78125,-0.15625 1.78125,-0.15625 c 0.015625,0 0.015625,0 0.015625,0.140625 0,0.75 -0.34375,1.34375 -0.671875,1.671875 -0.109375,0.109375 -0.109375,0.125 -0.109375,0.15625 0,0.078125 0.046875,0.109375 0.09375,0.109375 0.109375,0 0.921875,-0.765625 0.921875,-1.9375 z m 0,0"
                 id="path85" />
            </g>
          </g>
        </g>
        <g
           style="fill:#000000;fill-opacity:1"
           id="g62">
          <g
             id="use60"
             transform="translate(22.882364,6.8080001)">
            <path
               style="stroke:none"
               d="m 4.25,-6.046875 c 0.078125,-0.28125 0.109375,-0.34375 0.234375,-0.375 0.09375,-0.015625 0.421875,-0.015625 0.625,-0.015625 1.015625,0 1.453125,0.03125 1.453125,0.8125 0,0.15625 -0.03125,0.546875 -0.078125,0.796875 0,0.046875 -0.03125,0.15625 -0.03125,0.1875 0,0.0625 0.03125,0.140625 0.125,0.140625 0.109375,0 0.125,-0.078125 0.15625,-0.234375 L 7,-6.46875 C 7.015625,-6.515625 7.015625,-6.609375 7.015625,-6.640625 7.015625,-6.75 6.921875,-6.75 6.75,-6.75 H 1.21875 c -0.234375,0 -0.25,0.015625 -0.328125,0.203125 l -0.59375,1.75 c 0,0.015625 -0.0625,0.15625 -0.0625,0.1875 0,0.046875 0.0625,0.109375 0.125,0.109375 0.09375,0 0.109375,-0.0625 0.171875,-0.21875 C 1.0625,-6.265625 1.328125,-6.4375 2.796875,-6.4375 H 3.1875 c 0.28125,0 0.28125,0.03125 0.28125,0.125 0,0.046875 -0.03125,0.171875 -0.046875,0.203125 L 2.09375,-0.78125 C 2,-0.421875 1.96875,-0.3125 0.90625,-0.3125 c -0.359375,0 -0.421875,0 -0.421875,0.1875 C 0.484375,0 0.59375,0 0.65625,0 c 0.265625,0 0.546875,-0.015625 0.8125,-0.015625 0.28125,0 0.578125,-0.015625 0.859375,-0.015625 0.28125,0 0.546875,0.015625 0.828125,0.015625 C 3.4375,-0.015625 3.734375,0 4.015625,0 c 0.09375,0 0.21875,0 0.21875,-0.203125 0,-0.109375 -0.078125,-0.109375 -0.34375,-0.109375 -0.234375,0 -0.375,0 -0.625,-0.015625 -0.296875,-0.03125 -0.375,-0.0625 -0.375,-0.21875 0,-0.015625 0,-0.0625 0.046875,-0.203125 z m 0,0"
               id="path89" />
          </g>
        </g>
      </g>
    </g>
  </g>
</svg>
