<?xml version="1.0" encoding="UTF-8" standalone="no"?>
<!-- Created with Inkscape (http://www.inkscape.org/) -->

<svg
   xmlns:ns0="http://www.iki.fi/pav/software/textext/"
   xmlns:osb="http://www.openswatchbook.org/uri/2009/osb"
   xmlns:dc="http://purl.org/dc/elements/1.1/"
   xmlns:cc="http://creativecommons.org/ns#"
   xmlns:rdf="http://www.w3.org/1999/02/22-rdf-syntax-ns#"
   xmlns:svg="http://www.w3.org/2000/svg"
   xmlns="http://www.w3.org/2000/svg"
   xmlns:xlink="http://www.w3.org/1999/xlink"
   xmlns:sodipodi="http://sodipodi.sourceforge.net/DTD/sodipodi-0.dtd"
   xmlns:inkscape="http://www.inkscape.org/namespaces/inkscape"
   width="71.802628mm"
   height="40.243732mm"
   viewBox="0 0 254.41874 142.5959"
   id="svg2"
   version="1.1"
   inkscape:version="0.91 r13725"
   sodipodi:docname="cctpfa.svg"
   inkscape:export-filename="/temp/martins/DUMUX-3.0/dumux/doc/handbook/PNG/cctpfa.png"
   inkscape:export-xdpi="600"
   inkscape:export-ydpi="600">
  <sodipodi:namedview
     id="base"
     pagecolor="#ffffff"
     bordercolor="#666666"
     borderopacity="1.0"
     inkscape:pageopacity="0.0"
     inkscape:pageshadow="2"
     inkscape:zoom="1.979899"
     inkscape:cx="44.448389"
     inkscape:cy="49.744113"
     inkscape:document-units="px"
     inkscape:current-layer="layer1"
     showgrid="false"
     inkscape:window-width="1920"
     inkscape:window-height="1015"
     inkscape:window-x="0"
     inkscape:window-y="0"
     inkscape:window-maximized="1"
     fit-margin-top="0"
     fit-margin-left="0"
     fit-margin-right="0"
     fit-margin-bottom="0" />
  <defs
     id="defs4">
    <inkscape:path-effect
       is_visible="true"
       id="path-effect4310"
       effect="spiro" />
    <inkscape:path-effect
       is_visible="true"
       id="path-effect4306"
       effect="spiro" />
    <inkscape:path-effect
       is_visible="true"
       id="path-effect4294"
       effect="spiro" />
    <inkscape:path-effect
       is_visible="true"
       id="path-effect4290"
       effect="spiro" />
    <inkscape:path-effect
       is_visible="true"
       id="path-effect4274"
       effect="spiro" />
    <inkscape:path-effect
       is_visible="true"
       id="path-effect4362"
       effect="spiro" />
    <inkscape:path-effect
       is_visible="true"
       id="path-effect4346"
       effect="spiro" />
    <linearGradient
       id="linearGradient8369"
       osb:paint="solid">
      <stop
         style="stop-color:#000000;stop-opacity:1;"
         offset="0"
         id="stop8371" />
    </linearGradient>
    <marker
       inkscape:stockid="Arrow2Mstart"
       orient="auto"
       refY="0"
       refX="0"
       id="Arrow2Mstart"
       style="overflow:visible"
       inkscape:isstock="true">
      <path
         inkscape:connector-curvature="0"
         id="path5803"
         style="fill:#000000;fill-opacity:1;fill-rule:evenodd;stroke:#000000;stroke-width:0.625;stroke-linejoin:round;stroke-opacity:1"
         d="M 8.7185878,4.0337352 -2.2072895,0.01601326 8.7185884,-4.0017078 c -1.7454984,2.3720609 -1.7354408,5.6174519 -6e-7,8.035443 z"
         transform="scale(0.6,0.6)" />
    </marker>
    <marker
       inkscape:stockid="Arrow1Lend"
       orient="auto"
       refY="0"
       refX="0"
       id="Arrow1Lend"
       style="overflow:visible"
       inkscape:isstock="true">
      <path
         inkscape:connector-curvature="0"
         id="path5782"
         d="M 0,0 5,-5 -12.5,0 5,5 0,0 Z"
         style="fill:#000000;fill-opacity:1;fill-rule:evenodd;stroke:#000000;stroke-width:1pt;stroke-opacity:1"
         transform="matrix(-0.8,0,0,-0.8,-10,0)" />
    </marker>
    <marker
       inkscape:stockid="Arrow2Mstart"
       orient="auto"
       refY="0"
       refX="0"
       id="Arrow2Mstart-2"
       style="overflow:visible"
       inkscape:isstock="true">
      <path
         inkscape:connector-curvature="0"
         id="path5803-6"
         style="fill:#000000;fill-opacity:1;fill-rule:evenodd;stroke:#000000;stroke-width:0.625;stroke-linejoin:round;stroke-opacity:1"
         d="M 8.7185878,4.0337352 -2.2072895,0.01601326 8.7185884,-4.0017078 c -1.7454984,2.3720609 -1.7354408,5.6174519 -6e-7,8.035443 z"
         transform="scale(0.6,0.6)" />
    </marker>
  </defs>
  <metadata
     id="metadata7">
    <rdf:RDF>
      <cc:Work
         rdf:about="">
        <dc:format>image/svg+xml</dc:format>
        <dc:type
           rdf:resource="http://purl.org/dc/dcmitype/StillImage" />
        <dc:title />
      </cc:Work>
    </rdf:RDF>
  </metadata>
  <g
     transform="translate(-208.76986,-105.29102)"
     inkscape:label="Layer 1"
     inkscape:groupmode="layer"
     id="layer1">
    <path
       style="fill:none;fill-rule:evenodd;stroke:#000000;stroke-width:1px;stroke-linecap:butt;stroke-linejoin:miter;stroke-opacity:1"
       d="m 209.28571,114.8622 3.44253,112.36607 85.84319,20.13393 44.64286,-19.46428 -27.18448,-110.92737 z"
       id="path4152"
       inkscape:connector-curvature="0"
       sodipodi:nodetypes="ccccc" />
    <ellipse
       style="opacity:1;fill:#000000;fill-opacity:1;fill-rule:evenodd;stroke:none;stroke-width:26.36899948;stroke-linecap:butt;stroke-linejoin:miter;stroke-miterlimit:4;stroke-dasharray:none;stroke-dashoffset:0;stroke-opacity:1"
       id="path4287"
       cx="273.60333"
       cy="173.65892"
       rx="3.5"
       ry="3.325" />
    <ellipse
       style="opacity:1;fill:#000000;fill-opacity:1;fill-rule:evenodd;stroke:none;stroke-width:26.36899948;stroke-linecap:butt;stroke-linejoin:miter;stroke-miterlimit:4;stroke-dasharray:none;stroke-dashoffset:0;stroke-opacity:1"
       id="path4287-3"
       cx="394.74966"
       cy="166.06581"
       rx="3.5"
       ry="3.325" />
    <g
       transform="matrix(2,0,0,2,-187.0287,-79.592661)"
       ns0:text="$\\mathbf{x}_K$"
       ns0:preamble="/temp/martins/GIT_Paper/SchneiderPromo/pics/k3/preamble.txt"
       id="g4934">
      <defs
         id="defs4936">
        <g
           id="g4938">
          <symbol
             style="overflow:visible"
             overflow="visible"
             id="textext-dc706633-0">
            <path
               inkscape:connector-curvature="0"
               style="stroke:none"
               d=""
               id="path4941" />
          </symbol>
          <symbol
             style="overflow:visible"
             overflow="visible"
             id="textext-dc706633-1">
            <path
               inkscape:connector-curvature="0"
               style="stroke:none"
               d="M 3.453125,-2.453125 4.609375,-3.75 C 4.75,-3.890625 4.8125,-3.953125 5.625,-3.953125 l 0,-0.46875 c -0.34375,0.015625 -0.859375,0.03125 -0.90625,0.03125 -0.25,0 -0.75,-0.03125 -1.03125,-0.03125 l 0,0.46875 c 0.140625,0 0.265625,0.015625 0.375,0.078125 -0.03125,0.0625 -0.03125,0.09375 -0.078125,0.125 l -0.828125,0.9375 -0.984375,-1.140625 0.40625,0 0,-0.46875 c -0.265625,0 -0.890625,0.03125 -1.21875,0.03125 -0.3125,0 -0.765625,-0.03125 -1.09375,-0.03125 l 0,0.46875 0.71875,0 1.546875,1.828125 -1.3125,1.46875 c -0.15625,0.1875 -0.515625,0.1875 -1,0.1875 l 0,0.46875 c 0.34375,-0.015625 0.875,-0.03125 0.921875,-0.03125 0.25,0 0.828125,0.015625 1.015625,0.03125 l 0,-0.46875 c -0.171875,0 -0.359375,-0.046875 -0.359375,-0.109375 0,-0.015625 0,-0.015625 0.0625,-0.09375 l 0.96875,-1.09375 1.09375,1.296875 -0.390625,0 0,0.46875 c 0.265625,-0.015625 0.875,-0.03125 1.203125,-0.03125 0.3125,0 0.765625,0.015625 1.09375,0.03125 l 0,-0.46875 -0.703125,0 z m 0,0"
               id="path4944" />
          </symbol>
          <symbol
             style="overflow:visible"
             overflow="visible"
             id="textext-dc706633-2">
            <path
               inkscape:connector-curvature="0"
               style="stroke:none"
               d=""
               id="path4947" />
          </symbol>
          <symbol
             style="overflow:visible"
             overflow="visible"
             id="textext-dc706633-3">
            <path
               inkscape:connector-curvature="0"
               style="stroke:none"
               d="M 3.984375,-2.796875 C 3.953125,-2.859375 3.9375,-2.875 3.9375,-2.890625 c 0,-0.015625 0.015625,-0.015625 0.171875,-0.125 l 0.703125,-0.5 c 0.921875,-0.640625 1.359375,-0.953125 1.84375,-1 0.078125,0 0.171875,0 0.171875,-0.140625 0,-0.0625 -0.046875,-0.09375 -0.09375,-0.09375 -0.15625,0 -0.328125,0.015625 -0.484375,0.015625 -0.1875,0 -0.65625,-0.03125 -0.84375,-0.03125 -0.046875,0 -0.140625,0 -0.140625,0.15625 0,0.015625 0,0.09375 0.09375,0.09375 0.09375,0.015625 0.1875,0.03125 0.1875,0.109375 0,0.125 -0.21875,0.28125 -0.3125,0.34375 L 2.328125,-2.015625 2.875,-4.21875 c 0.0625,-0.234375 0.078125,-0.296875 0.609375,-0.296875 0.125,0 0.21875,0 0.21875,-0.140625 0,-0.0625 -0.046875,-0.109375 -0.109375,-0.109375 -0.203125,0 -0.71875,0.03125 -0.921875,0.03125 -0.109375,0 -0.359375,0 -0.484375,0 C 2.0625,-4.75 1.890625,-4.765625 1.75,-4.765625 c -0.03125,0 -0.140625,0 -0.140625,0.15625 0,0.09375 0.078125,0.09375 0.234375,0.09375 0.109375,0 0.140625,0 0.265625,0.015625 0.140625,0.015625 0.15625,0.03125 0.15625,0.109375 0,0 0,0.046875 -0.03125,0.140625 l -0.9375,3.703125 C 1.25,-0.3125 1.234375,-0.25 0.6875,-0.25 c -0.125,0 -0.203125,0 -0.203125,0.15625 0,0 0,0.09375 0.109375,0.09375 0.203125,0 0.703125,-0.03125 0.90625,-0.03125 0.109375,0 0.359375,0 0.484375,0.015625 C 2.125,-0.015625 2.296875,0 2.421875,0 2.46875,0 2.578125,0 2.578125,-0.15625 2.578125,-0.25 2.484375,-0.25 2.34375,-0.25 c 0,0 -0.140625,0 -0.265625,-0.015625 C 1.921875,-0.28125 1.921875,-0.296875 1.921875,-0.375 1.921875,-0.421875 2,-0.6875 2.25,-1.703125 l 1.15625,-0.8125 1.015625,1.953125 c 0.046875,0.09375 0.046875,0.09375 0.046875,0.125 0,0.171875 -0.203125,0.1875 -0.328125,0.1875 -0.078125,0 -0.171875,0 -0.171875,0.15625 0,0 0,0.09375 0.109375,0.09375 C 4.28125,0 4.78125,-0.03125 4.96875,-0.03125 5.1875,-0.03125 5.46875,0 5.65625,0 5.75,0 5.796875,-0.046875 5.796875,-0.140625 5.796875,-0.25 5.703125,-0.25 5.640625,-0.25 c -0.125,0 -0.34375,-0.015625 -0.46875,-0.234375 z m 0,0"
               id="path4950" />
          </symbol>
        </g>
      </defs>
      <g
         id="textext-dc706633-4">
        <g
           style="fill:#000000;fill-opacity:1"
           id="g4953">
          <use
             height="100%"
             width="100%"
             xlink:href="#textext-dc706633-1"
             x="223.43201"
             y="134.765"
             id="use4955" />
        </g>
        <g
           style="fill:#000000;fill-opacity:1"
           id="g4957">
          <use
             height="100%"
             width="100%"
             xlink:href="#textext-dc706633-3"
             x="229.479"
             y="136.259"
             id="use4959" />
        </g>
      </g>
    </g>
    <g
       id="g5119"
       transform="matrix(2,0,0,2,-50.45217,-88.701173)"
       ns0:preamble="/temp/martins/GIT_Paper/SchneiderPromo/pics/k3/preamble.txt"
       ns0:text="$\\mathbf{x}_L$">
      <defs
         id="defs5121">
        <g
           id="g5123">
          <symbol
             style="overflow:visible"
             id="textext-96de7a1a-0"
             overflow="visible">
            <path
               inkscape:connector-curvature="0"
               id="path5126"
               d=""
               style="stroke:none" />
          </symbol>
          <symbol
             style="overflow:visible"
             id="textext-96de7a1a-1"
             overflow="visible">
            <path
               inkscape:connector-curvature="0"
               id="path5129"
               d="M 3.453125,-2.453125 4.609375,-3.75 C 4.75,-3.890625 4.8125,-3.953125 5.625,-3.953125 l 0,-0.46875 c -0.34375,0.015625 -0.859375,0.03125 -0.90625,0.03125 -0.25,0 -0.75,-0.03125 -1.03125,-0.03125 l 0,0.46875 c 0.140625,0 0.265625,0.015625 0.375,0.078125 -0.03125,0.0625 -0.03125,0.09375 -0.078125,0.125 l -0.828125,0.9375 -0.984375,-1.140625 0.40625,0 0,-0.46875 c -0.265625,0 -0.890625,0.03125 -1.21875,0.03125 -0.3125,0 -0.765625,-0.03125 -1.09375,-0.03125 l 0,0.46875 0.71875,0 1.546875,1.828125 -1.3125,1.46875 c -0.15625,0.1875 -0.515625,0.1875 -1,0.1875 l 0,0.46875 c 0.34375,-0.015625 0.875,-0.03125 0.921875,-0.03125 0.25,0 0.828125,0.015625 1.015625,0.03125 l 0,-0.46875 c -0.171875,0 -0.359375,-0.046875 -0.359375,-0.109375 0,-0.015625 0,-0.015625 0.0625,-0.09375 l 0.96875,-1.09375 1.09375,1.296875 -0.390625,0 0,0.46875 c 0.265625,-0.015625 0.875,-0.03125 1.203125,-0.03125 0.3125,0 0.765625,0.015625 1.09375,0.03125 l 0,-0.46875 -0.703125,0 z m 0,0"
               style="stroke:none" />
          </symbol>
          <symbol
             style="overflow:visible"
             id="textext-96de7a1a-2"
             overflow="visible">
            <path
               inkscape:connector-curvature="0"
               id="path5132"
               d=""
               style="stroke:none" />
          </symbol>
          <symbol
             style="overflow:visible"
             id="textext-96de7a1a-3"
             overflow="visible">
            <path
               inkscape:connector-curvature="0"
               id="path5135"
               d="m 2.875,-4.1875 c 0.0625,-0.25 0.078125,-0.328125 0.71875,-0.328125 0.21875,0 0.28125,0 0.28125,-0.140625 0,-0.015625 0,-0.109375 -0.109375,-0.109375 -0.15625,0 -0.34375,0.015625 -0.515625,0.03125 -0.171875,0 -0.390625,0 -0.5625,0 -0.140625,0 -0.328125,0 -0.484375,0 -0.140625,0 -0.3125,-0.03125 -0.453125,-0.03125 -0.03125,0 -0.140625,0 -0.140625,0.15625 0,0.09375 0.078125,0.09375 0.21875,0.09375 0.015625,0 0.140625,0 0.265625,0.015625 0.15625,0.015625 0.171875,0.03125 0.171875,0.109375 0,0 0,0.046875 -0.03125,0.140625 l -0.9375,3.703125 C 1.234375,-0.3125 1.21875,-0.25 0.6875,-0.25 c -0.109375,0 -0.203125,0 -0.203125,0.140625 C 0.484375,0 0.5625,0 0.6875,0 l 3.5,0 c 0.1875,0 0.1875,0 0.25,-0.140625 0.0625,-0.1875 0.59375,-1.53125 0.59375,-1.59375 0,-0.015625 -0.015625,-0.09375 -0.125,-0.09375 -0.078125,0 -0.09375,0.03125 -0.140625,0.140625 C 4.5,-1.03125 4.1875,-0.25 2.921875,-0.25 l -0.796875,0 c -0.203125,0 -0.21875,-0.015625 -0.21875,-0.078125 0,0 0,-0.03125 0.03125,-0.140625 z m 0,0"
               style="stroke:none" />
          </symbol>
        </g>
      </defs>
      <g
         id="textext-96de7a1a-4">
        <g
           id="g5138"
           style="fill:#000000;fill-opacity:1">
          <use
             height="100%"
             width="100%"
             id="use5140"
             y="134.765"
             x="223.43201"
             xlink:href="#textext-96de7a1a-1" />
        </g>
        <g
           id="g5142"
           style="fill:#000000;fill-opacity:1">
          <use
             height="100%"
             width="100%"
             id="use5144"
             y="136.259"
             x="229.479"
             xlink:href="#textext-96de7a1a-3" />
        </g>
      </g>
    </g>
    <g
       ns0:text="$\\sigma$"
       ns0:preamble="/temp/martins/GIT_Paper/SchneiderPromo/pics/k3/preamble.txt"
       transform="matrix(2,0,0,2,-143.52759,-131.71097)"
       id="g5342">
      <defs
         id="defs5344">
        <g
           id="g5346">
          <symbol
             style="overflow:visible"
             overflow="visible"
             id="textext-6fb24ff5-0">
            <path
               inkscape:connector-curvature="0"
               style="stroke:none"
               d=""
               id="path5349" />
          </symbol>
          <symbol
             style="overflow:visible"
             overflow="visible"
             id="textext-6fb24ff5-1">
            <path
               inkscape:connector-curvature="0"
               style="stroke:none"
               d="m 5.15625,-3.71875 c 0.140625,0 0.5,0 0.5,-0.34375 0,-0.234375 -0.21875,-0.234375 -0.390625,-0.234375 l -2.28125,0 c -1.5,0 -2.609375,1.640625 -2.609375,2.828125 0,0.875 0.59375,1.578125 1.5,1.578125 1.171875,0 2.5,-1.203125 2.5,-2.734375 0,-0.171875 0,-0.65625 -0.3125,-1.09375 z M 1.890625,-0.109375 C 1.390625,-0.109375 1,-0.46875 1,-1.1875 c 0,-0.296875 0.109375,-1.109375 0.46875,-1.703125 0.421875,-0.6875 1.015625,-0.828125 1.359375,-0.828125 0.828125,0 0.90625,0.65625 0.90625,0.96875 0,0.46875 -0.203125,1.28125 -0.53125,1.796875 -0.390625,0.578125 -0.9375,0.84375 -1.3125,0.84375 z m 0,0"
               id="path5352" />
          </symbol>
        </g>
      </defs>
      <g
         id="textext-6fb24ff5-2">
        <g
           style="fill:#000000;fill-opacity:1"
           id="g5355">
          <use
             height="100%"
             width="100%"
             xlink:href="#textext-6fb24ff5-1"
             x="223.43201"
             y="134.765"
             id="use5357" />
        </g>
      </g>
    </g>
    <path
       inkscape:connector-curvature="0"
       id="path5454-9-5"
       d="m 359.89296,187.5634 -24.88086,6.12185"
       style="fill:none;fill-rule:evenodd;stroke:#000000;stroke-width:1;stroke-linecap:butt;stroke-linejoin:miter;stroke-miterlimit:4;stroke-dasharray:none;stroke-opacity:1;marker-start:url(#Arrow2Mstart)" />
    <g
       ns0:text="$\\mathbf{n}_{K,\\sigma}$"
       ns0:preamble="/temp/martins/GIT_Paper/SchneiderPromo/pics/k3/preamble.txt"
       transform="matrix(2,0,0,2,-100.82684,-65.431384)"
       id="g6357">
      <defs
         id="defs6359">
        <g
           id="g6361">
          <symbol
             style="overflow:visible"
             overflow="visible"
             id="textext-0eee0e28-0">
            <path
               inkscape:connector-curvature="0"
               style="stroke:none"
               d=""
               id="path6364" />
          </symbol>
          <symbol
             style="overflow:visible"
             overflow="visible"
             id="textext-0eee0e28-1">
            <path
               inkscape:connector-curvature="0"
               style="stroke:none"
               d="m 1.140625,-3.546875 0,3.078125 -0.6875,0 0,0.46875 c 0.28125,-0.015625 0.875,-0.03125 1.25,-0.03125 0.390625,0 0.984375,0.015625 1.25,0.03125 l 0,-0.46875 -0.6875,0 0,-2.078125 c 0,-1.09375 0.859375,-1.578125 1.5,-1.578125 0.328125,0 0.546875,0.203125 0.546875,0.96875 l 0,2.6875 -0.6875,0 0,0.46875 c 0.265625,-0.015625 0.875,-0.03125 1.25,-0.03125 0.390625,0 0.984375,0.015625 1.25,0.03125 l 0,-0.46875 -0.6875,0 0,-2.578125 c 0,-1.046875 -0.53125,-1.4375 -1.53125,-1.4375 -0.953125,0 -1.484375,0.5625 -1.75,1.078125 l 0,-1.078125 -1.703125,0.078125 0,0.46875 c 0.609375,0 0.6875,0 0.6875,0.390625 z m 0,0"
               id="path6367" />
          </symbol>
          <symbol
             style="overflow:visible"
             overflow="visible"
             id="textext-0eee0e28-2">
            <path
               inkscape:connector-curvature="0"
               style="stroke:none"
               d=""
               id="path6370" />
          </symbol>
          <symbol
             style="overflow:visible"
             overflow="visible"
             id="textext-0eee0e28-3">
            <path
               inkscape:connector-curvature="0"
               style="stroke:none"
               d="M 3.984375,-2.796875 C 3.953125,-2.859375 3.9375,-2.875 3.9375,-2.890625 c 0,-0.015625 0.015625,-0.015625 0.171875,-0.125 l 0.703125,-0.5 c 0.921875,-0.640625 1.359375,-0.953125 1.84375,-1 0.078125,0 0.171875,0 0.171875,-0.140625 0,-0.0625 -0.046875,-0.09375 -0.09375,-0.09375 -0.15625,0 -0.328125,0.015625 -0.484375,0.015625 -0.1875,0 -0.65625,-0.03125 -0.84375,-0.03125 -0.046875,0 -0.140625,0 -0.140625,0.15625 0,0.015625 0,0.09375 0.09375,0.09375 0.09375,0.015625 0.1875,0.03125 0.1875,0.109375 0,0.125 -0.21875,0.28125 -0.3125,0.34375 L 2.328125,-2.015625 2.875,-4.21875 c 0.0625,-0.234375 0.078125,-0.296875 0.609375,-0.296875 0.125,0 0.21875,0 0.21875,-0.140625 0,-0.0625 -0.046875,-0.109375 -0.109375,-0.109375 -0.203125,0 -0.71875,0.03125 -0.921875,0.03125 -0.109375,0 -0.359375,0 -0.484375,0 C 2.0625,-4.75 1.890625,-4.765625 1.75,-4.765625 c -0.03125,0 -0.140625,0 -0.140625,0.15625 0,0.09375 0.078125,0.09375 0.234375,0.09375 0.109375,0 0.140625,0 0.265625,0.015625 0.140625,0.015625 0.15625,0.03125 0.15625,0.109375 0,0 0,0.046875 -0.03125,0.140625 l -0.9375,3.703125 C 1.25,-0.3125 1.234375,-0.25 0.6875,-0.25 c -0.125,0 -0.203125,0 -0.203125,0.15625 0,0 0,0.09375 0.109375,0.09375 0.203125,0 0.703125,-0.03125 0.90625,-0.03125 0.109375,0 0.359375,0 0.484375,0.015625 C 2.125,-0.015625 2.296875,0 2.421875,0 2.46875,0 2.578125,0 2.578125,-0.15625 2.578125,-0.25 2.484375,-0.25 2.34375,-0.25 c 0,0 -0.140625,0 -0.265625,-0.015625 C 1.921875,-0.28125 1.921875,-0.296875 1.921875,-0.375 1.921875,-0.421875 2,-0.6875 2.25,-1.703125 l 1.15625,-0.8125 1.015625,1.953125 c 0.046875,0.09375 0.046875,0.09375 0.046875,0.125 0,0.171875 -0.203125,0.1875 -0.328125,0.1875 -0.078125,0 -0.171875,0 -0.171875,0.15625 0,0 0,0.09375 0.109375,0.09375 C 4.28125,0 4.78125,-0.03125 4.96875,-0.03125 5.1875,-0.03125 5.46875,0 5.65625,0 5.75,0 5.796875,-0.046875 5.796875,-0.140625 5.796875,-0.25 5.703125,-0.25 5.640625,-0.25 c -0.125,0 -0.34375,-0.015625 -0.46875,-0.234375 z m 0,0"
               id="path6373" />
          </symbol>
          <symbol
             style="overflow:visible"
             overflow="visible"
             id="textext-0eee0e28-4">
            <path
               inkscape:connector-curvature="0"
               style="stroke:none"
               d="m 1.46875,-0.109375 c 0,0.375 -0.0625,0.828125 -0.546875,1.265625 C 0.90625,1.1875 0.875,1.21875 0.875,1.25 c 0,0.046875 0.0625,0.09375 0.09375,0.09375 0.109375,0 0.703125,-0.5625 0.703125,-1.390625 0,-0.421875 -0.171875,-0.75 -0.5,-0.75 -0.21875,0 -0.390625,0.171875 -0.390625,0.390625 C 0.78125,-0.1875 0.9375,0 1.1875,0 1.359375,0 1.46875,-0.109375 1.46875,-0.109375 Z m 0,0"
               id="path6376" />
          </symbol>
          <symbol
             style="overflow:visible"
             overflow="visible"
             id="textext-0eee0e28-5">
            <path
               inkscape:connector-curvature="0"
               style="stroke:none"
               d="m 4.078125,-2.53125 c 0.109375,0 0.1875,0 0.25,-0.046875 0.09375,-0.078125 0.125,-0.1875 0.125,-0.234375 C 4.453125,-3 4.265625,-3 4.140625,-3 l -1.78125,0 C 1.25,-3 0.40625,-1.90625 0.40625,-1.0625 c 0,0.640625 0.484375,1.125 1.203125,1.125 0.875,0 1.875,-0.78125 1.875,-1.859375 0,-0.109375 0,-0.421875 -0.203125,-0.734375 z M 1.609375,-0.125 c -0.375,0 -0.6875,-0.25 -0.6875,-0.75 0,-0.203125 0.125,-1.65625 1.328125,-1.65625 0.34375,0 0.71875,0.140625 0.71875,0.65625 0,0.140625 -0.0625,0.765625 -0.40625,1.234375 C 2.265625,-0.265625 1.875,-0.125 1.609375,-0.125 Z m 0,0"
               id="path6379" />
          </symbol>
        </g>
      </defs>
      <g
         id="textext-0eee0e28-6">
        <g
           style="fill:#000000;fill-opacity:1"
           id="g6382">
          <use
             height="100%"
             width="100%"
             xlink:href="#textext-0eee0e28-1"
             x="223.43201"
             y="134.765"
             id="use6384" />
        </g>
        <g
           style="fill:#000000;fill-opacity:1"
           id="g6386">
          <use
             height="100%"
             width="100%"
             xlink:href="#textext-0eee0e28-3"
             x="229.797"
             y="136.259"
             id="use6388" />
        </g>
        <g
           style="fill:#000000;fill-opacity:1"
           id="g6390">
          <use
             height="100%"
             width="100%"
             xlink:href="#textext-0eee0e28-4"
             x="236.55391"
             y="136.259"
             id="use6392" />
          <use
             height="100%"
             width="100%"
             xlink:href="#textext-0eee0e28-5"
             x="238.92012"
             y="136.259"
             id="use6394" />
        </g>
      </g>
    </g>
    <g
       id="g9099"
       transform="matrix(2,0,0,2,-224.08727,-51.656381)"
       ns0:preamble="/temp/martins/GIT_Paper/SchneiderPromo/pics/k3/preamble.txt"
       ns0:text="$K$">
      <defs
         id="defs9101">
        <g
           id="g9103">
          <symbol
             id="textext-e8b43e81-0"
             overflow="visible"
             style="overflow:visible">
            <path
               id="path9106"
               d=""
               style="stroke:none"
               inkscape:connector-curvature="0" />
          </symbol>
          <symbol
             id="textext-e8b43e81-1"
             overflow="visible"
             style="overflow:visible">
            <path
               id="path9109"
               d="M 5.078125,-4.03125 C 5.0625,-4.0625 5.03125,-4.140625 5.03125,-4.171875 c 0,0 0.171875,-0.140625 0.28125,-0.21875 l 1.75,-1.34375 C 8,-6.4375 8.390625,-6.46875 8.6875,-6.5 8.765625,-6.515625 8.859375,-6.515625 8.859375,-6.703125 8.859375,-6.734375 8.828125,-6.8125 8.75,-6.8125 c -0.21875,0 -0.46875,0.03125 -0.703125,0.03125 -0.359375,0 -0.75,-0.03125 -1.109375,-0.03125 -0.0625,0 -0.1875,0 -0.1875,0.203125 0,0.0625 0.046875,0.09375 0.125,0.109375 0.21875,0.015625 0.296875,0.0625 0.296875,0.203125 0,0.1875 -0.296875,0.421875 -0.359375,0.46875 L 2.9375,-2.84375 3.734375,-6.046875 C 3.8125,-6.40625 3.84375,-6.5 4.5625,-6.5 c 0.25,0 0.34375,0 0.34375,-0.203125 0,-0.078125 -0.078125,-0.109375 -0.140625,-0.109375 -0.28125,0 -1,0.03125 -1.28125,0.03125 C 3.203125,-6.78125 2.5,-6.8125 2.203125,-6.8125 2.140625,-6.8125 2,-6.8125 2,-6.625 2,-6.5 2.09375,-6.5 2.296875,-6.5 c 0.125,0 0.3125,0.015625 0.421875,0.015625 0.15625,0.03125 0.21875,0.046875 0.21875,0.171875 0,0.03125 0,0.0625 -0.03125,0.1875 L 1.5625,-0.78125 c -0.09375,0.390625 -0.109375,0.46875 -0.90625,0.46875 -0.171875,0 -0.28125,0 -0.28125,0.1875 C 0.375,0 0.5,0 0.53125,0 0.8125,0 1.515625,-0.03125 1.796875,-0.03125 2,-0.03125 2.21875,-0.015625 2.4375,-0.015625 2.65625,-0.015625 2.875,0 3.078125,0 3.15625,0 3.28125,0 3.28125,-0.203125 3.28125,-0.3125 3.1875,-0.3125 3,-0.3125 c -0.375,0 -0.640625,0 -0.640625,-0.171875 0,-0.078125 0.046875,-0.296875 0.078125,-0.4375 C 2.578125,-1.453125 2.71875,-1.96875 2.84375,-2.5 l 1.484375,-1.15625 1.15625,2.6875 c 0.125,0.265625 0.125,0.296875 0.125,0.34375 0,0.3125 -0.4375,0.3125 -0.53125,0.3125 -0.109375,0 -0.21875,0 -0.21875,0.203125 C 4.859375,0 4.984375,0 5,0 5.40625,0 5.828125,-0.03125 6.21875,-0.03125 6.4375,-0.03125 6.984375,0 7.203125,0 7.25,0 7.375,0 7.375,-0.203125 7.375,-0.3125 7.265625,-0.3125 7.171875,-0.3125 c -0.40625,0 -0.53125,-0.09375 -0.6875,-0.4375 z m 0,0"
               style="stroke:none"
               inkscape:connector-curvature="0" />
          </symbol>
        </g>
      </defs>
      <g
         id="textext-e8b43e81-2">
        <g
           id="g9112"
           style="fill:#000000;fill-opacity:1">
          <use
             id="use9114"
             y="134.765"
             x="223.43201"
             xlink:href="#textext-e8b43e81-1"
             width="100%"
             height="100%" />
        </g>
      </g>
    </g>
    <g
       ns0:text="$L$"
       ns0:preamble="/temp/martins/GIT_Paper/SchneiderPromo/pics/k3/preamble.txt"
       transform="matrix(2,0,0,2,-28.007272,-122.06873)"
       id="g9482">
      <defs
         id="defs9484">
        <g
           id="g9486">
          <symbol
             style="overflow:visible"
             overflow="visible"
             id="textext-c69f47de-0">
            <path
               inkscape:connector-curvature="0"
               style="stroke:none"
               d=""
               id="path9489" />
          </symbol>
          <symbol
             style="overflow:visible"
             overflow="visible"
             id="textext-c69f47de-1">
            <path
               inkscape:connector-curvature="0"
               style="stroke:none"
               d="M 3.734375,-6.03125 C 3.8125,-6.390625 3.84375,-6.5 4.78125,-6.5 c 0.296875,0 0.375,0 0.375,-0.1875 0,-0.125 -0.109375,-0.125 -0.15625,-0.125 -0.328125,0 -1.140625,0.03125 -1.46875,0.03125 -0.296875,0 -1.03125,-0.03125 -1.328125,-0.03125 -0.0625,0 -0.1875,0 -0.1875,0.203125 0,0.109375 0.09375,0.109375 0.28125,0.109375 0.015625,0 0.203125,0 0.375,0.015625 0.171875,0.03125 0.265625,0.03125 0.265625,0.171875 0,0.03125 0,0.0625 -0.03125,0.1875 L 1.5625,-0.78125 c -0.09375,0.390625 -0.109375,0.46875 -0.90625,0.46875 -0.171875,0 -0.265625,0 -0.265625,0.203125 C 0.390625,0 0.484375,0 0.65625,0 l 4.625,0 C 5.515625,0 5.515625,0 5.578125,-0.171875 L 6.375,-2.328125 c 0.03125,-0.109375 0.03125,-0.125 0.03125,-0.140625 0,-0.03125 -0.03125,-0.109375 -0.109375,-0.109375 -0.09375,0 -0.109375,0.0625 -0.171875,0.21875 -0.34375,0.90625 -0.78125,2.046875 -2.5,2.046875 l -0.9375,0 c -0.140625,0 -0.171875,0 -0.21875,0 -0.109375,-0.015625 -0.140625,-0.03125 -0.140625,-0.109375 0,-0.03125 0,-0.046875 0.046875,-0.21875 z m 0,0"
               id="path9492" />
          </symbol>
        </g>
      </defs>
      <g
         id="textext-c69f47de-2">
        <g
           style="fill:#000000;fill-opacity:1"
           id="g9495">
          <use
             height="100%"
             width="100%"
             xlink:href="#textext-c69f47de-1"
             x="223.43201"
             y="134.765"
             id="use9497" />
        </g>
      </g>
    </g>
    <path
       inkscape:connector-curvature="0"
       inkscape:original-d="M 316.13027,116.97598 444.41964,105.8643"
       inkscape:path-effect="#path-effect4290"
       id="path4288"
       d="M 316.13027,116.97598 444.41964,105.8643"
       style="fill:none;fill-rule:evenodd;stroke:#000000;stroke-width:1px;stroke-linecap:butt;stroke-linejoin:miter;stroke-opacity:1" />
    <path
       inkscape:connector-curvature="0"
       inkscape:original-d="m 342.89931,227.0826 119.70308,17.67767 -19.1929,-139.40105"
       inkscape:path-effect="#path-effect4310"
       id="path4308"
       d="m 342.89931,227.0826 119.70308,17.67767 -19.1929,-139.40105"
       style="fill:none;fill-rule:evenodd;stroke:#000000;stroke-width:1px;stroke-linecap:butt;stroke-linejoin:miter;stroke-opacity:1" />
    <ellipse
       style="opacity:1;fill:#000000;fill-opacity:1;fill-rule:evenodd;stroke:none;stroke-width:26.36899948;stroke-linecap:butt;stroke-linejoin:miter;stroke-miterlimit:4;stroke-dasharray:none;stroke-dashoffset:0;stroke-opacity:1"
       id="path4287-36"
       cx="329.09641"
       cy="168.97037"
       rx="3.5"
       ry="3.325" />
    <g
       id="g4501"
       transform="matrix(2,0,0,2,-118.32126,-107.70481)"
       ns0:preamble="/temp/martins/GIT_Paper/SchneiderPromo/pics/k3/preamble.txt"
       ns0:text="$\\mathbf{x}_\\sigma$">
      <defs
         id="defs4503">
        <g
           id="g4505">
          <symbol
             id="textext-fcd1e4d0-0"
             overflow="visible"
             style="overflow:visible">
            <path
               id="path4508"
               d=""
               style="stroke:none"
               inkscape:connector-curvature="0" />
          </symbol>
          <symbol
             id="textext-fcd1e4d0-1"
             overflow="visible"
             style="overflow:visible">
            <path
               id="path4511"
               d="M 3.453125,-2.453125 4.609375,-3.75 C 4.75,-3.890625 4.8125,-3.953125 5.625,-3.953125 l 0,-0.46875 c -0.34375,0.015625 -0.859375,0.03125 -0.90625,0.03125 -0.25,0 -0.75,-0.03125 -1.03125,-0.03125 l 0,0.46875 c 0.140625,0 0.265625,0.015625 0.375,0.078125 -0.03125,0.0625 -0.03125,0.09375 -0.078125,0.125 l -0.828125,0.9375 -0.984375,-1.140625 0.40625,0 0,-0.46875 c -0.265625,0 -0.890625,0.03125 -1.21875,0.03125 -0.3125,0 -0.765625,-0.03125 -1.09375,-0.03125 l 0,0.46875 0.71875,0 1.546875,1.828125 -1.3125,1.46875 c -0.15625,0.1875 -0.515625,0.1875 -1,0.1875 l 0,0.46875 c 0.34375,-0.015625 0.875,-0.03125 0.921875,-0.03125 0.25,0 0.828125,0.015625 1.015625,0.03125 l 0,-0.46875 c -0.171875,0 -0.359375,-0.046875 -0.359375,-0.109375 0,-0.015625 0,-0.015625 0.0625,-0.09375 l 0.96875,-1.09375 1.09375,1.296875 -0.390625,0 0,0.46875 c 0.265625,-0.015625 0.875,-0.03125 1.203125,-0.03125 0.3125,0 0.765625,0.015625 1.09375,0.03125 l 0,-0.46875 -0.703125,0 z m 0,0"
               style="stroke:none"
               inkscape:connector-curvature="0" />
          </symbol>
          <symbol
             id="textext-fcd1e4d0-2"
             overflow="visible"
             style="overflow:visible">
            <path
               id="path4514"
               d=""
               style="stroke:none"
               inkscape:connector-curvature="0" />
          </symbol>
          <symbol
             id="textext-fcd1e4d0-3"
             overflow="visible"
             style="overflow:visible">
            <path
               id="path4517"
               d="m 4.078125,-2.53125 c 0.109375,0 0.1875,0 0.25,-0.046875 0.09375,-0.078125 0.125,-0.1875 0.125,-0.234375 C 4.453125,-3 4.265625,-3 4.140625,-3 l -1.78125,0 C 1.25,-3 0.40625,-1.90625 0.40625,-1.0625 c 0,0.640625 0.484375,1.125 1.203125,1.125 0.875,0 1.875,-0.78125 1.875,-1.859375 0,-0.109375 0,-0.421875 -0.203125,-0.734375 z M 1.609375,-0.125 c -0.375,0 -0.6875,-0.25 -0.6875,-0.75 0,-0.203125 0.125,-1.65625 1.328125,-1.65625 0.34375,0 0.71875,0.140625 0.71875,0.65625 0,0.140625 -0.0625,0.765625 -0.40625,1.234375 C 2.265625,-0.265625 1.875,-0.125 1.609375,-0.125 Z m 0,0"
               style="stroke:none"
               inkscape:connector-curvature="0" />
          </symbol>
        </g>
      </defs>
      <g
         id="textext-fcd1e4d0-4">
        <g
           id="g4520"
           style="fill:#000000;fill-opacity:1">
          <use
             id="use4522"
             y="134.765"
             x="223.43201"
             xlink:href="#textext-fcd1e4d0-1"
             width="100%"
             height="100%" />
        </g>
        <g
           id="g4524"
           style="fill:#000000;fill-opacity:1">
          <use
             id="use4526"
             y="136.259"
             x="229.479"
             xlink:href="#textext-fcd1e4d0-3"
             width="100%"
             height="100%" />
        </g>
      </g>
    </g>
    <path
       inkscape:connector-curvature="0"
       id="path5454-9-5-1"
       d="m 324.39742,169.50716 -48.43061,3.1601"
       style="fill:none;fill-rule:evenodd;stroke:#000000;stroke-width:1;stroke-linecap:butt;stroke-linejoin:miter;stroke-miterlimit:4;stroke-dasharray:none;stroke-opacity:1;marker-start:url(#Arrow2Mstart-2)"
       sodipodi:nodetypes="cc" />
    <g
       id="g6110"
       transform="matrix(1.5529801,0,0,1.5529801,-63.745926,-43.974706)"
       ns0:preamble="/temp/martins/GIT_Paper/SchneiderPromo/pics/k3/preamble.txt"
       ns0:text="\\small$\\mathbf{d}_{K,\\sigma}$">
      <defs
         id="defs6112">
        <g
           id="g6114">
          <symbol
             id="textext-411cea76-0"
             overflow="visible"
             style="overflow:visible">
            <path
               id="path6117"
               d=""
               style="stroke:none"
               inkscape:connector-curvature="0" />
          </symbol>
          <symbol
             id="textext-411cea76-1"
             overflow="visible"
             style="overflow:visible">
            <path
               id="path6120"
               d="m 3.296875,-6.15625 0,0.4375 c 0.546875,0 0.609375,0 0.609375,0.359375 l 0,1.734375 c -0.390625,-0.296875 -0.8125,-0.40625 -1.25,-0.40625 -1.453125,0 -2.3125,0.890625 -2.3125,2.046875 0,1.1875 0.84375,2.03125 2.21875,2.03125 0.5625,0 1,-0.203125 1.296875,-0.4375 l 0,0.4375 L 5.515625,0 l 0,-0.4375 c -0.53125,0 -0.609375,0 -0.609375,-0.359375 l 0,-5.421875 z m 0.5625,5.171875 C 3.65625,-0.65625 3.234375,-0.3125 2.65625,-0.3125 c -1.109375,0 -1.109375,-1.0625 -1.109375,-1.65625 0,-0.53125 0,-0.90625 0.234375,-1.234375 0.234375,-0.359375 0.671875,-0.46875 0.984375,-0.46875 0.4375,0 0.8125,0.1875 1.09375,0.546875 z m 0,0"
               style="stroke:none"
               inkscape:connector-curvature="0" />
          </symbol>
          <symbol
             id="textext-411cea76-2"
             overflow="visible"
             style="overflow:visible">
            <path
               id="path6123"
               d=""
               style="stroke:none"
               inkscape:connector-curvature="0" />
          </symbol>
          <symbol
             id="textext-411cea76-3"
             overflow="visible"
             style="overflow:visible">
            <path
               id="path6126"
               d="m 3.625,-2.40625 c 0,0 -0.03125,-0.0625 -0.03125,-0.078125 0,0 0.015625,0 0.109375,-0.078125 0.609375,-0.40625 1.40625,-0.96875 1.75,-1.125 0.203125,-0.09375 0.375,-0.15625 0.5625,-0.15625 C 6.078125,-3.859375 6.15625,-3.859375 6.15625,-4 6.15625,-4.046875 6.125,-4.078125 6.078125,-4.078125 5.9375,-4.078125 5.78125,-4.0625 5.625,-4.0625 c -0.078125,0 -0.28125,0 -0.375,0 -0.078125,-0.015625 -0.296875,-0.03125 -0.359375,-0.03125 -0.03125,0 -0.140625,0 -0.140625,0.15625 0,0.078125 0.09375,0.09375 0.109375,0.09375 C 5,-3.84375 5,-3.796875 5,-3.765625 5,-3.6875 4.875,-3.59375 4.84375,-3.578125 4.828125,-3.5625 4.828125,-3.5625 4.8125,-3.546875 c 0,0 -0.0625,0.03125 -0.078125,0.046875 l -2.59375,1.765625 0.46875,-1.875 c 0.046875,-0.1875 0.046875,-0.234375 0.53125,-0.234375 0.109375,0 0.1875,0 0.1875,-0.15625 0,-0.03125 -0.015625,-0.09375 -0.09375,-0.09375 -0.125,0 -0.265625,0.03125 -0.40625,0.03125 -0.125,0 -0.265625,0 -0.40625,0 -0.125,0 -0.265625,0 -0.40625,0 -0.125,0 -0.28125,-0.03125 -0.40625,-0.03125 -0.046875,0 -0.140625,0 -0.140625,0.15625 0,0.09375 0.078125,0.09375 0.1875,0.09375 0.109375,0 0.265625,0 0.390625,0.03125 0,0.0625 0,0.109375 -0.03125,0.203125 L 1.234375,-0.5 c -0.046875,0.21875 -0.0625,0.265625 -0.515625,0.265625 -0.125,0 -0.203125,0 -0.203125,0.140625 0,0.046875 0.03125,0.09375 0.09375,0.09375 0.125,0 0.265625,-0.015625 0.40625,-0.015625 0.140625,0 0.265625,-0.015625 0.390625,-0.015625 0.140625,0 0.28125,0.015625 0.421875,0.015625 C 1.953125,-0.015625 2.109375,0 2.234375,0 2.28125,0 2.375,0 2.375,-0.15625 c 0,-0.078125 -0.078125,-0.078125 -0.203125,-0.078125 -0.015625,0 -0.125,0 -0.234375,-0.015625 C 1.828125,-0.265625 1.796875,-0.265625 1.796875,-0.328125 1.796875,-0.359375 1.828125,-0.5 1.84375,-0.59375 1.875,-0.6875 1.875,-0.703125 1.921875,-0.84375 2,-1.15625 2,-1.171875 2.0625,-1.453125 l 1.046875,-0.703125 0.984375,1.75 c 0,0.078125 0,0.15625 -0.28125,0.171875 -0.0625,0 -0.15625,0 -0.15625,0.140625 C 3.65625,-0.046875 3.6875,0 3.765625,0 3.9375,0 4.375,-0.03125 4.546875,-0.03125 c 0.109375,0 0.203125,0.015625 0.3125,0.015625 C 4.953125,-0.015625 5.0625,0 5.171875,0 c 0.0625,0 0.125,-0.03125 0.125,-0.15625 0,-0.078125 -0.09375,-0.078125 -0.140625,-0.078125 C 4.84375,-0.25 4.796875,-0.328125 4.71875,-0.453125 Z m 0,0"
               style="stroke:none"
               inkscape:connector-curvature="0" />
          </symbol>
          <symbol
             id="textext-411cea76-4"
             overflow="visible"
             style="overflow:visible">
            <path
               id="path6129"
               d="m 1.375,-0.078125 c 0,0.5625 -0.296875,0.890625 -0.453125,1.03125 C 0.875,1 0.84375,1.015625 0.84375,1.046875 c 0,0.0625 0.0625,0.109375 0.109375,0.109375 0.078125,0 0.625,-0.46875 0.625,-1.203125 0,-0.390625 -0.15625,-0.671875 -0.453125,-0.671875 -0.234375,0 -0.359375,0.1875 -0.359375,0.359375 C 0.765625,-0.1875 0.890625,0 1.140625,0 1.234375,0 1.3125,-0.03125 1.375,-0.078125 Z m 0,0"
               style="stroke:none"
               inkscape:connector-curvature="0" />
          </symbol>
          <symbol
             id="textext-411cea76-5"
             overflow="visible"
             style="overflow:visible">
            <path
               id="path6132"
               d="m 3.734375,-2.15625 c 0.0625,0 0.328125,0 0.328125,-0.25 0,-0.171875 -0.171875,-0.171875 -0.28125,-0.171875 l -1.609375,0 c -0.984375,0 -1.734375,0.90625 -1.734375,1.640625 0,0.609375 0.484375,1 1.078125,1 0.828125,0 1.6875,-0.703125 1.6875,-1.578125 C 3.203125,-1.796875 3.125,-2 3.015625,-2.15625 Z M 1.53125,-0.140625 c -0.203125,0 -0.640625,-0.078125 -0.640625,-0.65625 0,-0.375 0.203125,-1.359375 1.1875,-1.359375 0.34375,0 0.65625,0.125 0.65625,0.578125 0,0.171875 -0.078125,0.703125 -0.390625,1.046875 -0.234375,0.25 -0.546875,0.390625 -0.8125,0.390625 z m 0,0"
               style="stroke:none"
               inkscape:connector-curvature="0" />
          </symbol>
        </g>
      </defs>
      <g
         id="textext-411cea76-6">
        <g
           id="g6135"
           style="fill:#000000;fill-opacity:1">
          <use
             id="use6137"
             y="134.765"
             x="223.43201"
             xlink:href="#textext-411cea76-1"
             width="100%"
             height="100%" />
        </g>
        <g
           id="g6139"
           style="fill:#000000;fill-opacity:1">
          <use
             id="use6141"
             y="135.761"
             x="229.327"
             xlink:href="#textext-411cea76-3"
             width="100%"
             height="100%" />
        </g>
        <g
           id="g6143"
           style="fill:#000000;fill-opacity:1">
          <use
             id="use6145"
             y="135.761"
             x="235.48213"
             xlink:href="#textext-411cea76-4"
             width="100%"
             height="100%" />
          <use
             id="use6147"
             y="135.761"
             x="237.75124"
             xlink:href="#textext-411cea76-5"
             width="100%"
             height="100%" />
        </g>
      </g>
    </g>
  </g>
</svg>
