<?xml version="1.0" encoding="us-ascii" standalone="no"?><svg xmlns="http://www.w3.org/2000/svg" xmlns:xlink="http://www.w3.org/1999/xlink" contentStyleType="text/css" height="983.2px" preserveAspectRatio="none" style="width:1956px;height:983px;background:#FFFFFF;" version="1.1" viewBox="0 0 1956 983" width="1956px" zoomAndPan="magnify"><defs/><g><!--cluster User Scenario--><g id="cluster_User Scenario"><path d="M1112.4,4.8 L1202,4.8 A3,3 0 0 1 1204,6.8 L1209.6,22.6375 L1948.4,22.6375 A2,2 0 0 1 1950.4,24.6375 L1950.4,353.6 A2,2 0 0 1 1948.4,355.6 L1112.4,355.6 A2,2 0 0 1 1110.4,353.6 L1110.4,6.8 A2,2 0 0 1 1112.4,4.8 " fill="none" style="stroke:#000000;stroke-width:1.2000000000000002;"/><line style="stroke:#000000;stroke-width:1.2000000000000002;" x1="1110.4" x2="1209.6" y1="22.6375" y2="22.6375"/><text fill="#000000" font-family="sans-serif" font-size="11.2" font-weight="bold" lengthAdjust="spacing" textLength="88.8" x="1113.6" y="16.7961">User Scenario</text></g><!--cluster Properties--><g id="cluster_Properties"><path d="M1749.2,52 L1816.4,52 A3,3 0 0 1 1818.4,54 L1824,69.8375 L1916.4,69.8375 A2,2 0 0 1 1918.4,71.8375 L1918.4,182.8 A2,2 0 0 1 1916.4,184.8 L1749.2,184.8 A2,2 0 0 1 1747.2,182.8 L1747.2,54 A2,2 0 0 1 1749.2,52 " fill="none" style="stroke:#000000;stroke-width:1.2000000000000002;"/><line style="stroke:#000000;stroke-width:1.2000000000000002;" x1="1747.2" x2="1824" y1="69.8375" y2="69.8375"/><text fill="#000000" font-family="sans-serif" font-size="11.2" font-weight="bold" lengthAdjust="spacing" textLength="66.4" x="1750.4" y="63.9961">Properties</text></g><!--cluster TTag--><g id="cluster_TTag"><path d="M1781.2,92.8 L1813.2,92.8 A3,3 0 0 1 1815.2,94.8 L1820.8,110.6375 L1890.8,110.6375 A2,2 0 0 1 1892.8,112.6375 L1892.8,157.2 A2,2 0 0 1 1890.8,159.2 L1781.2,159.2 A2,2 0 0 1 1779.2,157.2 L1779.2,94.8 A2,2 0 0 1 1781.2,92.8 " fill="none" style="stroke:#000000;stroke-width:1.2000000000000002;"/><line style="stroke:#000000;stroke-width:1.2000000000000002;" x1="1779.2" x2="1820.8" y1="110.6375" y2="110.6375"/><text fill="#000000" font-family="sans-serif" font-size="11.2" font-weight="bold" lengthAdjust="spacing" textLength="31.2" x="1782.4" y="104.7961">TTag</text></g><!--cluster Dune--><g id="cluster_Dune"><path d="M6.8,819.6 L40.4,819.6 A3,3 0 0 1 42.4,821.6 L48,837.4375 L762.8,837.4375 A2,2 0 0 1 764.8,839.4375 L764.8,976 A2,2 0 0 1 762.8,978 L6.8,978 A2,2 0 0 1 4.8,976 L4.8,821.6 A2,2 0 0 1 6.8,819.6 " fill="none" style="stroke:#000000;stroke-width:1.2000000000000002;"/><line style="stroke:#000000;stroke-width:1.2000000000000002;" x1="4.8" x2="48" y1="837.4375" y2="837.4375"/><text fill="#000000" font-family="sans-serif" font-size="11.2" font-weight="bold" lengthAdjust="spacing" textLength="32.8" x="8" y="831.5961">Dune</text></g><!--cluster dune-istl--><g id="cluster_dune-istl"><path d="M198.8,866.8 L254.8,866.8 A3,3 0 0 1 256.8,868.8 L262.4,884.6375 L574,884.6375 A2,2 0 0 1 576,886.6375 L576,944 A2,2 0 0 1 574,946 L198.8,946 A2,2 0 0 1 196.8,944 L196.8,868.8 A2,2 0 0 1 198.8,866.8 " fill="none" style="stroke:#000000;stroke-width:1.2000000000000002;"/><line style="stroke:#000000;stroke-width:1.2000000000000002;" x1="196.8" x2="262.4" y1="884.6375" y2="884.6375"/><text fill="#000000" font-family="sans-serif" font-size="11.2" font-weight="bold" lengthAdjust="spacing" textLength="55.2" x="200" y="878.7961">dune-istl</text></g><!--cluster dune-grid--><g id="cluster_dune-grid"><path d="M610,866.8 L672.4,866.8 A3,3 0 0 1 674.4,868.8 L680,884.6375 L730.8,884.6375 A2,2 0 0 1 732.8,886.6375 L732.8,944 A2,2 0 0 1 730.8,946 L610,946 A2,2 0 0 1 608,944 L608,868.8 A2,2 0 0 1 610,866.8 " fill="none" style="stroke:#000000;stroke-width:1.2000000000000002;"/><line style="stroke:#000000;stroke-width:1.2000000000000002;" x1="608" x2="680" y1="884.6375" y2="884.6375"/><text fill="#000000" font-family="sans-serif" font-size="11.2" font-weight="bold" lengthAdjust="spacing" textLength="61.6" x="611.2" y="878.7961">dune-grid</text></g><!--cluster dune-common--><g id="cluster_dune-common"><path d="M38.8,873.2 L130,873.2 A3,3 0 0 1 132,875.2 L137.6,891.0375 L169.2,891.0375 A2,2 0 0 1 171.2,893.0375 L171.2,937.6 A2,2 0 0 1 169.2,939.6 L38.8,939.6 A2,2 0 0 1 36.8,937.6 L36.8,875.2 A2,2 0 0 1 38.8,873.2 " fill="none" style="stroke:#000000;stroke-width:1.2000000000000002;"/><line style="stroke:#000000;stroke-width:1.2000000000000002;" x1="36.8" x2="137.6" y1="891.0375" y2="891.0375"/><text fill="#000000" font-family="sans-serif" font-size="11.2" font-weight="bold" lengthAdjust="spacing" textLength="90.4" x="40" y="885.1961">dune-common</text></g><!--cluster DuMux--><g id="cluster_DuMux"><path d="M155.6,229.2 L198.8,229.2 A3,3 0 0 1 200.8,231.2 L206.4,247.0375 L1076.4,247.0375 A2,2 0 0 1 1078.4,249.0375 L1078.4,785.6 A2,2 0 0 1 1076.4,787.6 L155.6,787.6 A2,2 0 0 1 153.6,785.6 L153.6,231.2 A2,2 0 0 1 155.6,229.2 " fill="none" style="stroke:#000000;stroke-width:1.2000000000000002;"/><line style="stroke:#000000;stroke-width:1.2000000000000002;" x1="153.6" x2="206.4" y1="247.0375" y2="247.0375"/><text fill="#000000" font-family="sans-serif" font-size="11.2" font-weight="bold" lengthAdjust="spacing" textLength="42.4" x="156.8" y="241.1961">DuMux</text></g><!--cluster Grid--><g id="cluster_Grid"><path d="M762,562.8 L789.2,562.8 A3,3 0 0 1 791.2,564.8 L796.8,580.6375 L910,580.6375 A2,2 0 0 1 912,582.6375 L912,753.6 A2,2 0 0 1 910,755.6 L762,755.6 A2,2 0 0 1 760,753.6 L760,564.8 A2,2 0 0 1 762,562.8 " fill="none" style="stroke:#000000;stroke-width:1.2000000000000002;"/><line style="stroke:#000000;stroke-width:1.2000000000000002;" x1="760" x2="796.8" y1="580.6375" y2="580.6375"/><text fill="#000000" font-family="sans-serif" font-size="11.2" font-weight="bold" lengthAdjust="spacing" textLength="26.4" x="763.2" y="574.7961">Grid</text></g><!--cluster Variables--><g id="cluster_Variables"><path d="M762,387.6 L821.2,387.6 A3,3 0 0 1 823.2,389.6 L828.8,405.4375 L1044.4,405.4375 A2,2 0 0 1 1046.4,407.4375 L1046.4,528.8 A2,2 0 0 1 1044.4,530.8 L762,530.8 A2,2 0 0 1 760,528.8 L760,389.6 A2,2 0 0 1 762,387.6 " fill="none" style="stroke:#000000;stroke-width:1.2000000000000002;"/><line style="stroke:#000000;stroke-width:1.2000000000000002;" x1="760" x2="828.8" y1="405.4375" y2="405.4375"/><text fill="#000000" font-family="sans-serif" font-size="11.2" font-weight="bold" lengthAdjust="spacing" textLength="58.4" x="763.2" y="399.5961">Variables</text></g><!--cluster Assembly--><g id="cluster_Assembly"><a href="./../html/group___assembly.html" target="_top" title="./../html/group___assembly.html" xlink:actuate="onRequest" xlink:href="./../html/group___assembly.html" xlink:show="new" xlink:title="./../html/group___assembly.html" xlink:type="simple"><path d="M573.2,387.6 L634.8,387.6 A3,3 0 0 1 636.8,389.6 L642.4,405.4375 L726,405.4375 A2,2 0 0 1 728,407.4375 L728,640 A2,2 0 0 1 726,642 L573.2,642 A2,2 0 0 1 571.2,640 L571.2,389.6 A2,2 0 0 1 573.2,387.6 " fill="none" style="stroke:#000000;stroke-width:1.2000000000000002;"/><line style="stroke:#000000;stroke-width:1.2000000000000002;" x1="571.2" x2="642.4" y1="405.4375" y2="405.4375"/><text fill="#000000" font-family="sans-serif" font-size="11.2" font-weight="bold" lengthAdjust="spacing" textLength="60.8" x="574.4" y="399.5961">Assembly</text></a></g><!--cluster Solving--><g id="cluster_Solving"><path d="M194,387.6 L240.4,387.6 A3,3 0 0 1 242.4,389.6 L248,405.4375 L334,405.4375 A2,2 0 0 1 336,407.4375 L336,640 A2,2 0 0 1 334,642 L194,642 A2,2 0 0 1 192,640 L192,389.6 A2,2 0 0 1 194,387.6 " fill="none" style="stroke:#000000;stroke-width:1.2000000000000002;"/><line style="stroke:#000000;stroke-width:1.2000000000000002;" x1="192" x2="248" y1="405.4375" y2="405.4375"/><text fill="#000000" font-family="sans-serif" font-size="11.2" font-weight="bold" lengthAdjust="spacing" textLength="45.6" x="195.2" y="399.5961">Solving</text></g><!--cluster Output--><g id="cluster_Output"><path d="M370,276.4 L414,276.4 A3,3 0 0 1 416,278.4 L421.6,294.2375 L537.2,294.2375 A2,2 0 0 1 539.2,296.2375 L539.2,464.8 A2,2 0 0 1 537.2,466.8 L370,466.8 A2,2 0 0 1 368,464.8 L368,278.4 A2,2 0 0 1 370,276.4 " fill="none" style="stroke:#000000;stroke-width:1.2000000000000002;"/><line style="stroke:#000000;stroke-width:1.2000000000000002;" x1="368" x2="421.6" y1="294.2375" y2="294.2375"/><text fill="#000000" font-family="sans-serif" font-size="11.2" font-weight="bold" lengthAdjust="spacing" textLength="43.2" x="371.2" y="288.3961">Output</text></g><!--class Problem--><g id="elem_Problem"><rect codeLine="10" fill="#F1F1F1" height="25.6" id="Problem" rx="2" ry="2" style="stroke:#181818;stroke-width:0.4000000000000001;" width="71.2" x="1414.8" y="310.8"/><ellipse cx="1426.8" cy="323.6" fill="#ADD1B2" rx="8.8" ry="8.8" style="stroke:#181818;stroke-width:0.8000000000000002;"/><path d="M1429.175,328.1125 Q1428.7125,328.35 1428.2,328.4625 Q1427.6875,328.5875 1427.125,328.5875 Q1425.125,328.5875 1424.0625,327.275 Q1423.0125,325.95 1423.0125,323.45 Q1423.0125,320.95 1424.0625,319.625 Q1425.125,318.3 1427.125,318.3 Q1427.6875,318.3 1428.2,318.425 Q1428.725,318.55 1429.175,318.7875 L1429.175,320.9625 Q1428.675,320.5 1428.2,320.2875 Q1427.725,320.0625 1427.225,320.0625 Q1426.15,320.0625 1425.6,320.925 Q1425.05,321.775 1425.05,323.45 Q1425.05,325.125 1425.6,325.9875 Q1426.15,326.8375 1427.225,326.8375 Q1427.725,326.8375 1428.2,326.625 Q1428.675,326.4 1429.175,325.9375 L1429.175,328.1125 Z " fill="#000000"/><text fill="#000000" font-family="sans-serif" font-size="11.2" lengthAdjust="spacing" textLength="45.6" x="1438" y="327.4773">Problem</text></g><!--class SpatialParams--><g id="elem_SpatialParams"><rect codeLine="11" fill="#F1F1F1" height="25.6" id="SpatialParams" rx="2" ry="2" style="stroke:#181818;stroke-width:0.4000000000000001;" width="102.4" x="1510.4" y="310.8"/><ellipse cx="1522.4" cy="323.6" fill="#ADD1B2" rx="8.8" ry="8.8" style="stroke:#181818;stroke-width:0.8000000000000002;"/><path d="M1524.775,328.1125 Q1524.3125,328.35 1523.8,328.4625 Q1523.2875,328.5875 1522.725,328.5875 Q1520.725,328.5875 1519.6625,327.275 Q1518.6125,325.95 1518.6125,323.45 Q1518.6125,320.95 1519.6625,319.625 Q1520.725,318.3 1522.725,318.3 Q1523.2875,318.3 1523.8,318.425 Q1524.325,318.55 1524.775,318.7875 L1524.775,320.9625 Q1524.275,320.5 1523.8,320.2875 Q1523.325,320.0625 1522.825,320.0625 Q1521.75,320.0625 1521.2,320.925 Q1520.65,321.775 1520.65,323.45 Q1520.65,325.125 1521.2,325.9875 Q1521.75,326.8375 1522.825,326.8375 Q1523.325,326.8375 1523.8,326.625 Q1524.275,326.4 1524.775,325.9375 L1524.775,328.1125 Z " fill="#000000"/><text fill="#000000" font-family="sans-serif" font-size="11.2" lengthAdjust="spacing" textLength="76.8" x="1533.6" y="327.4773">SpatialParams</text></g><!--entity params--><g id="elem_params"><path d="M1140.8,98.4 L1140.8,168.95 A2,2 0 0 0 1142.8,170.95 L1289.2,170.95 A2,2 0 0 0 1291.2,168.95 L1291.2,104.4 L1283.2,96.4 L1142.8,96.4 A2,2 0 0 0 1140.8,98.4 " fill="#F1F1F1" style="stroke:#181818;stroke-width:0.4000000000000001;"/><path d="M1283.2,96.4 L1283.2,102.4 A2,2 0 0 0 1285.2,104.4 L1291.2,104.4 " fill="#F1F1F1" style="stroke:#181818;stroke-width:0.4000000000000001;"/><text fill="#000000" font-family="sans-serif" font-size="11.2" lengthAdjust="spacing" textLength="72" x="1148.8" y="114.7961">params.input</text><line style="stroke:#181818;stroke-width:0.8000000000000002;" x1="1141.6" x2="1290.4" y1="117.4375" y2="117.4375"/><text fill="#000000" font-family="monospace" font-size="11.2" lengthAdjust="spacing" textLength="64" x="1148.8" y="131.0336">[TimeLoop]</text><text fill="#000000" font-family="monospace" font-size="11.2" lengthAdjust="spacing" textLength="134.4" x="1148.8" y="144.0711">DtInitial&#160;=&#160;250&#160;#&#160;[s]</text><text fill="#000000" font-family="monospace" font-size="11.2" lengthAdjust="spacing" textLength="19.2" x="1148.8" y="157.1086">...</text></g><!--entity main--><g id="elem_main"><path d="M1315.2,59.2 L1315.2,207.975 A2,2 0 0 0 1317.2,209.975 L1726,209.975 A2,2 0 0 0 1728,207.975 L1728,65.2 L1720,57.2 L1317.2,57.2 A2,2 0 0 0 1315.2,59.2 " fill="#F1F1F1" style="stroke:#181818;stroke-width:0.4000000000000001;"/><path d="M1720,57.2 L1720,63.2 A2,2 0 0 0 1722,65.2 L1728,65.2 " fill="#F1F1F1" style="stroke:#181818;stroke-width:0.4000000000000001;"/><text fill="#000000" font-family="sans-serif" font-size="11.2" lengthAdjust="spacing" textLength="42.4" x="1323.2" y="75.5961">main.cc</text><line style="stroke:#181818;stroke-width:0.8000000000000002;" x1="1316" x2="1727.2" y1="78.2375" y2="78.2375"/><text fill="#000000" font-family="monospace" font-size="11.2" lengthAdjust="spacing" textLength="198.4" x="1323.2" y="91.8336">int&#160;main(int&#160;argc,&#160;char**&#160;argv)</text><text fill="#000000" font-family="monospace" font-size="11.2" lengthAdjust="spacing" textLength="6.4" x="1323.2" y="104.8711">{</text><text fill="#000000" font-family="monospace" font-size="11.2" lengthAdjust="spacing" textLength="19.2" x="1348.8" y="117.9086">...</text><text fill="#000000" font-family="monospace" font-size="11.2" lengthAdjust="spacing" textLength="243.2" x="1348.8" y="130.9461">using&#160;TypeTag&#160;=&#160;Properties::TTag::...;</text><text fill="#000000" font-family="monospace" font-size="11.2" lengthAdjust="spacing" textLength="19.2" x="1348.8" y="143.9836">...</text><text fill="#000000" font-family="monospace" font-size="11.2" lengthAdjust="spacing" textLength="371.2" x="1348.8" y="157.0211">using&#160;Problem&#160;=&#160;GetPropType&lt;TypeTag,&#160;Properties::Problem&gt;;</text><text fill="#000000" font-family="monospace" font-size="11.2" lengthAdjust="spacing" textLength="352" x="1348.8" y="170.0586">auto&#160;problem&#160;=&#160;std::make_shared&lt;Problem&gt;(gridGeometry);</text><text fill="#000000" font-family="monospace" font-size="11.2" lengthAdjust="spacing" textLength="19.2" x="1348.8" y="183.0961">...</text><text fill="#000000" font-family="monospace" font-size="11.2" lengthAdjust="spacing" textLength="6.4" x="1323.2" y="196.1336">}</text></g><!--class MyTypeTag--><g id="elem_MyTypeTag"><rect codeLine="38" fill="#F1F1F1" height="25.6" id="MyTypeTag" rx="2" ry="2" style="stroke:#181818;stroke-width:0.4000000000000001;" width="88.8" x="1791.6" y="120.8"/><ellipse cx="1803.6" cy="133.6" fill="#F1F1F1" rx="8.8" ry="8.8" style="stroke:#181818;stroke-width:0.8000000000000002;"/><path d="M1803.1875,134.05 Q1801.7,133.4875 1801.175,132.875 Q1800.6625,132.25 1800.6625,131.2 Q1800.6625,129.85 1801.525,129.075 Q1802.3875,128.3 1803.8875,128.3 Q1804.575,128.3 1805.25,128.4625 Q1805.9375,128.6125 1806.6125,128.925 L1806.6125,130.8375 Q1805.9875,130.3875 1805.325,130.1625 Q1804.675,129.925 1804.0375,129.925 Q1803.3375,129.925 1802.95,130.2125 Q1802.575,130.5 1802.575,131.025 Q1802.575,131.4375 1802.85,131.7125 Q1803.125,131.975 1804,132.3 L1804.85,132.625 Q1806.0375,133.0625 1806.6,133.7875 Q1807.175,134.5125 1807.175,135.6125 Q1807.175,137.1125 1806.2875,137.85 Q1805.4,138.5875 1803.6,138.5875 Q1802.8625,138.5875 1802.125,138.4125 Q1801.3875,138.2375 1800.7,137.9 L1800.7,135.875 Q1801.475,136.425 1802.2125,136.7 Q1802.95,136.975 1803.6625,136.975 Q1804.3875,136.975 1804.7875,136.65 Q1805.1875,136.3125 1805.1875,135.725 Q1805.1875,135.275 1804.9125,134.95 Q1804.65,134.6125 1804.15,134.4125 L1803.1875,134.05 Z " fill="#000000"/><text fill="#000000" font-family="sans-serif" font-size="11.2" lengthAdjust="spacing" textLength="63.2" x="1814.8" y="137.4773">MyTypeTag</text></g><!--class ISTL solvers--><g id="elem_ISTL solvers"><rect codeLine="44" fill="#F1F1F1" height="25.6" id="ISTL solvers" rx="2" ry="2" style="stroke:#181818;stroke-width:0.4000000000000001;" width="90.4" x="227.6" y="901.2"/><ellipse cx="239.6" cy="914" fill="#ADD1B2" rx="8.8" ry="8.8" style="stroke:#181818;stroke-width:0.8000000000000002;"/><path d="M241.975,918.5125 Q241.5125,918.75 241,918.8625 Q240.4875,918.9875 239.925,918.9875 Q237.925,918.9875 236.8625,917.675 Q235.8125,916.35 235.8125,913.85 Q235.8125,911.35 236.8625,910.025 Q237.925,908.7 239.925,908.7 Q240.4875,908.7 241,908.825 Q241.525,908.95 241.975,909.1875 L241.975,911.3625 Q241.475,910.9 241,910.6875 Q240.525,910.4625 240.025,910.4625 Q238.95,910.4625 238.4,911.325 Q237.85,912.175 237.85,913.85 Q237.85,915.525 238.4,916.3875 Q238.95,917.2375 240.025,917.2375 Q240.525,917.2375 241,917.025 Q241.475,916.8 241.975,916.3375 L241.975,918.5125 Z " fill="#000000"/><text fill="#000000" font-family="sans-serif" font-size="11.2" lengthAdjust="spacing" textLength="64.8" x="250.8" y="917.8773">ISTL solvers</text></g><!--class ISTL matrices--><g id="elem_ISTL matrices"><rect codeLine="45" fill="#F1F1F1" height="25.6" id="ISTL matrices" rx="2" ry="2" style="stroke:#181818;stroke-width:0.4000000000000001;" width="98.4" x="458" y="901.2"/><ellipse cx="470" cy="914" fill="#ADD1B2" rx="8.8" ry="8.8" style="stroke:#181818;stroke-width:0.8000000000000002;"/><path d="M472.375,918.5125 Q471.9125,918.75 471.4,918.8625 Q470.8875,918.9875 470.325,918.9875 Q468.325,918.9875 467.2625,917.675 Q466.2125,916.35 466.2125,913.85 Q466.2125,911.35 467.2625,910.025 Q468.325,908.7 470.325,908.7 Q470.8875,908.7 471.4,908.825 Q471.925,908.95 472.375,909.1875 L472.375,911.3625 Q471.875,910.9 471.4,910.6875 Q470.925,910.4625 470.425,910.4625 Q469.35,910.4625 468.8,911.325 Q468.25,912.175 468.25,913.85 Q468.25,915.525 468.8,916.3875 Q469.35,917.2375 470.425,917.2375 Q470.925,917.2375 471.4,917.025 Q471.875,916.8 472.375,916.3375 L472.375,918.5125 Z " fill="#000000"/><text fill="#000000" font-family="sans-serif" font-size="11.2" lengthAdjust="spacing" textLength="72.8" x="481.2" y="917.8773">ISTL matrices</text></g><!--class ISTL vectors--><g id="elem_ISTL vectors"><rect codeLine="46" fill="#F1F1F1" height="25.6" id="ISTL vectors" rx="2" ry="2" style="stroke:#181818;stroke-width:0.4000000000000001;" width="92" x="342" y="901.2"/><ellipse cx="354" cy="914" fill="#ADD1B2" rx="8.8" ry="8.8" style="stroke:#181818;stroke-width:0.8000000000000002;"/><path d="M356.375,918.5125 Q355.9125,918.75 355.4,918.8625 Q354.8875,918.9875 354.325,918.9875 Q352.325,918.9875 351.2625,917.675 Q350.2125,916.35 350.2125,913.85 Q350.2125,911.35 351.2625,910.025 Q352.325,908.7 354.325,908.7 Q354.8875,908.7 355.4,908.825 Q355.925,908.95 356.375,909.1875 L356.375,911.3625 Q355.875,910.9 355.4,910.6875 Q354.925,910.4625 354.425,910.4625 Q353.35,910.4625 352.8,911.325 Q352.25,912.175 352.25,913.85 Q352.25,915.525 352.8,916.3875 Q353.35,917.2375 354.425,917.2375 Q354.925,917.2375 355.4,917.025 Q355.875,916.8 356.375,916.3375 L356.375,918.5125 Z " fill="#000000"/><text fill="#000000" font-family="sans-serif" font-size="11.2" lengthAdjust="spacing" textLength="66.4" x="365.2" y="917.8773">ISTL vectors</text></g><!--class YaspGrid--><g id="elem_YaspGrid"><rect codeLine="49" fill="#F1F1F1" height="25.6" id="YaspGrid" rx="2" ry="2" style="stroke:#181818;stroke-width:0.4000000000000001;" width="75.2" x="638.4" y="901.2"/><ellipse cx="650.4" cy="914" fill="#ADD1B2" rx="8.8" ry="8.8" style="stroke:#181818;stroke-width:0.8000000000000002;"/><path d="M652.775,918.5125 Q652.3125,918.75 651.8,918.8625 Q651.2875,918.9875 650.725,918.9875 Q648.725,918.9875 647.6625,917.675 Q646.6125,916.35 646.6125,913.85 Q646.6125,911.35 647.6625,910.025 Q648.725,908.7 650.725,908.7 Q651.2875,908.7 651.8,908.825 Q652.325,908.95 652.775,909.1875 L652.775,911.3625 Q652.275,910.9 651.8,910.6875 Q651.325,910.4625 650.825,910.4625 Q649.75,910.4625 649.2,911.325 Q648.65,912.175 648.65,913.85 Q648.65,915.525 649.2,916.3875 Q649.75,917.2375 650.825,917.2375 Q651.325,917.2375 651.8,917.025 Q652.275,916.8 652.775,916.3375 L652.775,918.5125 Z " fill="#000000"/><text fill="#000000" font-family="sans-serif" font-size="11.2" lengthAdjust="spacing" textLength="49.6" x="661.6" y="917.8773">YaspGrid</text></g><!--class ParameterTree--><g id="elem_ParameterTree"><rect codeLine="52" fill="#F1F1F1" height="25.6" id="ParameterTree" rx="2" ry="2" style="stroke:#181818;stroke-width:0.4000000000000001;" width="108" x="50" y="901.2"/><ellipse cx="62" cy="914" fill="#ADD1B2" rx="8.8" ry="8.8" style="stroke:#181818;stroke-width:0.8000000000000002;"/><path d="M64.375,918.5125 Q63.9125,918.75 63.4,918.8625 Q62.8875,918.9875 62.325,918.9875 Q60.325,918.9875 59.2625,917.675 Q58.2125,916.35 58.2125,913.85 Q58.2125,911.35 59.2625,910.025 Q60.325,908.7 62.325,908.7 Q62.8875,908.7 63.4,908.825 Q63.925,908.95 64.375,909.1875 L64.375,911.3625 Q63.875,910.9 63.4,910.6875 Q62.925,910.4625 62.425,910.4625 Q61.35,910.4625 60.8,911.325 Q60.25,912.175 60.25,913.85 Q60.25,915.525 60.8,916.3875 Q61.35,917.2375 62.425,917.2375 Q62.925,917.2375 63.4,917.025 Q63.875,916.8 64.375,916.3375 L64.375,918.5125 Z " fill="#000000"/><text fill="#000000" font-family="sans-serif" font-size="11.2" lengthAdjust="spacing" textLength="82.4" x="73.2" y="917.8773">ParameterTree</text></g><!--class GridManager--><g id="elem_GridManager"><rect codeLine="57" fill="#F1F1F1" height="25.6" id="GridManager" rx="2" ry="2" style="stroke:#181818;stroke-width:0.4000000000000001;" width="96" x="792" y="710.8"/><ellipse cx="804" cy="723.6" fill="#B4A7E5" rx="8.8" ry="8.8" style="stroke:#181818;stroke-width:0.8000000000000002;"/><path d="M800.7375,720.2125 L800.7375,718.4875 L806.65,718.4875 L806.65,720.2125 L804.675,720.2125 L804.675,726.675 L806.65,726.675 L806.65,728.4 L800.7375,728.4 L800.7375,726.675 L802.7125,726.675 L802.7125,720.2125 L800.7375,720.2125 Z " fill="#000000"/><text fill="#000000" font-family="sans-serif" font-size="11.2" font-style="italic" lengthAdjust="spacing" textLength="70.4" x="815.2" y="727.4773">GridManager</text></g><!--class GridView--><g id="elem_GridView"><rect codeLine="58" fill="#F1F1F1" height="25.6" id="GridView" rx="2" ry="2" style="stroke:#181818;stroke-width:0.4000000000000001;" width="74.4" x="803.6" y="661.2"/><ellipse cx="815.6" cy="674" fill="#B4A7E5" rx="8.8" ry="8.8" style="stroke:#181818;stroke-width:0.8000000000000002;"/><path d="M812.3375,670.6125 L812.3375,668.8875 L818.25,668.8875 L818.25,670.6125 L816.275,670.6125 L816.275,677.075 L818.25,677.075 L818.25,678.8 L812.3375,678.8 L812.3375,677.075 L814.3125,677.075 L814.3125,670.6125 L812.3375,670.6125 Z " fill="#000000"/><text fill="#000000" font-family="sans-serif" font-size="11.2" font-style="italic" lengthAdjust="spacing" textLength="48.8" x="826.8" y="677.8773">GridView</text></g><!--class GridGeometry--><g id="elem_GridGeometry"><rect codeLine="59" fill="#F1F1F1" height="25.6" id="GridGeometry" rx="2" ry="2" style="stroke:#181818;stroke-width:0.4000000000000001;" width="102.4" x="790.4" y="597.2"/><ellipse cx="802.4" cy="610" fill="#ADD1B2" rx="8.8" ry="8.8" style="stroke:#181818;stroke-width:0.8000000000000002;"/><path d="M804.775,614.5125 Q804.3125,614.75 803.8,614.8625 Q803.2875,614.9875 802.725,614.9875 Q800.725,614.9875 799.6625,613.675 Q798.6125,612.35 798.6125,609.85 Q798.6125,607.35 799.6625,606.025 Q800.725,604.7 802.725,604.7 Q803.2875,604.7 803.8,604.825 Q804.325,604.95 804.775,605.1875 L804.775,607.3625 Q804.275,606.9 803.8,606.6875 Q803.325,606.4625 802.825,606.4625 Q801.75,606.4625 801.2,607.325 Q800.65,608.175 800.65,609.85 Q800.65,611.525 801.2,612.3875 Q801.75,613.2375 802.825,613.2375 Q803.325,613.2375 803.8,613.025 Q804.275,612.8 804.775,612.3375 L804.775,614.5125 Z " fill="#000000"/><text fill="#000000" font-family="sans-serif" font-size="11.2" lengthAdjust="spacing" textLength="76.8" x="813.6" y="613.8773">GridGeometry</text></g><!--class GridVariables--><g id="elem_GridVariables"><rect codeLine="62" fill="#F1F1F1" height="25.6" id="GridVariables" rx="2" ry="2" style="stroke:#181818;stroke-width:0.4000000000000001;" width="97.6" x="790.4" y="422"/><ellipse cx="802.4" cy="434.8" fill="#ADD1B2" rx="8.8" ry="8.8" style="stroke:#181818;stroke-width:0.8000000000000002;"/><path d="M804.775,439.3125 Q804.3125,439.55 803.8,439.6625 Q803.2875,439.7875 802.725,439.7875 Q800.725,439.7875 799.6625,438.475 Q798.6125,437.15 798.6125,434.65 Q798.6125,432.15 799.6625,430.825 Q800.725,429.5 802.725,429.5 Q803.2875,429.5 803.8,429.625 Q804.325,429.75 804.775,429.9875 L804.775,432.1625 Q804.275,431.7 803.8,431.4875 Q803.325,431.2625 802.825,431.2625 Q801.75,431.2625 801.2,432.125 Q800.65,432.975 800.65,434.65 Q800.65,436.325 801.2,437.1875 Q801.75,438.0375 802.825,438.0375 Q803.325,438.0375 803.8,437.825 Q804.275,437.6 804.775,437.1375 L804.775,439.3125 Z " fill="#000000"/><text fill="#000000" font-family="sans-serif" font-size="11.2" lengthAdjust="spacing" textLength="72" x="813.6" y="438.6773">GridVariables</text></g><!--class PrimaryVariables--><g id="elem_PrimaryVariables"><rect codeLine="63" fill="#F1F1F1" height="25.6" id="PrimaryVariables" rx="2" ry="2" style="stroke:#181818;stroke-width:0.4000000000000001;" width="115.2" x="912" y="422"/><ellipse cx="924" cy="434.8" fill="#ADD1B2" rx="8.8" ry="8.8" style="stroke:#181818;stroke-width:0.8000000000000002;"/><path d="M926.375,439.3125 Q925.9125,439.55 925.4,439.6625 Q924.8875,439.7875 924.325,439.7875 Q922.325,439.7875 921.2625,438.475 Q920.2125,437.15 920.2125,434.65 Q920.2125,432.15 921.2625,430.825 Q922.325,429.5 924.325,429.5 Q924.8875,429.5 925.4,429.625 Q925.925,429.75 926.375,429.9875 L926.375,432.1625 Q925.875,431.7 925.4,431.4875 Q924.925,431.2625 924.425,431.2625 Q923.35,431.2625 922.8,432.125 Q922.25,432.975 922.25,434.65 Q922.25,436.325 922.8,437.1875 Q923.35,438.0375 924.425,438.0375 Q924.925,438.0375 925.4,437.825 Q925.875,437.6 926.375,437.1375 L926.375,439.3125 Z " fill="#000000"/><text fill="#000000" font-family="sans-serif" font-size="11.2" lengthAdjust="spacing" textLength="89.6" x="935.2" y="438.6773">PrimaryVariables</text></g><!--class SolutionVector--><g id="elem_SolutionVector"><rect codeLine="64" fill="#F1F1F1" height="25.6" id="SolutionVector" rx="2" ry="2" style="stroke:#181818;stroke-width:0.4000000000000001;" width="106.4" x="916.4" y="486"/><ellipse cx="928.4" cy="498.8" fill="#ADD1B2" rx="8.8" ry="8.8" style="stroke:#181818;stroke-width:0.8000000000000002;"/><path d="M930.775,503.3125 Q930.3125,503.55 929.8,503.6625 Q929.2875,503.7875 928.725,503.7875 Q926.725,503.7875 925.6625,502.475 Q924.6125,501.15 924.6125,498.65 Q924.6125,496.15 925.6625,494.825 Q926.725,493.5 928.725,493.5 Q929.2875,493.5 929.8,493.625 Q930.325,493.75 930.775,493.9875 L930.775,496.1625 Q930.275,495.7 929.8,495.4875 Q929.325,495.2625 928.825,495.2625 Q927.75,495.2625 927.2,496.125 Q926.65,496.975 926.65,498.65 Q926.65,500.325 927.2,501.1875 Q927.75,502.0375 928.825,502.0375 Q929.325,502.0375 929.8,501.825 Q930.275,501.6 930.775,501.1375 L930.775,503.3125 Z " fill="#000000"/><text fill="#000000" font-family="sans-serif" font-size="11.2" lengthAdjust="spacing" textLength="80.8" x="939.6" y="502.6773">SolutionVector</text></g><!--class Assembler--><g id="elem_Assembler"><rect codeLine="67" fill="#F1F1F1" height="25.6" id="Assembler" rx="2" ry="2" style="stroke:#181818;stroke-width:0.4000000000000001;" width="84" x="624.4" y="597.2"/><ellipse cx="636.4" cy="610" fill="#ADD1B2" rx="8.8" ry="8.8" style="stroke:#181818;stroke-width:0.8000000000000002;"/><path d="M638.775,614.5125 Q638.3125,614.75 637.8,614.8625 Q637.2875,614.9875 636.725,614.9875 Q634.725,614.9875 633.6625,613.675 Q632.6125,612.35 632.6125,609.85 Q632.6125,607.35 633.6625,606.025 Q634.725,604.7 636.725,604.7 Q637.2875,604.7 637.8,604.825 Q638.325,604.95 638.775,605.1875 L638.775,607.3625 Q638.275,606.9 637.8,606.6875 Q637.325,606.4625 636.825,606.4625 Q635.75,606.4625 635.2,607.325 Q634.65,608.175 634.65,609.85 Q634.65,611.525 635.2,612.3875 Q635.75,613.2375 636.825,613.2375 Q637.325,613.2375 637.8,613.025 Q638.275,612.8 638.775,612.3375 L638.775,614.5125 Z " fill="#000000"/><text fill="#000000" font-family="sans-serif" font-size="11.2" lengthAdjust="spacing" textLength="58.4" x="647.6" y="613.8773">Assembler</text></g><!--class LocalAssembler--><g id="elem_LocalAssembler"><rect codeLine="68" fill="#F1F1F1" height="25.6" id="LocalAssembler" rx="2" ry="2" style="stroke:#181818;stroke-width:0.4000000000000001;" width="112" x="596.8" y="486"/><ellipse cx="608.8" cy="498.8" fill="#ADD1B2" rx="8.8" ry="8.8" style="stroke:#181818;stroke-width:0.8000000000000002;"/><path d="M611.175,503.3125 Q610.7125,503.55 610.2,503.6625 Q609.6875,503.7875 609.125,503.7875 Q607.125,503.7875 606.0625,502.475 Q605.0125,501.15 605.0125,498.65 Q605.0125,496.15 606.0625,494.825 Q607.125,493.5 609.125,493.5 Q609.6875,493.5 610.2,493.625 Q610.725,493.75 611.175,493.9875 L611.175,496.1625 Q610.675,495.7 610.2,495.4875 Q609.725,495.2625 609.225,495.2625 Q608.15,495.2625 607.6,496.125 Q607.05,496.975 607.05,498.65 Q607.05,500.325 607.6,501.1875 Q608.15,502.0375 609.225,502.0375 Q609.725,502.0375 610.2,501.825 Q610.675,501.6 611.175,501.1375 L611.175,503.3125 Z " fill="#000000"/><text fill="#000000" font-family="sans-serif" font-size="11.2" lengthAdjust="spacing" textLength="86.4" x="620" y="502.6773">LocalAssembler</text></g><!--class LocalResidual--><g id="elem_LocalResidual"><rect codeLine="69" fill="#F1F1F1" height="25.6" id="LocalResidual" rx="2" ry="2" style="stroke:#181818;stroke-width:0.4000000000000001;" width="100.8" x="604.8" y="422"/><ellipse cx="616.8" cy="434.8" fill="#ADD1B2" rx="8.8" ry="8.8" style="stroke:#181818;stroke-width:0.8000000000000002;"/><path d="M619.175,439.3125 Q618.7125,439.55 618.2,439.6625 Q617.6875,439.7875 617.125,439.7875 Q615.125,439.7875 614.0625,438.475 Q613.0125,437.15 613.0125,434.65 Q613.0125,432.15 614.0625,430.825 Q615.125,429.5 617.125,429.5 Q617.6875,429.5 618.2,429.625 Q618.725,429.75 619.175,429.9875 L619.175,432.1625 Q618.675,431.7 618.2,431.4875 Q617.725,431.2625 617.225,431.2625 Q616.15,431.2625 615.6,432.125 Q615.05,432.975 615.05,434.65 Q615.05,436.325 615.6,437.1875 Q616.15,438.0375 617.225,438.0375 Q617.725,438.0375 618.2,437.825 Q618.675,437.6 619.175,437.1375 L619.175,439.3125 Z " fill="#000000"/><text fill="#000000" font-family="sans-serif" font-size="11.2" lengthAdjust="spacing" textLength="75.2" x="628" y="438.6773">LocalResidual</text></g><!--class PDESolver--><a href="./../html/group___nonlinear.html" target="_top" title="./../html/group___nonlinear.html" xlink:actuate="onRequest" xlink:href="./../html/group___nonlinear.html" xlink:show="new" xlink:title="./../html/group___nonlinear.html" xlink:type="simple"><g id="elem_PDESolver"><rect codeLine="73" fill="#F1F1F1" height="25.6" id="PDESolver" rx="2" ry="2" style="stroke:#181818;stroke-width:0.4000000000000001;" width="82.4" x="234" y="486"/><ellipse cx="246" cy="498.8" fill="#ADD1B2" rx="8.8" ry="8.8" style="stroke:#181818;stroke-width:0.8000000000000002;"/><path d="M248.375,503.3125 Q247.9125,503.55 247.4,503.6625 Q246.8875,503.7875 246.325,503.7875 Q244.325,503.7875 243.2625,502.475 Q242.2125,501.15 242.2125,498.65 Q242.2125,496.15 243.2625,494.825 Q244.325,493.5 246.325,493.5 Q246.8875,493.5 247.4,493.625 Q247.925,493.75 248.375,493.9875 L248.375,496.1625 Q247.875,495.7 247.4,495.4875 Q246.925,495.2625 246.425,495.2625 Q245.35,495.2625 244.8,496.125 Q244.25,496.975 244.25,498.65 Q244.25,500.325 244.8,501.1875 Q245.35,502.0375 246.425,502.0375 Q246.925,502.0375 247.4,501.825 Q247.875,501.6 248.375,501.1375 L248.375,503.3125 Z " fill="#000000"/><text fill="#000000" font-family="sans-serif" font-size="11.2" lengthAdjust="spacing" textLength="56.8" x="257.2" y="502.6773">PDESolver</text></g></a><!--class LinearSolver--><a href="./../html/group___linear.html" target="_top" title="./../html/group___linear.html" xlink:actuate="onRequest" xlink:href="./../html/group___linear.html" xlink:show="new" xlink:title="./../html/group___linear.html" xlink:type="simple"><g id="elem_LinearSolver"><rect codeLine="74" fill="#F1F1F1" height="25.6" id="LinearSolver" rx="2" ry="2" style="stroke:#181818;stroke-width:0.4000000000000001;" width="93.6" x="222.8" y="422"/><ellipse cx="234.8" cy="434.8" fill="#B4A7E5" rx="8.8" ry="8.8" style="stroke:#181818;stroke-width:0.8000000000000002;"/><path d="M231.5375,431.4125 L231.5375,429.6875 L237.45,429.6875 L237.45,431.4125 L235.475,431.4125 L235.475,437.875 L237.45,437.875 L237.45,439.6 L231.5375,439.6 L231.5375,437.875 L233.5125,437.875 L233.5125,431.4125 L231.5375,431.4125 Z " fill="#000000"/><text fill="#000000" font-family="sans-serif" font-size="11.2" font-style="italic" lengthAdjust="spacing" textLength="68" x="246" y="438.6773">LinearSolver</text></g></a><!--class TimeLoop--><g id="elem_TimeLoop"><rect codeLine="75" fill="#F1F1F1" height="25.6" id="TimeLoop" rx="2" ry="2" style="stroke:#181818;stroke-width:0.4000000000000001;" width="80" x="236" y="597.2"/><ellipse cx="248" cy="610" fill="#ADD1B2" rx="8.8" ry="8.8" style="stroke:#181818;stroke-width:0.8000000000000002;"/><path d="M250.375,614.5125 Q249.9125,614.75 249.4,614.8625 Q248.8875,614.9875 248.325,614.9875 Q246.325,614.9875 245.2625,613.675 Q244.2125,612.35 244.2125,609.85 Q244.2125,607.35 245.2625,606.025 Q246.325,604.7 248.325,604.7 Q248.8875,604.7 249.4,604.825 Q249.925,604.95 250.375,605.1875 L250.375,607.3625 Q249.875,606.9 249.4,606.6875 Q248.925,606.4625 248.425,606.4625 Q247.35,606.4625 246.8,607.325 Q246.25,608.175 246.25,609.85 Q246.25,611.525 246.8,612.3875 Q247.35,613.2375 248.425,613.2375 Q248.925,613.2375 249.4,613.025 Q249.875,612.8 250.375,612.3375 L250.375,614.5125 Z " fill="#000000"/><text fill="#000000" font-family="sans-serif" font-size="11.2" lengthAdjust="spacing" textLength="54.4" x="259.2" y="613.8773">TimeLoop</text></g><!--class IOField--><g id="elem_IOField"><rect codeLine="78" fill="#F1F1F1" height="25.6" id="IOField" rx="2" ry="2" style="stroke:#181818;stroke-width:0.4000000000000001;" width="62.4" x="441.6" y="310.8"/><ellipse cx="453.6" cy="323.6" fill="#ADD1B2" rx="8.8" ry="8.8" style="stroke:#181818;stroke-width:0.8000000000000002;"/><path d="M455.975,328.1125 Q455.5125,328.35 455,328.4625 Q454.4875,328.5875 453.925,328.5875 Q451.925,328.5875 450.8625,327.275 Q449.8125,325.95 449.8125,323.45 Q449.8125,320.95 450.8625,319.625 Q451.925,318.3 453.925,318.3 Q454.4875,318.3 455,318.425 Q455.525,318.55 455.975,318.7875 L455.975,320.9625 Q455.475,320.5 455,320.2875 Q454.525,320.0625 454.025,320.0625 Q452.95,320.0625 452.4,320.925 Q451.85,321.775 451.85,323.45 Q451.85,325.125 452.4,325.9875 Q452.95,326.8375 454.025,326.8375 Q454.525,326.8375 455,326.625 Q455.475,326.4 455.975,325.9375 L455.975,328.1125 Z " fill="#000000"/><text fill="#000000" font-family="sans-serif" font-size="11.2" lengthAdjust="spacing" textLength="36.8" x="464.8" y="327.4773">IOField</text></g><!--class VTKOutputModule--><g id="elem_VTKOutputModule"><rect codeLine="79" fill="#F1F1F1" height="25.6" id="VTKOutputModule" rx="2" ry="2" style="stroke:#181818;stroke-width:0.4000000000000001;" width="126.4" x="393.6" y="422"/><ellipse cx="405.6" cy="434.8" fill="#ADD1B2" rx="8.8" ry="8.8" style="stroke:#181818;stroke-width:0.8000000000000002;"/><path d="M407.975,439.3125 Q407.5125,439.55 407,439.6625 Q406.4875,439.7875 405.925,439.7875 Q403.925,439.7875 402.8625,438.475 Q401.8125,437.15 401.8125,434.65 Q401.8125,432.15 402.8625,430.825 Q403.925,429.5 405.925,429.5 Q406.4875,429.5 407,429.625 Q407.525,429.75 407.975,429.9875 L407.975,432.1625 Q407.475,431.7 407,431.4875 Q406.525,431.2625 406.025,431.2625 Q404.95,431.2625 404.4,432.125 Q403.85,432.975 403.85,434.65 Q403.85,436.325 404.4,437.1875 Q404.95,438.0375 406.025,438.0375 Q406.525,438.0375 407,437.825 Q407.475,437.6 407.975,437.1375 L407.975,439.3125 Z " fill="#000000"/><text fill="#000000" font-family="sans-serif" font-size="11.2" lengthAdjust="spacing" textLength="100.8" x="416.8" y="438.6773">VTKOutputModule</text></g><!--link DuMux to Dune--><!--link User Scenario to DuMux--><!--link User Scenario to DuMux--><!--link dune-grid to dune-istl--><!--link ISTL solvers to ISTL matrices--><!--link ISTL matrices to ISTL vectors--><!--link ISTL vectors to ParameterTree--><!--link YaspGrid to ISTL matrices--><!--link Output to Solving--><!--link Output to Solving--><!--link Solving to Assembly--><!--link Solving to Assembly--><!--link Assembly to Variables--><!--link Assembly to Variables--><!--link Assembly to Variables--><!--link Variables to Grid--><!--link Variables to Grid--><!--link Variables to ISTL vectors--><!--reverse link LinearSolver to ISTL solvers--><g id="link_LinearSolver_ISTL solvers"><path codeLine="97" d="M230.8,452.416 C230.8,520.36 230.8,833.104 230.8,901.144 " fill="none" id="LinearSolver-backto-ISTL solvers" style="stroke:#181818;stroke-width:0.8000000000000002;"/><polygon fill="#181818" points="230.8,447.616,227.6,454.816,230.8,451.616,234,454.816,230.8,447.616" style="stroke:#181818;stroke-width:0.8000000000000002;"/></g><!--reverse link Assembler to ISTL matrices--><g id="link_Assembler_ISTL matrices"><path codeLine="98" d="M631.4,627.968 C631.4,685.568 631.4,907.6 631.4,907.6 C631.4,907.6 591.28,907.6 556.64,907.6 " fill="none" id="Assembler-backto-ISTL matrices" style="stroke:#181818;stroke-width:0.8000000000000002;"/><polygon fill="#181818" points="631.4,623.168,628.2,630.368,631.4,627.168,634.6,630.368,631.4,623.168" style="stroke:#181818;stroke-width:0.8000000000000002;"/></g><!--reverse link LinearSolver to ISTL vectors--><g id="link_LinearSolver_ISTL vectors"><path codeLine="99" d="M321.344,434.8 C342.408,434.8 357.8,434.8 357.8,434.8 C357.8,434.8 357.8,824.976 357.8,901.184 " fill="none" id="LinearSolver-backto-ISTL vectors" style="stroke:#181818;stroke-width:0.8000000000000002;"/><polygon fill="#181818" points="316.544,434.8,323.744,438,320.544,434.8,323.744,431.6,316.544,434.8" style="stroke:#181818;stroke-width:0.8000000000000002;"/></g><!--reverse link GridManager to dune-grid--><g id="link_GridManager_dune-grid"><path codeLine="100" d="M787.08,723.6 C720.824,723.6 614.4,723.6 614.4,723.6 C614.4,723.6 614.4,768.994 614.4,815.452 C614.4,827.0665 614.4,838.7475 614.4,849.8023 C614.4,855.3298 614.4,860.7006 614.4,865.8284 C614.4,866.1489 614.4,866.4684 614.4,866.787 " fill="none" id="GridManager-backto-dune-grid" style="stroke:#181818;stroke-width:0.8000000000000002;"/><polygon fill="#181818" points="791.88,723.6,784.68,720.4,787.88,723.6,784.68,726.8,791.88,723.6" style="stroke:#181818;stroke-width:0.8000000000000002;"/></g><!--link GridView to GridManager--><g id="link_GridView_GridManager"><path codeLine="101" d="M840.8,687.032 C840.8,694.264 840.8,693.64 840.8,700.88 " fill="none" id="GridView-to-GridManager" style="stroke:#181818;stroke-width:0.8000000000000002;"/><polygon fill="none" points="840.8,710.48,844,705.68,840.8,700.88,837.6,705.68,840.8,710.48" style="stroke:#181818;stroke-width:0.8000000000000002;"/></g><!--reverse link GridGeometry to GridView--><g id="link_GridGeometry_GridView"><path codeLine="102" d="M840.8,632.552 C840.8,643.656 840.8,649.968 840.8,661.064 " fill="none" id="GridGeometry-backto-GridView" style="stroke:#181818;stroke-width:0.8000000000000002;"/><polygon fill="none" points="840.8,622.952,837.6,627.752,840.8,632.552,844,627.752,840.8,622.952" style="stroke:#181818;stroke-width:0.8000000000000002;"/></g><!--reverse link Problem to GridGeometry--><g id="link_Problem_GridGeometry"><path codeLine="103" d="M1450.4,346.328 C1450.4,401.688 1450.4,603.6 1450.4,603.6 C1450.4,603.6 1039.752,603.6 892.984,603.6 " fill="none" id="Problem-backto-GridGeometry" style="stroke:#181818;stroke-width:0.8000000000000002;"/><polygon fill="none" points="1450.4,336.728,1447.2,341.528,1450.4,346.328,1453.6,341.528,1450.4,336.728" style="stroke:#181818;stroke-width:0.8000000000000002;"/></g><!--reverse link SpatialParams to GridGeometry--><g id="link_SpatialParams_GridGeometry"><path codeLine="104" d="M1561.6,346.248 C1561.6,402.28 1561.6,610 1561.6,610 C1561.6,610 1057.296,610 892.8,610 " fill="none" id="SpatialParams-backto-GridGeometry" style="stroke:#181818;stroke-width:0.8000000000000002;"/><polygon fill="none" points="1561.6,336.648,1558.4,341.448,1561.6,346.248,1564.8,341.448,1561.6,336.648" style="stroke:#181818;stroke-width:0.8000000000000002;"/></g><!--reverse link GridVariables to GridGeometry--><g id="link_GridVariables_GridGeometry"><path codeLine="105" d="M855.464,457.28 C855.464,489.68 855.464,564.68 855.464,597.096 " fill="none" id="GridVariables-backto-GridGeometry" style="stroke:#181818;stroke-width:0.8000000000000002;"/><polygon fill="none" points="855.464,447.68,852.264,452.48,855.464,457.28,858.664,452.48,855.464,447.68" style="stroke:#181818;stroke-width:0.8000000000000002;"/></g><!--reverse link Assembler to GridGeometry--><g id="link_Assembler_GridGeometry"><path codeLine="106" d="M718.184,617.2 C742.688,617.2 764.144,617.2 790.088,617.2 " fill="none" id="Assembler-backto-GridGeometry" style="stroke:#181818;stroke-width:0.8000000000000002;"/><polygon fill="none" points="708.584,617.2,713.384,620.4,718.184,617.2,713.384,614,708.584,617.2" style="stroke:#181818;stroke-width:0.8000000000000002;"/></g><!--link LinearSolver to PDESolver--><g id="link_LinearSolver_PDESolver"><path codeLine="107" d="M261.464,447.752 C261.464,458.856 261.464,469.968 261.464,481.064 " fill="none" id="LinearSolver-to-PDESolver" style="stroke:#181818;stroke-width:0.8000000000000002;"/><polygon fill="#181818" points="261.464,485.864,264.664,478.664,261.464,481.864,258.264,478.664,261.464,485.864" style="stroke:#181818;stroke-width:0.8000000000000002;"/></g><!--link LocalResidual to LocalAssembler--><g id="link_LocalResidual_LocalAssembler"><path codeLine="108" d="M655.2,447.752 C655.2,458.856 655.2,465.168 655.2,476.264 " fill="none" id="LocalResidual-to-LocalAssembler" style="stroke:#181818;stroke-width:0.8000000000000002;"/><polygon fill="none" points="655.2,485.864,658.4,481.064,655.2,476.264,652,481.064,655.2,485.864" style="stroke:#181818;stroke-width:0.8000000000000002;"/></g><!--reverse link LocalAssembler to Assembler--><g id="link_LocalAssembler_Assembler"><path codeLine="109" d="M645.4,516.576 C645.4,538 645.4,575.736 645.4,597.112 " fill="none" id="LocalAssembler-backto-Assembler" style="stroke:#181818;stroke-width:0.8000000000000002;"/><polygon fill="#181818" points="645.4,511.776,642.2,518.976,645.4,515.776,648.6,518.976,645.4,511.776" style="stroke:#181818;stroke-width:0.8000000000000002;"/><text fill="#000000" font-family="sans-serif" font-size="10.4" lengthAdjust="spacing" textLength="24" x="620.6" y="551.2935">uses</text></g><!--reverse link VTKOutputModule to GridVariables--><g id="link_VTKOutputModule_GridVariables"><path codeLine="110" d="M499.336,452.6 C499.336,463.744 499.336,473.2 499.336,473.2 C499.336,473.2 822.936,473.2 822.936,473.2 C822.936,473.2 822.936,458.944 822.936,447.8 " fill="none" id="VTKOutputModule-backto-GridVariables" style="stroke:#181818;stroke-width:0.8000000000000002;"/><polygon fill="#181818" points="499.336,447.8,496.136,455,499.336,451.8,502.536,455,499.336,447.8" style="stroke:#181818;stroke-width:0.8000000000000002;"/></g><!--link PrimaryVariables to SolutionVector--><g id="link_PrimaryVariables_SolutionVector"><path codeLine="111" d="M969.6,447.752 C969.6,458.856 969.6,465.168 969.6,476.264 " fill="none" id="PrimaryVariables-to-SolutionVector" style="stroke:#181818;stroke-width:0.8000000000000002;"/><polygon fill="none" points="969.6,485.864,972.8,481.064,969.6,476.264,966.4,481.064,969.6,485.864" style="stroke:#181818;stroke-width:0.8000000000000002;"/></g><!--link IOField to VTKOutputModule--><g id="link_IOField_VTKOutputModule"><path codeLine="112" d="M472.8,336.576 C472.8,358 472.8,395.736 472.8,417.112 " fill="none" id="IOField-to-VTKOutputModule" style="stroke:#181818;stroke-width:0.8000000000000002;"/><polygon fill="#181818" points="472.8,421.912,476,414.712,472.8,417.912,469.6,414.712,472.8,421.912" style="stroke:#181818;stroke-width:0.8000000000000002;"/></g><!--link Assembler to PDESolver--><g id="link_Assembler_PDESolver"><path codeLine="113" d="M624.264,610 C604.208,610 584.536,610 584.536,610 C584.536,610 584.536,498.8 584.536,498.8 C584.536,498.8 405.688,498.8 321.4,498.8 " fill="none" id="Assembler-to-PDESolver" style="stroke:#181818;stroke-width:0.8000000000000002;"/><polygon fill="#181818" points="316.6,498.8,323.8,502,320.6,498.8,323.8,495.6,316.6,498.8" style="stroke:#181818;stroke-width:0.8000000000000002;"/></g><!--link PDESolver to TimeLoop--><g id="link_PDESolver_TimeLoop"><path codeLine="114" d="M262.664,511.776 C262.664,533.2 262.664,570.936 262.664,592.312 " fill="none" id="PDESolver-to-TimeLoop" style="stroke:#181818;stroke-width:0.8000000000000002;"/><polygon fill="#181818" points="262.664,597.112,265.864,589.912,262.664,593.112,259.464,589.912,262.664,597.112" style="stroke:#181818;stroke-width:0.8000000000000002;"/></g><!--link SolutionVector to Assembler--><g id="link_SolutionVector_Assembler"><path codeLine="115" d="M916.2,498.8 C859.752,498.8 778.8,498.8 778.8,498.8 C778.8,498.8 778.8,605.2 778.8,605.2 C778.8,605.2 745.264,605.2 713.376,605.2 " fill="none" id="SolutionVector-to-Assembler" style="stroke:#181818;stroke-width:0.8000000000000002;"/><polygon fill="#181818" points="708.576,605.2,715.776,608.4,712.576,605.2,715.776,602,708.576,605.2" style="stroke:#181818;stroke-width:0.8000000000000002;"/></g><!--link GridVariables to Assembler--><g id="link_GridVariables_Assembler"><path codeLine="116" d="M790.392,442 C780.472,442 773,442 773,442 C773,442 773,601.2 773,601.2 C773,601.2 743.128,601.2 713.328,601.2 " fill="none" id="GridVariables-to-Assembler" style="stroke:#181818;stroke-width:0.8000000000000002;"/><polygon fill="#181818" points="708.528,601.2,715.728,604.4,712.528,601.2,715.728,598,708.528,601.2" style="stroke:#181818;stroke-width:0.8000000000000002;"/></g><!--link SpatialParams to Problem--><g id="link_SpatialParams_Problem"><path codeLine="117" d="M1510.232,323.6 C1502.152,323.6 1503.552,323.6 1495.92,323.6 " fill="none" id="SpatialParams-to-Problem" style="stroke:#181818;stroke-width:0.8000000000000002;"/><polygon fill="none" points="1486.32,323.6,1491.12,326.8,1495.92,323.6,1491.12,320.4,1486.32,323.6" style="stroke:#181818;stroke-width:0.8000000000000002;"/></g><!--link Properties to main--><g id="link_Properties_main"><path codeLine="118" d="M1747.182,134 C1747.1175,134 1747.0527,134 1746.9873,134 C1746.726,134 1746.4575,134 1746.182,134 C1741.774,134 1735.568,134 1728.016,134 " fill="none" id="Properties-main" style="stroke:#181818;stroke-width:0.8000000000000002;"/></g><!--link Properties to GridGeometry--><!--link Properties to GridVariables--><!--link Properties to PrimaryVariables--><!--link Properties to SolutionVector--><!--link Properties to Assembler--><!--link Properties to LocalAssembler--><!--link Properties to LocalResidual--><!--link Properties to PDESolver--><!--link Properties to TimeLoop--><!--link Properties to IOField--><!--link Properties to VTKOutputModule--><!--link Properties to SpatialParams--><!--link Properties to Problem--><!--reverse link DuMux to Properties--><g id="link_DuMux_Properties"><path codeLine="136" d="M173.064,219.5928 C173.064,218.8838 173.064,226.8 173.064,226.8 C173.064,226.8 1760.6,226.8 1760.6,226.8 C1760.6,226.8 1760.6,220.95 1760.6,212.175 C1760.6,207.7875 1760.6,202.6688 1760.6,197.1844 C1760.6,194.4422 1760.6,191.6086 1760.6,188.7293 C1760.6,188.0095 1760.6,187.2868 1760.6,186.562 C1760.6,186.1996 1760.6,185.8366 1760.6,185.4732 C1760.6,185.2915 1760.6,185.1097 1760.6,184.9278 " fill="none" id="DuMux-backto-Properties" style="stroke:#FF0000;stroke-width:0.8000000000000002;"/><polygon fill="none" points="173.064,229.1928,176.264,224.3928,173.064,219.5928,169.864,224.3928,173.064,229.1928" style="stroke:#FF0000;stroke-width:0.8000000000000002;"/></g><!--reverse link Dune to Properties--><g id="link_Dune_Properties"><path codeLine="137" d="M780.2069,950 C783.5859,950 777.3672,950 780.7506,950 C787.5174,950 794.2925,950 801.0743,950 C828.2013,950 855.4346,950 882.668,950 C1318.402,950 1754.136,950 1754.136,950 C1754.136,950 1754.136,747.492 1754.136,544.193 C1754.136,442.5435 1754.136,340.6963 1754.136,263.8659 C1754.136,244.6583 1754.136,227.0142 1754.136,211.3277 C1754.136,203.4845 1754.136,196.1306 1754.136,189.3154 C1754.136,188.4635 1754.136,187.62 1754.136,186.785 " fill="none" id="Dune-backto-Properties" style="stroke:#FF0000;stroke-width:0.8000000000000002;"/><polygon fill="none" points="770.6069,950,775.4069,953.2,780.2069,950,775.4069,946.8,770.6069,950" style="stroke:#FF0000;stroke-width:0.8000000000000002;"/></g><!--link params to Output--><!--SRC=[bLTjQ-Cu4FwkNo6oNtQNsYst71pPNk2Wkw5SovPBhh24K5HxDXMrBIF9tGib__qaMzQRxQJhJ_4yZqOpetb6ZiX80VWY_GD9LcF9y2EJafKufnmoILc5dcWE6CfQxd49vIDmWGH8BA0cd4Z6SSKgGEAPLjfGue9MiDxNW1cNJym3AfQ3MeK_NNX6JgfdOqGroPx93l3iNm4ShpAe2ATiXbyHDazM427m7MUF1PIlXyY-gecafBZJZeM7_g0gnNOxWOd0CmlefxEdAfv61a2Ydi1mcQa45e5fiwObt31MRmFpbRokg0u5_ub_-_q2lyCR4JBID0rzduVEPs7m9Q7LC7HjJRFibwEcbMpNljS_2DzbPpXx8lpZH_toyY7WlWPlOw7hfn6qsc5zwckoKqch4wg1ImfYFbyhqtokLdt-1LVcY9Mh9KZjJVk-D1kS1VuDTJ5qJnhLpxNr96G-dvVa6Hw4oXRootxb-nsd-H9O2PBlFvmEy_26exEzx4Br6zd2kZgpgCf2yYQJ-7PlylLQkVjrG0SdbgkcWjw3DURAc50X2urqwfXThzOtMB3YHKbu5XXB8ZdD8BA-g070DFKmubkNpFFzdOXwgKr-P2qnOsN9Ae_QoXCay3K77RXE9aZdjlblaC_IRESw6FWFaW7Mm2sf58cxCeNmFOMV3kkYM7ed_jeNDTZnNiqUejh3FpQtrgAnupjEIyBta_YA5OqUg_TjSSUt_ai8DMYB_GnlDkbvcfu_oR8utt7Mr0yF3yIWgRPkjuFfQ5RxzJ383LF3_WJy3mYQDwHGw5XeAlmNfS-HcNprPTMsrcZCwehGrmBXDcYtkJkicvPonCsaZow6VXYFL_LR8zM87qP-_UqhXI8VUBjV_zqjkMLvKu0L7ZAAIpRgPioXsZP9-_IjY_eM3WdHfJR1Il20vydDSdb7TIf7eRe7p4ZcqViutUe_V1sGGq4ZDmjEHj4VISphkmovVeifLYF8aqjCSXf-AyjJVKphnjie8n-hMj3DbqcUn1FOAj57NNMcrjiDWacSgFPP-DCGURynKx2TXQZ_eHUnO1GY_wM3pIKvWWIVMn5U6CUsMYEupJzCLMMwSEC41LD9WooQOoXyxKfbN-VgWyBiRcFHsoy6-eudTxTNEA-H6HOu6N7WGaY23DnerFP-IA7GSukvdA9u0ooeEqwuTqZjTwBAplj06bNPAOcTrjTRPDDhnWMZq7Vgo-lCK9Am-IPvUH8rqoIJ9uCR-DZsqUaUORho7o55ZNcAsNVrCQBNHjCasrD7EAPpZr66YfWkNA3zIQ9jpFwsOns-3Jkqkr17CVEtpHkrzYP72FqF]--></g></svg>