<?xml version="1.0" encoding="us-ascii" standalone="no"?><svg xmlns="http://www.w3.org/2000/svg" xmlns:xlink="http://www.w3.org/1999/xlink" contentStyleType="text/css" height="1072px" preserveAspectRatio="none" style="width:1624px;height:1072px;background:#FFFFFF;" version="1.1" viewBox="0 0 1624 1072" width="1624px" zoomAndPan="magnify"><defs/><g><!--cluster User Scenario--><g id="cluster_User Scenario"><path d="M9.2,4.8 L98.8,4.8 A3,3 0 0 1 100.8,6.8 L106.4,22.6375 L845.2,22.6375 A2,2 0 0 1 847.2,24.6375 L847.2,276.8 A2,2 0 0 1 845.2,278.8 L9.2,278.8 A2,2 0 0 1 7.2,276.8 L7.2,6.8 A2,2 0 0 1 9.2,4.8 " fill="none" style="stroke:#000000;stroke-width:1.2000000000000002;"/><line style="stroke:#000000;stroke-width:1.2000000000000002;" x1="7.2" x2="106.4" y1="22.6375" y2="22.6375"/><text fill="#000000" font-family="sans-serif" font-size="11.2" font-weight="bold" lengthAdjust="spacing" textLength="88.8" x="10.4" y="16.7961">User Scenario</text></g><!--cluster Properties--><g id="cluster_Properties"><path d="M41.2,52 L108.4,52 A3,3 0 0 1 110.4,54 L116,69.8375 L208.4,69.8375 A2,2 0 0 1 210.4,71.8375 L210.4,182.8 A2,2 0 0 1 208.4,184.8 L41.2,184.8 A2,2 0 0 1 39.2,182.8 L39.2,54 A2,2 0 0 1 41.2,52 " fill="none" style="stroke:#000000;stroke-width:1.2000000000000002;"/><line style="stroke:#000000;stroke-width:1.2000000000000002;" x1="39.2" x2="116" y1="69.8375" y2="69.8375"/><text fill="#000000" font-family="sans-serif" font-size="11.2" font-weight="bold" lengthAdjust="spacing" textLength="66.4" x="42.4" y="63.9961">Properties</text></g><!--cluster TTag--><g id="cluster_TTag"><path d="M73.2,92.8 L105.2,92.8 A3,3 0 0 1 107.2,94.8 L112.8,110.6375 L182.8,110.6375 A2,2 0 0 1 184.8,112.6375 L184.8,157.2 A2,2 0 0 1 182.8,159.2 L73.2,159.2 A2,2 0 0 1 71.2,157.2 L71.2,94.8 A2,2 0 0 1 73.2,92.8 " fill="none" style="stroke:#000000;stroke-width:1.2000000000000002;"/><line style="stroke:#000000;stroke-width:1.2000000000000002;" x1="71.2" x2="112.8" y1="110.6375" y2="110.6375"/><text fill="#000000" font-family="sans-serif" font-size="11.2" font-weight="bold" lengthAdjust="spacing" textLength="31.2" x="74.4" y="104.7961">TTag</text></g><!--cluster Dune--><g id="cluster_Dune"><path d="M860.4,908.4 L894,908.4 A3,3 0 0 1 896,910.4 L901.6,926.2375 L1616.4,926.2375 A2,2 0 0 1 1618.4,928.2375 L1618.4,1064.8 A2,2 0 0 1 1616.4,1066.8 L860.4,1066.8 A2,2 0 0 1 858.4,1064.8 L858.4,910.4 A2,2 0 0 1 860.4,908.4 " fill="none" style="stroke:#000000;stroke-width:1.2000000000000002;"/><line style="stroke:#000000;stroke-width:1.2000000000000002;" x1="858.4" x2="901.6" y1="926.2375" y2="926.2375"/><text fill="#000000" font-family="sans-serif" font-size="11.2" font-weight="bold" lengthAdjust="spacing" textLength="32.8" x="861.6" y="920.3961">Dune</text></g><!--cluster dune-istl--><g id="cluster_dune-istl"><path d="M1202.8,955.6 L1258.8,955.6 A3,3 0 0 1 1260.8,957.6 L1266.4,973.4375 L1578,973.4375 A2,2 0 0 1 1580,975.4375 L1580,1032.8 A2,2 0 0 1 1578,1034.8 L1202.8,1034.8 A2,2 0 0 1 1200.8,1032.8 L1200.8,957.6 A2,2 0 0 1 1202.8,955.6 " fill="none" style="stroke:#000000;stroke-width:1.2000000000000002;"/><line style="stroke:#000000;stroke-width:1.2000000000000002;" x1="1200.8" x2="1266.4" y1="973.4375" y2="973.4375"/><text fill="#000000" font-family="sans-serif" font-size="11.2" font-weight="bold" lengthAdjust="spacing" textLength="55.2" x="1204" y="967.5961">dune-istl</text></g><!--cluster dune-grid--><g id="cluster_dune-grid"><path d="M1046,955.6 L1108.4,955.6 A3,3 0 0 1 1110.4,957.6 L1116,973.4375 L1166.8,973.4375 A2,2 0 0 1 1168.8,975.4375 L1168.8,1032.8 A2,2 0 0 1 1166.8,1034.8 L1046,1034.8 A2,2 0 0 1 1044,1032.8 L1044,957.6 A2,2 0 0 1 1046,955.6 " fill="none" style="stroke:#000000;stroke-width:1.2000000000000002;"/><line style="stroke:#000000;stroke-width:1.2000000000000002;" x1="1044" x2="1116" y1="973.4375" y2="973.4375"/><text fill="#000000" font-family="sans-serif" font-size="11.2" font-weight="bold" lengthAdjust="spacing" textLength="61.6" x="1047.2" y="967.5961">dune-grid</text></g><!--cluster dune-common--><g id="cluster_dune-common"><path d="M886,962 L977.2,962 A3,3 0 0 1 979.2,964 L984.8,979.8375 L1016.4,979.8375 A2,2 0 0 1 1018.4,981.8375 L1018.4,1026.4 A2,2 0 0 1 1016.4,1028.4 L886,1028.4 A2,2 0 0 1 884,1026.4 L884,964 A2,2 0 0 1 886,962 " fill="none" style="stroke:#000000;stroke-width:1.2000000000000002;"/><line style="stroke:#000000;stroke-width:1.2000000000000002;" x1="884" x2="984.8" y1="979.8375" y2="979.8375"/><text fill="#000000" font-family="sans-serif" font-size="11.2" font-weight="bold" lengthAdjust="spacing" textLength="90.4" x="887.2" y="973.9961">dune-common</text></g><!--cluster DuMux--><g id="cluster_DuMux"><path d="M511.6,342.8 L554.8,342.8 A3,3 0 0 1 556.8,344.8 L562.4,360.6375 L1432.4,360.6375 A2,2 0 0 1 1434.4,362.6375 L1434.4,867.2 A2,2 0 0 1 1432.4,869.2 L511.6,869.2 A2,2 0 0 1 509.6,867.2 L509.6,344.8 A2,2 0 0 1 511.6,342.8 " fill="none" style="stroke:#000000;stroke-width:1.2000000000000002;"/><line style="stroke:#000000;stroke-width:1.2000000000000002;" x1="509.6" x2="562.4" y1="360.6375" y2="360.6375"/><text fill="#000000" font-family="sans-serif" font-size="11.2" font-weight="bold" lengthAdjust="spacing" textLength="42.4" x="512.8" y="354.7961">DuMux</text></g><!--cluster Grid--><g id="cluster_Grid"><path d="M678,644.4 L705.2,644.4 A3,3 0 0 1 707.2,646.4 L712.8,662.2375 L826,662.2375 A2,2 0 0 1 828,664.2375 L828,835.2 A2,2 0 0 1 826,837.2 L678,837.2 A2,2 0 0 1 676,835.2 L676,646.4 A2,2 0 0 1 678,644.4 " fill="none" style="stroke:#000000;stroke-width:1.2000000000000002;"/><line style="stroke:#000000;stroke-width:1.2000000000000002;" x1="676" x2="712.8" y1="662.2375" y2="662.2375"/><text fill="#000000" font-family="sans-serif" font-size="11.2" font-weight="bold" lengthAdjust="spacing" textLength="26.4" x="679.2" y="656.3961">Grid</text></g><!--cluster Variables--><g id="cluster_Variables"><path d="M543.6,469.2 L602.8,469.2 A3,3 0 0 1 604.8,471.2 L610.4,487.0375 L826,487.0375 A2,2 0 0 1 828,489.0375 L828,610.4 A2,2 0 0 1 826,612.4 L543.6,612.4 A2,2 0 0 1 541.6,610.4 L541.6,471.2 A2,2 0 0 1 543.6,469.2 " fill="none" style="stroke:#000000;stroke-width:1.2000000000000002;"/><line style="stroke:#000000;stroke-width:1.2000000000000002;" x1="541.6" x2="610.4" y1="487.0375" y2="487.0375"/><text fill="#000000" font-family="sans-serif" font-size="11.2" font-weight="bold" lengthAdjust="spacing" textLength="58.4" x="544.8" y="481.1961">Variables</text></g><!--cluster Assembly--><g id="cluster_Assembly"><a href="./../html/group___assembly.html" target="_top" title="./../html/group___assembly.html" xlink:actuate="onRequest" xlink:href="./../html/group___assembly.html" xlink:show="new" xlink:title="./../html/group___assembly.html" xlink:type="simple"><path d="M862,469.2 L923.6,469.2 A3,3 0 0 1 925.6,471.2 L931.2,487.0375 L1014.8,487.0375 A2,2 0 0 1 1016.8,489.0375 L1016.8,721.6 A2,2 0 0 1 1014.8,723.6 L862,723.6 A2,2 0 0 1 860,721.6 L860,471.2 A2,2 0 0 1 862,469.2 " fill="none" style="stroke:#000000;stroke-width:1.2000000000000002;"/><line style="stroke:#000000;stroke-width:1.2000000000000002;" x1="860" x2="931.2" y1="487.0375" y2="487.0375"/><text fill="#000000" font-family="sans-serif" font-size="11.2" font-weight="bold" lengthAdjust="spacing" textLength="60.8" x="863.2" y="481.1961">Assembly</text></a></g><!--cluster Solving--><g id="cluster_Solving"><path d="M1254,469.2 L1300.4,469.2 A3,3 0 0 1 1302.4,471.2 L1308,487.0375 L1394,487.0375 A2,2 0 0 1 1396,489.0375 L1396,721.6 A2,2 0 0 1 1394,723.6 L1254,723.6 A2,2 0 0 1 1252,721.6 L1252,471.2 A2,2 0 0 1 1254,469.2 " fill="none" style="stroke:#000000;stroke-width:1.2000000000000002;"/><line style="stroke:#000000;stroke-width:1.2000000000000002;" x1="1252" x2="1308" y1="487.0375" y2="487.0375"/><text fill="#000000" font-family="sans-serif" font-size="11.2" font-weight="bold" lengthAdjust="spacing" textLength="45.6" x="1255.2" y="481.1961">Solving</text></g><!--cluster Output--><g id="cluster_Output"><path d="M1050.8,390 L1094.8,390 A3,3 0 0 1 1096.8,392 L1102.4,407.8375 L1218,407.8375 A2,2 0 0 1 1220,409.8375 L1220,546.4 A2,2 0 0 1 1218,548.4 L1050.8,548.4 A2,2 0 0 1 1048.8,546.4 L1048.8,392 A2,2 0 0 1 1050.8,390 " fill="none" style="stroke:#000000;stroke-width:1.2000000000000002;"/><line style="stroke:#000000;stroke-width:1.2000000000000002;" x1="1048.8" x2="1102.4" y1="407.8375" y2="407.8375"/><text fill="#000000" font-family="sans-serif" font-size="11.2" font-weight="bold" lengthAdjust="spacing" textLength="43.2" x="1052" y="401.9961">Output</text></g><!--class Problem--><g id="elem_Problem"><rect codeLine="10" fill="#F1F1F1" height="25.6" id="Problem" rx="2" ry="2" style="stroke:#181818;stroke-width:0.4000000000000001;" width="71.2" x="153.2" y="234"/><ellipse cx="165.2" cy="246.8" fill="#ADD1B2" rx="8.8" ry="8.8" style="stroke:#181818;stroke-width:0.8000000000000002;"/><path d="M167.575,251.3125 Q167.1125,251.55 166.6,251.6625 Q166.0875,251.7875 165.525,251.7875 Q163.525,251.7875 162.4625,250.475 Q161.4125,249.15 161.4125,246.65 Q161.4125,244.15 162.4625,242.825 Q163.525,241.5 165.525,241.5 Q166.0875,241.5 166.6,241.625 Q167.125,241.75 167.575,241.9875 L167.575,244.1625 Q167.075,243.7 166.6,243.4875 Q166.125,243.2625 165.625,243.2625 Q164.55,243.2625 164,244.125 Q163.45,244.975 163.45,246.65 Q163.45,248.325 164,249.1875 Q164.55,250.0375 165.625,250.0375 Q166.125,250.0375 166.6,249.825 Q167.075,249.6 167.575,249.1375 L167.575,251.3125 Z " fill="#000000"/><text fill="#000000" font-family="sans-serif" font-size="11.2" lengthAdjust="spacing" textLength="45.6" x="176.4" y="250.6773">Problem</text></g><!--class SpatialParams--><g id="elem_SpatialParams"><rect codeLine="11" fill="#F1F1F1" height="25.6" id="SpatialParams" rx="2" ry="2" style="stroke:#181818;stroke-width:0.4000000000000001;" width="102.4" x="26.4" y="234"/><ellipse cx="38.4" cy="246.8" fill="#ADD1B2" rx="8.8" ry="8.8" style="stroke:#181818;stroke-width:0.8000000000000002;"/><path d="M40.775,251.3125 Q40.3125,251.55 39.8,251.6625 Q39.2875,251.7875 38.725,251.7875 Q36.725,251.7875 35.6625,250.475 Q34.6125,249.15 34.6125,246.65 Q34.6125,244.15 35.6625,242.825 Q36.725,241.5 38.725,241.5 Q39.2875,241.5 39.8,241.625 Q40.325,241.75 40.775,241.9875 L40.775,244.1625 Q40.275,243.7 39.8,243.4875 Q39.325,243.2625 38.825,243.2625 Q37.75,243.2625 37.2,244.125 Q36.65,244.975 36.65,246.65 Q36.65,248.325 37.2,249.1875 Q37.75,250.0375 38.825,250.0375 Q39.325,250.0375 39.8,249.825 Q40.275,249.6 40.775,249.1375 L40.775,251.3125 Z " fill="#000000"/><text fill="#000000" font-family="sans-serif" font-size="11.2" lengthAdjust="spacing" textLength="76.8" x="49.6" y="250.6773">SpatialParams</text></g><!--entity params--><g id="elem_params"><path d="M666.4,98.4 L666.4,168.95 A2,2 0 0 0 668.4,170.95 L814.8,170.95 A2,2 0 0 0 816.8,168.95 L816.8,104.4 L808.8,96.4 L668.4,96.4 A2,2 0 0 0 666.4,98.4 " fill="#F1F1F1" style="stroke:#181818;stroke-width:0.4000000000000001;"/><path d="M808.8,96.4 L808.8,102.4 A2,2 0 0 0 810.8,104.4 L816.8,104.4 " fill="#F1F1F1" style="stroke:#181818;stroke-width:0.4000000000000001;"/><text fill="#000000" font-family="sans-serif" font-size="11.2" lengthAdjust="spacing" textLength="72" x="674.4" y="114.7961">params.input</text><line style="stroke:#181818;stroke-width:0.8000000000000002;" x1="667.2" x2="816" y1="117.4375" y2="117.4375"/><text fill="#000000" font-family="monospace" font-size="11.2" lengthAdjust="spacing" textLength="64" x="674.4" y="131.0336">[TimeLoop]</text><text fill="#000000" font-family="monospace" font-size="11.2" lengthAdjust="spacing" textLength="134.4" x="674.4" y="144.0711">DtInitial&#160;=&#160;250&#160;#&#160;[s]</text><text fill="#000000" font-family="monospace" font-size="11.2" lengthAdjust="spacing" textLength="19.2" x="674.4" y="157.1086">...</text></g><!--entity main--><g id="elem_main"><path d="M229.6,59.2 L229.6,207.975 A2,2 0 0 0 231.6,209.975 L640.4,209.975 A2,2 0 0 0 642.4,207.975 L642.4,65.2 L634.4,57.2 L231.6,57.2 A2,2 0 0 0 229.6,59.2 " fill="#F1F1F1" style="stroke:#181818;stroke-width:0.4000000000000001;"/><path d="M634.4,57.2 L634.4,63.2 A2,2 0 0 0 636.4,65.2 L642.4,65.2 " fill="#F1F1F1" style="stroke:#181818;stroke-width:0.4000000000000001;"/><text fill="#000000" font-family="sans-serif" font-size="11.2" lengthAdjust="spacing" textLength="42.4" x="237.6" y="75.5961">main.cc</text><line style="stroke:#181818;stroke-width:0.8000000000000002;" x1="230.4" x2="641.6" y1="78.2375" y2="78.2375"/><text fill="#000000" font-family="monospace" font-size="11.2" lengthAdjust="spacing" textLength="198.4" x="237.6" y="91.8336">int&#160;main(int&#160;argc,&#160;char**&#160;argv)</text><text fill="#000000" font-family="monospace" font-size="11.2" lengthAdjust="spacing" textLength="6.4" x="237.6" y="104.8711">{</text><text fill="#000000" font-family="monospace" font-size="11.2" lengthAdjust="spacing" textLength="19.2" x="263.2" y="117.9086">...</text><text fill="#000000" font-family="monospace" font-size="11.2" lengthAdjust="spacing" textLength="243.2" x="263.2" y="130.9461">using&#160;TypeTag&#160;=&#160;Properties::TTag::...;</text><text fill="#000000" font-family="monospace" font-size="11.2" lengthAdjust="spacing" textLength="19.2" x="263.2" y="143.9836">...</text><text fill="#000000" font-family="monospace" font-size="11.2" lengthAdjust="spacing" textLength="371.2" x="263.2" y="157.0211">using&#160;Problem&#160;=&#160;GetPropType&lt;TypeTag,&#160;Properties::Problem&gt;;</text><text fill="#000000" font-family="monospace" font-size="11.2" lengthAdjust="spacing" textLength="352" x="263.2" y="170.0586">auto&#160;problem&#160;=&#160;std::make_shared&lt;Problem&gt;(gridGeometry);</text><text fill="#000000" font-family="monospace" font-size="11.2" lengthAdjust="spacing" textLength="19.2" x="263.2" y="183.0961">...</text><text fill="#000000" font-family="monospace" font-size="11.2" lengthAdjust="spacing" textLength="6.4" x="237.6" y="196.1336">}</text></g><!--class MyTypeTag--><g id="elem_MyTypeTag"><rect codeLine="38" fill="#F1F1F1" height="25.6" id="MyTypeTag" rx="2" ry="2" style="stroke:#181818;stroke-width:0.4000000000000001;" width="88.8" x="83.6" y="120.8"/><ellipse cx="95.6" cy="133.6" fill="#F1F1F1" rx="8.8" ry="8.8" style="stroke:#181818;stroke-width:0.8000000000000002;"/><path d="M95.1875,134.05 Q93.7,133.4875 93.175,132.875 Q92.6625,132.25 92.6625,131.2 Q92.6625,129.85 93.525,129.075 Q94.3875,128.3 95.8875,128.3 Q96.575,128.3 97.25,128.4625 Q97.9375,128.6125 98.6125,128.925 L98.6125,130.8375 Q97.9875,130.3875 97.325,130.1625 Q96.675,129.925 96.0375,129.925 Q95.3375,129.925 94.95,130.2125 Q94.575,130.5 94.575,131.025 Q94.575,131.4375 94.85,131.7125 Q95.125,131.975 96,132.3 L96.85,132.625 Q98.0375,133.0625 98.6,133.7875 Q99.175,134.5125 99.175,135.6125 Q99.175,137.1125 98.2875,137.85 Q97.4,138.5875 95.6,138.5875 Q94.8625,138.5875 94.125,138.4125 Q93.3875,138.2375 92.7,137.9 L92.7,135.875 Q93.475,136.425 94.2125,136.7 Q94.95,136.975 95.6625,136.975 Q96.3875,136.975 96.7875,136.65 Q97.1875,136.3125 97.1875,135.725 Q97.1875,135.275 96.9125,134.95 Q96.65,134.6125 96.15,134.4125 L95.1875,134.05 Z " fill="#000000"/><text fill="#000000" font-family="sans-serif" font-size="11.2" lengthAdjust="spacing" textLength="63.2" x="106.8" y="137.4773">MyTypeTag</text></g><!--class ISTL solvers--><g id="elem_ISTL solvers"><rect codeLine="44" fill="#F1F1F1" height="25.6" id="ISTL solvers" rx="2" ry="2" style="stroke:#181818;stroke-width:0.4000000000000001;" width="90.4" x="1470" y="990"/><ellipse cx="1482" cy="1002.8" fill="#ADD1B2" rx="8.8" ry="8.8" style="stroke:#181818;stroke-width:0.8000000000000002;"/><path d="M1484.375,1007.3125 Q1483.9125,1007.55 1483.4,1007.6625 Q1482.8875,1007.7875 1482.325,1007.7875 Q1480.325,1007.7875 1479.2625,1006.475 Q1478.2125,1005.15 1478.2125,1002.65 Q1478.2125,1000.15 1479.2625,998.825 Q1480.325,997.5 1482.325,997.5 Q1482.8875,997.5 1483.4,997.625 Q1483.925,997.75 1484.375,997.9875 L1484.375,1000.1625 Q1483.875,999.7 1483.4,999.4875 Q1482.925,999.2625 1482.425,999.2625 Q1481.35,999.2625 1480.8,1000.125 Q1480.25,1000.975 1480.25,1002.65 Q1480.25,1004.325 1480.8,1005.1875 Q1481.35,1006.0375 1482.425,1006.0375 Q1482.925,1006.0375 1483.4,1005.825 Q1483.875,1005.6 1484.375,1005.1375 L1484.375,1007.3125 Z " fill="#000000"/><text fill="#000000" font-family="sans-serif" font-size="11.2" lengthAdjust="spacing" textLength="64.8" x="1493.2" y="1006.6773">ISTL solvers</text></g><!--class ISTL matrices--><g id="elem_ISTL matrices"><rect codeLine="45" fill="#F1F1F1" height="25.6" id="ISTL matrices" rx="2" ry="2" style="stroke:#181818;stroke-width:0.4000000000000001;" width="98.4" x="1231.6" y="990"/><ellipse cx="1243.6" cy="1002.8" fill="#ADD1B2" rx="8.8" ry="8.8" style="stroke:#181818;stroke-width:0.8000000000000002;"/><path d="M1245.975,1007.3125 Q1245.5125,1007.55 1245,1007.6625 Q1244.4875,1007.7875 1243.925,1007.7875 Q1241.925,1007.7875 1240.8625,1006.475 Q1239.8125,1005.15 1239.8125,1002.65 Q1239.8125,1000.15 1240.8625,998.825 Q1241.925,997.5 1243.925,997.5 Q1244.4875,997.5 1245,997.625 Q1245.525,997.75 1245.975,997.9875 L1245.975,1000.1625 Q1245.475,999.7 1245,999.4875 Q1244.525,999.2625 1244.025,999.2625 Q1242.95,999.2625 1242.4,1000.125 Q1241.85,1000.975 1241.85,1002.65 Q1241.85,1004.325 1242.4,1005.1875 Q1242.95,1006.0375 1244.025,1006.0375 Q1244.525,1006.0375 1245,1005.825 Q1245.475,1005.6 1245.975,1005.1375 L1245.975,1007.3125 Z " fill="#000000"/><text fill="#000000" font-family="sans-serif" font-size="11.2" lengthAdjust="spacing" textLength="72.8" x="1254.8" y="1006.6773">ISTL matrices</text></g><!--class ISTL vectors--><g id="elem_ISTL vectors"><rect codeLine="46" fill="#F1F1F1" height="25.6" id="ISTL vectors" rx="2" ry="2" style="stroke:#181818;stroke-width:0.4000000000000001;" width="92" x="1354" y="990"/><ellipse cx="1366" cy="1002.8" fill="#ADD1B2" rx="8.8" ry="8.8" style="stroke:#181818;stroke-width:0.8000000000000002;"/><path d="M1368.375,1007.3125 Q1367.9125,1007.55 1367.4,1007.6625 Q1366.8875,1007.7875 1366.325,1007.7875 Q1364.325,1007.7875 1363.2625,1006.475 Q1362.2125,1005.15 1362.2125,1002.65 Q1362.2125,1000.15 1363.2625,998.825 Q1364.325,997.5 1366.325,997.5 Q1366.8875,997.5 1367.4,997.625 Q1367.925,997.75 1368.375,997.9875 L1368.375,1000.1625 Q1367.875,999.7 1367.4,999.4875 Q1366.925,999.2625 1366.425,999.2625 Q1365.35,999.2625 1364.8,1000.125 Q1364.25,1000.975 1364.25,1002.65 Q1364.25,1004.325 1364.8,1005.1875 Q1365.35,1006.0375 1366.425,1006.0375 Q1366.925,1006.0375 1367.4,1005.825 Q1367.875,1005.6 1368.375,1005.1375 L1368.375,1007.3125 Z " fill="#000000"/><text fill="#000000" font-family="sans-serif" font-size="11.2" lengthAdjust="spacing" textLength="66.4" x="1377.2" y="1006.6773">ISTL vectors</text></g><!--class YaspGrid--><g id="elem_YaspGrid"><rect codeLine="49" fill="#F1F1F1" height="25.6" id="YaspGrid" rx="2" ry="2" style="stroke:#181818;stroke-width:0.4000000000000001;" width="75.2" x="1074.4" y="990"/><ellipse cx="1086.4" cy="1002.8" fill="#ADD1B2" rx="8.8" ry="8.8" style="stroke:#181818;stroke-width:0.8000000000000002;"/><path d="M1088.775,1007.3125 Q1088.3125,1007.55 1087.8,1007.6625 Q1087.2875,1007.7875 1086.725,1007.7875 Q1084.725,1007.7875 1083.6625,1006.475 Q1082.6125,1005.15 1082.6125,1002.65 Q1082.6125,1000.15 1083.6625,998.825 Q1084.725,997.5 1086.725,997.5 Q1087.2875,997.5 1087.8,997.625 Q1088.325,997.75 1088.775,997.9875 L1088.775,1000.1625 Q1088.275,999.7 1087.8,999.4875 Q1087.325,999.2625 1086.825,999.2625 Q1085.75,999.2625 1085.2,1000.125 Q1084.65,1000.975 1084.65,1002.65 Q1084.65,1004.325 1085.2,1005.1875 Q1085.75,1006.0375 1086.825,1006.0375 Q1087.325,1006.0375 1087.8,1005.825 Q1088.275,1005.6 1088.775,1005.1375 L1088.775,1007.3125 Z " fill="#000000"/><text fill="#000000" font-family="sans-serif" font-size="11.2" lengthAdjust="spacing" textLength="49.6" x="1097.6" y="1006.6773">YaspGrid</text></g><!--class ParameterTree--><g id="elem_ParameterTree"><rect codeLine="52" fill="#F1F1F1" height="25.6" id="ParameterTree" rx="2" ry="2" style="stroke:#181818;stroke-width:0.4000000000000001;" width="108" x="897.2" y="990"/><ellipse cx="909.2" cy="1002.8" fill="#ADD1B2" rx="8.8" ry="8.8" style="stroke:#181818;stroke-width:0.8000000000000002;"/><path d="M911.575,1007.3125 Q911.1125,1007.55 910.6,1007.6625 Q910.0875,1007.7875 909.525,1007.7875 Q907.525,1007.7875 906.4625,1006.475 Q905.4125,1005.15 905.4125,1002.65 Q905.4125,1000.15 906.4625,998.825 Q907.525,997.5 909.525,997.5 Q910.0875,997.5 910.6,997.625 Q911.125,997.75 911.575,997.9875 L911.575,1000.1625 Q911.075,999.7 910.6,999.4875 Q910.125,999.2625 909.625,999.2625 Q908.55,999.2625 908,1000.125 Q907.45,1000.975 907.45,1002.65 Q907.45,1004.325 908,1005.1875 Q908.55,1006.0375 909.625,1006.0375 Q910.125,1006.0375 910.6,1005.825 Q911.075,1005.6 911.575,1005.1375 L911.575,1007.3125 Z " fill="#000000"/><text fill="#000000" font-family="sans-serif" font-size="11.2" lengthAdjust="spacing" textLength="82.4" x="920.4" y="1006.6773">ParameterTree</text></g><!--class GridManager--><g id="elem_GridManager"><rect codeLine="57" fill="#F1F1F1" height="25.6" id="GridManager" rx="2" ry="2" style="stroke:#181818;stroke-width:0.4000000000000001;" width="96" x="700.8" y="792.4"/><ellipse cx="712.8" cy="805.2" fill="#B4A7E5" rx="8.8" ry="8.8" style="stroke:#181818;stroke-width:0.8000000000000002;"/><path d="M709.5375,801.8125 L709.5375,800.0875 L715.45,800.0875 L715.45,801.8125 L713.475,801.8125 L713.475,808.275 L715.45,808.275 L715.45,810 L709.5375,810 L709.5375,808.275 L711.5125,808.275 L711.5125,801.8125 L709.5375,801.8125 Z " fill="#000000"/><text fill="#000000" font-family="sans-serif" font-size="11.2" font-style="italic" lengthAdjust="spacing" textLength="70.4" x="724" y="809.0773">GridManager</text></g><!--class GridView--><g id="elem_GridView"><rect codeLine="58" fill="#F1F1F1" height="25.6" id="GridView" rx="2" ry="2" style="stroke:#181818;stroke-width:0.4000000000000001;" width="74.4" x="710" y="742.8"/><ellipse cx="722" cy="755.6" fill="#B4A7E5" rx="8.8" ry="8.8" style="stroke:#181818;stroke-width:0.8000000000000002;"/><path d="M718.7375,752.2125 L718.7375,750.4875 L724.65,750.4875 L724.65,752.2125 L722.675,752.2125 L722.675,758.675 L724.65,758.675 L724.65,760.4 L718.7375,760.4 L718.7375,758.675 L720.7125,758.675 L720.7125,752.2125 L718.7375,752.2125 Z " fill="#000000"/><text fill="#000000" font-family="sans-serif" font-size="11.2" font-style="italic" lengthAdjust="spacing" textLength="48.8" x="733.2" y="759.4773">GridView</text></g><!--class GridGeometry--><g id="elem_GridGeometry"><rect codeLine="59" fill="#F1F1F1" height="25.6" id="GridGeometry" rx="2" ry="2" style="stroke:#181818;stroke-width:0.4000000000000001;" width="102.4" x="695.2" y="678.8"/><ellipse cx="707.2" cy="691.6" fill="#ADD1B2" rx="8.8" ry="8.8" style="stroke:#181818;stroke-width:0.8000000000000002;"/><path d="M709.575,696.1125 Q709.1125,696.35 708.6,696.4625 Q708.0875,696.5875 707.525,696.5875 Q705.525,696.5875 704.4625,695.275 Q703.4125,693.95 703.4125,691.45 Q703.4125,688.95 704.4625,687.625 Q705.525,686.3 707.525,686.3 Q708.0875,686.3 708.6,686.425 Q709.125,686.55 709.575,686.7875 L709.575,688.9625 Q709.075,688.5 708.6,688.2875 Q708.125,688.0625 707.625,688.0625 Q706.55,688.0625 706,688.925 Q705.45,689.775 705.45,691.45 Q705.45,693.125 706,693.9875 Q706.55,694.8375 707.625,694.8375 Q708.125,694.8375 708.6,694.625 Q709.075,694.4 709.575,693.9375 L709.575,696.1125 Z " fill="#000000"/><text fill="#000000" font-family="sans-serif" font-size="11.2" lengthAdjust="spacing" textLength="76.8" x="718.4" y="695.4773">GridGeometry</text></g><!--class GridVariables--><g id="elem_GridVariables"><rect codeLine="62" fill="#F1F1F1" height="25.6" id="GridVariables" rx="2" ry="2" style="stroke:#181818;stroke-width:0.4000000000000001;" width="97.6" x="700" y="503.6"/><ellipse cx="712" cy="516.4" fill="#ADD1B2" rx="8.8" ry="8.8" style="stroke:#181818;stroke-width:0.8000000000000002;"/><path d="M714.375,520.9125 Q713.9125,521.15 713.4,521.2625 Q712.8875,521.3875 712.325,521.3875 Q710.325,521.3875 709.2625,520.075 Q708.2125,518.75 708.2125,516.25 Q708.2125,513.75 709.2625,512.425 Q710.325,511.1 712.325,511.1 Q712.8875,511.1 713.4,511.225 Q713.925,511.35 714.375,511.5875 L714.375,513.7625 Q713.875,513.3 713.4,513.0875 Q712.925,512.8625 712.425,512.8625 Q711.35,512.8625 710.8,513.725 Q710.25,514.575 710.25,516.25 Q710.25,517.925 710.8,518.7875 Q711.35,519.6375 712.425,519.6375 Q712.925,519.6375 713.4,519.425 Q713.875,519.2 714.375,518.7375 L714.375,520.9125 Z " fill="#000000"/><text fill="#000000" font-family="sans-serif" font-size="11.2" lengthAdjust="spacing" textLength="72" x="723.2" y="520.2773">GridVariables</text></g><!--class PrimaryVariables--><g id="elem_PrimaryVariables"><rect codeLine="63" fill="#F1F1F1" height="25.6" id="PrimaryVariables" rx="2" ry="2" style="stroke:#181818;stroke-width:0.4000000000000001;" width="115.2" x="560.8" y="503.6"/><ellipse cx="572.8" cy="516.4" fill="#ADD1B2" rx="8.8" ry="8.8" style="stroke:#181818;stroke-width:0.8000000000000002;"/><path d="M575.175,520.9125 Q574.7125,521.15 574.2,521.2625 Q573.6875,521.3875 573.125,521.3875 Q571.125,521.3875 570.0625,520.075 Q569.0125,518.75 569.0125,516.25 Q569.0125,513.75 570.0625,512.425 Q571.125,511.1 573.125,511.1 Q573.6875,511.1 574.2,511.225 Q574.725,511.35 575.175,511.5875 L575.175,513.7625 Q574.675,513.3 574.2,513.0875 Q573.725,512.8625 573.225,512.8625 Q572.15,512.8625 571.6,513.725 Q571.05,514.575 571.05,516.25 Q571.05,517.925 571.6,518.7875 Q572.15,519.6375 573.225,519.6375 Q573.725,519.6375 574.2,519.425 Q574.675,519.2 575.175,518.7375 L575.175,520.9125 Z " fill="#000000"/><text fill="#000000" font-family="sans-serif" font-size="11.2" lengthAdjust="spacing" textLength="89.6" x="584" y="520.2773">PrimaryVariables</text></g><!--class SolutionVector--><g id="elem_SolutionVector"><rect codeLine="64" fill="#F1F1F1" height="25.6" id="SolutionVector" rx="2" ry="2" style="stroke:#181818;stroke-width:0.4000000000000001;" width="106.4" x="565.2" y="567.6"/><ellipse cx="577.2" cy="580.4" fill="#ADD1B2" rx="8.8" ry="8.8" style="stroke:#181818;stroke-width:0.8000000000000002;"/><path d="M579.575,584.9125 Q579.1125,585.15 578.6,585.2625 Q578.0875,585.3875 577.525,585.3875 Q575.525,585.3875 574.4625,584.075 Q573.4125,582.75 573.4125,580.25 Q573.4125,577.75 574.4625,576.425 Q575.525,575.1 577.525,575.1 Q578.0875,575.1 578.6,575.225 Q579.125,575.35 579.575,575.5875 L579.575,577.7625 Q579.075,577.3 578.6,577.0875 Q578.125,576.8625 577.625,576.8625 Q576.55,576.8625 576,577.725 Q575.45,578.575 575.45,580.25 Q575.45,581.925 576,582.7875 Q576.55,583.6375 577.625,583.6375 Q578.125,583.6375 578.6,583.425 Q579.075,583.2 579.575,582.7375 L579.575,584.9125 Z " fill="#000000"/><text fill="#000000" font-family="sans-serif" font-size="11.2" lengthAdjust="spacing" textLength="80.8" x="588.4" y="584.2773">SolutionVector</text></g><!--class Assembler--><g id="elem_Assembler"><rect codeLine="67" fill="#F1F1F1" height="25.6" id="Assembler" rx="2" ry="2" style="stroke:#181818;stroke-width:0.4000000000000001;" width="84" x="886" y="678.8"/><ellipse cx="898" cy="691.6" fill="#ADD1B2" rx="8.8" ry="8.8" style="stroke:#181818;stroke-width:0.8000000000000002;"/><path d="M900.375,696.1125 Q899.9125,696.35 899.4,696.4625 Q898.8875,696.5875 898.325,696.5875 Q896.325,696.5875 895.2625,695.275 Q894.2125,693.95 894.2125,691.45 Q894.2125,688.95 895.2625,687.625 Q896.325,686.3 898.325,686.3 Q898.8875,686.3 899.4,686.425 Q899.925,686.55 900.375,686.7875 L900.375,688.9625 Q899.875,688.5 899.4,688.2875 Q898.925,688.0625 898.425,688.0625 Q897.35,688.0625 896.8,688.925 Q896.25,689.775 896.25,691.45 Q896.25,693.125 896.8,693.9875 Q897.35,694.8375 898.425,694.8375 Q898.925,694.8375 899.4,694.625 Q899.875,694.4 900.375,693.9375 L900.375,696.1125 Z " fill="#000000"/><text fill="#000000" font-family="sans-serif" font-size="11.2" lengthAdjust="spacing" textLength="58.4" x="909.2" y="695.4773">Assembler</text></g><!--class LocalAssembler--><g id="elem_LocalAssembler"><rect codeLine="68" fill="#F1F1F1" height="25.6" id="LocalAssembler" rx="2" ry="2" style="stroke:#181818;stroke-width:0.4000000000000001;" width="112" x="885.6" y="567.6"/><ellipse cx="897.6" cy="580.4" fill="#ADD1B2" rx="8.8" ry="8.8" style="stroke:#181818;stroke-width:0.8000000000000002;"/><path d="M899.975,584.9125 Q899.5125,585.15 899,585.2625 Q898.4875,585.3875 897.925,585.3875 Q895.925,585.3875 894.8625,584.075 Q893.8125,582.75 893.8125,580.25 Q893.8125,577.75 894.8625,576.425 Q895.925,575.1 897.925,575.1 Q898.4875,575.1 899,575.225 Q899.525,575.35 899.975,575.5875 L899.975,577.7625 Q899.475,577.3 899,577.0875 Q898.525,576.8625 898.025,576.8625 Q896.95,576.8625 896.4,577.725 Q895.85,578.575 895.85,580.25 Q895.85,581.925 896.4,582.7875 Q896.95,583.6375 898.025,583.6375 Q898.525,583.6375 899,583.425 Q899.475,583.2 899.975,582.7375 L899.975,584.9125 Z " fill="#000000"/><text fill="#000000" font-family="sans-serif" font-size="11.2" lengthAdjust="spacing" textLength="86.4" x="908.8" y="584.2773">LocalAssembler</text></g><!--class LocalResidual--><g id="elem_LocalResidual"><rect codeLine="69" fill="#F1F1F1" height="25.6" id="LocalResidual" rx="2" ry="2" style="stroke:#181818;stroke-width:0.4000000000000001;" width="100.8" x="890.4" y="503.6"/><ellipse cx="902.4" cy="516.4" fill="#ADD1B2" rx="8.8" ry="8.8" style="stroke:#181818;stroke-width:0.8000000000000002;"/><path d="M904.775,520.9125 Q904.3125,521.15 903.8,521.2625 Q903.2875,521.3875 902.725,521.3875 Q900.725,521.3875 899.6625,520.075 Q898.6125,518.75 898.6125,516.25 Q898.6125,513.75 899.6625,512.425 Q900.725,511.1 902.725,511.1 Q903.2875,511.1 903.8,511.225 Q904.325,511.35 904.775,511.5875 L904.775,513.7625 Q904.275,513.3 903.8,513.0875 Q903.325,512.8625 902.825,512.8625 Q901.75,512.8625 901.2,513.725 Q900.65,514.575 900.65,516.25 Q900.65,517.925 901.2,518.7875 Q901.75,519.6375 902.825,519.6375 Q903.325,519.6375 903.8,519.425 Q904.275,519.2 904.775,518.7375 L904.775,520.9125 Z " fill="#000000"/><text fill="#000000" font-family="sans-serif" font-size="11.2" lengthAdjust="spacing" textLength="75.2" x="913.6" y="520.2773">LocalResidual</text></g><!--class PDESolver--><a href="./../html/group___nonlinear.html" target="_top" title="./../html/group___nonlinear.html" xlink:actuate="onRequest" xlink:href="./../html/group___nonlinear.html" xlink:show="new" xlink:title="./../html/group___nonlinear.html" xlink:type="simple"><g id="elem_PDESolver"><rect codeLine="73" fill="#F1F1F1" height="25.6" id="PDESolver" rx="2" ry="2" style="stroke:#181818;stroke-width:0.4000000000000001;" width="82.4" x="1282.8" y="567.6"/><ellipse cx="1294.8" cy="580.4" fill="#ADD1B2" rx="8.8" ry="8.8" style="stroke:#181818;stroke-width:0.8000000000000002;"/><path d="M1297.175,584.9125 Q1296.7125,585.15 1296.2,585.2625 Q1295.6875,585.3875 1295.125,585.3875 Q1293.125,585.3875 1292.0625,584.075 Q1291.0125,582.75 1291.0125,580.25 Q1291.0125,577.75 1292.0625,576.425 Q1293.125,575.1 1295.125,575.1 Q1295.6875,575.1 1296.2,575.225 Q1296.725,575.35 1297.175,575.5875 L1297.175,577.7625 Q1296.675,577.3 1296.2,577.0875 Q1295.725,576.8625 1295.225,576.8625 Q1294.15,576.8625 1293.6,577.725 Q1293.05,578.575 1293.05,580.25 Q1293.05,581.925 1293.6,582.7875 Q1294.15,583.6375 1295.225,583.6375 Q1295.725,583.6375 1296.2,583.425 Q1296.675,583.2 1297.175,582.7375 L1297.175,584.9125 Z " fill="#000000"/><text fill="#000000" font-family="sans-serif" font-size="11.2" lengthAdjust="spacing" textLength="56.8" x="1306" y="584.2773">PDESolver</text></g></a><!--class LinearSolver--><a href="./../html/group___linear.html" target="_top" title="./../html/group___linear.html" xlink:actuate="onRequest" xlink:href="./../html/group___linear.html" xlink:show="new" xlink:title="./../html/group___linear.html" xlink:type="simple"><g id="elem_LinearSolver"><rect codeLine="74" fill="#F1F1F1" height="25.6" id="LinearSolver" rx="2" ry="2" style="stroke:#181818;stroke-width:0.4000000000000001;" width="93.6" x="1282.8" y="503.6"/><ellipse cx="1294.8" cy="516.4" fill="#B4A7E5" rx="8.8" ry="8.8" style="stroke:#181818;stroke-width:0.8000000000000002;"/><path d="M1291.5375,513.0125 L1291.5375,511.2875 L1297.45,511.2875 L1297.45,513.0125 L1295.475,513.0125 L1295.475,519.475 L1297.45,519.475 L1297.45,521.2 L1291.5375,521.2 L1291.5375,519.475 L1293.5125,519.475 L1293.5125,513.0125 L1291.5375,513.0125 Z " fill="#000000"/><text fill="#000000" font-family="sans-serif" font-size="11.2" font-style="italic" lengthAdjust="spacing" textLength="68" x="1306" y="520.2773">LinearSolver</text></g></a><!--class TimeLoop--><g id="elem_TimeLoop"><rect codeLine="75" fill="#F1F1F1" height="25.6" id="TimeLoop" rx="2" ry="2" style="stroke:#181818;stroke-width:0.4000000000000001;" width="80" x="1283.2" y="678.8"/><ellipse cx="1295.2" cy="691.6" fill="#ADD1B2" rx="8.8" ry="8.8" style="stroke:#181818;stroke-width:0.8000000000000002;"/><path d="M1297.575,696.1125 Q1297.1125,696.35 1296.6,696.4625 Q1296.0875,696.5875 1295.525,696.5875 Q1293.525,696.5875 1292.4625,695.275 Q1291.4125,693.95 1291.4125,691.45 Q1291.4125,688.95 1292.4625,687.625 Q1293.525,686.3 1295.525,686.3 Q1296.0875,686.3 1296.6,686.425 Q1297.125,686.55 1297.575,686.7875 L1297.575,688.9625 Q1297.075,688.5 1296.6,688.2875 Q1296.125,688.0625 1295.625,688.0625 Q1294.55,688.0625 1294,688.925 Q1293.45,689.775 1293.45,691.45 Q1293.45,693.125 1294,693.9875 Q1294.55,694.8375 1295.625,694.8375 Q1296.125,694.8375 1296.6,694.625 Q1297.075,694.4 1297.575,693.9375 L1297.575,696.1125 Z " fill="#000000"/><text fill="#000000" font-family="sans-serif" font-size="11.2" lengthAdjust="spacing" textLength="54.4" x="1306.4" y="695.4773">TimeLoop</text></g><!--class IOField--><g id="elem_IOField"><rect codeLine="78" fill="#F1F1F1" height="25.6" id="IOField" rx="2" ry="2" style="stroke:#181818;stroke-width:0.4000000000000001;" width="62.4" x="1084" y="424.4"/><ellipse cx="1096" cy="437.2" fill="#ADD1B2" rx="8.8" ry="8.8" style="stroke:#181818;stroke-width:0.8000000000000002;"/><path d="M1098.375,441.7125 Q1097.9125,441.95 1097.4,442.0625 Q1096.8875,442.1875 1096.325,442.1875 Q1094.325,442.1875 1093.2625,440.875 Q1092.2125,439.55 1092.2125,437.05 Q1092.2125,434.55 1093.2625,433.225 Q1094.325,431.9 1096.325,431.9 Q1096.8875,431.9 1097.4,432.025 Q1097.925,432.15 1098.375,432.3875 L1098.375,434.5625 Q1097.875,434.1 1097.4,433.8875 Q1096.925,433.6625 1096.425,433.6625 Q1095.35,433.6625 1094.8,434.525 Q1094.25,435.375 1094.25,437.05 Q1094.25,438.725 1094.8,439.5875 Q1095.35,440.4375 1096.425,440.4375 Q1096.925,440.4375 1097.4,440.225 Q1097.875,440 1098.375,439.5375 L1098.375,441.7125 Z " fill="#000000"/><text fill="#000000" font-family="sans-serif" font-size="11.2" lengthAdjust="spacing" textLength="36.8" x="1107.2" y="441.0773">IOField</text></g><!--class VTKOutputModule--><g id="elem_VTKOutputModule"><rect codeLine="79" fill="#F1F1F1" height="25.6" id="VTKOutputModule" rx="2" ry="2" style="stroke:#181818;stroke-width:0.4000000000000001;" width="126.4" x="1068" y="503.6"/><ellipse cx="1080" cy="516.4" fill="#ADD1B2" rx="8.8" ry="8.8" style="stroke:#181818;stroke-width:0.8000000000000002;"/><path d="M1082.375,520.9125 Q1081.9125,521.15 1081.4,521.2625 Q1080.8875,521.3875 1080.325,521.3875 Q1078.325,521.3875 1077.2625,520.075 Q1076.2125,518.75 1076.2125,516.25 Q1076.2125,513.75 1077.2625,512.425 Q1078.325,511.1 1080.325,511.1 Q1080.8875,511.1 1081.4,511.225 Q1081.925,511.35 1082.375,511.5875 L1082.375,513.7625 Q1081.875,513.3 1081.4,513.0875 Q1080.925,512.8625 1080.425,512.8625 Q1079.35,512.8625 1078.8,513.725 Q1078.25,514.575 1078.25,516.25 Q1078.25,517.925 1078.8,518.7875 Q1079.35,519.6375 1080.425,519.6375 Q1080.925,519.6375 1081.4,519.425 Q1081.875,519.2 1082.375,518.7375 L1082.375,520.9125 Z " fill="#000000"/><text fill="#000000" font-family="sans-serif" font-size="11.2" lengthAdjust="spacing" textLength="100.8" x="1091.2" y="520.2773">VTKOutputModule</text></g><!--link DuMux to Dune--><!--link User Scenario to DuMux--><!--link User Scenario to DuMux--><!--link dune-grid to dune-istl--><!--link ISTL solvers to ISTL matrices--><!--link ISTL matrices to ISTL vectors--><!--link ISTL vectors to ParameterTree--><!--link YaspGrid to ISTL matrices--><!--link Output to Solving--><!--link Output to Solving--><!--link Solving to Assembly--><!--link Solving to Assembly--><!--link Assembly to Variables--><!--link Assembly to Variables--><!--link Assembly to Variables--><!--link Variables to Grid--><!--link Variables to Grid--><!--link Variables to ISTL vectors--><!--reverse link LinearSolver to ISTL solvers--><g id="link_LinearSolver_ISTL solvers"><path codeLine="97" d="M1381.232,516.4 C1436.216,516.4 1515.2,516.4 1515.2,516.4 C1515.2,516.4 1515.2,912.44 1515.2,989.792 " fill="none" id="LinearSolver-backto-ISTL solvers" style="stroke:#181818;stroke-width:0.8000000000000002;"/><polygon fill="#181818" points="1376.432,516.4,1383.632,519.6,1380.432,516.4,1383.632,513.2,1376.432,516.4" style="stroke:#181818;stroke-width:0.8000000000000002;"/></g><!--reverse link Assembler to ISTL matrices--><g id="link_Assembler_ISTL matrices"><path codeLine="98" d="M974.84,698 C1060.96,698 1244.6,698 1244.6,698 C1244.6,698 1244.6,931.36 1244.6,989.704 " fill="none" id="Assembler-backto-ISTL matrices" style="stroke:#181818;stroke-width:0.8000000000000002;"/><polygon fill="#181818" points="970.04,698,977.24,701.2,974.04,698,977.24,694.8,970.04,698" style="stroke:#181818;stroke-width:0.8000000000000002;"/></g><!--reverse link LinearSolver to ISTL vectors--><g id="link_LinearSolver_ISTL vectors"><path codeLine="99" d="M1370.8,534.208 C1370.8,603.256 1370.8,921.392 1370.8,989.976 " fill="none" id="LinearSolver-backto-ISTL vectors" style="stroke:#181818;stroke-width:0.8000000000000002;"/><polygon fill="#181818" points="1370.8,529.408,1367.6,536.608,1370.8,533.408,1374,536.608,1370.8,529.408" style="stroke:#181818;stroke-width:0.8000000000000002;"/></g><!--reverse link GridManager to dune-grid--><g id="link_GridManager_dune-grid"><path codeLine="100" d="M801.72,805.2 C886.872,805.2 1050.4,805.2 1050.4,805.2 C1050.4,805.2 1050.4,852.312 1050.4,900.528 C1050.4,912.582 1050.4,924.705 1050.4,936.1781 C1050.4,941.9147 1050.4,947.4888 1050.4,952.8105 C1050.4,953.4758 1050.4,954.137 1050.4,954.7942 " fill="none" id="GridManager-backto-dune-grid" style="stroke:#181818;stroke-width:0.8000000000000002;"/><polygon fill="#181818" points="796.92,805.2,804.12,808.4,800.92,805.2,804.12,802,796.92,805.2" style="stroke:#181818;stroke-width:0.8000000000000002;"/></g><!--link GridView to GridManager--><g id="link_GridView_GridManager"><path codeLine="101" d="M747.2,768.632 C747.2,775.864 747.2,775.24 747.2,782.48 " fill="none" id="GridView-to-GridManager" style="stroke:#181818;stroke-width:0.8000000000000002;"/><polygon fill="none" points="747.2,792.08,750.4,787.28,747.2,782.48,744,787.28,747.2,792.08" style="stroke:#181818;stroke-width:0.8000000000000002;"/></g><!--reverse link GridGeometry to GridView--><g id="link_GridGeometry_GridView"><path codeLine="102" d="M747.2,714.152 C747.2,725.256 747.2,731.568 747.2,742.664 " fill="none" id="GridGeometry-backto-GridView" style="stroke:#181818;stroke-width:0.8000000000000002;"/><polygon fill="none" points="747.2,704.552,744,709.352,747.2,714.152,750.4,709.352,747.2,704.552" style="stroke:#181818;stroke-width:0.8000000000000002;"/></g><!--reverse link Problem to GridGeometry--><g id="link_Problem_GridGeometry"><path codeLine="103" d="M188.8,269.28 C188.8,341.696 188.8,685.2 188.8,685.2 C188.8,685.2 557.344,685.2 695.192,685.2 " fill="none" id="Problem-backto-GridGeometry" style="stroke:#181818;stroke-width:0.8000000000000002;"/><polygon fill="none" points="188.8,259.68,185.6,264.48,188.8,269.28,192,264.48,188.8,259.68" style="stroke:#181818;stroke-width:0.8000000000000002;"/></g><!--reverse link SpatialParams to GridGeometry--><g id="link_SpatialParams_GridGeometry"><path codeLine="104" d="M77.6,269.232 C77.6,342.16 77.6,691.6 77.6,691.6 C77.6,691.6 538.424,691.6 695.032,691.6 " fill="none" id="SpatialParams-backto-GridGeometry" style="stroke:#181818;stroke-width:0.8000000000000002;"/><polygon fill="none" points="77.6,259.632,74.4,264.432,77.6,269.232,80.8,264.432,77.6,259.632" style="stroke:#181818;stroke-width:0.8000000000000002;"/></g><!--reverse link GridVariables to GridGeometry--><g id="link_GridVariables_GridGeometry"><path codeLine="105" d="M765.064,538.88 C765.064,571.28 765.064,646.28 765.064,678.696 " fill="none" id="GridVariables-backto-GridGeometry" style="stroke:#181818;stroke-width:0.8000000000000002;"/><polygon fill="none" points="765.064,529.28,761.864,534.08,765.064,538.88,768.264,534.08,765.064,529.28" style="stroke:#181818;stroke-width:0.8000000000000002;"/></g><!--reverse link Assembler to GridGeometry--><g id="link_Assembler_GridGeometry"><path codeLine="106" d="M876.28,688.4 C849.984,688.4 825.544,688.4 797.68,688.4 " fill="none" id="Assembler-backto-GridGeometry" style="stroke:#181818;stroke-width:0.8000000000000002;"/><polygon fill="none" points="885.88,688.4,881.08,685.2,876.28,688.4,881.08,691.6,885.88,688.4" style="stroke:#181818;stroke-width:0.8000000000000002;"/></g><!--link LinearSolver to PDESolver--><g id="link_LinearSolver_PDESolver"><path codeLine="107" d="M1324,529.352 C1324,540.456 1324,551.568 1324,562.664 " fill="none" id="LinearSolver-to-PDESolver" style="stroke:#181818;stroke-width:0.8000000000000002;"/><polygon fill="#181818" points="1324,567.464,1327.2,560.264,1324,563.464,1320.8,560.264,1324,567.464" style="stroke:#181818;stroke-width:0.8000000000000002;"/></g><!--link LocalResidual to LocalAssembler--><g id="link_LocalResidual_LocalAssembler"><path codeLine="108" d="M940.8,529.352 C940.8,540.456 940.8,546.768 940.8,557.864 " fill="none" id="LocalResidual-to-LocalAssembler" style="stroke:#181818;stroke-width:0.8000000000000002;"/><polygon fill="none" points="940.8,567.464,944,562.664,940.8,557.864,937.6,562.664,940.8,567.464" style="stroke:#181818;stroke-width:0.8000000000000002;"/></g><!--reverse link LocalAssembler to Assembler--><g id="link_LocalAssembler_Assembler"><path codeLine="109" d="M928,598.176 C928,619.6 928,657.336 928,678.712 " fill="none" id="LocalAssembler-backto-Assembler" style="stroke:#181818;stroke-width:0.8000000000000002;"/><polygon fill="#181818" points="928,593.376,924.8,600.576,928,597.376,931.2,600.576,928,593.376" style="stroke:#181818;stroke-width:0.8000000000000002;"/><text fill="#000000" font-family="sans-serif" font-size="10.4" lengthAdjust="spacing" textLength="24" x="903.2" y="632.8935">uses</text></g><!--reverse link VTKOutputModule to GridVariables--><g id="link_VTKOutputModule_GridVariables"><path codeLine="110" d="M1071.2,534.2 C1071.2,545.344 1071.2,554.8 1071.2,554.8 C1071.2,554.8 732.536,554.8 732.536,554.8 C732.536,554.8 732.536,540.544 732.536,529.4 " fill="none" id="VTKOutputModule-backto-GridVariables" style="stroke:#181818;stroke-width:0.8000000000000002;"/><polygon fill="#181818" points="1071.2,529.4,1068,536.6,1071.2,533.4,1074.4,536.6,1071.2,529.4" style="stroke:#181818;stroke-width:0.8000000000000002;"/></g><!--link PrimaryVariables to SolutionVector--><g id="link_PrimaryVariables_SolutionVector"><path codeLine="111" d="M618.4,529.352 C618.4,540.456 618.4,546.768 618.4,557.864 " fill="none" id="PrimaryVariables-to-SolutionVector" style="stroke:#181818;stroke-width:0.8000000000000002;"/><polygon fill="none" points="618.4,567.464,621.6,562.664,618.4,557.864,615.2,562.664,618.4,567.464" style="stroke:#181818;stroke-width:0.8000000000000002;"/></g><!--link IOField to VTKOutputModule--><g id="link_IOField_VTKOutputModule"><path codeLine="112" d="M1115.2,450.28 C1115.2,465.04 1115.2,484.104 1115.2,498.768 " fill="none" id="IOField-to-VTKOutputModule" style="stroke:#181818;stroke-width:0.8000000000000002;"/><polygon fill="#181818" points="1115.2,503.568,1118.4,496.368,1115.2,499.568,1112,496.368,1115.2,503.568" style="stroke:#181818;stroke-width:0.8000000000000002;"/></g><!--link Assembler to PDESolver--><g id="link_Assembler_PDESolver"><path codeLine="113" d="M970.056,691.6 C987.304,691.6 1003.296,691.6 1003.296,691.6 C1003.296,691.6 1003.296,585.2 1003.296,585.2 C1003.296,585.2 1191.312,585.2 1277.928,585.2 " fill="none" id="Assembler-to-PDESolver" style="stroke:#181818;stroke-width:0.8000000000000002;"/><polygon fill="#181818" points="1282.728,585.2,1275.528,582,1278.728,585.2,1275.528,588.4,1282.728,585.2" style="stroke:#181818;stroke-width:0.8000000000000002;"/></g><!--link PDESolver to TimeLoop--><g id="link_PDESolver_TimeLoop"><path codeLine="114" d="M1323.2,593.376 C1323.2,614.8 1323.2,652.536 1323.2,673.912 " fill="none" id="PDESolver-to-TimeLoop" style="stroke:#181818;stroke-width:0.8000000000000002;"/><polygon fill="#181818" points="1323.2,678.712,1326.4,671.512,1323.2,674.712,1320,671.512,1323.2,678.712" style="stroke:#181818;stroke-width:0.8000000000000002;"/></g><!--link SolutionVector to Assembler--><g id="link_SolutionVector_Assembler"><path codeLine="115" d="M671.832,580.4 C725.864,580.4 801.44,580.4 801.44,580.4 C801.44,580.4 801.44,686 801.44,686 C801.44,686 844.24,686 881.056,686 " fill="none" id="SolutionVector-to-Assembler" style="stroke:#181818;stroke-width:0.8000000000000002;"/><polygon fill="#181818" points="885.856,686,878.656,682.8,881.856,686,878.656,689.2,885.856,686" style="stroke:#181818;stroke-width:0.8000000000000002;"/></g><!--link GridVariables to Assembler--><g id="link_GridVariables_Assembler"><path codeLine="116" d="M797.664,521.2 C802.28,521.2 805.28,521.2 805.28,521.2 C805.28,521.2 805.28,683.6 805.28,683.6 C805.28,683.6 845.472,683.6 880.968,683.6 " fill="none" id="GridVariables-to-Assembler" style="stroke:#181818;stroke-width:0.8000000000000002;"/><polygon fill="#181818" points="885.768,683.6,878.568,680.4,881.768,683.6,878.568,686.8,885.768,683.6" style="stroke:#181818;stroke-width:0.8000000000000002;"/></g><!--link SpatialParams to Problem--><g id="link_SpatialParams_Problem"><path codeLine="117" d="M128.968,246.8 C137.048,246.8 135.648,246.8 143.28,246.8 " fill="none" id="SpatialParams-to-Problem" style="stroke:#181818;stroke-width:0.8000000000000002;"/><polygon fill="none" points="152.88,246.8,148.08,243.6,143.28,246.8,148.08,250,152.88,246.8" style="stroke:#181818;stroke-width:0.8000000000000002;"/></g><!--link Properties to main--><g id="link_Properties_main"><path codeLine="118" d="M210.963,178.8 C212.1843,178.8 213.4088,178.8 214.6359,178.8 C219.5447,178.8 224.498,178.8 229.48,178.8 " fill="none" id="Properties-main" style="stroke:#181818;stroke-width:0.8000000000000002;"/></g><!--link Properties to GridGeometry--><g id="link_Properties_GridGeometry"><path codeLine="123" d="M39.0448,126.8 C38.9844,126.8 38.9237,126.8 38.8627,126.8 C38.7407,126.8 38.6175,126.8 38.4932,126.8 C38.2445,126.8 37.9911,126.8 37.7333,126.8 C37.2179,126.8 36.685,126.8 36.1371,126.8 C35.0414,126.8 33.8859,126.8 32.6906,126.8 C30.3,126.8 27.75,126.8 25.2,126.8 C15,126.8 4.8,126.8 4.8,126.8 C4.8,126.8 4.8,698 4.8,698 C4.8,698 527.272,698 695.136,698 " fill="none" id="Properties-GridGeometry" style="stroke:#FF0000;stroke-width:0.8000000000000002;"/></g><!--link Properties to GridVariables--><g id="link_Properties_GridVariables"><path codeLine="124" d="M71.2,184.9013 C71.2,185.0902 71.2,185.2791 71.2,185.468 C71.2,186.2235 71.2,186.9783 71.2,187.7316 C71.2,189.2382 71.2,190.7389 71.2,192.2277 C71.2,195.2055 71.2,198.1359 71.2,200.9719 C71.2,206.6438 71.2,211.9375 71.2,216.475 C71.2,225.55 71.2,231.6 71.2,231.6 C71.2,231.6 748.8,231.6 748.8,231.6 C748.8,231.6 748.8,447.704 748.8,503.424 " fill="none" id="Properties-GridVariables" style="stroke:#FF0000;stroke-width:0.8000000000000002;"/></g><!--link Properties to PrimaryVariables--><g id="link_Properties_PrimaryVariables"><path codeLine="125" d="M39.1305,134.8 C39.0869,134.8 39.0431,134.8 38.9991,134.8 C38.9112,134.8 38.8228,134.8 38.7339,134.8 C38.0227,134.8 37.2794,134.8 36.5156,134.8 C34.9881,134.8 33.379,134.8 31.782,134.8 C25.394,134.8 19.2,134.8 19.2,134.8 C19.2,134.8 19.2,516.4 19.2,516.4 C19.2,516.4 410.496,516.4 560.672,516.4 " fill="none" id="Properties-PrimaryVariables" style="stroke:#FF0000;stroke-width:0.8000000000000002;"/></g><!--link Properties to SolutionVector--><g id="link_Properties_SolutionVector"><path codeLine="126" d="M39.1106,142.8 C39.0075,142.8 38.9036,142.8 38.7987,142.8 C38.3792,142.8 37.9456,142.8 37.4998,142.8 C36.6082,142.8 35.668,142.8 34.6953,142.8 C32.75,142.8 30.675,142.8 28.6,142.8 C20.3,142.8 12,142.8 12,142.8 C12,142.8 12,580.4 12,580.4 C12,580.4 417.144,580.4 565.12,580.4 " fill="none" id="Properties-SolutionVector" style="stroke:#FF0000;stroke-width:0.8000000000000002;"/></g><!--link Properties to Assembler--><g id="link_Properties_Assembler"><path codeLine="127" d="M65,184.9329 C65,185.287 65,185.6406 65,185.9937 C65,186.7 65,187.4041 65,188.1055 C65,190.9109 65,193.6719 65,196.3438 C65,201.6875 65,206.675 65,210.95 C65,219.5 65,225.2 65,225.2 C65,225.2 809.12,225.2 809.12,225.2 C809.12,225.2 809.12,681.2 809.12,681.2 C809.12,681.2 851.584,681.2 885.752,681.2 " fill="none" id="Properties-Assembler" style="stroke:#FF0000;stroke-width:0.8000000000000002;"/></g><!--link Properties to LocalAssembler--><g id="link_Properties_LocalAssembler"><path codeLine="128" d="M46,51.9062 C46,51.7961 46,51.6869 46,51.5784 C46,51.3615 46,51.1479 46,50.9378 C46,49.2562 46,47.7915 46,46.5859 C46,44.1748 46,42.8 46,42.8 C46,42.8 994.4,42.8 994.4,42.8 C994.4,42.8 994.4,485.28 994.4,567.376 " fill="none" id="Properties-LocalAssembler" style="stroke:#FF0000;stroke-width:0.8000000000000002;"/></g><!--link Properties to LocalResidual--><g id="link_Properties_LocalResidual"><path codeLine="129" d="M39.1178,133.2 C39.0628,133.2 39.0078,133.2 38.9527,133.2 C38.8426,133.2 38.7323,133.2 38.6219,133.2 C38.401,133.2 38.1798,133.2 37.959,133.2 C34.426,133.2 31,133.2 31,133.2 C31,133.2 31,228.4 31,228.4 C31,228.4 940.8,228.4 940.8,228.4 C940.8,228.4 940.8,446.936 940.8,503.28 " fill="none" id="Properties-LocalResidual" style="stroke:#FF0000;stroke-width:0.8000000000000002;"/></g><!--link Properties to PDESolver--><g id="link_Properties_PDESolver"><path codeLine="130" d="M58.8,185.2481 C58.8,185.4047 58.8,185.5611 58.8,185.7173 C58.8,186.0296 58.8,186.3411 58.8,186.6517 C58.8,187.8939 58.8,189.1211 58.8,190.3281 C58.8,195.1563 58.8,199.6625 58.8,203.525 C58.8,211.25 58.8,216.4 58.8,216.4 C58.8,216.4 1001.4,216.4 1001.4,216.4 C1001.4,216.4 1001.4,576.4 1001.4,576.4 C1001.4,576.4 1195.36,576.4 1282.488,576.4 " fill="none" id="Properties-PDESolver" style="stroke:#FF0000;stroke-width:0.8000000000000002;"/></g><!--link Properties to TimeLoop--><g id="link_Properties_TimeLoop"><path codeLine="131" d="M39.1618,134 C39.1265,134 39.0914,134 39.0564,134 C38.9863,134 38.9167,134 38.8476,134 C38.7094,134 38.5732,134 38.4396,134 C37.9052,134 37.4116,134 36.9909,134 C36.1495,134 35.6,134 35.6,134 C35.6,134 35.6,222 35.6,222 C35.6,222 999.504,222 999.504,222 C999.504,222 999.504,685.2 999.504,685.2 C999.504,685.2 1196.576,685.2 1283.184,685.2 " fill="none" id="Properties-TimeLoop" style="stroke:#FF0000;stroke-width:0.8000000000000002;"/></g><!--link Properties to IOField--><g id="link_Properties_IOField"><path codeLine="132" d="M40.2,185.2764 C40.2,185.4407 40.2,185.6047 40.2,185.7686 C40.2,186.0964 40.2,186.4234 40.2,186.7496 C40.2,187.402 40.2,188.0512 40.2,188.6964 C40.2,189.9869 40.2,191.2617 40.2,192.5156 C40.2,197.5313 40.2,202.2125 40.2,206.225 C40.2,214.25 40.2,219.6 40.2,219.6 C40.2,219.6 1115.2,219.6 1115.2,219.6 C1115.2,219.6 1115.2,377.392 1115.2,424.24 " fill="none" id="Properties-IOField" style="stroke:#FF0000;stroke-width:0.8000000000000002;"/></g><!--link Properties to VTKOutputModule--><g id="link_Properties_VTKOutputModule"><path codeLine="133" d="M52.6,185.0726 C52.6,185.214 52.6,185.3552 52.6,185.4962 C52.6,185.7782 52.6,186.0595 52.6,186.3399 C52.6,187.4615 52.6,188.5695 52.6,189.6594 C52.6,194.0188 52.6,198.0875 52.6,201.575 C52.6,208.55 52.6,213.2 52.6,213.2 C52.6,213.2 1076,213.2 1076,213.2 C1076,213.2 1076,445.336 1076,503.368 " fill="none" id="Properties-VTKOutputModule" style="stroke:#FF0000;stroke-width:0.8000000000000002;"/></g><!--link Properties to SpatialParams--><g id="link_Properties_SpatialParams"><path codeLine="134" d="M46,185.0478 C46,185.3892 46,185.7307 46,186.0725 C46,187.4397 46,188.8101 46,190.1805 C46,195.6621 46,201.1439 46,206.4203 C46,216.973 46,226.704 46,233.968 " fill="none" id="Properties-SpatialParams" style="stroke:#FF0000;stroke-width:0.8000000000000002;"/></g><!--link Properties to Problem--><g id="link_Properties_Problem"><path codeLine="135" d="M198.4,185.1559 C198.4,185.6525 198.4,186.1481 198.4,186.6427 C198.4,187.6318 198.4,188.6168 198.4,189.597 C198.4,191.5573 198.4,193.4983 198.4,195.4146 C198.4,210.745 198.4,224.494 198.4,233.904 " fill="none" id="Properties-Problem" style="stroke:#FF0000;stroke-width:0.8000000000000002;"/></g><!--link params to Output--><!--SRC=[bLTjRzis4FxENq6uNzgYKe8D0melCp0WhH4iGOFQ2r0OHi18LuU890eabSq8_DzBIXJVHDUfFbdtF3pU7Uyvog8W5U3p_2EIhCMIuGSc9QjnIJaKah86FT8ICDIjtECQwWVW0WcGM41BE96CuuOrWCGJRRIXnXLjOBrl0JCk7va7DAm4jGh_VkuPEMcUZ16rf7WYEy2pVmLml2gW8Poo6Nv1s3n5HOJ0jvmzL52_72BxgYMIakfMEnOU-fsg5Flj12O2pooWdy6UgtWw6G2PUWB3HQ4IM0IcpPhMSCrOkmtCb_AgeJeK_1V-xOzp_0PlHCZ8yppqVHOwduN1ruGsqz2rDI-ANuwQDh9V-rR_87nNVC358-7lt-kNvtS1zoLuIuMkdqxGPeVrgQ_9JYMjJgW5BYc8-NojJFEvMlNdBxWoHwnSBK5gRzhtXTdWG-3VK1TJzwHJ_TnQJqAMytbDdk1Ug6oXl1XNljrnMYw1rI3v_jtfC0-lE3hRoovKlv4jhAipYwei9EyAYM_s9b-lbOTV1tHmOhdi6XWzM6EfZ1aLijB8e8xPrMfzZGMhdfM4Pu6n9fBJ0YBhine0J5CF2T-wP9xlRqIqIsto8-k91QjhrdZKNfuWWQyvwC1rCa4wDzt_atoMPZlNmS2_amAm1cv8eqZSbIc4xoZyvx0XYgLtuYzZKOCTxzJi8Qez_6DpQoqQExxbj2PyVnHViQhJO_MkBsvwwx-5K8Essi_mPfEVvVdPewohinrdNNj_VqyCcclhTZkPZcQrNm-3N3Crx4_0Nq7GiYELGbEXgV2VbJuJC_doqwflhMJCwehGrmBXDcYtkJkiwvxo4pT7VGmnZCCuNTKldLGZVXhvrPVF5Afoukrk_S-mv8QLNGLMUCWeBjkecx64Pjjb_JEsBXfRE2H4bzeHLeOdF4zkbii7gbCv2jKzOKOoZzxJTAl_y7L23WMDt2mu6SLu935lx3Ba-YscM8qWJounoMdujInFzJ5j66z9HfcgMj3D5rcPnHFOAj57NNMEhRSR19CuK-spyASXydvZfc0x2z7uGozYmIX4_ii0cqioWGIVMn5U6SUsMWdSvX-cgZ9Tk762WgcaGHRDCHI-3gMohtFrGM5sjx7exHSJVSUJUzWhdDV830kS9Hou4B8W0pSQjNqSKYZqt6CkfoZU00lgZZFk7LB_dQYoypwGaYex9R7J-dgDR4RDk60K-aPzUMspiEkcX3ABscTAuTdaiatk59rWYk9gcqAZTZjA6PiqoV3Q8O7QfaY1fkUIsBI94mK8T3fbsEunVv6yiMPlJOJG3m00]--></g></svg>