<?xml version="1.0" encoding="us-ascii" standalone="no"?><svg xmlns="http://www.w3.org/2000/svg" xmlns:xlink="http://www.w3.org/1999/xlink" contentStyleType="text/css" height="849.6px" preserveAspectRatio="none" style="width:1123px;height:849px;background:#FFFFFF;" version="1.1" viewBox="0 0 1123 849" width="1123.2px" zoomAndPan="magnify"><defs/><g><!--cluster Dune--><g id="cluster_Dune"><path d="M6.8,4.8 L40.4,4.8 A3,3 0 0 1 42.4,6.8 L48,22.6375 L1115.6,22.6375 A2,2 0 0 1 1117.6,24.6375 L1117.6,842 A2,2 0 0 1 1115.6,844 L6.8,844 A2,2 0 0 1 4.8,842 L4.8,6.8 A2,2 0 0 1 6.8,4.8 " fill="none" style="stroke:#000000;stroke-width:1.2000000000000002;"/><line style="stroke:#000000;stroke-width:1.2000000000000002;" x1="4.8" x2="48" y1="22.6375" y2="22.6375"/><text fill="#000000" font-family="sans-serif" font-size="11.2" font-weight="bold" lengthAdjust="spacing" textLength="32.8" x="8" y="16.7961">Dune</text></g><!--cluster Dune_ISTL--><g id="cluster_Dune_ISTL"><path d="M824.4,640 L890,640 A3,3 0 0 1 892,642 L897.6,657.8375 L1090,657.8375 A2,2 0 0 1 1092,659.8375 L1092,816.4 A2,2 0 0 1 1090,818.4 L824.4,818.4 A2,2 0 0 1 822.4,816.4 L822.4,642 A2,2 0 0 1 824.4,640 " fill="none" style="stroke:#000000;stroke-width:1.2000000000000002;"/><line style="stroke:#000000;stroke-width:1.2000000000000002;" x1="822.4" x2="897.6" y1="657.8375" y2="657.8375"/><text fill="#000000" font-family="sans-serif" font-size="11.2" font-weight="bold" lengthAdjust="spacing" textLength="64.8" x="825.6" y="651.9961">Dune_ISTL</text></g><!--cluster DUNE_Grid--><g id="cluster_DUNE_Grid"><path d="M824.4,159.2 L890.8,159.2 A3,3 0 0 1 892.8,161.2 L898.4,177.0375 L928.4,177.0375 A2,2 0 0 1 930.4,179.0375 L930.4,249.2 A2,2 0 0 1 928.4,251.2 L824.4,251.2 A2,2 0 0 1 822.4,249.2 L822.4,161.2 A2,2 0 0 1 824.4,159.2 " fill="none" style="stroke:#000000;stroke-width:1.2000000000000002;"/><line style="stroke:#000000;stroke-width:1.2000000000000002;" x1="822.4" x2="898.4" y1="177.0375" y2="177.0375"/><text fill="#000000" font-family="sans-serif" font-size="11.2" font-weight="bold" lengthAdjust="spacing" textLength="65.6" x="825.6" y="171.1961">DUNE_Grid</text></g><!--cluster DuMux--><g id="cluster_DuMux"><path d="M26,39.2 L69.2,39.2 A3,3 0 0 1 71.2,41.2 L76.8,57.0375 L794.8,57.0375 A2,2 0 0 1 796.8,59.0375 L796.8,742.8 A2,2 0 0 1 794.8,744.8 L26,744.8 A2,2 0 0 1 24,742.8 L24,41.2 A2,2 0 0 1 26,39.2 " fill="none" style="stroke:#000000;stroke-width:1.2000000000000002;"/><line style="stroke:#000000;stroke-width:1.2000000000000002;" x1="24" x2="76.8" y1="57.0375" y2="57.0375"/><text fill="#000000" font-family="sans-serif" font-size="11.2" font-weight="bold" lengthAdjust="spacing" textLength="42.4" x="27.2" y="51.1961">DuMux</text></g><!--cluster Grid--><g id="cluster_Grid"><path d="M530.8,73.6 L558,73.6 A3,3 0 0 1 560,75.6 L565.6,91.4375 L654.8,91.4375 A2,2 0 0 1 656.8,93.4375 L656.8,329.2 A2,2 0 0 1 654.8,331.2 L530.8,331.2 A2,2 0 0 1 528.8,329.2 L528.8,75.6 A2,2 0 0 1 530.8,73.6 " fill="none" style="stroke:#000000;stroke-width:1.2000000000000002;"/><line style="stroke:#000000;stroke-width:1.2000000000000002;" x1="528.8" x2="565.6" y1="91.4375" y2="91.4375"/><text fill="#000000" font-family="sans-serif" font-size="11.2" font-weight="bold" lengthAdjust="spacing" textLength="26.4" x="532" y="85.5961">Grid</text></g><!--cluster Variables--><g id="cluster_Variables"><path d="M216.4,436.8 L275.6,436.8 A3,3 0 0 1 277.6,438.8 L283.2,454.6375 L335.6,454.6375 A2,2 0 0 1 337.6,456.6375 L337.6,514 A2,2 0 0 1 335.6,516 L216.4,516 A2,2 0 0 1 214.4,514 L214.4,438.8 A2,2 0 0 1 216.4,436.8 " fill="none" style="stroke:#000000;stroke-width:1.2000000000000002;"/><line style="stroke:#000000;stroke-width:1.2000000000000002;" x1="214.4" x2="283.2" y1="454.6375" y2="454.6375"/><text fill="#000000" font-family="sans-serif" font-size="11.2" font-weight="bold" lengthAdjust="spacing" textLength="58.4" x="217.6" y="448.7961">Variables</text></g><!--cluster Scenario--><g id="cluster_Scenario"><path d="M528.4,350.4 L584.4,350.4 A3,3 0 0 1 586.4,352.4 L592,368.2375 L765.2,368.2375 A2,2 0 0 1 767.2,370.2375 L767.2,514 A2,2 0 0 1 765.2,516 L528.4,516 A2,2 0 0 1 526.4,514 L526.4,352.4 A2,2 0 0 1 528.4,350.4 " fill="none" style="stroke:#000000;stroke-width:1.2000000000000002;"/><line style="stroke:#000000;stroke-width:1.2000000000000002;" x1="526.4" x2="592" y1="368.2375" y2="368.2375"/><text fill="#000000" font-family="sans-serif" font-size="11.2" font-weight="bold" lengthAdjust="spacing" textLength="55.2" x="529.6" y="362.3961">Scenario</text></g><!--cluster Assembly--><g id="cluster_Assembly"><a href="./../html/group___assembly.html" target="_top" title="./../html/group___assembly.html" xlink:actuate="onRequest" xlink:href="./../html/group___assembly.html" xlink:show="new" xlink:title="./../html/group___assembly.html" xlink:type="simple"><path d="M371.6,350.4 L433.2,350.4 A3,3 0 0 1 435.2,352.4 L440.8,368.2375 L505.2,368.2375 A2,2 0 0 1 507.2,370.2375 L507.2,612.4 A2,2 0 0 1 505.2,614.4 L371.6,614.4 A2,2 0 0 1 369.6,612.4 L369.6,352.4 A2,2 0 0 1 371.6,350.4 " fill="none" style="stroke:#000000;stroke-width:1.2000000000000002;"/><line style="stroke:#000000;stroke-width:1.2000000000000002;" x1="369.6" x2="440.8" y1="368.2375" y2="368.2375"/><text fill="#000000" font-family="sans-serif" font-size="11.2" font-weight="bold" lengthAdjust="spacing" textLength="60.8" x="372.8" y="362.3961">Assembly</text></a></g><!--cluster Solving--><g id="cluster_Solving"><path d="M594,535.2 L640.4,535.2 A3,3 0 0 1 642.4,537.2 L648,553.0375 L710,553.0375 A2,2 0 0 1 712,555.0375 L712,723.6 A2,2 0 0 1 710,725.6 L594,725.6 A2,2 0 0 1 592,723.6 L592,537.2 A2,2 0 0 1 594,535.2 " fill="none" style="stroke:#000000;stroke-width:1.2000000000000002;"/><line style="stroke:#000000;stroke-width:1.2000000000000002;" x1="592" x2="648" y1="553.0375" y2="553.0375"/><text fill="#000000" font-family="sans-serif" font-size="11.2" font-weight="bold" lengthAdjust="spacing" textLength="45.6" x="595.2" y="547.1961">Solving</text></g><!--cluster Output--><g id="cluster_Output"><path d="M45.2,436.8 L89.2,436.8 A3,3 0 0 1 91.2,438.8 L96.8,454.6375 L193.2,454.6375 A2,2 0 0 1 195.2,456.6375 L195.2,612.4 A2,2 0 0 1 193.2,614.4 L45.2,614.4 A2,2 0 0 1 43.2,612.4 L43.2,438.8 A2,2 0 0 1 45.2,436.8 " fill="none" style="stroke:#000000;stroke-width:1.2000000000000002;"/><line style="stroke:#000000;stroke-width:1.2000000000000002;" x1="43.2" x2="96.8" y1="454.6375" y2="454.6375"/><text fill="#000000" font-family="sans-serif" font-size="11.2" font-weight="bold" lengthAdjust="spacing" textLength="43.2" x="46.4" y="448.7961">Output</text></g><!--class ISTL_Solver--><g id="elem_ISTL_Solver"><rect codeLine="5" fill="#F1F1F1" height="38.4" id="ISTL_Solver" rx="2" ry="2" style="stroke:#181818;stroke-width:0.4000000000000001;" width="87.2" x="857.2" y="674.4"/><ellipse cx="869.2" cy="687.2" fill="#ADD1B2" rx="8.8" ry="8.8" style="stroke:#181818;stroke-width:0.8000000000000002;"/><path d="M871.575,691.7125 Q871.1125,691.95 870.6,692.0625 Q870.0875,692.1875 869.525,692.1875 Q867.525,692.1875 866.4625,690.875 Q865.4125,689.55 865.4125,687.05 Q865.4125,684.55 866.4625,683.225 Q867.525,681.9 869.525,681.9 Q870.0875,681.9 870.6,682.025 Q871.125,682.15 871.575,682.3875 L871.575,684.5625 Q871.075,684.1 870.6,683.8875 Q870.125,683.6625 869.625,683.6625 Q868.55,683.6625 868,684.525 Q867.45,685.375 867.45,687.05 Q867.45,688.725 868,689.5875 Q868.55,690.4375 869.625,690.4375 Q870.125,690.4375 870.6,690.225 Q871.075,690 871.575,689.5375 L871.575,691.7125 Z " fill="#000000"/><text fill="#000000" font-family="sans-serif" font-size="11.2" lengthAdjust="spacing" textLength="61.6" x="880.4" y="691.0773">ISTL_Solver</text><line style="stroke:#181818;stroke-width:0.4000000000000001;" x1="858" x2="943.6" y1="700" y2="700"/><line style="stroke:#181818;stroke-width:0.4000000000000001;" x1="858" x2="943.6" y1="706.4" y2="706.4"/></g><!--class ISTL_Matrices--><g id="elem_ISTL_Matrices"><rect codeLine="6" fill="#F1F1F1" height="38.4" id="ISTL_Matrices" rx="2" ry="2" style="stroke:#181818;stroke-width:0.4000000000000001;" width="100" x="972.4" y="674.4"/><ellipse cx="984.4" cy="687.2" fill="#ADD1B2" rx="8.8" ry="8.8" style="stroke:#181818;stroke-width:0.8000000000000002;"/><path d="M986.775,691.7125 Q986.3125,691.95 985.8,692.0625 Q985.2875,692.1875 984.725,692.1875 Q982.725,692.1875 981.6625,690.875 Q980.6125,689.55 980.6125,687.05 Q980.6125,684.55 981.6625,683.225 Q982.725,681.9 984.725,681.9 Q985.2875,681.9 985.8,682.025 Q986.325,682.15 986.775,682.3875 L986.775,684.5625 Q986.275,684.1 985.8,683.8875 Q985.325,683.6625 984.825,683.6625 Q983.75,683.6625 983.2,684.525 Q982.65,685.375 982.65,687.05 Q982.65,688.725 983.2,689.5875 Q983.75,690.4375 984.825,690.4375 Q985.325,690.4375 985.8,690.225 Q986.275,690 986.775,689.5375 L986.775,691.7125 Z " fill="#000000"/><text fill="#000000" font-family="sans-serif" font-size="11.2" lengthAdjust="spacing" textLength="74.4" x="995.6" y="691.0773">ISTL_Matrices</text><line style="stroke:#181818;stroke-width:0.4000000000000001;" x1="973.2" x2="1071.6" y1="700" y2="700"/><line style="stroke:#181818;stroke-width:0.4000000000000001;" x1="973.2" x2="1071.6" y1="706.4" y2="706.4"/></g><!--class ISTL_Vectors--><g id="elem_ISTL_Vectors"><rect codeLine="7" fill="#F1F1F1" height="38.4" id="ISTL_Vectors" rx="2" ry="2" style="stroke:#181818;stroke-width:0.4000000000000001;" width="96" x="856.8" y="760.8"/><ellipse cx="868.8" cy="773.6" fill="#ADD1B2" rx="8.8" ry="8.8" style="stroke:#181818;stroke-width:0.8000000000000002;"/><path d="M871.175,778.1125 Q870.7125,778.35 870.2,778.4625 Q869.6875,778.5875 869.125,778.5875 Q867.125,778.5875 866.0625,777.275 Q865.0125,775.95 865.0125,773.45 Q865.0125,770.95 866.0625,769.625 Q867.125,768.3 869.125,768.3 Q869.6875,768.3 870.2,768.425 Q870.725,768.55 871.175,768.7875 L871.175,770.9625 Q870.675,770.5 870.2,770.2875 Q869.725,770.0625 869.225,770.0625 Q868.15,770.0625 867.6,770.925 Q867.05,771.775 867.05,773.45 Q867.05,775.125 867.6,775.9875 Q868.15,776.8375 869.225,776.8375 Q869.725,776.8375 870.2,776.625 Q870.675,776.4 871.175,775.9375 L871.175,778.1125 Z " fill="#000000"/><text fill="#000000" font-family="sans-serif" font-size="11.2" lengthAdjust="spacing" textLength="70.4" x="880" y="777.4773">ISTL_Vectors</text><line style="stroke:#181818;stroke-width:0.4000000000000001;" x1="857.6" x2="952" y1="786.4" y2="786.4"/><line style="stroke:#181818;stroke-width:0.4000000000000001;" x1="857.6" x2="952" y1="792.8" y2="792.8"/></g><!--class YASP--><g id="elem_YASP"><rect codeLine="10" fill="#F1F1F1" height="38.4" id="YASP" rx="2" ry="2" style="stroke:#181818;stroke-width:0.4000000000000001;" width="54.4" x="856.8" y="193.6"/><ellipse cx="868.8" cy="206.4" fill="#ADD1B2" rx="8.8" ry="8.8" style="stroke:#181818;stroke-width:0.8000000000000002;"/><path d="M871.175,210.9125 Q870.7125,211.15 870.2,211.2625 Q869.6875,211.3875 869.125,211.3875 Q867.125,211.3875 866.0625,210.075 Q865.0125,208.75 865.0125,206.25 Q865.0125,203.75 866.0625,202.425 Q867.125,201.1 869.125,201.1 Q869.6875,201.1 870.2,201.225 Q870.725,201.35 871.175,201.5875 L871.175,203.7625 Q870.675,203.3 870.2,203.0875 Q869.725,202.8625 869.225,202.8625 Q868.15,202.8625 867.6,203.725 Q867.05,204.575 867.05,206.25 Q867.05,207.925 867.6,208.7875 Q868.15,209.6375 869.225,209.6375 Q869.725,209.6375 870.2,209.425 Q870.675,209.2 871.175,208.7375 L871.175,210.9125 Z " fill="#000000"/><text fill="#000000" font-family="sans-serif" font-size="11.2" lengthAdjust="spacing" textLength="28.8" x="880" y="210.2773">YASP</text><line style="stroke:#181818;stroke-width:0.4000000000000001;" x1="857.6" x2="910.4" y1="219.2" y2="219.2"/><line style="stroke:#181818;stroke-width:0.4000000000000001;" x1="857.6" x2="910.4" y1="225.6" y2="225.6"/></g><!--class GridManager--><g id="elem_GridManager"><rect codeLine="15" fill="#F1F1F1" height="38.4" id="GridManager" rx="2" ry="2" style="stroke:#181818;stroke-width:0.4000000000000001;" width="96" x="547.2" y="101.6"/><ellipse cx="559.2" cy="114.4" fill="#B4A7E5" rx="8.8" ry="8.8" style="stroke:#181818;stroke-width:0.8000000000000002;"/><path d="M555.9375,111.0125 L555.9375,109.2875 L561.85,109.2875 L561.85,111.0125 L559.875,111.0125 L559.875,117.475 L561.85,117.475 L561.85,119.2 L555.9375,119.2 L555.9375,117.475 L557.9125,117.475 L557.9125,111.0125 L555.9375,111.0125 Z " fill="#000000"/><text fill="#000000" font-family="sans-serif" font-size="11.2" font-style="italic" lengthAdjust="spacing" textLength="70.4" x="570.4" y="118.2773">GridManager</text><line style="stroke:#181818;stroke-width:0.4000000000000001;" x1="548" x2="642.4" y1="127.2" y2="127.2"/><line style="stroke:#181818;stroke-width:0.4000000000000001;" x1="548" x2="642.4" y1="133.6" y2="133.6"/></g><!--class GridView--><g id="elem_GridView"><rect codeLine="16" fill="#F1F1F1" height="38.4" id="GridView" rx="2" ry="2" style="stroke:#181818;stroke-width:0.4000000000000001;" width="74.4" x="556.4" y="193.6"/><ellipse cx="568.4" cy="206.4" fill="#B4A7E5" rx="8.8" ry="8.8" style="stroke:#181818;stroke-width:0.8000000000000002;"/><path d="M565.1375,203.0125 L565.1375,201.2875 L571.05,201.2875 L571.05,203.0125 L569.075,203.0125 L569.075,209.475 L571.05,209.475 L571.05,211.2 L565.1375,211.2 L565.1375,209.475 L567.1125,209.475 L567.1125,203.0125 L565.1375,203.0125 Z " fill="#000000"/><text fill="#000000" font-family="sans-serif" font-size="11.2" font-style="italic" lengthAdjust="spacing" textLength="48.8" x="579.6" y="210.2773">GridView</text><line style="stroke:#181818;stroke-width:0.4000000000000001;" x1="557.2" x2="630" y1="219.2" y2="219.2"/><line style="stroke:#181818;stroke-width:0.4000000000000001;" x1="557.2" x2="630" y1="225.6" y2="225.6"/></g><!--class GridGeometry--><g id="elem_GridGeometry"><rect codeLine="17" fill="#F1F1F1" height="38.4" id="GridGeometry" rx="2" ry="2" style="stroke:#181818;stroke-width:0.4000000000000001;" width="102.4" x="541.6" y="280"/><ellipse cx="553.6" cy="292.8" fill="#ADD1B2" rx="8.8" ry="8.8" style="stroke:#181818;stroke-width:0.8000000000000002;"/><path d="M555.975,297.3125 Q555.5125,297.55 555,297.6625 Q554.4875,297.7875 553.925,297.7875 Q551.925,297.7875 550.8625,296.475 Q549.8125,295.15 549.8125,292.65 Q549.8125,290.15 550.8625,288.825 Q551.925,287.5 553.925,287.5 Q554.4875,287.5 555,287.625 Q555.525,287.75 555.975,287.9875 L555.975,290.1625 Q555.475,289.7 555,289.4875 Q554.525,289.2625 554.025,289.2625 Q552.95,289.2625 552.4,290.125 Q551.85,290.975 551.85,292.65 Q551.85,294.325 552.4,295.1875 Q552.95,296.0375 554.025,296.0375 Q554.525,296.0375 555,295.825 Q555.475,295.6 555.975,295.1375 L555.975,297.3125 Z " fill="#000000"/><text fill="#000000" font-family="sans-serif" font-size="11.2" lengthAdjust="spacing" textLength="76.8" x="564.8" y="296.6773">GridGeometry</text><line style="stroke:#181818;stroke-width:0.4000000000000001;" x1="542.4" x2="643.2" y1="305.6" y2="305.6"/><line style="stroke:#181818;stroke-width:0.4000000000000001;" x1="542.4" x2="643.2" y1="312" y2="312"/></g><!--class GridVariables--><g id="elem_GridVariables"><rect codeLine="20" fill="#F1F1F1" height="38.4" id="GridVariables" rx="2" ry="2" style="stroke:#181818;stroke-width:0.4000000000000001;" width="97.6" x="227.2" y="464.8"/><ellipse cx="239.2" cy="477.6" fill="#ADD1B2" rx="8.8" ry="8.8" style="stroke:#181818;stroke-width:0.8000000000000002;"/><path d="M241.575,482.1125 Q241.1125,482.35 240.6,482.4625 Q240.0875,482.5875 239.525,482.5875 Q237.525,482.5875 236.4625,481.275 Q235.4125,479.95 235.4125,477.45 Q235.4125,474.95 236.4625,473.625 Q237.525,472.3 239.525,472.3 Q240.0875,472.3 240.6,472.425 Q241.125,472.55 241.575,472.7875 L241.575,474.9625 Q241.075,474.5 240.6,474.2875 Q240.125,474.0625 239.625,474.0625 Q238.55,474.0625 238,474.925 Q237.45,475.775 237.45,477.45 Q237.45,479.125 238,479.9875 Q238.55,480.8375 239.625,480.8375 Q240.125,480.8375 240.6,480.625 Q241.075,480.4 241.575,479.9375 L241.575,482.1125 Z " fill="#000000"/><text fill="#000000" font-family="sans-serif" font-size="11.2" lengthAdjust="spacing" textLength="72" x="250.4" y="481.4773">GridVariables</text><line style="stroke:#181818;stroke-width:0.4000000000000001;" x1="228" x2="324" y1="490.4" y2="490.4"/><line style="stroke:#181818;stroke-width:0.4000000000000001;" x1="228" x2="324" y1="496.8" y2="496.8"/></g><!--class Problem--><g id="elem_Problem"><rect codeLine="23" fill="#F1F1F1" height="38.4" id="Problem" rx="2" ry="2" style="stroke:#181818;stroke-width:0.4000000000000001;" width="71.2" x="632.4" y="464.8"/><ellipse cx="644.4" cy="477.6" fill="#ADD1B2" rx="8.8" ry="8.8" style="stroke:#181818;stroke-width:0.8000000000000002;"/><path d="M646.775,482.1125 Q646.3125,482.35 645.8,482.4625 Q645.2875,482.5875 644.725,482.5875 Q642.725,482.5875 641.6625,481.275 Q640.6125,479.95 640.6125,477.45 Q640.6125,474.95 641.6625,473.625 Q642.725,472.3 644.725,472.3 Q645.2875,472.3 645.8,472.425 Q646.325,472.55 646.775,472.7875 L646.775,474.9625 Q646.275,474.5 645.8,474.2875 Q645.325,474.0625 644.825,474.0625 Q643.75,474.0625 643.2,474.925 Q642.65,475.775 642.65,477.45 Q642.65,479.125 643.2,479.9875 Q643.75,480.8375 644.825,480.8375 Q645.325,480.8375 645.8,480.625 Q646.275,480.4 646.775,479.9375 L646.775,482.1125 Z " fill="#000000"/><text fill="#000000" font-family="sans-serif" font-size="11.2" lengthAdjust="spacing" textLength="45.6" x="655.6" y="481.4773">Problem</text><line style="stroke:#181818;stroke-width:0.4000000000000001;" x1="633.2" x2="702.8" y1="490.4" y2="490.4"/><line style="stroke:#181818;stroke-width:0.4000000000000001;" x1="633.2" x2="702.8" y1="496.8" y2="496.8"/></g><!--class TimeLoop--><g id="elem_TimeLoop"><rect codeLine="24" fill="#F1F1F1" height="38.4" id="TimeLoop" rx="2" ry="2" style="stroke:#181818;stroke-width:0.4000000000000001;" width="80" x="674.4" y="378.4"/><ellipse cx="686.4" cy="391.2" fill="#ADD1B2" rx="8.8" ry="8.8" style="stroke:#181818;stroke-width:0.8000000000000002;"/><path d="M688.775,395.7125 Q688.3125,395.95 687.8,396.0625 Q687.2875,396.1875 686.725,396.1875 Q684.725,396.1875 683.6625,394.875 Q682.6125,393.55 682.6125,391.05 Q682.6125,388.55 683.6625,387.225 Q684.725,385.9 686.725,385.9 Q687.2875,385.9 687.8,386.025 Q688.325,386.15 688.775,386.3875 L688.775,388.5625 Q688.275,388.1 687.8,387.8875 Q687.325,387.6625 686.825,387.6625 Q685.75,387.6625 685.2,388.525 Q684.65,389.375 684.65,391.05 Q684.65,392.725 685.2,393.5875 Q685.75,394.4375 686.825,394.4375 Q687.325,394.4375 687.8,394.225 Q688.275,394 688.775,393.5375 L688.775,395.7125 Z " fill="#000000"/><text fill="#000000" font-family="sans-serif" font-size="11.2" lengthAdjust="spacing" textLength="54.4" x="697.6" y="395.0773">TimeLoop</text><line style="stroke:#181818;stroke-width:0.4000000000000001;" x1="675.2" x2="753.6" y1="404" y2="404"/><line style="stroke:#181818;stroke-width:0.4000000000000001;" x1="675.2" x2="753.6" y1="410.4" y2="410.4"/></g><!--class SolutionVector--><g id="elem_SolutionVector"><rect codeLine="25" fill="#F1F1F1" height="38.4" id="SolutionVector" rx="2" ry="2" style="stroke:#181818;stroke-width:0.4000000000000001;" width="106.4" x="539.6" y="378.4"/><ellipse cx="551.6" cy="391.2" fill="#ADD1B2" rx="8.8" ry="8.8" style="stroke:#181818;stroke-width:0.8000000000000002;"/><path d="M553.975,395.7125 Q553.5125,395.95 553,396.0625 Q552.4875,396.1875 551.925,396.1875 Q549.925,396.1875 548.8625,394.875 Q547.8125,393.55 547.8125,391.05 Q547.8125,388.55 548.8625,387.225 Q549.925,385.9 551.925,385.9 Q552.4875,385.9 553,386.025 Q553.525,386.15 553.975,386.3875 L553.975,388.5625 Q553.475,388.1 553,387.8875 Q552.525,387.6625 552.025,387.6625 Q550.95,387.6625 550.4,388.525 Q549.85,389.375 549.85,391.05 Q549.85,392.725 550.4,393.5875 Q550.95,394.4375 552.025,394.4375 Q552.525,394.4375 553,394.225 Q553.475,394 553.975,393.5375 L553.975,395.7125 Z " fill="#000000"/><text fill="#000000" font-family="sans-serif" font-size="11.2" lengthAdjust="spacing" textLength="80.8" x="562.8" y="395.0773">SolutionVector</text><line style="stroke:#181818;stroke-width:0.4000000000000001;" x1="540.4" x2="645.2" y1="404" y2="404"/><line style="stroke:#181818;stroke-width:0.4000000000000001;" x1="540.4" x2="645.2" y1="410.4" y2="410.4"/></g><!--class Assembler--><g id="elem_Assembler"><rect codeLine="28" fill="#F1F1F1" height="38.4" id="Assembler" rx="2" ry="2" style="stroke:#181818;stroke-width:0.4000000000000001;" width="84" x="402.8" y="563.2"/><ellipse cx="414.8" cy="576" fill="#ADD1B2" rx="8.8" ry="8.8" style="stroke:#181818;stroke-width:0.8000000000000002;"/><path d="M417.175,580.5125 Q416.7125,580.75 416.2,580.8625 Q415.6875,580.9875 415.125,580.9875 Q413.125,580.9875 412.0625,579.675 Q411.0125,578.35 411.0125,575.85 Q411.0125,573.35 412.0625,572.025 Q413.125,570.7 415.125,570.7 Q415.6875,570.7 416.2,570.825 Q416.725,570.95 417.175,571.1875 L417.175,573.3625 Q416.675,572.9 416.2,572.6875 Q415.725,572.4625 415.225,572.4625 Q414.15,572.4625 413.6,573.325 Q413.05,574.175 413.05,575.85 Q413.05,577.525 413.6,578.3875 Q414.15,579.2375 415.225,579.2375 Q415.725,579.2375 416.2,579.025 Q416.675,578.8 417.175,578.3375 L417.175,580.5125 Z " fill="#000000"/><text fill="#000000" font-family="sans-serif" font-size="11.2" lengthAdjust="spacing" textLength="58.4" x="426" y="579.8773">Assembler</text><line style="stroke:#181818;stroke-width:0.4000000000000001;" x1="403.6" x2="486" y1="588.8" y2="588.8"/><line style="stroke:#181818;stroke-width:0.4000000000000001;" x1="403.6" x2="486" y1="595.2" y2="595.2"/></g><!--class LocalAssembler--><g id="elem_LocalAssembler"><rect codeLine="29" fill="#F1F1F1" height="38.4" id="LocalAssembler" rx="2" ry="2" style="stroke:#181818;stroke-width:0.4000000000000001;" width="112" x="382.4" y="464.8"/><ellipse cx="394.4" cy="477.6" fill="#ADD1B2" rx="8.8" ry="8.8" style="stroke:#181818;stroke-width:0.8000000000000002;"/><path d="M396.775,482.1125 Q396.3125,482.35 395.8,482.4625 Q395.2875,482.5875 394.725,482.5875 Q392.725,482.5875 391.6625,481.275 Q390.6125,479.95 390.6125,477.45 Q390.6125,474.95 391.6625,473.625 Q392.725,472.3 394.725,472.3 Q395.2875,472.3 395.8,472.425 Q396.325,472.55 396.775,472.7875 L396.775,474.9625 Q396.275,474.5 395.8,474.2875 Q395.325,474.0625 394.825,474.0625 Q393.75,474.0625 393.2,474.925 Q392.65,475.775 392.65,477.45 Q392.65,479.125 393.2,479.9875 Q393.75,480.8375 394.825,480.8375 Q395.325,480.8375 395.8,480.625 Q396.275,480.4 396.775,479.9375 L396.775,482.1125 Z " fill="#000000"/><text fill="#000000" font-family="sans-serif" font-size="11.2" lengthAdjust="spacing" textLength="86.4" x="405.6" y="481.4773">LocalAssembler</text><line style="stroke:#181818;stroke-width:0.4000000000000001;" x1="383.2" x2="493.6" y1="490.4" y2="490.4"/><line style="stroke:#181818;stroke-width:0.4000000000000001;" x1="383.2" x2="493.6" y1="496.8" y2="496.8"/></g><!--class LocalResidual--><g id="elem_LocalResidual"><rect codeLine="30" fill="#F1F1F1" height="38.4" id="LocalResidual" rx="2" ry="2" style="stroke:#181818;stroke-width:0.4000000000000001;" width="100.8" x="388" y="378.4"/><ellipse cx="400" cy="391.2" fill="#ADD1B2" rx="8.8" ry="8.8" style="stroke:#181818;stroke-width:0.8000000000000002;"/><path d="M402.375,395.7125 Q401.9125,395.95 401.4,396.0625 Q400.8875,396.1875 400.325,396.1875 Q398.325,396.1875 397.2625,394.875 Q396.2125,393.55 396.2125,391.05 Q396.2125,388.55 397.2625,387.225 Q398.325,385.9 400.325,385.9 Q400.8875,385.9 401.4,386.025 Q401.925,386.15 402.375,386.3875 L402.375,388.5625 Q401.875,388.1 401.4,387.8875 Q400.925,387.6625 400.425,387.6625 Q399.35,387.6625 398.8,388.525 Q398.25,389.375 398.25,391.05 Q398.25,392.725 398.8,393.5875 Q399.35,394.4375 400.425,394.4375 Q400.925,394.4375 401.4,394.225 Q401.875,394 402.375,393.5375 L402.375,395.7125 Z " fill="#000000"/><text fill="#000000" font-family="sans-serif" font-size="11.2" lengthAdjust="spacing" textLength="75.2" x="411.2" y="395.0773">LocalResidual</text><line style="stroke:#181818;stroke-width:0.4000000000000001;" x1="388.8" x2="488" y1="404" y2="404"/><line style="stroke:#181818;stroke-width:0.4000000000000001;" x1="388.8" x2="488" y1="410.4" y2="410.4"/></g><!--class Solver--><a href="./../html/group___nonlinear.html" target="_top" title="./../html/group___nonlinear.html" xlink:actuate="onRequest" xlink:href="./../html/group___nonlinear.html" xlink:show="new" xlink:title="./../html/group___nonlinear.html" xlink:type="simple"><g id="elem_Solver"><rect codeLine="33" fill="#F1F1F1" height="38.4" id="Solver" rx="2" ry="2" style="stroke:#181818;stroke-width:0.4000000000000001;" width="59.2" x="613.6" y="674.4"/><ellipse cx="625.6" cy="687.2" fill="#ADD1B2" rx="8.8" ry="8.8" style="stroke:#181818;stroke-width:0.8000000000000002;"/><path d="M627.975,691.7125 Q627.5125,691.95 627,692.0625 Q626.4875,692.1875 625.925,692.1875 Q623.925,692.1875 622.8625,690.875 Q621.8125,689.55 621.8125,687.05 Q621.8125,684.55 622.8625,683.225 Q623.925,681.9 625.925,681.9 Q626.4875,681.9 627,682.025 Q627.525,682.15 627.975,682.3875 L627.975,684.5625 Q627.475,684.1 627,683.8875 Q626.525,683.6625 626.025,683.6625 Q624.95,683.6625 624.4,684.525 Q623.85,685.375 623.85,687.05 Q623.85,688.725 624.4,689.5875 Q624.95,690.4375 626.025,690.4375 Q626.525,690.4375 627,690.225 Q627.475,690 627.975,689.5375 L627.975,691.7125 Z " fill="#000000"/><text fill="#000000" font-family="sans-serif" font-size="11.2" lengthAdjust="spacing" textLength="33.6" x="636.8" y="691.0773">Solver</text><line style="stroke:#181818;stroke-width:0.4000000000000001;" x1="614.4" x2="672" y1="700" y2="700"/><line style="stroke:#181818;stroke-width:0.4000000000000001;" x1="614.4" x2="672" y1="706.4" y2="706.4"/></g></a><!--class LinearSolver--><a href="./../html/group___linear.html" target="_top" title="./../html/group___linear.html" xlink:actuate="onRequest" xlink:href="./../html/group___linear.html" xlink:show="new" xlink:title="./../html/group___linear.html" xlink:type="simple"><g id="elem_LinearSolver"><rect codeLine="34" fill="#F1F1F1" height="38.4" id="LinearSolver" rx="2" ry="2" style="stroke:#181818;stroke-width:0.4000000000000001;" width="93.6" x="605.2" y="563.2"/><ellipse cx="617.2" cy="576" fill="#B4A7E5" rx="8.8" ry="8.8" style="stroke:#181818;stroke-width:0.8000000000000002;"/><path d="M613.9375,572.6125 L613.9375,570.8875 L619.85,570.8875 L619.85,572.6125 L617.875,572.6125 L617.875,579.075 L619.85,579.075 L619.85,580.8 L613.9375,580.8 L613.9375,579.075 L615.9125,579.075 L615.9125,572.6125 L613.9375,572.6125 Z " fill="#000000"/><text fill="#000000" font-family="sans-serif" font-size="11.2" font-style="italic" lengthAdjust="spacing" textLength="68" x="628.4" y="579.8773">LinearSolver</text><line style="stroke:#181818;stroke-width:0.4000000000000001;" x1="606" x2="698" y1="588.8" y2="588.8"/><line style="stroke:#181818;stroke-width:0.4000000000000001;" x1="606" x2="698" y1="595.2" y2="595.2"/></g></a><!--class IOField--><g id="elem_IOField"><rect codeLine="37" fill="#F1F1F1" height="38.4" id="IOField" rx="2" ry="2" style="stroke:#181818;stroke-width:0.4000000000000001;" width="62.4" x="88" y="464.8"/><ellipse cx="100" cy="477.6" fill="#ADD1B2" rx="8.8" ry="8.8" style="stroke:#181818;stroke-width:0.8000000000000002;"/><path d="M102.375,482.1125 Q101.9125,482.35 101.4,482.4625 Q100.8875,482.5875 100.325,482.5875 Q98.325,482.5875 97.2625,481.275 Q96.2125,479.95 96.2125,477.45 Q96.2125,474.95 97.2625,473.625 Q98.325,472.3 100.325,472.3 Q100.8875,472.3 101.4,472.425 Q101.925,472.55 102.375,472.7875 L102.375,474.9625 Q101.875,474.5 101.4,474.2875 Q100.925,474.0625 100.425,474.0625 Q99.35,474.0625 98.8,474.925 Q98.25,475.775 98.25,477.45 Q98.25,479.125 98.8,479.9875 Q99.35,480.8375 100.425,480.8375 Q100.925,480.8375 101.4,480.625 Q101.875,480.4 102.375,479.9375 L102.375,482.1125 Z " fill="#000000"/><text fill="#000000" font-family="sans-serif" font-size="11.2" lengthAdjust="spacing" textLength="36.8" x="111.2" y="481.4773">IOField</text><line style="stroke:#181818;stroke-width:0.4000000000000001;" x1="88.8" x2="149.6" y1="490.4" y2="490.4"/><line style="stroke:#181818;stroke-width:0.4000000000000001;" x1="88.8" x2="149.6" y1="496.8" y2="496.8"/></g><!--class VTKOutputModule--><g id="elem_VTKOutputModule"><rect codeLine="38" fill="#F1F1F1" height="38.4" id="VTKOutputModule" rx="2" ry="2" style="stroke:#181818;stroke-width:0.4000000000000001;" width="126.4" x="56" y="563.2"/><ellipse cx="68" cy="576" fill="#ADD1B2" rx="8.8" ry="8.8" style="stroke:#181818;stroke-width:0.8000000000000002;"/><path d="M70.375,580.5125 Q69.9125,580.75 69.4,580.8625 Q68.8875,580.9875 68.325,580.9875 Q66.325,580.9875 65.2625,579.675 Q64.2125,578.35 64.2125,575.85 Q64.2125,573.35 65.2625,572.025 Q66.325,570.7 68.325,570.7 Q68.8875,570.7 69.4,570.825 Q69.925,570.95 70.375,571.1875 L70.375,573.3625 Q69.875,572.9 69.4,572.6875 Q68.925,572.4625 68.425,572.4625 Q67.35,572.4625 66.8,573.325 Q66.25,574.175 66.25,575.85 Q66.25,577.525 66.8,578.3875 Q67.35,579.2375 68.425,579.2375 Q68.925,579.2375 69.4,579.025 Q69.875,578.8 70.375,578.3375 L70.375,580.5125 Z " fill="#000000"/><text fill="#000000" font-family="sans-serif" font-size="11.2" lengthAdjust="spacing" textLength="100.8" x="79.2" y="579.8773">VTKOutputModule</text><line style="stroke:#181818;stroke-width:0.4000000000000001;" x1="56.8" x2="181.6" y1="588.8" y2="588.8"/><line style="stroke:#181818;stroke-width:0.4000000000000001;" x1="56.8" x2="181.6" y1="595.2" y2="595.2"/></g><!--reverse link LinearSolver to Dune_ISTL--><g id="link_LinearSolver_Dune_ISTL"><path codeLine="42" d="M686.0716,604.3211 C710.8996,619.7131 742.772,639.472 772.883,658.139 C787.9385,667.4725 801.5338,675.9008 811.5481,682.1091 C814.0517,683.6612 816.3315,685.0746 818.3544,686.3286 C819.3658,686.9557 820.313,687.5429 821.1918,688.0877 C821.4115,688.2239 821.6269,688.3575 821.838,688.4883 C821.9436,688.5538 822.048,688.6185 822.1514,688.6826 " fill="none" id="LinearSolver-backto-Dune_ISTL" style="stroke:#181818;stroke-width:0.8000000000000002;"/><polygon fill="#181818" points="681.992,601.792,686.4254,608.3055,685.3917,603.8996,689.7975,602.866,681.992,601.792" style="stroke:#181818;stroke-width:0.8000000000000002;"/></g><!--reverse link GridManager to DUNE_Grid--><g id="link_GridManager_DUNE_Grid"><path codeLine="43" d="M647.2284,141.7327 C680.8444,154.7447 721.964,170.658 759.603,185.224 C778.4225,192.507 795.2528,199.02 807.6016,203.7988 C810.6888,204.9934 813.496,206.0797 815.9841,207.0426 C817.2281,207.524 818.3924,207.9745 819.4721,208.3924 C820.0119,208.6013 820.5306,208.802 821.0275,208.9943 C821.276,209.0904 821.519,209.1845 821.7565,209.2764 C821.8753,209.3223 821.9926,209.3677 822.1086,209.4126 " fill="none" id="GridManager-backto-DUNE_Grid" style="stroke:#181818;stroke-width:0.8000000000000002;"/><polygon fill="#181818" points="642.752,140,648.3114,145.5833,646.4823,141.4439,650.6217,139.6148,642.752,140" style="stroke:#181818;stroke-width:0.8000000000000002;"/></g><!--link GridManager to GridView--><g id="link_GridManager_GridView"><path codeLine="44" d="M594.872,140.112 C594.6,155.712 594.2837,173.1207 594.0117,188.7127 " fill="none" id="GridManager-to-GridView" style="stroke:#181818;stroke-width:0.8000000000000002;"/><polygon fill="#181818" points="593.928,193.512,597.2531,186.3689,593.9978,189.5126,590.8541,186.2573,593.928,193.512" style="stroke:#181818;stroke-width:0.8000000000000002;"/></g><!--link GridView to GridGeometry--><g id="link_GridView_GridGeometry"><path codeLine="45" d="M593.424,232 C593.296,246.128 593.158,260.7522 593.022,274.9442 " fill="none" id="GridView-to-GridGeometry" style="stroke:#181818;stroke-width:0.8000000000000002;"/><polygon fill="#181818" points="592.976,279.744,596.2448,272.575,593.0143,275.7442,589.8451,272.5137,592.976,279.744" style="stroke:#181818;stroke-width:0.8000000000000002;"/></g><!--link GridGeometry to Problem--><g id="link_GridGeometry_Problem"><path codeLine="46" d="M644.128,305.912 C690.192,312.4 752.832,324.56 768,344 C787.896,369.512 783.296,388.288 768,416.8 C754.456,442.048 730.9725,457.3208 708.0925,467.9048 " fill="none" id="GridGeometry-to-Problem" style="stroke:#181818;stroke-width:0.8000000000000002;"/><polygon fill="#181818" points="703.736,469.92,711.6142,469.8014,707.3664,468.2406,708.9272,463.9928,703.736,469.92" style="stroke:#181818;stroke-width:0.8000000000000002;"/></g><!--link GridGeometry to GridVariables--><g id="link_GridGeometry_GridVariables"><path codeLine="47" d="M541.4,303.8 C478.48,309.36 376.56,321.56 346.4,344 C305.88,374.144 288.1438,429.5785 280.9038,459.9865 " fill="none" id="GridGeometry-to-GridVariables" style="stroke:#181818;stroke-width:0.8000000000000002;"/><polygon fill="#181818" points="279.792,464.656,284.5726,458.393,280.7185,460.7648,278.3467,456.9106,279.792,464.656" style="stroke:#181818;stroke-width:0.8000000000000002;"/></g><!--link GridGeometry to Assembler--><g id="link_GridGeometry_Assembler"><path codeLine="48" d="M541.544,303.24 C483.808,308.048 395.192,319.312 373.6,344 C321.368,403.704 332.992,451.216 368,522.4 C376.504,539.696 388.7231,550.7836 404.0991,560.6076 " fill="none" id="GridGeometry-to-Assembler" style="stroke:#181818;stroke-width:0.8000000000000002;"/><polygon fill="#181818" points="408.144,563.192,403.7996,556.6189,404.7733,561.0384,400.3538,562.0121,408.144,563.192" style="stroke:#181818;stroke-width:0.8000000000000002;"/></g><!--link GridGeometry to SolutionVector--><g id="link_GridGeometry_SolutionVector"><path codeLine="49" d="M592.8,318.432 C592.8,335.552 592.8,356.104 592.8,373.304 " fill="none" id="GridGeometry-to-SolutionVector" style="stroke:#181818;stroke-width:0.8000000000000002;"/><polygon fill="#181818" points="592.8,378.104,596,370.904,592.8,374.104,589.6,370.904,592.8,378.104" style="stroke:#181818;stroke-width:0.8000000000000002;"/></g><!--link TimeLoop to Problem--><g id="link_TimeLoop_Problem"><path codeLine="50" d="M704.328,416.8 C696.6,430.928 688.2806,446.1415 680.5126,460.3335 " fill="none" id="TimeLoop-to-Problem" style="stroke:#181818;stroke-width:0.8000000000000002;"/><polygon fill="#181818" points="678.208,464.544,684.472,459.7646,680.1285,461.0352,678.8579,456.6918,678.208,464.544" style="stroke:#181818;stroke-width:0.8000000000000002;"/></g><!--link LinearSolver to Solver--><g id="link_LinearSolver_Solver"><path codeLine="51" d="M650.504,601.792 C648.888,621.944 646.7029,649.1433 645.0869,669.3353 " fill="none" id="LinearSolver-to-Solver" style="stroke:#181818;stroke-width:0.8000000000000002;"/><polygon fill="#181818" points="644.704,674.12,648.4682,667.1982,645.0231,670.1327,642.0886,666.6877,644.704,674.12" style="stroke:#181818;stroke-width:0.8000000000000002;"/></g><!--link LocalResidual to LocalAssembler--><g id="link_LocalResidual_LocalAssembler"><path codeLine="52" d="M438.4,416.8 C438.4,430.928 438.4,445.552 438.4,459.744 " fill="none" id="LocalResidual-to-LocalAssembler" style="stroke:#181818;stroke-width:0.8000000000000002;"/><polygon fill="#181818" points="438.4,464.544,441.6,457.344,438.4,460.544,435.2,457.344,438.4,464.544" style="stroke:#181818;stroke-width:0.8000000000000002;"/></g><!--link LocalAssembler to Assembler--><g id="link_LocalAssembler_Assembler"><path codeLine="53" d="M439.616,503.232 C440.752,520.352 442.1077,540.9144 443.2437,558.1144 " fill="none" id="LocalAssembler-to-Assembler" style="stroke:#181818;stroke-width:0.8000000000000002;"/><polygon fill="#181818" points="443.56,562.904,446.2785,555.5088,443.2964,558.9127,439.8925,555.9305,443.56,562.904" style="stroke:#181818;stroke-width:0.8000000000000002;"/></g><!--link GridVariables to VTKOutputModule--><g id="link_GridVariables_VTKOutputModule"><path codeLine="54" d="M246.136,503.232 C218.328,520.408 181.1645,543.3507 153.3005,560.5507 " fill="none" id="GridVariables-to-VTKOutputModule" style="stroke:#181818;stroke-width:0.8000000000000002;"/><polygon fill="#181818" points="149.216,563.072,157.0236,562.0131,152.6197,560.9709,153.6619,556.5671,149.216,563.072" style="stroke:#181818;stroke-width:0.8000000000000002;"/></g><!--link GridVariables to SolutionVector--><g id="link_GridVariables_SolutionVector"><path codeLine="55" d="M302.072,464.576 C320.136,452.68 345.224,438.104 369.6,430.4 C428.2,411.88 446.488,426.296 507.2,416.8 C517.712,415.16 524.1795,414.0045 534.8515,411.7965 " fill="none" id="GridVariables-to-SolutionVector" style="stroke:#181818;stroke-width:0.8000000000000002;"/><polygon fill="#181818" points="539.552,410.824,531.853,409.1491,535.635,411.6344,533.1497,415.4164,539.552,410.824" style="stroke:#181818;stroke-width:0.8000000000000002;"/></g><!--link IOField to VTKOutputModule--><g id="link_IOField_VTKOutputModule"><path codeLine="56" d="M119.2,503.232 C119.2,520.352 119.2,540.904 119.2,558.104 " fill="none" id="IOField-to-VTKOutputModule" style="stroke:#181818;stroke-width:0.8000000000000002;"/><polygon fill="#181818" points="119.2,562.904,122.4,555.704,119.2,558.904,116,555.704,119.2,562.904" style="stroke:#181818;stroke-width:0.8000000000000002;"/></g><!--link Assembler to Solver--><g id="link_Assembler_Solver"><path codeLine="57" d="M478.232,601.672 C516.112,622.592 573.0702,654.0634 609.3262,674.0874 " fill="none" id="Assembler-to-Solver" style="stroke:#181818;stroke-width:0.8000000000000002;"/><polygon fill="#181818" points="613.528,676.408,608.7724,670.1259,610.0265,674.4742,605.6783,675.7283,613.528,676.408" style="stroke:#181818;stroke-width:0.8000000000000002;"/></g><!--link SolutionVector to Assembler--><g id="link_SolutionVector_Assembler"><path codeLine="58" d="M581.888,416.952 C566.76,442.016 537.88,487.56 508,522.4 C495.472,537.008 483.2765,548.6382 470.6045,559.7822 " fill="none" id="SolutionVector-to-Assembler" style="stroke:#181818;stroke-width:0.8000000000000002;"/><polygon fill="#181818" points="467,562.952,474.5199,560.6002,470.0037,560.3105,470.2935,555.7943,467,562.952" style="stroke:#181818;stroke-width:0.8000000000000002;"/></g><!--link Problem to GridVariables--><g id="link_Problem_GridVariables"><path codeLine="59" d="M632.304,465.16 C612.48,454.776 587.352,441.728 564.8,430.4 C558.616,427.296 557.544,425.152 550.8,423.6 C514.592,415.272 419.808,415.272 383.6,423.6 C352.6,430.728 325.2645,447.1201 304.4885,461.9761 " fill="none" id="Problem-to-GridVariables" style="stroke:#181818;stroke-width:0.8000000000000002;"/><polygon fill="#181818" points="300.584,464.768,308.302,463.1831,303.8377,462.4414,304.5795,457.9771,300.584,464.768" style="stroke:#181818;stroke-width:0.8000000000000002;"/></g><!--link Problem to Assembler--><g id="link_Problem_Assembler"><path codeLine="60" d="M632.384,500.248 C592.88,517.376 533.5799,543.0986 491.5479,561.3226 " fill="none" id="Problem-to-Assembler" style="stroke:#181818;stroke-width:0.8000000000000002;"/><polygon fill="#181818" points="487.144,563.232,495.0228,563.3038,490.8139,561.6408,492.4769,557.432,487.144,563.232" style="stroke:#181818;stroke-width:0.8000000000000002;"/></g><!--link GridVariables to Assembler--><g id="link_GridVariables_Assembler"><path codeLine="61" d="M308.144,503.232 C338.088,520.408 378.3239,543.4846 408.3239,560.6846 " fill="none" id="GridVariables-to-Assembler" style="stroke:#181818;stroke-width:0.8000000000000002;"/><polygon fill="#181818" points="412.488,563.072,407.8334,556.7147,409.0179,561.0825,404.6502,562.2669,412.488,563.072" style="stroke:#181818;stroke-width:0.8000000000000002;"/></g><!--SRC=[VLFHIiCm57tFLuIzh_FH1n64gGmt9suEHAHaxNK6qwGagJh6_jraJTEcgUjWDEVat7joSweomW1V99T8Yn9hWRT2Qr7Wd4h8D1KSbIJx8Zl0esd5OOGF8P3ELklvw80oHfJ2Tf6k1Fi6sKKMH4kQWUfY6rDUI8MEljxqvV4slPSqRwgztgoU3DzjkAX-0mjskmKero0_I0RO8Wl23IiFnnw-eV1ZmBgw1Uv15A3bte3OFFM_BxuXaf8j0sKxuFffjPuT5gyou6Q7w6YT-4aA8okShCNNj82v46L4c85MzYhgaGstkr4AYYtRZ_3RMp99aicdBjXa9qLLfcbA79jOzFqzikJK836Eki-5YOZVC4m_Ww9vHTW_ep21e7mNJw9Eog1ZBZYZ78Zqbjl6xQNEJrlEb1ciqREth7HPwTZTR7b7WUNHYJVhXrgo47d5m9Mqly3ErNZS_KHG9vYEQ_8USkFnjGyhQbuysYGMTHSdriKg9eAmnhI_sfWAWuUQW0RjWZCxaVtyWroSY318A5mEMF6UJrn_wl6EdbjtVOFYiArp7EfxXjnn1mRQPSuTeEMEVm00]--></g></svg>