<?xml version="1.0" encoding="us-ascii" standalone="no"?><svg xmlns="http://www.w3.org/2000/svg" xmlns:xlink="http://www.w3.org/1999/xlink" contentStyleType="text/css" height="815.2px" preserveAspectRatio="none" style="width:1941px;height:815px;background:#FFFFFF;" version="1.1" viewBox="0 0 1941 815" width="1941.6px" zoomAndPan="magnify"><defs/><g><!--cluster User Scenario--><g id="cluster_User Scenario"><path d="M1098,4.8 L1187.6,4.8 A3,3 0 0 1 1189.6,6.8 L1195.2,22.6375 L1934,22.6375 A2,2 0 0 1 1936,24.6375 L1936,353.6 A2,2 0 0 1 1934,355.6 L1098,355.6 A2,2 0 0 1 1096,353.6 L1096,6.8 A2,2 0 0 1 1098,4.8 " fill="none" style="stroke:#000000;stroke-width:1.2000000000000002;"/><line style="stroke:#000000;stroke-width:1.2000000000000002;" x1="1096" x2="1195.2" y1="22.6375" y2="22.6375"/><text fill="#000000" font-family="sans-serif" font-size="11.2" font-weight="bold" lengthAdjust="spacing" textLength="88.8" x="1099.2" y="16.7961">User Scenario</text></g><!--cluster Properties--><g id="cluster_Properties"><a href="./../html/group___properties.html" target="_top" title="./../html/group___properties.html" xlink:actuate="onRequest" xlink:href="./../html/group___properties.html" xlink:show="new" xlink:title="./../html/group___properties.html" xlink:type="simple"><path d="M1734.8,52 L1802,52 A3,3 0 0 1 1804,54 L1809.6,69.8375 L1902,69.8375 A2,2 0 0 1 1904,71.8375 L1904,182.8 A2,2 0 0 1 1902,184.8 L1734.8,184.8 A2,2 0 0 1 1732.8,182.8 L1732.8,54 A2,2 0 0 1 1734.8,52 " fill="none" style="stroke:#000000;stroke-width:1.2000000000000002;"/><line style="stroke:#000000;stroke-width:1.2000000000000002;" x1="1732.8" x2="1809.6" y1="69.8375" y2="69.8375"/><text fill="#000000" font-family="sans-serif" font-size="11.2" font-weight="bold" lengthAdjust="spacing" textLength="66.4" x="1736" y="63.9961">Properties</text></a></g><!--cluster TTag--><g id="cluster_TTag"><path d="M1766.8,92.8 L1798.8,92.8 A3,3 0 0 1 1800.8,94.8 L1806.4,110.6375 L1876.4,110.6375 A2,2 0 0 1 1878.4,112.6375 L1878.4,157.2 A2,2 0 0 1 1876.4,159.2 L1766.8,159.2 A2,2 0 0 1 1764.8,157.2 L1764.8,94.8 A2,2 0 0 1 1766.8,92.8 " fill="none" style="stroke:#000000;stroke-width:1.2000000000000002;"/><line style="stroke:#000000;stroke-width:1.2000000000000002;" x1="1764.8" x2="1806.4" y1="110.6375" y2="110.6375"/><text fill="#000000" font-family="sans-serif" font-size="11.2" font-weight="bold" lengthAdjust="spacing" textLength="31.2" x="1768" y="104.7961">TTag</text></g><!--cluster Dune--><g id="cluster_Dune"><path d="M6.8,651.6 L40.4,651.6 A3,3 0 0 1 42.4,653.6 L48,669.4375 L762.8,669.4375 A2,2 0 0 1 764.8,671.4375 L764.8,808 A2,2 0 0 1 762.8,810 L6.8,810 A2,2 0 0 1 4.8,808 L4.8,653.6 A2,2 0 0 1 6.8,651.6 " fill="none" style="stroke:#000000;stroke-width:1.2000000000000002;"/><line style="stroke:#000000;stroke-width:1.2000000000000002;" x1="4.8" x2="48" y1="669.4375" y2="669.4375"/><text fill="#000000" font-family="sans-serif" font-size="11.2" font-weight="bold" lengthAdjust="spacing" textLength="32.8" x="8" y="663.5961">Dune</text></g><!--cluster dune-istl--><g id="cluster_dune-istl"><path d="M198.8,698.8 L254.8,698.8 A3,3 0 0 1 256.8,700.8 L262.4,716.6375 L574,716.6375 A2,2 0 0 1 576,718.6375 L576,776 A2,2 0 0 1 574,778 L198.8,778 A2,2 0 0 1 196.8,776 L196.8,700.8 A2,2 0 0 1 198.8,698.8 " fill="none" style="stroke:#000000;stroke-width:1.2000000000000002;"/><line style="stroke:#000000;stroke-width:1.2000000000000002;" x1="196.8" x2="262.4" y1="716.6375" y2="716.6375"/><text fill="#000000" font-family="sans-serif" font-size="11.2" font-weight="bold" lengthAdjust="spacing" textLength="55.2" x="200" y="710.7961">dune-istl</text></g><!--cluster dune-grid--><g id="cluster_dune-grid"><path d="M610,698.8 L672.4,698.8 A3,3 0 0 1 674.4,700.8 L680,716.6375 L730.8,716.6375 A2,2 0 0 1 732.8,718.6375 L732.8,776 A2,2 0 0 1 730.8,778 L610,778 A2,2 0 0 1 608,776 L608,700.8 A2,2 0 0 1 610,698.8 " fill="none" style="stroke:#000000;stroke-width:1.2000000000000002;"/><line style="stroke:#000000;stroke-width:1.2000000000000002;" x1="608" x2="680" y1="716.6375" y2="716.6375"/><text fill="#000000" font-family="sans-serif" font-size="11.2" font-weight="bold" lengthAdjust="spacing" textLength="61.6" x="611.2" y="710.7961">dune-grid</text></g><!--cluster dune-common--><g id="cluster_dune-common"><path d="M38.8,705.2 L130,705.2 A3,3 0 0 1 132,707.2 L137.6,723.0375 L169.2,723.0375 A2,2 0 0 1 171.2,725.0375 L171.2,769.6 A2,2 0 0 1 169.2,771.6 L38.8,771.6 A2,2 0 0 1 36.8,769.6 L36.8,707.2 A2,2 0 0 1 38.8,705.2 " fill="none" style="stroke:#000000;stroke-width:1.2000000000000002;"/><line style="stroke:#000000;stroke-width:1.2000000000000002;" x1="36.8" x2="137.6" y1="723.0375" y2="723.0375"/><text fill="#000000" font-family="sans-serif" font-size="11.2" font-weight="bold" lengthAdjust="spacing" textLength="90.4" x="40" y="717.1961">dune-common</text></g><!--cluster DuMux--><g id="cluster_DuMux"><path d="M19.6,229.2 L62.8,229.2 A3,3 0 0 1 64.8,231.2 L70.4,247.0375 L1062,247.0375 A2,2 0 0 1 1064,249.0375 L1064,610.4 A2,2 0 0 1 1062,612.4 L19.6,612.4 A2,2 0 0 1 17.6,610.4 L17.6,231.2 A2,2 0 0 1 19.6,229.2 " fill="none" style="stroke:#000000;stroke-width:1.2000000000000002;"/><line style="stroke:#000000;stroke-width:1.2000000000000002;" x1="17.6" x2="70.4" y1="247.0375" y2="247.0375"/><text fill="#000000" font-family="sans-serif" font-size="11.2" font-weight="bold" lengthAdjust="spacing" textLength="42.4" x="20.8" y="241.1961">DuMux</text></g><!--cluster Grid--><g id="cluster_Grid"><path d="M478.8,387.6 L506,387.6 A3,3 0 0 1 508,389.6 L513.6,405.4375 L626.8,405.4375 A2,2 0 0 1 628.8,407.4375 L628.8,578.4 A2,2 0 0 1 626.8,580.4 L478.8,580.4 A2,2 0 0 1 476.8,578.4 L476.8,389.6 A2,2 0 0 1 478.8,387.6 " fill="none" style="stroke:#000000;stroke-width:1.2000000000000002;"/><line style="stroke:#000000;stroke-width:1.2000000000000002;" x1="476.8" x2="513.6" y1="405.4375" y2="405.4375"/><text fill="#000000" font-family="sans-serif" font-size="11.2" font-weight="bold" lengthAdjust="spacing" textLength="26.4" x="480" y="399.5961">Grid</text></g><!--cluster Variables--><g id="cluster_Variables"><path d="M261.2,387.6 L320.4,387.6 A3,3 0 0 1 322.4,389.6 L328,405.4375 L442.8,405.4375 A2,2 0 0 1 444.8,407.4375 L444.8,578.4 A2,2 0 0 1 442.8,580.4 L261.2,580.4 A2,2 0 0 1 259.2,578.4 L259.2,389.6 A2,2 0 0 1 261.2,387.6 " fill="none" style="stroke:#000000;stroke-width:1.2000000000000002;"/><line style="stroke:#000000;stroke-width:1.2000000000000002;" x1="259.2" x2="328" y1="405.4375" y2="405.4375"/><text fill="#000000" font-family="sans-serif" font-size="11.2" font-weight="bold" lengthAdjust="spacing" textLength="58.4" x="262.4" y="399.5961">Variables</text></g><!--cluster Assembly--><g id="cluster_Assembly"><a href="./../html/group___assembly.html" target="_top" title="./../html/group___assembly.html" xlink:actuate="onRequest" xlink:href="./../html/group___assembly.html" xlink:show="new" xlink:title="./../html/group___assembly.html" xlink:type="simple"><path d="M675.6,387.6 L737.2,387.6 A3,3 0 0 1 739.2,389.6 L744.8,405.4375 L854,405.4375 A2,2 0 0 1 856,407.4375 L856,578.4 A2,2 0 0 1 854,580.4 L675.6,580.4 A2,2 0 0 1 673.6,578.4 L673.6,389.6 A2,2 0 0 1 675.6,387.6 " fill="none" style="stroke:#000000;stroke-width:1.2000000000000002;"/><line style="stroke:#000000;stroke-width:1.2000000000000002;" x1="673.6" x2="744.8" y1="405.4375" y2="405.4375"/><text fill="#000000" font-family="sans-serif" font-size="11.2" font-weight="bold" lengthAdjust="spacing" textLength="60.8" x="676.8" y="399.5961">Assembly</text></a></g><!--cluster Solving--><g id="cluster_Solving"><path d="M890,387.6 L936.4,387.6 A3,3 0 0 1 938.4,389.6 L944,405.4375 L1030,405.4375 A2,2 0 0 1 1032,407.4375 L1032,578.4 A2,2 0 0 1 1030,580.4 L890,580.4 A2,2 0 0 1 888,578.4 L888,389.6 A2,2 0 0 1 890,387.6 " fill="none" style="stroke:#000000;stroke-width:1.2000000000000002;"/><line style="stroke:#000000;stroke-width:1.2000000000000002;" x1="888" x2="944" y1="405.4375" y2="405.4375"/><text fill="#000000" font-family="sans-serif" font-size="11.2" font-weight="bold" lengthAdjust="spacing" textLength="45.6" x="891.2" y="399.5961">Solving</text></g><!--cluster Output--><g id="cluster_Output"><path d="M58,276.4 L102,276.4 A3,3 0 0 1 104,278.4 L109.6,294.2375 L225.2,294.2375 A2,2 0 0 1 227.2,296.2375 L227.2,464.8 A2,2 0 0 1 225.2,466.8 L58,466.8 A2,2 0 0 1 56,464.8 L56,278.4 A2,2 0 0 1 58,276.4 " fill="none" style="stroke:#000000;stroke-width:1.2000000000000002;"/><line style="stroke:#000000;stroke-width:1.2000000000000002;" x1="56" x2="109.6" y1="294.2375" y2="294.2375"/><text fill="#000000" font-family="sans-serif" font-size="11.2" font-weight="bold" lengthAdjust="spacing" textLength="43.2" x="59.2" y="288.3961">Output</text></g><!--class Problem--><g id="elem_Problem"><rect codeLine="13" fill="#F1F1F1" height="25.6" id="Problem" rx="2" ry="2" style="stroke:#181818;stroke-width:0.4000000000000001;" width="71.2" x="1253.2" y="310.8"/><ellipse cx="1265.2" cy="323.6" fill="#ADD1B2" rx="8.8" ry="8.8" style="stroke:#181818;stroke-width:0.8000000000000002;"/><path d="M1267.575,328.1125 Q1267.1125,328.35 1266.6,328.4625 Q1266.0875,328.5875 1265.525,328.5875 Q1263.525,328.5875 1262.4625,327.275 Q1261.4125,325.95 1261.4125,323.45 Q1261.4125,320.95 1262.4625,319.625 Q1263.525,318.3 1265.525,318.3 Q1266.0875,318.3 1266.6,318.425 Q1267.125,318.55 1267.575,318.7875 L1267.575,320.9625 Q1267.075,320.5 1266.6,320.2875 Q1266.125,320.0625 1265.625,320.0625 Q1264.55,320.0625 1264,320.925 Q1263.45,321.775 1263.45,323.45 Q1263.45,325.125 1264,325.9875 Q1264.55,326.8375 1265.625,326.8375 Q1266.125,326.8375 1266.6,326.625 Q1267.075,326.4 1267.575,325.9375 L1267.575,328.1125 Z " fill="#000000"/><text fill="#000000" font-family="sans-serif" font-size="11.2" lengthAdjust="spacing" textLength="45.6" x="1276.4" y="327.4773">Problem</text></g><!--class SpatialParams--><a href="./../html/group___spatial_parameters.html" target="_top" title="./../html/group___spatial_parameters.html" xlink:actuate="onRequest" xlink:href="./../html/group___spatial_parameters.html" xlink:show="new" xlink:title="./../html/group___spatial_parameters.html" xlink:type="simple"><g id="elem_SpatialParams"><rect codeLine="14" fill="#F1F1F1" height="25.6" id="SpatialParams" rx="2" ry="2" style="stroke:#181818;stroke-width:0.4000000000000001;" width="102.4" x="1126.4" y="310.8"/><ellipse cx="1138.4" cy="323.6" fill="#ADD1B2" rx="8.8" ry="8.8" style="stroke:#181818;stroke-width:0.8000000000000002;"/><path d="M1140.775,328.1125 Q1140.3125,328.35 1139.8,328.4625 Q1139.2875,328.5875 1138.725,328.5875 Q1136.725,328.5875 1135.6625,327.275 Q1134.6125,325.95 1134.6125,323.45 Q1134.6125,320.95 1135.6625,319.625 Q1136.725,318.3 1138.725,318.3 Q1139.2875,318.3 1139.8,318.425 Q1140.325,318.55 1140.775,318.7875 L1140.775,320.9625 Q1140.275,320.5 1139.8,320.2875 Q1139.325,320.0625 1138.825,320.0625 Q1137.75,320.0625 1137.2,320.925 Q1136.65,321.775 1136.65,323.45 Q1136.65,325.125 1137.2,325.9875 Q1137.75,326.8375 1138.825,326.8375 Q1139.325,326.8375 1139.8,326.625 Q1140.275,326.4 1140.775,325.9375 L1140.775,328.1125 Z " fill="#000000"/><text fill="#000000" font-family="sans-serif" font-size="11.2" lengthAdjust="spacing" textLength="76.8" x="1149.6" y="327.4773">SpatialParams</text></g></a><!--entity params--><g id="elem_params"><path d="M1126.4,98.4 L1126.4,168.95 A2,2 0 0 0 1128.4,170.95 L1274.8,170.95 A2,2 0 0 0 1276.8,168.95 L1276.8,104.4 L1268.8,96.4 L1128.4,96.4 A2,2 0 0 0 1126.4,98.4 " fill="#F1F1F1" style="stroke:#181818;stroke-width:0.4000000000000001;"/><path d="M1268.8,96.4 L1268.8,102.4 A2,2 0 0 0 1270.8,104.4 L1276.8,104.4 " fill="#F1F1F1" style="stroke:#181818;stroke-width:0.4000000000000001;"/><text fill="#000000" font-family="sans-serif" font-size="11.2" lengthAdjust="spacing" textLength="72" x="1134.4" y="114.7961">params.input</text><line style="stroke:#181818;stroke-width:0.8000000000000002;" x1="1127.2" x2="1276" y1="117.4375" y2="117.4375"/><text fill="#000000" font-family="monospace" font-size="11.2" lengthAdjust="spacing" textLength="64" x="1134.4" y="131.0336">[TimeLoop]</text><text fill="#000000" font-family="monospace" font-size="11.2" lengthAdjust="spacing" textLength="134.4" x="1134.4" y="144.0711">DtInitial&#160;=&#160;250&#160;#&#160;[s]</text><text fill="#000000" font-family="monospace" font-size="11.2" lengthAdjust="spacing" textLength="19.2" x="1134.4" y="157.1086">...</text></g><!--entity main--><g id="elem_main"><path d="M1300.8,59.2 L1300.8,207.975 A2,2 0 0 0 1302.8,209.975 L1711.6,209.975 A2,2 0 0 0 1713.6,207.975 L1713.6,65.2 L1705.6,57.2 L1302.8,57.2 A2,2 0 0 0 1300.8,59.2 " fill="#F1F1F1" style="stroke:#181818;stroke-width:0.4000000000000001;"/><path d="M1705.6,57.2 L1705.6,63.2 A2,2 0 0 0 1707.6,65.2 L1713.6,65.2 " fill="#F1F1F1" style="stroke:#181818;stroke-width:0.4000000000000001;"/><text fill="#000000" font-family="sans-serif" font-size="11.2" lengthAdjust="spacing" textLength="42.4" x="1308.8" y="75.5961">main.cc</text><line style="stroke:#181818;stroke-width:0.8000000000000002;" x1="1301.6" x2="1712.8" y1="78.2375" y2="78.2375"/><text fill="#000000" font-family="monospace" font-size="11.2" lengthAdjust="spacing" textLength="198.4" x="1308.8" y="91.8336">int&#160;main(int&#160;argc,&#160;char**&#160;argv)</text><text fill="#000000" font-family="monospace" font-size="11.2" lengthAdjust="spacing" textLength="6.4" x="1308.8" y="104.8711">{</text><text fill="#000000" font-family="monospace" font-size="11.2" lengthAdjust="spacing" textLength="19.2" x="1334.4" y="117.9086">...</text><text fill="#000000" font-family="monospace" font-size="11.2" lengthAdjust="spacing" textLength="243.2" x="1334.4" y="130.9461">using&#160;TypeTag&#160;=&#160;Properties::TTag::...;</text><text fill="#000000" font-family="monospace" font-size="11.2" lengthAdjust="spacing" textLength="19.2" x="1334.4" y="143.9836">...</text><text fill="#000000" font-family="monospace" font-size="11.2" lengthAdjust="spacing" textLength="371.2" x="1334.4" y="157.0211">using&#160;Problem&#160;=&#160;GetPropType&lt;TypeTag,&#160;Properties::Problem&gt;;</text><text fill="#000000" font-family="monospace" font-size="11.2" lengthAdjust="spacing" textLength="352" x="1334.4" y="170.0586">auto&#160;problem&#160;=&#160;std::make_shared&lt;Problem&gt;(gridGeometry);</text><text fill="#000000" font-family="monospace" font-size="11.2" lengthAdjust="spacing" textLength="19.2" x="1334.4" y="183.0961">...</text><text fill="#000000" font-family="monospace" font-size="11.2" lengthAdjust="spacing" textLength="6.4" x="1308.8" y="196.1336">}</text></g><!--class MyTypeTag--><g id="elem_MyTypeTag"><rect codeLine="41" fill="#F1F1F1" height="25.6" id="MyTypeTag" rx="2" ry="2" style="stroke:#181818;stroke-width:0.4000000000000001;" width="88.8" x="1777.2" y="120.8"/><ellipse cx="1789.2" cy="133.6" fill="#F1F1F1" rx="8.8" ry="8.8" style="stroke:#181818;stroke-width:0.8000000000000002;"/><path d="M1788.7875,134.05 Q1787.3,133.4875 1786.775,132.875 Q1786.2625,132.25 1786.2625,131.2 Q1786.2625,129.85 1787.125,129.075 Q1787.9875,128.3 1789.4875,128.3 Q1790.175,128.3 1790.85,128.4625 Q1791.5375,128.6125 1792.2125,128.925 L1792.2125,130.8375 Q1791.5875,130.3875 1790.925,130.1625 Q1790.275,129.925 1789.6375,129.925 Q1788.9375,129.925 1788.55,130.2125 Q1788.175,130.5 1788.175,131.025 Q1788.175,131.4375 1788.45,131.7125 Q1788.725,131.975 1789.6,132.3 L1790.45,132.625 Q1791.6375,133.0625 1792.2,133.7875 Q1792.775,134.5125 1792.775,135.6125 Q1792.775,137.1125 1791.8875,137.85 Q1791,138.5875 1789.2,138.5875 Q1788.4625,138.5875 1787.725,138.4125 Q1786.9875,138.2375 1786.3,137.9 L1786.3,135.875 Q1787.075,136.425 1787.8125,136.7 Q1788.55,136.975 1789.2625,136.975 Q1789.9875,136.975 1790.3875,136.65 Q1790.7875,136.3125 1790.7875,135.725 Q1790.7875,135.275 1790.5125,134.95 Q1790.25,134.6125 1789.75,134.4125 L1788.7875,134.05 Z " fill="#000000"/><text fill="#000000" font-family="sans-serif" font-size="11.2" lengthAdjust="spacing" textLength="63.2" x="1800.4" y="137.4773">MyTypeTag</text></g><!--class ISTL solvers--><g id="elem_ISTL solvers"><rect codeLine="47" fill="#F1F1F1" height="25.6" id="ISTL solvers" rx="2" ry="2" style="stroke:#181818;stroke-width:0.4000000000000001;" width="90.4" x="343.6" y="733.2"/><ellipse cx="355.6" cy="746" fill="#ADD1B2" rx="8.8" ry="8.8" style="stroke:#181818;stroke-width:0.8000000000000002;"/><path d="M357.975,750.5125 Q357.5125,750.75 357,750.8625 Q356.4875,750.9875 355.925,750.9875 Q353.925,750.9875 352.8625,749.675 Q351.8125,748.35 351.8125,745.85 Q351.8125,743.35 352.8625,742.025 Q353.925,740.7 355.925,740.7 Q356.4875,740.7 357,740.825 Q357.525,740.95 357.975,741.1875 L357.975,743.3625 Q357.475,742.9 357,742.6875 Q356.525,742.4625 356.025,742.4625 Q354.95,742.4625 354.4,743.325 Q353.85,744.175 353.85,745.85 Q353.85,747.525 354.4,748.3875 Q354.95,749.2375 356.025,749.2375 Q356.525,749.2375 357,749.025 Q357.475,748.8 357.975,748.3375 L357.975,750.5125 Z " fill="#000000"/><text fill="#000000" font-family="sans-serif" font-size="11.2" lengthAdjust="spacing" textLength="64.8" x="366.8" y="749.8773">ISTL solvers</text></g><!--class ISTL matrices--><g id="elem_ISTL matrices"><rect codeLine="48" fill="#F1F1F1" height="25.6" id="ISTL matrices" rx="2" ry="2" style="stroke:#181818;stroke-width:0.4000000000000001;" width="98.4" x="458" y="733.2"/><ellipse cx="470" cy="746" fill="#ADD1B2" rx="8.8" ry="8.8" style="stroke:#181818;stroke-width:0.8000000000000002;"/><path d="M472.375,750.5125 Q471.9125,750.75 471.4,750.8625 Q470.8875,750.9875 470.325,750.9875 Q468.325,750.9875 467.2625,749.675 Q466.2125,748.35 466.2125,745.85 Q466.2125,743.35 467.2625,742.025 Q468.325,740.7 470.325,740.7 Q470.8875,740.7 471.4,740.825 Q471.925,740.95 472.375,741.1875 L472.375,743.3625 Q471.875,742.9 471.4,742.6875 Q470.925,742.4625 470.425,742.4625 Q469.35,742.4625 468.8,743.325 Q468.25,744.175 468.25,745.85 Q468.25,747.525 468.8,748.3875 Q469.35,749.2375 470.425,749.2375 Q470.925,749.2375 471.4,749.025 Q471.875,748.8 472.375,748.3375 L472.375,750.5125 Z " fill="#000000"/><text fill="#000000" font-family="sans-serif" font-size="11.2" lengthAdjust="spacing" textLength="72.8" x="481.2" y="749.8773">ISTL matrices</text></g><!--class ISTL vectors--><g id="elem_ISTL vectors"><rect codeLine="49" fill="#F1F1F1" height="25.6" id="ISTL vectors" rx="2" ry="2" style="stroke:#181818;stroke-width:0.4000000000000001;" width="92" x="227.6" y="733.2"/><ellipse cx="239.6" cy="746" fill="#ADD1B2" rx="8.8" ry="8.8" style="stroke:#181818;stroke-width:0.8000000000000002;"/><path d="M241.975,750.5125 Q241.5125,750.75 241,750.8625 Q240.4875,750.9875 239.925,750.9875 Q237.925,750.9875 236.8625,749.675 Q235.8125,748.35 235.8125,745.85 Q235.8125,743.35 236.8625,742.025 Q237.925,740.7 239.925,740.7 Q240.4875,740.7 241,740.825 Q241.525,740.95 241.975,741.1875 L241.975,743.3625 Q241.475,742.9 241,742.6875 Q240.525,742.4625 240.025,742.4625 Q238.95,742.4625 238.4,743.325 Q237.85,744.175 237.85,745.85 Q237.85,747.525 238.4,748.3875 Q238.95,749.2375 240.025,749.2375 Q240.525,749.2375 241,749.025 Q241.475,748.8 241.975,748.3375 L241.975,750.5125 Z " fill="#000000"/><text fill="#000000" font-family="sans-serif" font-size="11.2" lengthAdjust="spacing" textLength="66.4" x="250.8" y="749.8773">ISTL vectors</text></g><!--class YaspGrid--><g id="elem_YaspGrid"><rect codeLine="52" fill="#F1F1F1" height="25.6" id="YaspGrid" rx="2" ry="2" style="stroke:#181818;stroke-width:0.4000000000000001;" width="75.2" x="638.4" y="733.2"/><ellipse cx="650.4" cy="746" fill="#ADD1B2" rx="8.8" ry="8.8" style="stroke:#181818;stroke-width:0.8000000000000002;"/><path d="M652.775,750.5125 Q652.3125,750.75 651.8,750.8625 Q651.2875,750.9875 650.725,750.9875 Q648.725,750.9875 647.6625,749.675 Q646.6125,748.35 646.6125,745.85 Q646.6125,743.35 647.6625,742.025 Q648.725,740.7 650.725,740.7 Q651.2875,740.7 651.8,740.825 Q652.325,740.95 652.775,741.1875 L652.775,743.3625 Q652.275,742.9 651.8,742.6875 Q651.325,742.4625 650.825,742.4625 Q649.75,742.4625 649.2,743.325 Q648.65,744.175 648.65,745.85 Q648.65,747.525 649.2,748.3875 Q649.75,749.2375 650.825,749.2375 Q651.325,749.2375 651.8,749.025 Q652.275,748.8 652.775,748.3375 L652.775,750.5125 Z " fill="#000000"/><text fill="#000000" font-family="sans-serif" font-size="11.2" lengthAdjust="spacing" textLength="49.6" x="661.6" y="749.8773">YaspGrid</text></g><!--class ParameterTree--><g id="elem_ParameterTree"><rect codeLine="55" fill="#F1F1F1" height="25.6" id="ParameterTree" rx="2" ry="2" style="stroke:#181818;stroke-width:0.4000000000000001;" width="108" x="50" y="733.2"/><ellipse cx="62" cy="746" fill="#ADD1B2" rx="8.8" ry="8.8" style="stroke:#181818;stroke-width:0.8000000000000002;"/><path d="M64.375,750.5125 Q63.9125,750.75 63.4,750.8625 Q62.8875,750.9875 62.325,750.9875 Q60.325,750.9875 59.2625,749.675 Q58.2125,748.35 58.2125,745.85 Q58.2125,743.35 59.2625,742.025 Q60.325,740.7 62.325,740.7 Q62.8875,740.7 63.4,740.825 Q63.925,740.95 64.375,741.1875 L64.375,743.3625 Q63.875,742.9 63.4,742.6875 Q62.925,742.4625 62.425,742.4625 Q61.35,742.4625 60.8,743.325 Q60.25,744.175 60.25,745.85 Q60.25,747.525 60.8,748.3875 Q61.35,749.2375 62.425,749.2375 Q62.925,749.2375 63.4,749.025 Q63.875,748.8 64.375,748.3375 L64.375,750.5125 Z " fill="#000000"/><text fill="#000000" font-family="sans-serif" font-size="11.2" lengthAdjust="spacing" textLength="82.4" x="73.2" y="749.8773">ParameterTree</text></g><!--class GridManager--><g id="elem_GridManager"><rect codeLine="60" fill="#F1F1F1" height="25.6" id="GridManager" rx="2" ry="2" style="stroke:#181818;stroke-width:0.4000000000000001;" width="96" x="512" y="535.6"/><ellipse cx="524" cy="548.4" fill="#B4A7E5" rx="8.8" ry="8.8" style="stroke:#181818;stroke-width:0.8000000000000002;"/><path d="M520.7375,545.0125 L520.7375,543.2875 L526.65,543.2875 L526.65,545.0125 L524.675,545.0125 L524.675,551.475 L526.65,551.475 L526.65,553.2 L520.7375,553.2 L520.7375,551.475 L522.7125,551.475 L522.7125,545.0125 L520.7375,545.0125 Z " fill="#000000"/><text fill="#000000" font-family="sans-serif" font-size="11.2" font-style="italic" lengthAdjust="spacing" textLength="70.4" x="535.2" y="552.2773">GridManager</text></g><!--class GridView--><g id="elem_GridView"><rect codeLine="61" fill="#F1F1F1" height="25.6" id="GridView" rx="2" ry="2" style="stroke:#181818;stroke-width:0.4000000000000001;" width="74.4" x="522" y="486"/><ellipse cx="534" cy="498.8" fill="#B4A7E5" rx="8.8" ry="8.8" style="stroke:#181818;stroke-width:0.8000000000000002;"/><path d="M530.7375,495.4125 L530.7375,493.6875 L536.65,493.6875 L536.65,495.4125 L534.675,495.4125 L534.675,501.875 L536.65,501.875 L536.65,503.6 L530.7375,503.6 L530.7375,501.875 L532.7125,501.875 L532.7125,495.4125 L530.7375,495.4125 Z " fill="#000000"/><text fill="#000000" font-family="sans-serif" font-size="11.2" font-style="italic" lengthAdjust="spacing" textLength="48.8" x="545.2" y="502.6773">GridView</text></g><!--class GridGeometry--><g id="elem_GridGeometry"><rect codeLine="62" fill="#F1F1F1" height="25.6" id="GridGeometry" rx="2" ry="2" style="stroke:#181818;stroke-width:0.4000000000000001;" width="102.4" x="507.2" y="422"/><ellipse cx="519.2" cy="434.8" fill="#ADD1B2" rx="8.8" ry="8.8" style="stroke:#181818;stroke-width:0.8000000000000002;"/><path d="M521.575,439.3125 Q521.1125,439.55 520.6,439.6625 Q520.0875,439.7875 519.525,439.7875 Q517.525,439.7875 516.4625,438.475 Q515.4125,437.15 515.4125,434.65 Q515.4125,432.15 516.4625,430.825 Q517.525,429.5 519.525,429.5 Q520.0875,429.5 520.6,429.625 Q521.125,429.75 521.575,429.9875 L521.575,432.1625 Q521.075,431.7 520.6,431.4875 Q520.125,431.2625 519.625,431.2625 Q518.55,431.2625 518,432.125 Q517.45,432.975 517.45,434.65 Q517.45,436.325 518,437.1875 Q518.55,438.0375 519.625,438.0375 Q520.125,438.0375 520.6,437.825 Q521.075,437.6 521.575,437.1375 L521.575,439.3125 Z " fill="#000000"/><text fill="#000000" font-family="sans-serif" font-size="11.2" lengthAdjust="spacing" textLength="76.8" x="530.4" y="438.6773">GridGeometry</text></g><!--class GridVariables--><g id="elem_GridVariables"><rect codeLine="65" fill="#F1F1F1" height="25.6" id="GridVariables" rx="2" ry="2" style="stroke:#181818;stroke-width:0.4000000000000001;" width="97.6" x="328" y="422"/><ellipse cx="340" cy="434.8" fill="#ADD1B2" rx="8.8" ry="8.8" style="stroke:#181818;stroke-width:0.8000000000000002;"/><path d="M342.375,439.3125 Q341.9125,439.55 341.4,439.6625 Q340.8875,439.7875 340.325,439.7875 Q338.325,439.7875 337.2625,438.475 Q336.2125,437.15 336.2125,434.65 Q336.2125,432.15 337.2625,430.825 Q338.325,429.5 340.325,429.5 Q340.8875,429.5 341.4,429.625 Q341.925,429.75 342.375,429.9875 L342.375,432.1625 Q341.875,431.7 341.4,431.4875 Q340.925,431.2625 340.425,431.2625 Q339.35,431.2625 338.8,432.125 Q338.25,432.975 338.25,434.65 Q338.25,436.325 338.8,437.1875 Q339.35,438.0375 340.425,438.0375 Q340.925,438.0375 341.4,437.825 Q341.875,437.6 342.375,437.1375 L342.375,439.3125 Z " fill="#000000"/><text fill="#000000" font-family="sans-serif" font-size="11.2" lengthAdjust="spacing" textLength="72" x="351.2" y="438.6773">GridVariables</text></g><!--class PrimaryVariables--><g id="elem_PrimaryVariables"><rect codeLine="66" fill="#F1F1F1" height="25.6" id="PrimaryVariables" rx="2" ry="2" style="stroke:#181818;stroke-width:0.4000000000000001;" width="115.2" x="310.4" y="486"/><ellipse cx="322.4" cy="498.8" fill="#ADD1B2" rx="8.8" ry="8.8" style="stroke:#181818;stroke-width:0.8000000000000002;"/><path d="M324.775,503.3125 Q324.3125,503.55 323.8,503.6625 Q323.2875,503.7875 322.725,503.7875 Q320.725,503.7875 319.6625,502.475 Q318.6125,501.15 318.6125,498.65 Q318.6125,496.15 319.6625,494.825 Q320.725,493.5 322.725,493.5 Q323.2875,493.5 323.8,493.625 Q324.325,493.75 324.775,493.9875 L324.775,496.1625 Q324.275,495.7 323.8,495.4875 Q323.325,495.2625 322.825,495.2625 Q321.75,495.2625 321.2,496.125 Q320.65,496.975 320.65,498.65 Q320.65,500.325 321.2,501.1875 Q321.75,502.0375 322.825,502.0375 Q323.325,502.0375 323.8,501.825 Q324.275,501.6 324.775,501.1375 L324.775,503.3125 Z " fill="#000000"/><text fill="#000000" font-family="sans-serif" font-size="11.2" lengthAdjust="spacing" textLength="89.6" x="333.6" y="502.6773">PrimaryVariables</text></g><!--class SolutionVector--><g id="elem_SolutionVector"><rect codeLine="67" fill="#F1F1F1" height="25.6" id="SolutionVector" rx="2" ry="2" style="stroke:#181818;stroke-width:0.4000000000000001;" width="106.4" x="314.8" y="535.6"/><ellipse cx="326.8" cy="548.4" fill="#ADD1B2" rx="8.8" ry="8.8" style="stroke:#181818;stroke-width:0.8000000000000002;"/><path d="M329.175,552.9125 Q328.7125,553.15 328.2,553.2625 Q327.6875,553.3875 327.125,553.3875 Q325.125,553.3875 324.0625,552.075 Q323.0125,550.75 323.0125,548.25 Q323.0125,545.75 324.0625,544.425 Q325.125,543.1 327.125,543.1 Q327.6875,543.1 328.2,543.225 Q328.725,543.35 329.175,543.5875 L329.175,545.7625 Q328.675,545.3 328.2,545.0875 Q327.725,544.8625 327.225,544.8625 Q326.15,544.8625 325.6,545.725 Q325.05,546.575 325.05,548.25 Q325.05,549.925 325.6,550.7875 Q326.15,551.6375 327.225,551.6375 Q327.725,551.6375 328.2,551.425 Q328.675,551.2 329.175,550.7375 L329.175,552.9125 Z " fill="#000000"/><text fill="#000000" font-family="sans-serif" font-size="11.2" lengthAdjust="spacing" textLength="80.8" x="338" y="552.2773">SolutionVector</text></g><!--class Assembler--><g id="elem_Assembler"><rect codeLine="70" fill="#F1F1F1" height="25.6" id="Assembler" rx="2" ry="2" style="stroke:#181818;stroke-width:0.4000000000000001;" width="84" x="718.8" y="535.6"/><ellipse cx="730.8" cy="548.4" fill="#ADD1B2" rx="8.8" ry="8.8" style="stroke:#181818;stroke-width:0.8000000000000002;"/><path d="M733.175,552.9125 Q732.7125,553.15 732.2,553.2625 Q731.6875,553.3875 731.125,553.3875 Q729.125,553.3875 728.0625,552.075 Q727.0125,550.75 727.0125,548.25 Q727.0125,545.75 728.0625,544.425 Q729.125,543.1 731.125,543.1 Q731.6875,543.1 732.2,543.225 Q732.725,543.35 733.175,543.5875 L733.175,545.7625 Q732.675,545.3 732.2,545.0875 Q731.725,544.8625 731.225,544.8625 Q730.15,544.8625 729.6,545.725 Q729.05,546.575 729.05,548.25 Q729.05,549.925 729.6,550.7875 Q730.15,551.6375 731.225,551.6375 Q731.725,551.6375 732.2,551.425 Q732.675,551.2 733.175,550.7375 L733.175,552.9125 Z " fill="#000000"/><text fill="#000000" font-family="sans-serif" font-size="11.2" lengthAdjust="spacing" textLength="58.4" x="742" y="552.2773">Assembler</text></g><!--class LocalAssembler--><g id="elem_LocalAssembler"><rect codeLine="71" fill="#F1F1F1" height="25.6" id="LocalAssembler" rx="2" ry="2" style="stroke:#181818;stroke-width:0.4000000000000001;" width="112" x="724.8" y="486"/><ellipse cx="736.8" cy="498.8" fill="#ADD1B2" rx="8.8" ry="8.8" style="stroke:#181818;stroke-width:0.8000000000000002;"/><path d="M739.175,503.3125 Q738.7125,503.55 738.2,503.6625 Q737.6875,503.7875 737.125,503.7875 Q735.125,503.7875 734.0625,502.475 Q733.0125,501.15 733.0125,498.65 Q733.0125,496.15 734.0625,494.825 Q735.125,493.5 737.125,493.5 Q737.6875,493.5 738.2,493.625 Q738.725,493.75 739.175,493.9875 L739.175,496.1625 Q738.675,495.7 738.2,495.4875 Q737.725,495.2625 737.225,495.2625 Q736.15,495.2625 735.6,496.125 Q735.05,496.975 735.05,498.65 Q735.05,500.325 735.6,501.1875 Q736.15,502.0375 737.225,502.0375 Q737.725,502.0375 738.2,501.825 Q738.675,501.6 739.175,501.1375 L739.175,503.3125 Z " fill="#000000"/><text fill="#000000" font-family="sans-serif" font-size="11.2" lengthAdjust="spacing" textLength="86.4" x="748" y="502.6773">LocalAssembler</text></g><!--class LocalResidual--><g id="elem_LocalResidual"><rect codeLine="72" fill="#F1F1F1" height="25.6" id="LocalResidual" rx="2" ry="2" style="stroke:#181818;stroke-width:0.4000000000000001;" width="100.8" x="730.4" y="422"/><ellipse cx="742.4" cy="434.8" fill="#ADD1B2" rx="8.8" ry="8.8" style="stroke:#181818;stroke-width:0.8000000000000002;"/><path d="M744.775,439.3125 Q744.3125,439.55 743.8,439.6625 Q743.2875,439.7875 742.725,439.7875 Q740.725,439.7875 739.6625,438.475 Q738.6125,437.15 738.6125,434.65 Q738.6125,432.15 739.6625,430.825 Q740.725,429.5 742.725,429.5 Q743.2875,429.5 743.8,429.625 Q744.325,429.75 744.775,429.9875 L744.775,432.1625 Q744.275,431.7 743.8,431.4875 Q743.325,431.2625 742.825,431.2625 Q741.75,431.2625 741.2,432.125 Q740.65,432.975 740.65,434.65 Q740.65,436.325 741.2,437.1875 Q741.75,438.0375 742.825,438.0375 Q743.325,438.0375 743.8,437.825 Q744.275,437.6 744.775,437.1375 L744.775,439.3125 Z " fill="#000000"/><text fill="#000000" font-family="sans-serif" font-size="11.2" lengthAdjust="spacing" textLength="75.2" x="753.6" y="438.6773">LocalResidual</text></g><!--class PDESolver--><a href="./../html/group___nonlinear.html" target="_top" title="./../html/group___nonlinear.html" xlink:actuate="onRequest" xlink:href="./../html/group___nonlinear.html" xlink:show="new" xlink:title="./../html/group___nonlinear.html" xlink:type="simple"><g id="elem_PDESolver"><rect codeLine="76" fill="#F1F1F1" height="25.6" id="PDESolver" rx="2" ry="2" style="stroke:#181818;stroke-width:0.4000000000000001;" width="82.4" x="924.4" y="486"/><ellipse cx="936.4" cy="498.8" fill="#ADD1B2" rx="8.8" ry="8.8" style="stroke:#181818;stroke-width:0.8000000000000002;"/><path d="M938.775,503.3125 Q938.3125,503.55 937.8,503.6625 Q937.2875,503.7875 936.725,503.7875 Q934.725,503.7875 933.6625,502.475 Q932.6125,501.15 932.6125,498.65 Q932.6125,496.15 933.6625,494.825 Q934.725,493.5 936.725,493.5 Q937.2875,493.5 937.8,493.625 Q938.325,493.75 938.775,493.9875 L938.775,496.1625 Q938.275,495.7 937.8,495.4875 Q937.325,495.2625 936.825,495.2625 Q935.75,495.2625 935.2,496.125 Q934.65,496.975 934.65,498.65 Q934.65,500.325 935.2,501.1875 Q935.75,502.0375 936.825,502.0375 Q937.325,502.0375 937.8,501.825 Q938.275,501.6 938.775,501.1375 L938.775,503.3125 Z " fill="#000000"/><text fill="#000000" font-family="sans-serif" font-size="11.2" lengthAdjust="spacing" textLength="56.8" x="947.6" y="502.6773">PDESolver</text></g></a><!--class LinearSolver--><a href="./../html/group___linear.html" target="_top" title="./../html/group___linear.html" xlink:actuate="onRequest" xlink:href="./../html/group___linear.html" xlink:show="new" xlink:title="./../html/group___linear.html" xlink:type="simple"><g id="elem_LinearSolver"><rect codeLine="77" fill="#F1F1F1" height="25.6" id="LinearSolver" rx="2" ry="2" style="stroke:#181818;stroke-width:0.4000000000000001;" width="93.6" x="918.8" y="422"/><ellipse cx="930.8" cy="434.8" fill="#B4A7E5" rx="8.8" ry="8.8" style="stroke:#181818;stroke-width:0.8000000000000002;"/><path d="M927.5375,431.4125 L927.5375,429.6875 L933.45,429.6875 L933.45,431.4125 L931.475,431.4125 L931.475,437.875 L933.45,437.875 L933.45,439.6 L927.5375,439.6 L927.5375,437.875 L929.5125,437.875 L929.5125,431.4125 L927.5375,431.4125 Z " fill="#000000"/><text fill="#000000" font-family="sans-serif" font-size="11.2" font-style="italic" lengthAdjust="spacing" textLength="68" x="942" y="438.6773">LinearSolver</text></g></a><!--class TimeLoop--><g id="elem_TimeLoop"><rect codeLine="78" fill="#F1F1F1" height="25.6" id="TimeLoop" rx="2" ry="2" style="stroke:#181818;stroke-width:0.4000000000000001;" width="80" x="925.6" y="535.6"/><ellipse cx="937.6" cy="548.4" fill="#ADD1B2" rx="8.8" ry="8.8" style="stroke:#181818;stroke-width:0.8000000000000002;"/><path d="M939.975,552.9125 Q939.5125,553.15 939,553.2625 Q938.4875,553.3875 937.925,553.3875 Q935.925,553.3875 934.8625,552.075 Q933.8125,550.75 933.8125,548.25 Q933.8125,545.75 934.8625,544.425 Q935.925,543.1 937.925,543.1 Q938.4875,543.1 939,543.225 Q939.525,543.35 939.975,543.5875 L939.975,545.7625 Q939.475,545.3 939,545.0875 Q938.525,544.8625 938.025,544.8625 Q936.95,544.8625 936.4,545.725 Q935.85,546.575 935.85,548.25 Q935.85,549.925 936.4,550.7875 Q936.95,551.6375 938.025,551.6375 Q938.525,551.6375 939,551.425 Q939.475,551.2 939.975,550.7375 L939.975,552.9125 Z " fill="#000000"/><text fill="#000000" font-family="sans-serif" font-size="11.2" lengthAdjust="spacing" textLength="54.4" x="948.8" y="552.2773">TimeLoop</text></g><!--class IOField--><g id="elem_IOField"><rect codeLine="81" fill="#F1F1F1" height="25.6" id="IOField" rx="2" ry="2" style="stroke:#181818;stroke-width:0.4000000000000001;" width="62.4" x="120.8" y="310.8"/><ellipse cx="132.8" cy="323.6" fill="#ADD1B2" rx="8.8" ry="8.8" style="stroke:#181818;stroke-width:0.8000000000000002;"/><path d="M135.175,328.1125 Q134.7125,328.35 134.2,328.4625 Q133.6875,328.5875 133.125,328.5875 Q131.125,328.5875 130.0625,327.275 Q129.0125,325.95 129.0125,323.45 Q129.0125,320.95 130.0625,319.625 Q131.125,318.3 133.125,318.3 Q133.6875,318.3 134.2,318.425 Q134.725,318.55 135.175,318.7875 L135.175,320.9625 Q134.675,320.5 134.2,320.2875 Q133.725,320.0625 133.225,320.0625 Q132.15,320.0625 131.6,320.925 Q131.05,321.775 131.05,323.45 Q131.05,325.125 131.6,325.9875 Q132.15,326.8375 133.225,326.8375 Q133.725,326.8375 134.2,326.625 Q134.675,326.4 135.175,325.9375 L135.175,328.1125 Z " fill="#000000"/><text fill="#000000" font-family="sans-serif" font-size="11.2" lengthAdjust="spacing" textLength="36.8" x="144" y="327.4773">IOField</text></g><!--class VTKOutputModule--><g id="elem_VTKOutputModule"><rect codeLine="82" fill="#F1F1F1" height="25.6" id="VTKOutputModule" rx="2" ry="2" style="stroke:#181818;stroke-width:0.4000000000000001;" width="126.4" x="75.2" y="422"/><ellipse cx="87.2" cy="434.8" fill="#ADD1B2" rx="8.8" ry="8.8" style="stroke:#181818;stroke-width:0.8000000000000002;"/><path d="M89.575,439.3125 Q89.1125,439.55 88.6,439.6625 Q88.0875,439.7875 87.525,439.7875 Q85.525,439.7875 84.4625,438.475 Q83.4125,437.15 83.4125,434.65 Q83.4125,432.15 84.4625,430.825 Q85.525,429.5 87.525,429.5 Q88.0875,429.5 88.6,429.625 Q89.125,429.75 89.575,429.9875 L89.575,432.1625 Q89.075,431.7 88.6,431.4875 Q88.125,431.2625 87.625,431.2625 Q86.55,431.2625 86,432.125 Q85.45,432.975 85.45,434.65 Q85.45,436.325 86,437.1875 Q86.55,438.0375 87.625,438.0375 Q88.125,438.0375 88.6,437.825 Q89.075,437.6 89.575,437.1375 L89.575,439.3125 Z " fill="#000000"/><text fill="#000000" font-family="sans-serif" font-size="11.2" lengthAdjust="spacing" textLength="100.8" x="98.4" y="438.6773">VTKOutputModule</text></g><!--link DuMux to Dune--><!--link User Scenario to DuMux--><!--link User Scenario to DuMux--><!--link dune-grid to dune-istl--><!--link ISTL solvers to ISTL matrices--><!--link ISTL matrices to ISTL vectors--><!--link ISTL vectors to ParameterTree--><!--link YaspGrid to ISTL matrices--><!--link Output to Solving--><!--link Output to Solving--><!--link Solving to Assembly--><!--link Solving to Assembly--><!--link Assembly to Variables--><!--link Assembly to Variables--><!--link Assembly to Variables--><!--link Variables to Grid--><!--link Variables to Grid--><!--link Variables to ISTL vectors--><!--reverse link LinearSolver to ISTL solvers--><g id="link_LinearSolver_ISTL solvers"><path codeLine="100" d="M922.536,452.704 C922.536,477.4 922.536,523.6 922.536,523.6 C922.536,523.6 431.2,523.6 431.2,523.6 C431.2,523.6 431.2,685.616 431.2,733.08 " fill="none" id="LinearSolver-backto-ISTL solvers" style="stroke:#181818;stroke-width:0.8000000000000002;"/><polygon fill="#181818" points="922.536,447.904,919.336,455.104,922.536,451.904,925.736,455.104,922.536,447.904" style="stroke:#181818;stroke-width:0.8000000000000002;"/></g><!--reverse link Assembler to ISTL matrices--><g id="link_Assembler_ISTL matrices"><path codeLine="101" d="M713.968,544.4 C674.672,544.4 626.8,544.4 626.8,544.4 C626.8,544.4 626.8,739.6 626.8,739.6 C626.8,739.6 589.48,739.6 556.536,739.6 " fill="none" id="Assembler-backto-ISTL matrices" style="stroke:#181818;stroke-width:0.8000000000000002;"/><polygon fill="#181818" points="718.768,544.4,711.568,541.2,714.768,544.4,711.568,547.6,718.768,544.4" style="stroke:#181818;stroke-width:0.8000000000000002;"/></g><!--reverse link LinearSolver to ISTL vectors--><g id="link_LinearSolver_ISTL vectors"><path codeLine="102" d="M920.664,452.584 C920.664,475.424 920.664,515.6 920.664,515.6 C920.664,515.6 281.064,515.6 281.064,515.6 C281.064,515.6 281.064,684.216 281.064,732.952 " fill="none" id="LinearSolver-backto-ISTL vectors" style="stroke:#181818;stroke-width:0.8000000000000002;"/><polygon fill="#181818" points="920.664,447.784,917.464,454.984,920.664,451.784,923.864,454.984,920.664,447.784" style="stroke:#181818;stroke-width:0.8000000000000002;"/></g><!--reverse link GridManager to dune-grid--><g id="link_GridManager_dune-grid"><path codeLine="103" d="M612.96,553.2 C616.776,553.2 614.4,553.2 614.4,553.2 C614.4,553.2 614.4,599.168 614.4,646.213 C614.4,657.9743 614.4,669.8028 614.4,680.9973 C614.4,686.5945 614.4,692.0332 614.4,697.2257 C614.4,697.5502 614.4,697.8738 614.4,698.1964 " fill="none" id="GridManager-backto-dune-grid" style="stroke:#181818;stroke-width:0.8000000000000002;"/><polygon fill="#181818" points="608.16,553.2,615.36,556.4,612.16,553.2,615.36,550,608.16,553.2" style="stroke:#181818;stroke-width:0.8000000000000002;"/></g><!--link GridView to GridManager--><g id="link_GridView_GridManager"><path codeLine="104" d="M559.2,511.832 C559.2,519.064 559.2,518.44 559.2,525.68 " fill="none" id="GridView-to-GridManager" style="stroke:#181818;stroke-width:0.8000000000000002;"/><polygon fill="none" points="559.2,535.28,562.4,530.48,559.2,525.68,556,530.48,559.2,535.28" style="stroke:#181818;stroke-width:0.8000000000000002;"/></g><!--reverse link GridGeometry to GridView--><g id="link_GridGeometry_GridView"><path codeLine="105" d="M559.2,452.552 C559.2,463.656 559.2,474.768 559.2,485.864 " fill="none" id="GridGeometry-backto-GridView" style="stroke:#181818;stroke-width:0.8000000000000002;"/><polygon fill="#181818" points="559.2,447.752,556,454.952,559.2,451.752,562.4,454.952,559.2,447.752" style="stroke:#181818;stroke-width:0.8000000000000002;"/></g><!--reverse link Problem to GridGeometry--><g id="link_Problem_GridGeometry"><path codeLine="106" d="M1276.936,341.472 C1276.936,349.712 1276.936,354 1276.936,354 C1276.936,354 584,354 584,354 C584,354 584,398.976 584,421.816 " fill="none" id="Problem-backto-GridGeometry" style="stroke:#181818;stroke-width:0.8000000000000002;"/><polygon fill="#181818" points="1276.936,336.672,1273.736,343.872,1276.936,340.672,1280.136,343.872,1276.936,336.672" style="stroke:#181818;stroke-width:0.8000000000000002;"/></g><!--reverse link SpatialParams to GridGeometry--><g id="link_SpatialParams_GridGeometry"><path codeLine="107" d="M1121.336,330.8 C972.752,330.8 558.4,330.8 558.4,330.8 C558.4,330.8 558.4,393.96 558.4,421.84 " fill="none" id="SpatialParams-backto-GridGeometry" style="stroke:#181818;stroke-width:0.8000000000000002;"/><polygon fill="#181818" points="1126.136,330.8,1118.936,327.6,1122.136,330.8,1118.936,334,1126.136,330.8" style="stroke:#181818;stroke-width:0.8000000000000002;"/></g><!--link GridGeometry to GridVariables--><g id="link_GridGeometry_GridVariables"><path codeLine="108" d="M507.088,428.4 C481.6,428.4 455.76,428.4 430.6,428.4 " fill="none" id="GridGeometry-to-GridVariables" style="stroke:#181818;stroke-width:0.8000000000000002;"/><polygon fill="#181818" points="425.8,428.4,433,431.6,429.8,428.4,433,425.2,425.8,428.4" style="stroke:#181818;stroke-width:0.8000000000000002;"/></g><!--reverse link Assembler to GridGeometry--><g id="link_Assembler_GridGeometry"><path codeLine="109" d="M721.2,530.688 C721.2,501.872 721.2,439.6 721.2,439.6 C721.2,439.6 657.408,439.6 609.688,439.6 " fill="none" id="Assembler-backto-GridGeometry" style="stroke:#181818;stroke-width:0.8000000000000002;"/><polygon fill="#181818" points="721.2,535.488,724.4,528.288,721.2,531.488,718,528.288,721.2,535.488" style="stroke:#181818;stroke-width:0.8000000000000002;"/></g><!--link LinearSolver to PDESolver--><g id="link_LinearSolver_PDESolver"><path codeLine="110" d="M965.6,447.752 C965.6,458.856 965.6,469.968 965.6,481.064 " fill="none" id="LinearSolver-to-PDESolver" style="stroke:#181818;stroke-width:0.8000000000000002;"/><polygon fill="#181818" points="965.6,485.864,968.8,478.664,965.6,481.864,962.4,478.664,965.6,485.864" style="stroke:#181818;stroke-width:0.8000000000000002;"/></g><!--link LocalResidual to LocalAssembler--><g id="link_LocalResidual_LocalAssembler"><path codeLine="111" d="M780.8,447.752 C780.8,458.856 780.8,474.768 780.8,485.864 " fill="none" id="LocalResidual-LocalAssembler" style="stroke:#181818;stroke-width:0.8000000000000002;"/></g><!--link LocalResidual to Assembler--><g id="link_LocalResidual_Assembler"><path codeLine="112" d="M730.384,443.6 C726.24,443.6 723.6,443.6 723.6,443.6 C723.6,443.6 723.6,497.968 723.6,525.952 " fill="none" id="LocalResidual-to-Assembler" style="stroke:#181818;stroke-width:0.8000000000000002;"/><polygon fill="none" points="723.6,535.552,726.8,530.752,723.6,525.952,720.4,530.752,723.6,535.552" style="stroke:#181818;stroke-width:0.8000000000000002;"/></g><!--link LocalAssembler to Assembler--><g id="link_LocalAssembler_Assembler"><path codeLine="113" d="M750.8,511.832 C750.8,519.064 750.8,518.44 750.8,525.68 " fill="none" id="LocalAssembler-to-Assembler" style="stroke:#181818;stroke-width:0.8000000000000002;"/><polygon fill="none" points="750.8,535.28,754,530.48,750.8,525.68,747.6,530.48,750.8,535.28" style="stroke:#181818;stroke-width:0.8000000000000002;"/></g><!--reverse link VTKOutputModule to GridVariables--><g id="link_VTKOutputModule_GridVariables"><path codeLine="114" d="M206.464,428.4 C246.048,428.4 291.488,428.4 327.992,428.4 " fill="none" id="VTKOutputModule-backto-GridVariables" style="stroke:#181818;stroke-width:0.8000000000000002;"/><polygon fill="#181818" points="201.664,428.4,208.864,431.6,205.664,428.4,208.864,425.2,201.664,428.4" style="stroke:#181818;stroke-width:0.8000000000000002;"/></g><!--link GridVariables to SolutionVector--><g id="link_GridVariables_SolutionVector"><path codeLine="115" d="M425.624,442 C427.376,442 428.4,442 428.4,442 C428.4,442 428.4,548.4 428.4,548.4 C428.4,548.4 425.616,548.4 421.232,548.4 " fill="none" id="GridVariables-SolutionVector" style="stroke:#181818;stroke-width:0.8000000000000002;"/></g><!--link PrimaryVariables to SolutionVector--><g id="link_PrimaryVariables_SolutionVector"><path codeLine="116" d="M341.4,511.832 C341.4,519.064 341.4,518.44 341.4,525.68 " fill="none" id="PrimaryVariables-to-SolutionVector" style="stroke:#181818;stroke-width:0.8000000000000002;"/><polygon fill="none" points="341.4,535.28,344.6,530.48,341.4,525.68,338.2,530.48,341.4,535.28" style="stroke:#181818;stroke-width:0.8000000000000002;"/></g><!--link IOField to VTKOutputModule--><g id="link_IOField_VTKOutputModule"><path codeLine="117" d="M152,336.576 C152,358 152,395.736 152,417.112 " fill="none" id="IOField-to-VTKOutputModule" style="stroke:#181818;stroke-width:0.8000000000000002;"/><polygon fill="#181818" points="152,421.912,155.2,414.712,152,417.912,148.8,414.712,152,421.912" style="stroke:#181818;stroke-width:0.8000000000000002;"/></g><!--reverse link VTKOutputModule to SolutionVector--><g id="link_VTKOutputModule_SolutionVector"><path codeLine="118" d="M179.8,452.408 C179.8,482.12 179.8,548.4 179.8,548.4 C179.8,548.4 258.936,548.4 314.576,548.4 " fill="none" id="VTKOutputModule-backto-SolutionVector" style="stroke:#181818;stroke-width:0.8000000000000002;"/><polygon fill="#181818" points="179.8,447.608,176.6,454.808,179.8,451.608,183,454.808,179.8,447.608" style="stroke:#181818;stroke-width:0.8000000000000002;"/></g><!--link Assembler to PDESolver--><g id="link_Assembler_PDESolver"><path codeLine="119" d="M802.96,544.4 C831.936,544.4 865.2,544.4 865.2,544.4 C865.2,544.4 865.2,498.8 865.2,498.8 C865.2,498.8 891.728,498.8 919.384,498.8 " fill="none" id="Assembler-to-PDESolver" style="stroke:#181818;stroke-width:0.8000000000000002;"/><polygon fill="#181818" points="924.184,498.8,916.984,495.6,920.184,498.8,916.984,502,924.184,498.8" style="stroke:#181818;stroke-width:0.8000000000000002;"/></g><!--reverse link PDESolver to TimeLoop--><g id="link_PDESolver_TimeLoop"><path codeLine="120" d="M965.6,516.632 C965.6,523.864 965.6,528.04 965.6,535.28 " fill="none" id="PDESolver-backto-TimeLoop" style="stroke:#181818;stroke-width:0.8000000000000002;"/><polygon fill="#181818" points="965.6,511.832,962.4,519.032,965.6,515.832,968.8,519.032,965.6,511.832" style="stroke:#181818;stroke-width:0.8000000000000002;"/></g><!--link TimeLoop to Assembler--><g id="link_TimeLoop_Assembler"><path codeLine="121" d="M925.384,553.2 C890.088,553.2 843.728,553.2 807.84,553.2 " fill="none" id="TimeLoop-to-Assembler" style="stroke:#181818;stroke-width:0.8000000000000002;"/><polygon fill="#181818" points="803.04,553.2,810.24,556.4,807.04,553.2,810.24,550,803.04,553.2" style="stroke:#181818;stroke-width:0.8000000000000002;"/></g><!--link Problem to Assembler--><g id="link_Problem_Assembler"><path codeLine="122" d="M1300.664,336.672 C1300.664,381.696 1300.664,527.6 1300.664,527.6 C1300.664,527.6 776.8,527.6 776.8,527.6 C776.8,527.6 776.8,526.504 776.8,530.784 " fill="none" id="Problem-to-Assembler" style="stroke:#181818;stroke-width:0.8000000000000002;"/><polygon fill="#181818" points="776.8,535.584,780,528.384,776.8,531.584,773.6,528.384,776.8,535.584" style="stroke:#181818;stroke-width:0.8000000000000002;"/></g><!--link SolutionVector to Assembler--><g id="link_SolutionVector_Assembler"><path codeLine="123" d="M394.6,535.496 C394.6,533.24 394.6,531.6 394.6,531.6 C394.6,531.6 720,531.6 720,531.6 C720,531.6 720,528.44 720,530.696 " fill="none" id="SolutionVector-to-Assembler" style="stroke:#181818;stroke-width:0.8000000000000002;"/><polygon fill="#181818" points="720,535.496,723.2,528.296,720,531.496,716.8,528.296,720,535.496" style="stroke:#181818;stroke-width:0.8000000000000002;"/></g><!--link GridVariables to Assembler--><g id="link_GridVariables_Assembler"><path codeLine="124" d="M393.064,421.848 C393.064,403.144 393.064,370.8 393.064,370.8 C393.064,370.8 722.4,370.8 722.4,370.8 C722.4,370.8 722.4,489.528 722.4,530.544 " fill="none" id="GridVariables-to-Assembler" style="stroke:#181818;stroke-width:0.8000000000000002;"/><polygon fill="#181818" points="722.4,535.344,725.6,528.144,722.4,531.344,719.2,528.144,722.4,535.344" style="stroke:#181818;stroke-width:0.8000000000000002;"/></g><!--link SpatialParams to Problem--><g id="link_SpatialParams_Problem"><path codeLine="125" d="M1228.968,323.6 C1237.048,323.6 1240.448,323.6 1248.08,323.6 " fill="none" id="SpatialParams-to-Problem" style="stroke:#181818;stroke-width:0.8000000000000002;"/><polygon fill="#181818" points="1252.88,323.6,1245.68,320.4,1248.88,323.6,1245.68,326.8,1252.88,323.6" style="stroke:#181818;stroke-width:0.8000000000000002;"/></g><!--link Properties to main--><g id="link_Properties_main"><path codeLine="126" d="M1732.782,134 C1732.7175,134 1732.6527,134 1732.5873,134 C1732.326,134 1732.0575,134 1731.782,134 C1727.374,134 1721.168,134 1713.616,134 " fill="none" id="Properties-main" style="stroke:#181818;stroke-width:0.8000000000000002;"/></g><!--link Properties to GridGeometry--><!--link Properties to GridVariables--><!--link Properties to PrimaryVariables--><!--link Properties to SolutionVector--><!--link Properties to Assembler--><!--link Properties to LocalAssembler--><!--link Properties to LocalResidual--><!--link Properties to PDESolver--><!--link Properties to TimeLoop--><!--link Properties to IOField--><!--link Properties to VTKOutputModule--><!--link Properties to SpatialParams--><!--link Properties to Problem--><!--link DuMux to Properties--><g id="link_DuMux_Properties"><path codeLine="144" d="M37.4,229.1055 C37.4,229.0038 37.4,228.9032 37.4,228.8036 C37.4,228.6045 37.4,228.4098 37.4,228.2194 C37.4,227.8388 37.4,227.4758 37.4,227.1313 C37.4,224.375 37.4,222.8 37.4,222.8 C37.4,222.8 1746.2,222.8 1746.2,222.8 C1746.2,222.8 1746.2,217.2 1746.2,208.8 C1746.2,204.6 1746.2,199.7 1746.2,194.45 C1746.2,191.825 1746.2,189.1125 1746.2,186.3563 C1746.2,186.0117 1746.2,185.6665 1746.2,185.3207 C1746.2,185.1478 1746.2,184.9747 1746.2,184.8015 " fill="none" id="DuMux-Properties" style="stroke:#FF0000;stroke-width:0.8000000000000002;"/></g><!--link Dune to Properties--><g id="link_Dune_Properties"><path codeLine="145" d="M774.3927,780.4 C781.1035,780.4 787.8227,780.4 794.5484,780.4 C821.4513,780.4 848.4596,780.4 875.468,780.4 C1307.602,780.4 1739.736,780.4 1739.736,780.4 C1739.736,780.4 1739.736,621.216 1739.736,460.789 C1739.736,380.5755 1739.736,300.0513 1739.736,238.9589 C1739.736,223.6858 1739.736,209.6272 1739.736,197.0915 C1739.736,193.9576 1739.736,190.9189 1739.736,187.9802 C1739.736,187.2455 1739.736,186.5171 1739.736,185.795 " fill="none" id="Dune-Properties" style="stroke:#FF0000;stroke-width:0.8000000000000002;"/></g><!--link params to Output--><!--SRC=[bLTjQ-Gs4FwkNo7sljmTiHDQ2cKlNIYaNK8JBdItWMDP5iNMRKHioqXosYNiV-_8blLcUpVdJ_OyZqQZqJmZMMQaeFWg_HKfNcF5yHDNYfSuPu9cYl4AFRESObhMwe1BMZvH8P6a2ajQ4q4K5xZY5KNoXLNQKEA2LNHzg2dcGZrp3wXuJc4K_ldACmfIlHWZgadsGlOKp_wHLE1LHYiY69_XDuJDanL4IlmW-5D1oxTZP5_LH35IF6Z74cyswMMQNZwhihZS2zxKkzrETenTEpTLi9PKuzkjv-ixWuJKdGyYySm2-kdiAKJVg018u0aCrnaiTn6ODcjMqZlEwsrWlb6t5TDXuT_mJxzSuGzu8qD6cgQXxylG-ImClYIi6eQkhMcM_N3Kh5Bjs8_wXOXzTe6pPo8-VzOVhvy2xblmDHQwVXh9gZtMDR8cUrWqx6TDXM9KpkThCCtdCEhB3xWo1G6kbbHfRzhtjPdW8l1lg8kXUz90zTVMarJvV5wI5xgJi5gQN_SZF-u5ovUKG_s8mwVpOHxViNMsybseCpnQmRKbcChrScwzw2JEeisGIZIPmlS7anQluhkt8pew1Tuq5UqzM6CEneH9LMYaazpiThM-mv8Nhw2bMM0iYH8iev7r5ReArzJZY6-TMS_tDoBhfJRvaRN4Z9SbhppgGo_ejQ0wSBsOO3dtpN-3zIpDTAxGgVXECeerS4yg80cNfX1-PFHVXtLHBBt2UEkJ6ipu20sDG1L9RretrgAnumV1IY8Ea_YA5utkrOzjSiUd_brAwDx5OJPQLiIWmwBgPZ2Z_NmOv8x32N86_fjAbZUa07GiD0Z_5MGyqkXl_bYrfJKQCvmx-gmXmWRj9dURTTTIJhYPzD75qFViyQn-RHIS1CF8Rx_-oMYH3xmzhl_gXjppl2ce5HuoYaisSDpcjDesIVlqfOlw4Wu9qKavmKhmWEV9pN95HtKgHw6w1yn8vj7tEDtgF_mSa4D18zSBpaRHRqdCwwiCkNgBALOZo9DBJ78QVY_BKtrCwzhRA2CVorfGpTT9diGTs2hHHrrsfiRR2O9Ed43vBFnkYBntp06slH3rBthG8cY5oF_eO7EMZY317Ix2ZL-Rh0Wk0BVB3rSA2rsuReA2fgJ1g8l5X2JXE09Tdc6uZmOHTa75eeyeiCjX0qTnl-_cY4YcnRHfYMU8lc6d1tDu2mXoutgk7jHtFzI_j6otslxc5Lh3gI8mNdqmCBZ19y8hbVPI2-dqRdEZMZydzFCgVuzuU-MwO03z0DV42qD9GWbCyl8agkb9faW6zu1JqmzAQf8PxEOKAHB8EMQldLD4h-QcIRO0Jt2C4avHOe6SIbpGWIQ9jZ3TcQlXRLYW_Qa-XCmVfjVkxMq28VG_]--></g></svg>