<?xml version="1.0" encoding="us-ascii" standalone="no"?><svg xmlns="http://www.w3.org/2000/svg" xmlns:xlink="http://www.w3.org/1999/xlink" contentStyleType="text/css" height="829.6px" preserveAspectRatio="none" style="width:2140px;height:829px;background:#FFFFFF;" version="1.1" viewBox="0 0 2140 829" width="2140px" zoomAndPan="magnify"><defs/><g><!--cluster User Scenario--><g id="cluster_User Scenario"><path d="M1296.4,4.8 L1386,4.8 A3,3 0 0 1 1388,6.8 L1393.6,22.6375 L2132.4,22.6375 A2,2 0 0 1 2134.4,24.6375 L2134.4,353.6 A2,2 0 0 1 2132.4,355.6 L1296.4,355.6 A2,2 0 0 1 1294.4,353.6 L1294.4,6.8 A2,2 0 0 1 1296.4,4.8 " fill="none" style="stroke:#000000;stroke-width:1.2000000000000002;"/><line style="stroke:#000000;stroke-width:1.2000000000000002;" x1="1294.4" x2="1393.6" y1="22.6375" y2="22.6375"/><text fill="#000000" font-family="sans-serif" font-size="11.2" font-weight="bold" lengthAdjust="spacing" textLength="88.8" x="1297.6" y="16.7961">User Scenario</text></g><!--cluster Properties--><g id="cluster_Properties"><a href="./../html/group___properties.html" target="_top" title="./../html/group___properties.html" xlink:actuate="onRequest" xlink:href="./../html/group___properties.html" xlink:show="new" xlink:title="./../html/group___properties.html" xlink:type="simple"><path d="M1933.2,52 L2000.4,52 A3,3 0 0 1 2002.4,54 L2008,69.8375 L2100.4,69.8375 A2,2 0 0 1 2102.4,71.8375 L2102.4,182.8 A2,2 0 0 1 2100.4,184.8 L1933.2,184.8 A2,2 0 0 1 1931.2,182.8 L1931.2,54 A2,2 0 0 1 1933.2,52 " fill="none" style="stroke:#000000;stroke-width:1.2000000000000002;"/><line style="stroke:#000000;stroke-width:1.2000000000000002;" x1="1931.2" x2="2008" y1="69.8375" y2="69.8375"/><text fill="#000000" font-family="sans-serif" font-size="11.2" font-weight="bold" lengthAdjust="spacing" textLength="66.4" x="1934.4" y="63.9961">Properties</text></a></g><!--cluster TTag--><g id="cluster_TTag"><path d="M1965.2,92.8 L1997.2,92.8 A3,3 0 0 1 1999.2,94.8 L2004.8,110.6375 L2074.8,110.6375 A2,2 0 0 1 2076.8,112.6375 L2076.8,157.2 A2,2 0 0 1 2074.8,159.2 L1965.2,159.2 A2,2 0 0 1 1963.2,157.2 L1963.2,94.8 A2,2 0 0 1 1965.2,92.8 " fill="none" style="stroke:#000000;stroke-width:1.2000000000000002;"/><line style="stroke:#000000;stroke-width:1.2000000000000002;" x1="1963.2" x2="2004.8" y1="110.6375" y2="110.6375"/><text fill="#000000" font-family="sans-serif" font-size="11.2" font-weight="bold" lengthAdjust="spacing" textLength="31.2" x="1966.4" y="104.7961">TTag</text></g><!--cluster Dune--><g id="cluster_Dune"><path d="M6.8,666 L40.4,666 A3,3 0 0 1 42.4,668 L48,683.8375 L762.8,683.8375 A2,2 0 0 1 764.8,685.8375 L764.8,822.4 A2,2 0 0 1 762.8,824.4 L6.8,824.4 A2,2 0 0 1 4.8,822.4 L4.8,668 A2,2 0 0 1 6.8,666 " fill="none" style="stroke:#000000;stroke-width:1.2000000000000002;"/><line style="stroke:#000000;stroke-width:1.2000000000000002;" x1="4.8" x2="48" y1="683.8375" y2="683.8375"/><text fill="#000000" font-family="sans-serif" font-size="11.2" font-weight="bold" lengthAdjust="spacing" textLength="32.8" x="8" y="677.9961">Dune</text></g><!--cluster dune-istl--><g id="cluster_dune-istl"><path d="M198.8,713.2 L254.8,713.2 A3,3 0 0 1 256.8,715.2 L262.4,731.0375 L574,731.0375 A2,2 0 0 1 576,733.0375 L576,790.4 A2,2 0 0 1 574,792.4 L198.8,792.4 A2,2 0 0 1 196.8,790.4 L196.8,715.2 A2,2 0 0 1 198.8,713.2 " fill="none" style="stroke:#000000;stroke-width:1.2000000000000002;"/><line style="stroke:#000000;stroke-width:1.2000000000000002;" x1="196.8" x2="262.4" y1="731.0375" y2="731.0375"/><text fill="#000000" font-family="sans-serif" font-size="11.2" font-weight="bold" lengthAdjust="spacing" textLength="55.2" x="200" y="725.1961">dune-istl</text></g><!--cluster dune-grid--><g id="cluster_dune-grid"><path d="M610,713.2 L672.4,713.2 A3,3 0 0 1 674.4,715.2 L680,731.0375 L730.8,731.0375 A2,2 0 0 1 732.8,733.0375 L732.8,790.4 A2,2 0 0 1 730.8,792.4 L610,792.4 A2,2 0 0 1 608,790.4 L608,715.2 A2,2 0 0 1 610,713.2 " fill="none" style="stroke:#000000;stroke-width:1.2000000000000002;"/><line style="stroke:#000000;stroke-width:1.2000000000000002;" x1="608" x2="680" y1="731.0375" y2="731.0375"/><text fill="#000000" font-family="sans-serif" font-size="11.2" font-weight="bold" lengthAdjust="spacing" textLength="61.6" x="611.2" y="725.1961">dune-grid</text></g><!--cluster dune-common--><g id="cluster_dune-common"><path d="M38.8,719.6 L130,719.6 A3,3 0 0 1 132,721.6 L137.6,737.4375 L169.2,737.4375 A2,2 0 0 1 171.2,739.4375 L171.2,784 A2,2 0 0 1 169.2,786 L38.8,786 A2,2 0 0 1 36.8,784 L36.8,721.6 A2,2 0 0 1 38.8,719.6 " fill="none" style="stroke:#000000;stroke-width:1.2000000000000002;"/><line style="stroke:#000000;stroke-width:1.2000000000000002;" x1="36.8" x2="137.6" y1="737.4375" y2="737.4375"/><text fill="#000000" font-family="sans-serif" font-size="11.2" font-weight="bold" lengthAdjust="spacing" textLength="90.4" x="40" y="731.5961">dune-common</text></g><!--cluster DuMux--><g id="cluster_DuMux"><path d="M155.6,229.2 L198.8,229.2 A3,3 0 0 1 200.8,231.2 L206.4,247.0375 L1260.4,247.0375 A2,2 0 0 1 1262.4,249.0375 L1262.4,624.8 A2,2 0 0 1 1260.4,626.8 L155.6,626.8 A2,2 0 0 1 153.6,624.8 L153.6,231.2 A2,2 0 0 1 155.6,229.2 " fill="none" style="stroke:#000000;stroke-width:1.2000000000000002;"/><line style="stroke:#000000;stroke-width:1.2000000000000002;" x1="153.6" x2="206.4" y1="247.0375" y2="247.0375"/><text fill="#000000" font-family="sans-serif" font-size="11.2" font-weight="bold" lengthAdjust="spacing" textLength="42.4" x="156.8" y="241.1961">DuMux</text></g><!--cluster Grid--><g id="cluster_Grid"><path d="M573.2,387.6 L600.4,387.6 A3,3 0 0 1 602.4,389.6 L608,405.4375 L721.2,405.4375 A2,2 0 0 1 723.2,407.4375 L723.2,592.8 A2,2 0 0 1 721.2,594.8 L573.2,594.8 A2,2 0 0 1 571.2,592.8 L571.2,389.6 A2,2 0 0 1 573.2,387.6 " fill="none" style="stroke:#000000;stroke-width:1.2000000000000002;"/><line style="stroke:#000000;stroke-width:1.2000000000000002;" x1="571.2" x2="608" y1="405.4375" y2="405.4375"/><text fill="#000000" font-family="sans-serif" font-size="11.2" font-weight="bold" lengthAdjust="spacing" textLength="26.4" x="574.4" y="399.5961">Grid</text></g><!--cluster Variables--><g id="cluster_Variables"><path d="M946,387.6 L1005.2,387.6 A3,3 0 0 1 1007.2,389.6 L1012.8,405.4375 L1228.4,405.4375 A2,2 0 0 1 1230.4,407.4375 L1230.4,528.8 A2,2 0 0 1 1228.4,530.8 L946,530.8 A2,2 0 0 1 944,528.8 L944,389.6 A2,2 0 0 1 946,387.6 " fill="none" style="stroke:#000000;stroke-width:1.2000000000000002;"/><line style="stroke:#000000;stroke-width:1.2000000000000002;" x1="944" x2="1012.8" y1="405.4375" y2="405.4375"/><text fill="#000000" font-family="sans-serif" font-size="11.2" font-weight="bold" lengthAdjust="spacing" textLength="58.4" x="947.2" y="399.5961">Variables</text></g><!--cluster Assembly--><g id="cluster_Assembly"><a href="./../html/group___assembly.html" target="_top" title="./../html/group___assembly.html" xlink:actuate="onRequest" xlink:href="./../html/group___assembly.html" xlink:show="new" xlink:title="./../html/group___assembly.html" xlink:type="simple"><path d="M757.2,387.6 L818.8,387.6 A3,3 0 0 1 820.8,389.6 L826.4,405.4375 L910,405.4375 A2,2 0 0 1 912,407.4375 L912,592.8 A2,2 0 0 1 910,594.8 L757.2,594.8 A2,2 0 0 1 755.2,592.8 L755.2,389.6 A2,2 0 0 1 757.2,387.6 " fill="none" style="stroke:#000000;stroke-width:1.2000000000000002;"/><line style="stroke:#000000;stroke-width:1.2000000000000002;" x1="755.2" x2="826.4" y1="405.4375" y2="405.4375"/><text fill="#000000" font-family="sans-serif" font-size="11.2" font-weight="bold" lengthAdjust="spacing" textLength="60.8" x="758.4" y="399.5961">Assembly</text></a></g><!--cluster Solving--><g id="cluster_Solving"><path d="M194,387.6 L240.4,387.6 A3,3 0 0 1 242.4,389.6 L248,405.4375 L334,405.4375 A2,2 0 0 1 336,407.4375 L336,592.8 A2,2 0 0 1 334,594.8 L194,594.8 A2,2 0 0 1 192,592.8 L192,389.6 A2,2 0 0 1 194,387.6 " fill="none" style="stroke:#000000;stroke-width:1.2000000000000002;"/><line style="stroke:#000000;stroke-width:1.2000000000000002;" x1="192" x2="248" y1="405.4375" y2="405.4375"/><text fill="#000000" font-family="sans-serif" font-size="11.2" font-weight="bold" lengthAdjust="spacing" textLength="45.6" x="195.2" y="399.5961">Solving</text></g><!--cluster Output--><g id="cluster_Output"><path d="M370,276.4 L414,276.4 A3,3 0 0 1 416,278.4 L421.6,294.2375 L537.2,294.2375 A2,2 0 0 1 539.2,296.2375 L539.2,464.8 A2,2 0 0 1 537.2,466.8 L370,466.8 A2,2 0 0 1 368,464.8 L368,278.4 A2,2 0 0 1 370,276.4 " fill="none" style="stroke:#000000;stroke-width:1.2000000000000002;"/><line style="stroke:#000000;stroke-width:1.2000000000000002;" x1="368" x2="421.6" y1="294.2375" y2="294.2375"/><text fill="#000000" font-family="sans-serif" font-size="11.2" font-weight="bold" lengthAdjust="spacing" textLength="43.2" x="371.2" y="288.3961">Output</text></g><!--class Problem--><g id="elem_Problem"><rect codeLine="13" fill="#F1F1F1" height="25.6" id="Problem" rx="2" ry="2" style="stroke:#181818;stroke-width:0.4000000000000001;" width="71.2" x="1451.6" y="310.8"/><ellipse cx="1463.6" cy="323.6" fill="#ADD1B2" rx="8.8" ry="8.8" style="stroke:#181818;stroke-width:0.8000000000000002;"/><path d="M1465.975,328.1125 Q1465.5125,328.35 1465,328.4625 Q1464.4875,328.5875 1463.925,328.5875 Q1461.925,328.5875 1460.8625,327.275 Q1459.8125,325.95 1459.8125,323.45 Q1459.8125,320.95 1460.8625,319.625 Q1461.925,318.3 1463.925,318.3 Q1464.4875,318.3 1465,318.425 Q1465.525,318.55 1465.975,318.7875 L1465.975,320.9625 Q1465.475,320.5 1465,320.2875 Q1464.525,320.0625 1464.025,320.0625 Q1462.95,320.0625 1462.4,320.925 Q1461.85,321.775 1461.85,323.45 Q1461.85,325.125 1462.4,325.9875 Q1462.95,326.8375 1464.025,326.8375 Q1464.525,326.8375 1465,326.625 Q1465.475,326.4 1465.975,325.9375 L1465.975,328.1125 Z " fill="#000000"/><text fill="#000000" font-family="sans-serif" font-size="11.2" lengthAdjust="spacing" textLength="45.6" x="1474.8" y="327.4773">Problem</text></g><!--class SpatialParams--><a href="./../html/group___spatial_parameters.html" target="_top" title="./../html/group___spatial_parameters.html" xlink:actuate="onRequest" xlink:href="./../html/group___spatial_parameters.html" xlink:show="new" xlink:title="./../html/group___spatial_parameters.html" xlink:type="simple"><g id="elem_SpatialParams"><rect codeLine="14" fill="#F1F1F1" height="25.6" id="SpatialParams" rx="2" ry="2" style="stroke:#181818;stroke-width:0.4000000000000001;" width="102.4" x="1324.8" y="310.8"/><ellipse cx="1336.8" cy="323.6" fill="#ADD1B2" rx="8.8" ry="8.8" style="stroke:#181818;stroke-width:0.8000000000000002;"/><path d="M1339.175,328.1125 Q1338.7125,328.35 1338.2,328.4625 Q1337.6875,328.5875 1337.125,328.5875 Q1335.125,328.5875 1334.0625,327.275 Q1333.0125,325.95 1333.0125,323.45 Q1333.0125,320.95 1334.0625,319.625 Q1335.125,318.3 1337.125,318.3 Q1337.6875,318.3 1338.2,318.425 Q1338.725,318.55 1339.175,318.7875 L1339.175,320.9625 Q1338.675,320.5 1338.2,320.2875 Q1337.725,320.0625 1337.225,320.0625 Q1336.15,320.0625 1335.6,320.925 Q1335.05,321.775 1335.05,323.45 Q1335.05,325.125 1335.6,325.9875 Q1336.15,326.8375 1337.225,326.8375 Q1337.725,326.8375 1338.2,326.625 Q1338.675,326.4 1339.175,325.9375 L1339.175,328.1125 Z " fill="#000000"/><text fill="#000000" font-family="sans-serif" font-size="11.2" lengthAdjust="spacing" textLength="76.8" x="1348" y="327.4773">SpatialParams</text></g></a><!--entity params--><g id="elem_params"><path d="M1324.8,98.4 L1324.8,168.95 A2,2 0 0 0 1326.8,170.95 L1473.2,170.95 A2,2 0 0 0 1475.2,168.95 L1475.2,104.4 L1467.2,96.4 L1326.8,96.4 A2,2 0 0 0 1324.8,98.4 " fill="#F1F1F1" style="stroke:#181818;stroke-width:0.4000000000000001;"/><path d="M1467.2,96.4 L1467.2,102.4 A2,2 0 0 0 1469.2,104.4 L1475.2,104.4 " fill="#F1F1F1" style="stroke:#181818;stroke-width:0.4000000000000001;"/><text fill="#000000" font-family="sans-serif" font-size="11.2" lengthAdjust="spacing" textLength="72" x="1332.8" y="114.7961">params.input</text><line style="stroke:#181818;stroke-width:0.8000000000000002;" x1="1325.6" x2="1474.4" y1="117.4375" y2="117.4375"/><text fill="#000000" font-family="monospace" font-size="11.2" lengthAdjust="spacing" textLength="64" x="1332.8" y="131.0336">[TimeLoop]</text><text fill="#000000" font-family="monospace" font-size="11.2" lengthAdjust="spacing" textLength="134.4" x="1332.8" y="144.0711">DtInitial&#160;=&#160;250&#160;#&#160;[s]</text><text fill="#000000" font-family="monospace" font-size="11.2" lengthAdjust="spacing" textLength="19.2" x="1332.8" y="157.1086">...</text></g><!--entity main--><g id="elem_main"><path d="M1499.2,59.2 L1499.2,207.975 A2,2 0 0 0 1501.2,209.975 L1910,209.975 A2,2 0 0 0 1912,207.975 L1912,65.2 L1904,57.2 L1501.2,57.2 A2,2 0 0 0 1499.2,59.2 " fill="#F1F1F1" style="stroke:#181818;stroke-width:0.4000000000000001;"/><path d="M1904,57.2 L1904,63.2 A2,2 0 0 0 1906,65.2 L1912,65.2 " fill="#F1F1F1" style="stroke:#181818;stroke-width:0.4000000000000001;"/><text fill="#000000" font-family="sans-serif" font-size="11.2" lengthAdjust="spacing" textLength="42.4" x="1507.2" y="75.5961">main.cc</text><line style="stroke:#181818;stroke-width:0.8000000000000002;" x1="1500" x2="1911.2" y1="78.2375" y2="78.2375"/><text fill="#000000" font-family="monospace" font-size="11.2" lengthAdjust="spacing" textLength="198.4" x="1507.2" y="91.8336">int&#160;main(int&#160;argc,&#160;char**&#160;argv)</text><text fill="#000000" font-family="monospace" font-size="11.2" lengthAdjust="spacing" textLength="6.4" x="1507.2" y="104.8711">{</text><text fill="#000000" font-family="monospace" font-size="11.2" lengthAdjust="spacing" textLength="19.2" x="1532.8" y="117.9086">...</text><text fill="#000000" font-family="monospace" font-size="11.2" lengthAdjust="spacing" textLength="243.2" x="1532.8" y="130.9461">using&#160;TypeTag&#160;=&#160;Properties::TTag::...;</text><text fill="#000000" font-family="monospace" font-size="11.2" lengthAdjust="spacing" textLength="19.2" x="1532.8" y="143.9836">...</text><text fill="#000000" font-family="monospace" font-size="11.2" lengthAdjust="spacing" textLength="371.2" x="1532.8" y="157.0211">using&#160;Problem&#160;=&#160;GetPropType&lt;TypeTag,&#160;Properties::Problem&gt;;</text><text fill="#000000" font-family="monospace" font-size="11.2" lengthAdjust="spacing" textLength="352" x="1532.8" y="170.0586">auto&#160;problem&#160;=&#160;std::make_shared&lt;Problem&gt;(gridGeometry);</text><text fill="#000000" font-family="monospace" font-size="11.2" lengthAdjust="spacing" textLength="19.2" x="1532.8" y="183.0961">...</text><text fill="#000000" font-family="monospace" font-size="11.2" lengthAdjust="spacing" textLength="6.4" x="1507.2" y="196.1336">}</text></g><!--class MyTypeTag--><g id="elem_MyTypeTag"><rect codeLine="41" fill="#F1F1F1" height="25.6" id="MyTypeTag" rx="2" ry="2" style="stroke:#181818;stroke-width:0.4000000000000001;" width="88.8" x="1975.6" y="120.8"/><ellipse cx="1987.6" cy="133.6" fill="#F1F1F1" rx="8.8" ry="8.8" style="stroke:#181818;stroke-width:0.8000000000000002;"/><path d="M1987.1875,134.05 Q1985.7,133.4875 1985.175,132.875 Q1984.6625,132.25 1984.6625,131.2 Q1984.6625,129.85 1985.525,129.075 Q1986.3875,128.3 1987.8875,128.3 Q1988.575,128.3 1989.25,128.4625 Q1989.9375,128.6125 1990.6125,128.925 L1990.6125,130.8375 Q1989.9875,130.3875 1989.325,130.1625 Q1988.675,129.925 1988.0375,129.925 Q1987.3375,129.925 1986.95,130.2125 Q1986.575,130.5 1986.575,131.025 Q1986.575,131.4375 1986.85,131.7125 Q1987.125,131.975 1988,132.3 L1988.85,132.625 Q1990.0375,133.0625 1990.6,133.7875 Q1991.175,134.5125 1991.175,135.6125 Q1991.175,137.1125 1990.2875,137.85 Q1989.4,138.5875 1987.6,138.5875 Q1986.8625,138.5875 1986.125,138.4125 Q1985.3875,138.2375 1984.7,137.9 L1984.7,135.875 Q1985.475,136.425 1986.2125,136.7 Q1986.95,136.975 1987.6625,136.975 Q1988.3875,136.975 1988.7875,136.65 Q1989.1875,136.3125 1989.1875,135.725 Q1989.1875,135.275 1988.9125,134.95 Q1988.65,134.6125 1988.15,134.4125 L1987.1875,134.05 Z " fill="#000000"/><text fill="#000000" font-family="sans-serif" font-size="11.2" lengthAdjust="spacing" textLength="63.2" x="1998.8" y="137.4773">MyTypeTag</text></g><!--class ISTL solvers--><g id="elem_ISTL solvers"><rect codeLine="47" fill="#F1F1F1" height="25.6" id="ISTL solvers" rx="2" ry="2" style="stroke:#181818;stroke-width:0.4000000000000001;" width="90.4" x="343.6" y="747.6"/><ellipse cx="355.6" cy="760.4" fill="#ADD1B2" rx="8.8" ry="8.8" style="stroke:#181818;stroke-width:0.8000000000000002;"/><path d="M357.975,764.9125 Q357.5125,765.15 357,765.2625 Q356.4875,765.3875 355.925,765.3875 Q353.925,765.3875 352.8625,764.075 Q351.8125,762.75 351.8125,760.25 Q351.8125,757.75 352.8625,756.425 Q353.925,755.1 355.925,755.1 Q356.4875,755.1 357,755.225 Q357.525,755.35 357.975,755.5875 L357.975,757.7625 Q357.475,757.3 357,757.0875 Q356.525,756.8625 356.025,756.8625 Q354.95,756.8625 354.4,757.725 Q353.85,758.575 353.85,760.25 Q353.85,761.925 354.4,762.7875 Q354.95,763.6375 356.025,763.6375 Q356.525,763.6375 357,763.425 Q357.475,763.2 357.975,762.7375 L357.975,764.9125 Z " fill="#000000"/><text fill="#000000" font-family="sans-serif" font-size="11.2" lengthAdjust="spacing" textLength="64.8" x="366.8" y="764.2773">ISTL solvers</text></g><!--class ISTL matrices--><g id="elem_ISTL matrices"><rect codeLine="48" fill="#F1F1F1" height="25.6" id="ISTL matrices" rx="2" ry="2" style="stroke:#181818;stroke-width:0.4000000000000001;" width="98.4" x="458" y="747.6"/><ellipse cx="470" cy="760.4" fill="#ADD1B2" rx="8.8" ry="8.8" style="stroke:#181818;stroke-width:0.8000000000000002;"/><path d="M472.375,764.9125 Q471.9125,765.15 471.4,765.2625 Q470.8875,765.3875 470.325,765.3875 Q468.325,765.3875 467.2625,764.075 Q466.2125,762.75 466.2125,760.25 Q466.2125,757.75 467.2625,756.425 Q468.325,755.1 470.325,755.1 Q470.8875,755.1 471.4,755.225 Q471.925,755.35 472.375,755.5875 L472.375,757.7625 Q471.875,757.3 471.4,757.0875 Q470.925,756.8625 470.425,756.8625 Q469.35,756.8625 468.8,757.725 Q468.25,758.575 468.25,760.25 Q468.25,761.925 468.8,762.7875 Q469.35,763.6375 470.425,763.6375 Q470.925,763.6375 471.4,763.425 Q471.875,763.2 472.375,762.7375 L472.375,764.9125 Z " fill="#000000"/><text fill="#000000" font-family="sans-serif" font-size="11.2" lengthAdjust="spacing" textLength="72.8" x="481.2" y="764.2773">ISTL matrices</text></g><!--class ISTL vectors--><g id="elem_ISTL vectors"><rect codeLine="49" fill="#F1F1F1" height="25.6" id="ISTL vectors" rx="2" ry="2" style="stroke:#181818;stroke-width:0.4000000000000001;" width="92" x="227.6" y="747.6"/><ellipse cx="239.6" cy="760.4" fill="#ADD1B2" rx="8.8" ry="8.8" style="stroke:#181818;stroke-width:0.8000000000000002;"/><path d="M241.975,764.9125 Q241.5125,765.15 241,765.2625 Q240.4875,765.3875 239.925,765.3875 Q237.925,765.3875 236.8625,764.075 Q235.8125,762.75 235.8125,760.25 Q235.8125,757.75 236.8625,756.425 Q237.925,755.1 239.925,755.1 Q240.4875,755.1 241,755.225 Q241.525,755.35 241.975,755.5875 L241.975,757.7625 Q241.475,757.3 241,757.0875 Q240.525,756.8625 240.025,756.8625 Q238.95,756.8625 238.4,757.725 Q237.85,758.575 237.85,760.25 Q237.85,761.925 238.4,762.7875 Q238.95,763.6375 240.025,763.6375 Q240.525,763.6375 241,763.425 Q241.475,763.2 241.975,762.7375 L241.975,764.9125 Z " fill="#000000"/><text fill="#000000" font-family="sans-serif" font-size="11.2" lengthAdjust="spacing" textLength="66.4" x="250.8" y="764.2773">ISTL vectors</text></g><!--class YaspGrid--><g id="elem_YaspGrid"><rect codeLine="52" fill="#F1F1F1" height="25.6" id="YaspGrid" rx="2" ry="2" style="stroke:#181818;stroke-width:0.4000000000000001;" width="75.2" x="638.4" y="747.6"/><ellipse cx="650.4" cy="760.4" fill="#ADD1B2" rx="8.8" ry="8.8" style="stroke:#181818;stroke-width:0.8000000000000002;"/><path d="M652.775,764.9125 Q652.3125,765.15 651.8,765.2625 Q651.2875,765.3875 650.725,765.3875 Q648.725,765.3875 647.6625,764.075 Q646.6125,762.75 646.6125,760.25 Q646.6125,757.75 647.6625,756.425 Q648.725,755.1 650.725,755.1 Q651.2875,755.1 651.8,755.225 Q652.325,755.35 652.775,755.5875 L652.775,757.7625 Q652.275,757.3 651.8,757.0875 Q651.325,756.8625 650.825,756.8625 Q649.75,756.8625 649.2,757.725 Q648.65,758.575 648.65,760.25 Q648.65,761.925 649.2,762.7875 Q649.75,763.6375 650.825,763.6375 Q651.325,763.6375 651.8,763.425 Q652.275,763.2 652.775,762.7375 L652.775,764.9125 Z " fill="#000000"/><text fill="#000000" font-family="sans-serif" font-size="11.2" lengthAdjust="spacing" textLength="49.6" x="661.6" y="764.2773">YaspGrid</text></g><!--class ParameterTree--><g id="elem_ParameterTree"><rect codeLine="55" fill="#F1F1F1" height="25.6" id="ParameterTree" rx="2" ry="2" style="stroke:#181818;stroke-width:0.4000000000000001;" width="108" x="50" y="747.6"/><ellipse cx="62" cy="760.4" fill="#ADD1B2" rx="8.8" ry="8.8" style="stroke:#181818;stroke-width:0.8000000000000002;"/><path d="M64.375,764.9125 Q63.9125,765.15 63.4,765.2625 Q62.8875,765.3875 62.325,765.3875 Q60.325,765.3875 59.2625,764.075 Q58.2125,762.75 58.2125,760.25 Q58.2125,757.75 59.2625,756.425 Q60.325,755.1 62.325,755.1 Q62.8875,755.1 63.4,755.225 Q63.925,755.35 64.375,755.5875 L64.375,757.7625 Q63.875,757.3 63.4,757.0875 Q62.925,756.8625 62.425,756.8625 Q61.35,756.8625 60.8,757.725 Q60.25,758.575 60.25,760.25 Q60.25,761.925 60.8,762.7875 Q61.35,763.6375 62.425,763.6375 Q62.925,763.6375 63.4,763.425 Q63.875,763.2 64.375,762.7375 L64.375,764.9125 Z " fill="#000000"/><text fill="#000000" font-family="sans-serif" font-size="11.2" lengthAdjust="spacing" textLength="82.4" x="73.2" y="764.2773">ParameterTree</text></g><!--class GridManager--><g id="elem_GridManager"><rect codeLine="60" fill="#F1F1F1" height="25.6" id="GridManager" rx="2" ry="2" style="stroke:#181818;stroke-width:0.4000000000000001;" width="96" x="606.4" y="550"/><ellipse cx="618.4" cy="562.8" fill="#B4A7E5" rx="8.8" ry="8.8" style="stroke:#181818;stroke-width:0.8000000000000002;"/><path d="M615.1375,559.4125 L615.1375,557.6875 L621.05,557.6875 L621.05,559.4125 L619.075,559.4125 L619.075,565.875 L621.05,565.875 L621.05,567.6 L615.1375,567.6 L615.1375,565.875 L617.1125,565.875 L617.1125,559.4125 L615.1375,559.4125 Z " fill="#000000"/><text fill="#000000" font-family="sans-serif" font-size="11.2" font-style="italic" lengthAdjust="spacing" textLength="70.4" x="629.6" y="566.6773">GridManager</text></g><!--class GridView--><g id="elem_GridView"><rect codeLine="61" fill="#F1F1F1" height="25.6" id="GridView" rx="2" ry="2" style="stroke:#181818;stroke-width:0.4000000000000001;" width="74.4" x="616.4" y="486"/><ellipse cx="628.4" cy="498.8" fill="#B4A7E5" rx="8.8" ry="8.8" style="stroke:#181818;stroke-width:0.8000000000000002;"/><path d="M625.1375,495.4125 L625.1375,493.6875 L631.05,493.6875 L631.05,495.4125 L629.075,495.4125 L629.075,501.875 L631.05,501.875 L631.05,503.6 L625.1375,503.6 L625.1375,501.875 L627.1125,501.875 L627.1125,495.4125 L625.1375,495.4125 Z " fill="#000000"/><text fill="#000000" font-family="sans-serif" font-size="11.2" font-style="italic" lengthAdjust="spacing" textLength="48.8" x="639.6" y="502.6773">GridView</text></g><!--class GridGeometry--><g id="elem_GridGeometry"><rect codeLine="62" fill="#F1F1F1" height="25.6" id="GridGeometry" rx="2" ry="2" style="stroke:#181818;stroke-width:0.4000000000000001;" width="102.4" x="601.6" y="422"/><ellipse cx="613.6" cy="434.8" fill="#ADD1B2" rx="8.8" ry="8.8" style="stroke:#181818;stroke-width:0.8000000000000002;"/><path d="M615.975,439.3125 Q615.5125,439.55 615,439.6625 Q614.4875,439.7875 613.925,439.7875 Q611.925,439.7875 610.8625,438.475 Q609.8125,437.15 609.8125,434.65 Q609.8125,432.15 610.8625,430.825 Q611.925,429.5 613.925,429.5 Q614.4875,429.5 615,429.625 Q615.525,429.75 615.975,429.9875 L615.975,432.1625 Q615.475,431.7 615,431.4875 Q614.525,431.2625 614.025,431.2625 Q612.95,431.2625 612.4,432.125 Q611.85,432.975 611.85,434.65 Q611.85,436.325 612.4,437.1875 Q612.95,438.0375 614.025,438.0375 Q614.525,438.0375 615,437.825 Q615.475,437.6 615.975,437.1375 L615.975,439.3125 Z " fill="#000000"/><text fill="#000000" font-family="sans-serif" font-size="11.2" lengthAdjust="spacing" textLength="76.8" x="624.8" y="438.6773">GridGeometry</text></g><!--class GridVariables--><g id="elem_GridVariables"><rect codeLine="65" fill="#F1F1F1" height="25.6" id="GridVariables" rx="2" ry="2" style="stroke:#181818;stroke-width:0.4000000000000001;" width="97.6" x="974.4" y="422"/><ellipse cx="986.4" cy="434.8" fill="#ADD1B2" rx="8.8" ry="8.8" style="stroke:#181818;stroke-width:0.8000000000000002;"/><path d="M988.775,439.3125 Q988.3125,439.55 987.8,439.6625 Q987.2875,439.7875 986.725,439.7875 Q984.725,439.7875 983.6625,438.475 Q982.6125,437.15 982.6125,434.65 Q982.6125,432.15 983.6625,430.825 Q984.725,429.5 986.725,429.5 Q987.2875,429.5 987.8,429.625 Q988.325,429.75 988.775,429.9875 L988.775,432.1625 Q988.275,431.7 987.8,431.4875 Q987.325,431.2625 986.825,431.2625 Q985.75,431.2625 985.2,432.125 Q984.65,432.975 984.65,434.65 Q984.65,436.325 985.2,437.1875 Q985.75,438.0375 986.825,438.0375 Q987.325,438.0375 987.8,437.825 Q988.275,437.6 988.775,437.1375 L988.775,439.3125 Z " fill="#000000"/><text fill="#000000" font-family="sans-serif" font-size="11.2" lengthAdjust="spacing" textLength="72" x="997.6" y="438.6773">GridVariables</text></g><!--class PrimaryVariables--><g id="elem_PrimaryVariables"><rect codeLine="66" fill="#F1F1F1" height="25.6" id="PrimaryVariables" rx="2" ry="2" style="stroke:#181818;stroke-width:0.4000000000000001;" width="115.2" x="1096" y="422"/><ellipse cx="1108" cy="434.8" fill="#ADD1B2" rx="8.8" ry="8.8" style="stroke:#181818;stroke-width:0.8000000000000002;"/><path d="M1110.375,439.3125 Q1109.9125,439.55 1109.4,439.6625 Q1108.8875,439.7875 1108.325,439.7875 Q1106.325,439.7875 1105.2625,438.475 Q1104.2125,437.15 1104.2125,434.65 Q1104.2125,432.15 1105.2625,430.825 Q1106.325,429.5 1108.325,429.5 Q1108.8875,429.5 1109.4,429.625 Q1109.925,429.75 1110.375,429.9875 L1110.375,432.1625 Q1109.875,431.7 1109.4,431.4875 Q1108.925,431.2625 1108.425,431.2625 Q1107.35,431.2625 1106.8,432.125 Q1106.25,432.975 1106.25,434.65 Q1106.25,436.325 1106.8,437.1875 Q1107.35,438.0375 1108.425,438.0375 Q1108.925,438.0375 1109.4,437.825 Q1109.875,437.6 1110.375,437.1375 L1110.375,439.3125 Z " fill="#000000"/><text fill="#000000" font-family="sans-serif" font-size="11.2" lengthAdjust="spacing" textLength="89.6" x="1119.2" y="438.6773">PrimaryVariables</text></g><!--class SolutionVector--><g id="elem_SolutionVector"><rect codeLine="67" fill="#F1F1F1" height="25.6" id="SolutionVector" rx="2" ry="2" style="stroke:#181818;stroke-width:0.4000000000000001;" width="106.4" x="1100.4" y="486"/><ellipse cx="1112.4" cy="498.8" fill="#ADD1B2" rx="8.8" ry="8.8" style="stroke:#181818;stroke-width:0.8000000000000002;"/><path d="M1114.775,503.3125 Q1114.3125,503.55 1113.8,503.6625 Q1113.2875,503.7875 1112.725,503.7875 Q1110.725,503.7875 1109.6625,502.475 Q1108.6125,501.15 1108.6125,498.65 Q1108.6125,496.15 1109.6625,494.825 Q1110.725,493.5 1112.725,493.5 Q1113.2875,493.5 1113.8,493.625 Q1114.325,493.75 1114.775,493.9875 L1114.775,496.1625 Q1114.275,495.7 1113.8,495.4875 Q1113.325,495.2625 1112.825,495.2625 Q1111.75,495.2625 1111.2,496.125 Q1110.65,496.975 1110.65,498.65 Q1110.65,500.325 1111.2,501.1875 Q1111.75,502.0375 1112.825,502.0375 Q1113.325,502.0375 1113.8,501.825 Q1114.275,501.6 1114.775,501.1375 L1114.775,503.3125 Z " fill="#000000"/><text fill="#000000" font-family="sans-serif" font-size="11.2" lengthAdjust="spacing" textLength="80.8" x="1123.6" y="502.6773">SolutionVector</text></g><!--class Assembler--><g id="elem_Assembler"><rect codeLine="70" fill="#F1F1F1" height="25.6" id="Assembler" rx="2" ry="2" style="stroke:#181818;stroke-width:0.4000000000000001;" width="84" x="794.8" y="550"/><ellipse cx="806.8" cy="562.8" fill="#ADD1B2" rx="8.8" ry="8.8" style="stroke:#181818;stroke-width:0.8000000000000002;"/><path d="M809.175,567.3125 Q808.7125,567.55 808.2,567.6625 Q807.6875,567.7875 807.125,567.7875 Q805.125,567.7875 804.0625,566.475 Q803.0125,565.15 803.0125,562.65 Q803.0125,560.15 804.0625,558.825 Q805.125,557.5 807.125,557.5 Q807.6875,557.5 808.2,557.625 Q808.725,557.75 809.175,557.9875 L809.175,560.1625 Q808.675,559.7 808.2,559.4875 Q807.725,559.2625 807.225,559.2625 Q806.15,559.2625 805.6,560.125 Q805.05,560.975 805.05,562.65 Q805.05,564.325 805.6,565.1875 Q806.15,566.0375 807.225,566.0375 Q807.725,566.0375 808.2,565.825 Q808.675,565.6 809.175,565.1375 L809.175,567.3125 Z " fill="#000000"/><text fill="#000000" font-family="sans-serif" font-size="11.2" lengthAdjust="spacing" textLength="58.4" x="818" y="566.6773">Assembler</text></g><!--class LocalAssembler--><g id="elem_LocalAssembler"><rect codeLine="71" fill="#F1F1F1" height="25.6" id="LocalAssembler" rx="2" ry="2" style="stroke:#181818;stroke-width:0.4000000000000001;" width="112" x="780.8" y="486"/><ellipse cx="792.8" cy="498.8" fill="#ADD1B2" rx="8.8" ry="8.8" style="stroke:#181818;stroke-width:0.8000000000000002;"/><path d="M795.175,503.3125 Q794.7125,503.55 794.2,503.6625 Q793.6875,503.7875 793.125,503.7875 Q791.125,503.7875 790.0625,502.475 Q789.0125,501.15 789.0125,498.65 Q789.0125,496.15 790.0625,494.825 Q791.125,493.5 793.125,493.5 Q793.6875,493.5 794.2,493.625 Q794.725,493.75 795.175,493.9875 L795.175,496.1625 Q794.675,495.7 794.2,495.4875 Q793.725,495.2625 793.225,495.2625 Q792.15,495.2625 791.6,496.125 Q791.05,496.975 791.05,498.65 Q791.05,500.325 791.6,501.1875 Q792.15,502.0375 793.225,502.0375 Q793.725,502.0375 794.2,501.825 Q794.675,501.6 795.175,501.1375 L795.175,503.3125 Z " fill="#000000"/><text fill="#000000" font-family="sans-serif" font-size="11.2" lengthAdjust="spacing" textLength="86.4" x="804" y="502.6773">LocalAssembler</text></g><!--class LocalResidual--><g id="elem_LocalResidual"><rect codeLine="72" fill="#F1F1F1" height="25.6" id="LocalResidual" rx="2" ry="2" style="stroke:#181818;stroke-width:0.4000000000000001;" width="100.8" x="788.8" y="422"/><ellipse cx="800.8" cy="434.8" fill="#ADD1B2" rx="8.8" ry="8.8" style="stroke:#181818;stroke-width:0.8000000000000002;"/><path d="M803.175,439.3125 Q802.7125,439.55 802.2,439.6625 Q801.6875,439.7875 801.125,439.7875 Q799.125,439.7875 798.0625,438.475 Q797.0125,437.15 797.0125,434.65 Q797.0125,432.15 798.0625,430.825 Q799.125,429.5 801.125,429.5 Q801.6875,429.5 802.2,429.625 Q802.725,429.75 803.175,429.9875 L803.175,432.1625 Q802.675,431.7 802.2,431.4875 Q801.725,431.2625 801.225,431.2625 Q800.15,431.2625 799.6,432.125 Q799.05,432.975 799.05,434.65 Q799.05,436.325 799.6,437.1875 Q800.15,438.0375 801.225,438.0375 Q801.725,438.0375 802.2,437.825 Q802.675,437.6 803.175,437.1375 L803.175,439.3125 Z " fill="#000000"/><text fill="#000000" font-family="sans-serif" font-size="11.2" lengthAdjust="spacing" textLength="75.2" x="812" y="438.6773">LocalResidual</text></g><!--class PDESolver--><a href="./../html/group___nonlinear.html" target="_top" title="./../html/group___nonlinear.html" xlink:actuate="onRequest" xlink:href="./../html/group___nonlinear.html" xlink:show="new" xlink:title="./../html/group___nonlinear.html" xlink:type="simple"><g id="elem_PDESolver"><rect codeLine="76" fill="#F1F1F1" height="25.6" id="PDESolver" rx="2" ry="2" style="stroke:#181818;stroke-width:0.4000000000000001;" width="82.4" x="234" y="486"/><ellipse cx="246" cy="498.8" fill="#ADD1B2" rx="8.8" ry="8.8" style="stroke:#181818;stroke-width:0.8000000000000002;"/><path d="M248.375,503.3125 Q247.9125,503.55 247.4,503.6625 Q246.8875,503.7875 246.325,503.7875 Q244.325,503.7875 243.2625,502.475 Q242.2125,501.15 242.2125,498.65 Q242.2125,496.15 243.2625,494.825 Q244.325,493.5 246.325,493.5 Q246.8875,493.5 247.4,493.625 Q247.925,493.75 248.375,493.9875 L248.375,496.1625 Q247.875,495.7 247.4,495.4875 Q246.925,495.2625 246.425,495.2625 Q245.35,495.2625 244.8,496.125 Q244.25,496.975 244.25,498.65 Q244.25,500.325 244.8,501.1875 Q245.35,502.0375 246.425,502.0375 Q246.925,502.0375 247.4,501.825 Q247.875,501.6 248.375,501.1375 L248.375,503.3125 Z " fill="#000000"/><text fill="#000000" font-family="sans-serif" font-size="11.2" lengthAdjust="spacing" textLength="56.8" x="257.2" y="502.6773">PDESolver</text></g></a><!--class LinearSolver--><a href="./../html/group___linear.html" target="_top" title="./../html/group___linear.html" xlink:actuate="onRequest" xlink:href="./../html/group___linear.html" xlink:show="new" xlink:title="./../html/group___linear.html" xlink:type="simple"><g id="elem_LinearSolver"><rect codeLine="77" fill="#F1F1F1" height="25.6" id="LinearSolver" rx="2" ry="2" style="stroke:#181818;stroke-width:0.4000000000000001;" width="93.6" x="222.8" y="422"/><ellipse cx="234.8" cy="434.8" fill="#B4A7E5" rx="8.8" ry="8.8" style="stroke:#181818;stroke-width:0.8000000000000002;"/><path d="M231.5375,431.4125 L231.5375,429.6875 L237.45,429.6875 L237.45,431.4125 L235.475,431.4125 L235.475,437.875 L237.45,437.875 L237.45,439.6 L231.5375,439.6 L231.5375,437.875 L233.5125,437.875 L233.5125,431.4125 L231.5375,431.4125 Z " fill="#000000"/><text fill="#000000" font-family="sans-serif" font-size="11.2" font-style="italic" lengthAdjust="spacing" textLength="68" x="246" y="438.6773">LinearSolver</text></g></a><!--class TimeLoop--><g id="elem_TimeLoop"><rect codeLine="78" fill="#F1F1F1" height="25.6" id="TimeLoop" rx="2" ry="2" style="stroke:#181818;stroke-width:0.4000000000000001;" width="80" x="236.8" y="550"/><ellipse cx="248.8" cy="562.8" fill="#ADD1B2" rx="8.8" ry="8.8" style="stroke:#181818;stroke-width:0.8000000000000002;"/><path d="M251.175,567.3125 Q250.7125,567.55 250.2,567.6625 Q249.6875,567.7875 249.125,567.7875 Q247.125,567.7875 246.0625,566.475 Q245.0125,565.15 245.0125,562.65 Q245.0125,560.15 246.0625,558.825 Q247.125,557.5 249.125,557.5 Q249.6875,557.5 250.2,557.625 Q250.725,557.75 251.175,557.9875 L251.175,560.1625 Q250.675,559.7 250.2,559.4875 Q249.725,559.2625 249.225,559.2625 Q248.15,559.2625 247.6,560.125 Q247.05,560.975 247.05,562.65 Q247.05,564.325 247.6,565.1875 Q248.15,566.0375 249.225,566.0375 Q249.725,566.0375 250.2,565.825 Q250.675,565.6 251.175,565.1375 L251.175,567.3125 Z " fill="#000000"/><text fill="#000000" font-family="sans-serif" font-size="11.2" lengthAdjust="spacing" textLength="54.4" x="260" y="566.6773">TimeLoop</text></g><!--class IOField--><g id="elem_IOField"><rect codeLine="81" fill="#F1F1F1" height="25.6" id="IOField" rx="2" ry="2" style="stroke:#181818;stroke-width:0.4000000000000001;" width="62.4" x="441.6" y="310.8"/><ellipse cx="453.6" cy="323.6" fill="#ADD1B2" rx="8.8" ry="8.8" style="stroke:#181818;stroke-width:0.8000000000000002;"/><path d="M455.975,328.1125 Q455.5125,328.35 455,328.4625 Q454.4875,328.5875 453.925,328.5875 Q451.925,328.5875 450.8625,327.275 Q449.8125,325.95 449.8125,323.45 Q449.8125,320.95 450.8625,319.625 Q451.925,318.3 453.925,318.3 Q454.4875,318.3 455,318.425 Q455.525,318.55 455.975,318.7875 L455.975,320.9625 Q455.475,320.5 455,320.2875 Q454.525,320.0625 454.025,320.0625 Q452.95,320.0625 452.4,320.925 Q451.85,321.775 451.85,323.45 Q451.85,325.125 452.4,325.9875 Q452.95,326.8375 454.025,326.8375 Q454.525,326.8375 455,326.625 Q455.475,326.4 455.975,325.9375 L455.975,328.1125 Z " fill="#000000"/><text fill="#000000" font-family="sans-serif" font-size="11.2" lengthAdjust="spacing" textLength="36.8" x="464.8" y="327.4773">IOField</text></g><!--class VTKOutputModule--><g id="elem_VTKOutputModule"><rect codeLine="82" fill="#F1F1F1" height="25.6" id="VTKOutputModule" rx="2" ry="2" style="stroke:#181818;stroke-width:0.4000000000000001;" width="126.4" x="393.6" y="422"/><ellipse cx="405.6" cy="434.8" fill="#ADD1B2" rx="8.8" ry="8.8" style="stroke:#181818;stroke-width:0.8000000000000002;"/><path d="M407.975,439.3125 Q407.5125,439.55 407,439.6625 Q406.4875,439.7875 405.925,439.7875 Q403.925,439.7875 402.8625,438.475 Q401.8125,437.15 401.8125,434.65 Q401.8125,432.15 402.8625,430.825 Q403.925,429.5 405.925,429.5 Q406.4875,429.5 407,429.625 Q407.525,429.75 407.975,429.9875 L407.975,432.1625 Q407.475,431.7 407,431.4875 Q406.525,431.2625 406.025,431.2625 Q404.95,431.2625 404.4,432.125 Q403.85,432.975 403.85,434.65 Q403.85,436.325 404.4,437.1875 Q404.95,438.0375 406.025,438.0375 Q406.525,438.0375 407,437.825 Q407.475,437.6 407.975,437.1375 L407.975,439.3125 Z " fill="#000000"/><text fill="#000000" font-family="sans-serif" font-size="11.2" lengthAdjust="spacing" textLength="100.8" x="416.8" y="438.6773">VTKOutputModule</text></g><!--link DuMux to Dune--><!--link User Scenario to DuMux--><!--link User Scenario to DuMux--><!--link dune-grid to dune-istl--><!--link ISTL solvers to ISTL matrices--><!--link ISTL matrices to ISTL vectors--><!--link ISTL vectors to ParameterTree--><!--link YaspGrid to ISTL matrices--><!--link Output to Solving--><!--link Output to Solving--><!--link Solving to Assembly--><!--link Solving to Assembly--><!--link Assembly to Variables--><!--link Assembly to Variables--><!--link Assembly to Variables--><!--link Variables to Grid--><!--link Variables to Grid--><!--link Variables to ISTL vectors--><!--reverse link LinearSolver to ISTL solvers--><g id="link_LinearSolver_ISTL solvers"><path codeLine="100" d="M321.248,434.8 C342.688,434.8 358.6,434.8 358.6,434.8 C358.6,434.8 358.6,686.88 358.6,747.432 " fill="none" id="LinearSolver-backto-ISTL solvers" style="stroke:#181818;stroke-width:0.8000000000000002;"/><polygon fill="#181818" points="316.448,434.8,323.648,438,320.448,434.8,323.648,431.6,316.448,434.8" style="stroke:#181818;stroke-width:0.8000000000000002;"/></g><!--reverse link Assembler to ISTL matrices--><g id="link_Assembler_ISTL matrices"><path codeLine="101" d="M836.8,580.488 C836.8,615.544 836.8,705.2 836.8,705.2 C836.8,705.2 538.2,705.2 538.2,705.2 C538.2,705.2 538.2,731.288 538.2,747.6 " fill="none" id="Assembler-backto-ISTL matrices" style="stroke:#181818;stroke-width:0.8000000000000002;"/><polygon fill="#181818" points="836.8,575.688,833.6,582.888,836.8,579.688,840,582.888,836.8,575.688" style="stroke:#181818;stroke-width:0.8000000000000002;"/></g><!--reverse link LinearSolver to ISTL vectors--><g id="link_LinearSolver_ISTL vectors"><path codeLine="102" d="M230.8,452.568 C230.8,504.84 230.8,695.056 230.8,747.4 " fill="none" id="LinearSolver-backto-ISTL vectors" style="stroke:#181818;stroke-width:0.8000000000000002;"/><polygon fill="#181818" points="230.8,447.768,227.6,454.968,230.8,451.768,234,454.968,230.8,447.768" style="stroke:#181818;stroke-width:0.8000000000000002;"/></g><!--reverse link GridManager to dune-grid--><g id="link_GridManager_dune-grid"><path codeLine="103" d="M614.4,580.568 C614.4,601.86 614.4,641.044 614.4,680.741 C614.4,690.6653 614.4,700.3216 614.4,709.2884 C614.4,710.4092 614.4,711.5193 614.4,712.6178 " fill="none" id="GridManager-backto-dune-grid" style="stroke:#181818;stroke-width:0.8000000000000002;"/><polygon fill="#181818" points="614.4,575.768,611.2,582.968,614.4,579.768,617.6,582.968,614.4,575.768" style="stroke:#181818;stroke-width:0.8000000000000002;"/></g><!--link GridView to GridManager--><g id="link_GridView_GridManager"><path codeLine="104" d="M653.6,511.752 C653.6,522.856 653.6,538.768 653.6,549.864 " fill="none" id="GridView-GridManager" style="stroke:#181818;stroke-width:0.8000000000000002;"/></g><!--reverse link GridGeometry to GridView--><g id="link_GridGeometry_GridView"><path codeLine="105" d="M653.6,452.552 C653.6,463.656 653.6,474.768 653.6,485.864 " fill="none" id="GridGeometry-backto-GridView" style="stroke:#181818;stroke-width:0.8000000000000002;"/><polygon fill="#181818" points="653.6,447.752,650.4,454.952,653.6,451.752,656.8,454.952,653.6,447.752" style="stroke:#181818;stroke-width:0.8000000000000002;"/></g><!--link Problem to GridGeometry--><g id="link_Problem_GridGeometry"><path codeLine="106" d="M1475.336,336.536 C1475.336,348.744 1475.336,365.2 1475.336,365.2 C1475.336,365.2 678.4,365.2 678.4,365.2 C678.4,365.2 678.4,401.544 678.4,421.712 " fill="none" id="Problem-GridGeometry" style="stroke:#181818;stroke-width:0.8000000000000002;"/></g><!--reverse link SpatialParams to GridGeometry--><g id="link_SpatialParams_GridGeometry"><path codeLine="107" d="M1314.968,319.6 C1149.744,319.6 652.8,319.6 652.8,319.6 C652.8,319.6 652.8,391.68 652.8,421.808 " fill="none" id="SpatialParams-backto-GridGeometry" style="stroke:#181818;stroke-width:0.8000000000000002;"/><polygon fill="none" points="1324.568,319.6,1319.768,316.4,1314.968,319.6,1319.768,322.8,1324.568,319.6" style="stroke:#181818;stroke-width:0.8000000000000002;"/></g><!--link GridGeometry to GridVariables--><!--reverse link Assembler to GridGeometry--><g id="link_Assembler_GridGeometry"><path codeLine="109" d="M789.928,562.8 C775.88,562.8 768.536,562.8 768.536,562.8 C768.536,562.8 768.536,442 768.536,442 C768.536,442 735.144,442 704.24,442 " fill="none" id="Assembler-backto-GridGeometry" style="stroke:#181818;stroke-width:0.8000000000000002;"/><polygon fill="#181818" points="794.728,562.8,787.528,559.6,790.728,562.8,787.528,566,794.728,562.8" style="stroke:#181818;stroke-width:0.8000000000000002;"/></g><!--link LinearSolver to PDESolver--><g id="link_LinearSolver_PDESolver"><path codeLine="110" d="M275.2,447.752 C275.2,458.856 275.2,469.968 275.2,481.064 " fill="none" id="LinearSolver-to-PDESolver" style="stroke:#181818;stroke-width:0.8000000000000002;"/><polygon fill="#181818" points="275.2,485.864,278.4,478.664,275.2,481.864,272,478.664,275.2,485.864" style="stroke:#181818;stroke-width:0.8000000000000002;"/></g><!--link LocalResidual to LocalAssembler--><g id="link_LocalResidual_LocalAssembler"><path codeLine="111" d="M822.4,447.752 C822.4,458.856 822.4,469.968 822.4,481.064 " fill="none" id="LocalResidual-to-LocalAssembler" style="stroke:#181818;stroke-width:0.8000000000000002;"/><polygon fill="#181818" points="822.4,485.864,825.6,478.664,822.4,481.864,819.2,478.664,822.4,485.864" style="stroke:#181818;stroke-width:0.8000000000000002;"/></g><!--link LocalAssembler to Assembler--><g id="link_LocalAssembler_Assembler"><path codeLine="112" d="M857.8,511.752 C857.8,522.856 857.8,533.968 857.8,545.064 " fill="none" id="LocalAssembler-to-Assembler" style="stroke:#181818;stroke-width:0.8000000000000002;"/><polygon fill="#181818" points="857.8,549.864,861,542.664,857.8,545.864,854.6,542.664,857.8,549.864" style="stroke:#181818;stroke-width:0.8000000000000002;"/></g><!--reverse link VTKOutputModule to GridVariables--><g id="link_VTKOutputModule_GridVariables"><path codeLine="113" d="M489,452.512 C489,464.464 489,475.6 489,475.6 C489,475.6 1023.2,475.6 1023.2,475.6 C1023.2,475.6 1023.2,459.664 1023.2,447.712 " fill="none" id="VTKOutputModule-backto-GridVariables" style="stroke:#181818;stroke-width:0.8000000000000002;"/><polygon fill="#181818" points="489,447.712,485.8,454.912,489,451.712,492.2,454.912,489,447.712" style="stroke:#181818;stroke-width:0.8000000000000002;"/></g><!--link PrimaryVariables to SolutionVector--><g id="link_PrimaryVariables_SolutionVector"><path codeLine="114" d="M1153.6,447.752 C1153.6,458.856 1153.6,465.168 1153.6,476.264 " fill="none" id="PrimaryVariables-to-SolutionVector" style="stroke:#181818;stroke-width:0.8000000000000002;"/><polygon fill="none" points="1153.6,485.864,1156.8,481.064,1153.6,476.264,1150.4,481.064,1153.6,485.864" style="stroke:#181818;stroke-width:0.8000000000000002;"/></g><!--link IOField to VTKOutputModule--><g id="link_IOField_VTKOutputModule"><path codeLine="115" d="M472.8,336.576 C472.8,358 472.8,395.736 472.8,417.112 " fill="none" id="IOField-to-VTKOutputModule" style="stroke:#181818;stroke-width:0.8000000000000002;"/><polygon fill="#181818" points="472.8,421.912,476,414.712,472.8,417.912,469.6,414.712,472.8,421.912" style="stroke:#181818;stroke-width:0.8000000000000002;"/></g><!--reverse link Assembler to PDESolver--><g id="link_Assembler_PDESolver"><path codeLine="116" d="M815.8,544.984 C815.8,536.128 815.8,530.8 815.8,530.8 C815.8,530.8 268.64,530.8 268.64,530.8 C268.64,530.8 268.64,520.672 268.64,511.816 " fill="none" id="Assembler-backto-PDESolver" style="stroke:#181818;stroke-width:0.8000000000000002;"/><polygon fill="#181818" points="815.8,549.784,819,542.584,815.8,545.784,812.6,542.584,815.8,549.784" style="stroke:#181818;stroke-width:0.8000000000000002;"/></g><!--reverse link PDESolver to TimeLoop--><g id="link_PDESolver_TimeLoop"><path codeLine="117" d="M252.72,516.552 C252.72,527.656 252.72,538.768 252.72,549.864 " fill="none" id="PDESolver-backto-TimeLoop" style="stroke:#181818;stroke-width:0.8000000000000002;"/><polygon fill="#181818" points="252.72,511.752,249.52,518.952,252.72,515.752,255.92,518.952,252.72,511.752" style="stroke:#181818;stroke-width:0.8000000000000002;"/></g><!--link TimeLoop to Assembler--><g id="link_TimeLoop_Assembler"><path codeLine="118" d="M300.48,549.768 C300.48,544.84 300.48,540.4 300.48,540.4 C300.48,540.4 836.8,540.4 836.8,540.4 C836.8,540.4 836.8,540.04 836.8,544.968 " fill="none" id="TimeLoop-to-Assembler" style="stroke:#181818;stroke-width:0.8000000000000002;"/><polygon fill="#181818" points="836.8,549.768,840,542.568,836.8,545.768,833.6,542.568,836.8,549.768" style="stroke:#181818;stroke-width:0.8000000000000002;"/></g><!--link Problem to Assembler--><g id="link_Problem_Assembler"><path codeLine="119" d="M1499.064,336.632 C1499.064,386.984 1499.064,566 1499.064,566 C1499.064,566 1029.656,566 883.784,566 " fill="none" id="Problem-to-Assembler" style="stroke:#181818;stroke-width:0.8000000000000002;"/><polygon fill="#181818" points="878.984,566,886.184,569.2,882.984,566,886.184,562.8,878.984,566" style="stroke:#181818;stroke-width:0.8000000000000002;"/></g><!--link SolutionVector to Assembler--><g id="link_SolutionVector_Assembler"><path codeLine="120" d="M1153.6,511.864 C1153.6,529.944 1153.6,560.4 1153.6,560.4 C1153.6,560.4 969.848,560.4 883.672,560.4 " fill="none" id="SolutionVector-to-Assembler" style="stroke:#181818;stroke-width:0.8000000000000002;"/><polygon fill="#181818" points="878.872,560.4,886.072,563.6,882.872,560.4,886.072,557.2,878.872,560.4" style="stroke:#181818;stroke-width:0.8000000000000002;"/></g><!--link GridVariables to Assembler--><g id="link_GridVariables_Assembler"><path codeLine="121" d="M1047.6,447.728 C1047.6,478.888 1047.6,555.6 1047.6,555.6 C1047.6,555.6 945.272,555.6 883.752,555.6 " fill="none" id="GridVariables-to-Assembler" style="stroke:#181818;stroke-width:0.8000000000000002;"/><polygon fill="#181818" points="878.952,555.6,886.152,558.8,882.952,555.6,886.152,552.4,878.952,555.6" style="stroke:#181818;stroke-width:0.8000000000000002;"/></g><!--link SpatialParams to Problem--><g id="link_SpatialParams_Problem"><path codeLine="122" d="M1427.368,323.6 C1435.448,323.6 1434.048,323.6 1441.68,323.6 " fill="none" id="SpatialParams-to-Problem" style="stroke:#181818;stroke-width:0.8000000000000002;"/><polygon fill="none" points="1451.28,323.6,1446.48,320.4,1441.68,323.6,1446.48,326.8,1451.28,323.6" style="stroke:#181818;stroke-width:0.8000000000000002;"/></g><!--link Properties to main--><g id="link_Properties_main"><path codeLine="123" d="M1931.182,134 C1931.1175,134 1931.0527,134 1930.9873,134 C1930.726,134 1930.4575,134 1930.182,134 C1925.774,134 1919.568,134 1912.016,134 " fill="none" id="Properties-main" style="stroke:#181818;stroke-width:0.8000000000000002;"/></g><!--link Properties to GridGeometry--><!--link Properties to GridVariables--><!--link Properties to PrimaryVariables--><!--link Properties to SolutionVector--><!--link Properties to Assembler--><!--link Properties to LocalAssembler--><!--link Properties to LocalResidual--><!--link Properties to PDESolver--><!--link Properties to TimeLoop--><!--link Properties to IOField--><!--link Properties to VTKOutputModule--><!--link Properties to SpatialParams--><!--link Properties to Problem--><!--reverse link DuMux to Properties--><g id="link_DuMux_Properties"><path codeLine="141" d="M173.064,219.5055 C173.064,219.3064 173.064,228.4098 173.064,228.2194 C173.064,227.8388 173.064,227.4758 173.064,227.1313 C173.064,224.375 173.064,222.8 173.064,222.8 C173.064,222.8 1944.6,222.8 1944.6,222.8 C1944.6,222.8 1944.6,217.2 1944.6,208.8 C1944.6,204.6 1944.6,199.7 1944.6,194.45 C1944.6,191.825 1944.6,189.1125 1944.6,186.3563 C1944.6,186.0117 1944.6,185.6665 1944.6,185.3207 C1944.6,185.1478 1944.6,184.9747 1944.6,184.8015 " fill="none" id="DuMux-backto-Properties" style="stroke:#FF0000;stroke-width:0.8000000000000002;"/><polygon fill="none" points="173.064,229.1055,176.264,224.3055,173.064,219.5055,169.864,224.3055,173.064,229.1055" style="stroke:#FF0000;stroke-width:0.8000000000000002;"/></g><!--reverse link Dune to Properties--><g id="link_Dune_Properties"><path codeLine="142" d="M782.3761,794.8 C789.7544,794.8 787.5492,794.8 794.9586,794.8 C854.2345,794.8 914.4513,794.8 974.668,794.8 C1456.402,794.8 1938.136,794.8 1938.136,794.8 C1938.136,794.8 1938.136,632.072 1938.136,468.073 C1938.136,386.0735 1938.136,303.7563 1938.136,241.3034 C1938.136,225.6902 1938.136,211.3185 1938.136,198.5036 C1938.136,195.2999 1938.136,192.1935 1938.136,189.1894 C1938.136,188.4383 1938.136,187.6937 1938.136,186.9555 " fill="none" id="Dune-backto-Properties" style="stroke:#FF0000;stroke-width:0.8000000000000002;"/><polygon fill="none" points="772.7761,794.8,777.5761,798,782.3761,794.8,777.5761,791.6,772.7761,794.8" style="stroke:#FF0000;stroke-width:0.8000000000000002;"/></g><!--link params to Output--><!--SRC=[bLTjQ-Gs4FwkNo7sljmTiHDQ2cKlNIYaNK8JBdItWMDP5iNMRKHioqXosYNiVwzaMoyZsxivVx9d7er6e-SPoJ8Z1SLNwQz8yHehZf-uKhp4EHCqKunNw9db5DEoLWTSqlA92eaaLLZIcWYYkC0LhoYIBwmoXX8NhABhGqqn5-gP1uwAvrIFmZzV1KP1gfVUY6gIlP0znRD_91LubT6A2CPd-0tX_iaA8YL-4FofeENRCRAlQg8OAHvCO8atc_GoJI-VLLbSxWLlwjrk9pl4hfsRAhsMrFYtso3MTwOBKdSnYCGpvp1FPqzrzeq2ZaG_m72TwUKkW6cpPYMzuxpU0lEDkgsOIGl_Xd_wvGf_m1i94McQmjYNCFWC9byILWrJDzOqotuuQrQfTkn7yqB4Fhl0sJCHdp-RZzTF0Fi6liPIDqyZMRN7XYDhijUBrljPKw4ObVFvMflcSptgom-4wWcXGosfCj5CxEj-WWiGluSkXk59ezbVkqXIvVDvILxeJkhLqlpQZlou5onVKgxv8mwVpgTvVCVMEURxL6TubC6r0_JC3MhkefWYpgBDa4eqcSBtXxui0UExjoCwUWNUD1Mr4PmnryQ4ILKOJoUvsUrgVOSbBrwrbcR0M18bM4OZwwlkAjn0ZoEnJMM3sD-8h9V656RM0ZDUbhmAe0zMq6j1JU9cCM0vzyr_W_Ki- -ayqQduJZAAZUEUL1eaV9cW-v7HVxslos8P4EFD5XNC-AWR6j4iai6qVgppne4V12k9E4pwLxneJAz-R8ixFlNlKkhkNHncexGYlNT8gcw6VdHOZzvpn_K9SiRzDvKiRqYXlMEfwVHVjOn76ltD7wkMMgCvwtF7d3L4kAJzv7wpxbh8YJ2JCReSRCyUh-hNHkcJO9ZvxTS_6ItoGRJ7zL_Ta7kUDmLrmaEzufADFcvpMcsRf7qiTP6bC0H49-K4Ai43N20tXnKTrAiSGNKFa97Ce-znkDC__1o0eQ2HxmLdix1R4kCiov3dMmnn6a61N6AGr_1xKO7gOrZNtaOH-LZL09klapo9Ex1JOkZrrPaQxoO0dJZHz5c4tH05xyRhMY6oByQw09qGXH_jeFua7JWulC55VbkN1FRA25NesLqDu7BrQXU-fI3GcJedx6K8VdOGxmLPT1F7wexxjWd1eswD-bQ1av40uMucGUw-CHgxRL78lhInVARsUWIjC8t86IqE3WJNx4Je9TaTRM-UkXJ1bMjKaEVKU5wAxr6ObPTFHdi_wBlS1Q2I8-eaBeyvDuaKoU2mFZLzH8KJIB2RKw28l-UGblodW07dfa6EW2SmFSrFGORocIuSQ1IJG4TCUp3oph-53EtEtb5V_oCOT6Ltw2E4_WS0]--></g></svg>